<svg width="157" height="158" fill="none" xmlns="http://www.w3.org/2000/svg"><path d="M83.739 42.459l-.011-1.383-.32-34.266L78.404.856l-.788 1.352-.373.644-2.564 4.396-.011.024-.64 33.64-.005.241-2.098 110.036 12.337-.209-.523-108.521z" fill="url(#paint0_linear_8_62)"/><path d="M83.739 42.459l-.011-1.382-.32-34.267L78.404.856l-.788 1.352-.373.644 1.58 1.874 3.141 3.734-.057 32.589-.195 108.558 2.55 1.373-.523-108.521z" fill="#FFD76B"/><path d="M75.957 8.612l-1.278-1.364 2.564-4.396.373-.644 1.594 1.994-3.253 4.41z" fill="#FFD76B"/><path d="M75.926 7.411l-.967 141.407" stroke="#FFD76B" stroke-width=".5" stroke-miterlimit="10"/><defs><linearGradient id="paint0_linear_8_62" x1="43.547" y1="112.986" x2="135.344" y2="13.476" gradientUnits="userSpaceOnUse"><stop stop-color="#F7D496"/><stop offset="1" stop-color="#F7D496" stop-opacity="0"/></linearGradient></defs></svg>