<svg width="1496" height="1332" fill="none" xmlns="http://www.w3.org/2000/svg"><path d="M174 864.468l-28 14.652v-83.916l28-6.66v75.924zm33-18.648l-28 14.652v-83.916l28-6.66v75.924zm101-41.292l-28 14.652v-83.916l28-6.66v75.924zm100-41.292l-28 14.652v-83.916l28-6.66v75.924zm-67 22.644l-28 14.652v-83.916l28-6.66v75.924z" fill="#F7D496"/><path d="M150 796.536v186.48l-8 23.974V793.899l8 2.637z" fill="#3E2211"/><path d="M142 788.544v218.446H-20V855.144l162-66.6z" fill="#250F08"/><path d="M295 742.217V881.36l-4.424 8.87V740.362l4.424 1.855z" fill="#3E2211"/><path d="M290.576 736.596V890.23H201V780.772l89.576-44.176z" fill="#250F08"/><path d="M392.628 706.463v115.655l-3.542 2.844V704.978l3.542 1.485z" fill="#3E2211"/><path d="M389.086 701.964v122.998H319V736.8l70.086-34.836z" fill="#250F08"/><path d="M-19 776.556s462-142.141 601-135.864V666S186 745.92-49 915.084l30-138.528z" fill="#2C1A0F"/><path d="M456 709.956l57-39.96s32 15.984 17 34.632c-15 18.648-31 21.312-31 21.312l-43-15.984zm3 86.58l57-39.96s32 15.984 17 34.632c-15 18.648-35 25.308-35 25.308l-39.455 3.389.455-23.369z" fill="#26160E"/><path opacity=".22" d="M761-11.988h-28V1343.99h28V-11.988zm57 0h-28V1343.99h28V-11.988zm-114 0h-28V1343.99h28V-11.988z" fill="#885B30"/><path d="M727 44.929h-18v30.636h18V44.929zm0 38.628h-18v30.636h18V83.557z" fill="#F7D496" fill-opacity=".2"/><path d="M727 136.107h-18v30.636h18v-30.636zm0 38.628h-18v30.636h18v-30.636z" fill="#F7D496" fill-opacity=".5"/><path d="M727 266.666h-18v30.636h18v-30.636zm0 38.628h-18v30.636h18v-30.636zm0 64.736h-18v30.636h18V370.03zm0 38.628h-18v30.636h18v-30.636z" fill="#F7D496"/><path d="M727 481.554h-18v30.636h18v-30.636zm0 38.628h-18v30.636h18v-30.636z" fill="#F7D496" fill-opacity=".5"/><path d="M727 576.756h-18v30.636h18v-30.636zm0 38.628h-18v30.636h18v-30.636z" fill="#F7D496" fill-opacity=".3"/><path d="M727 745.92h-18v30.636h18V745.92z" fill="#F7D496" fill-opacity=".25"/><path d="M727 784.548h-18v30.636h18v-30.636z" fill="#F7D496" fill-opacity=".15"/><path d="M727 849.283h-18v30.636h18v-30.636z" fill="#F7D496" fill-opacity=".2"/><path d="M727 887.911h-18v30.636h18v-30.636z" fill="#F7D496" fill-opacity=".14"/><path d="M727 933.449h-18v30.636h18v-30.636zm0 69.221h-18v30.64h18v-30.64z" fill="#F7D496" fill-opacity=".3"/><path d="M727 1056.01h-18v30.64h18v-30.64zm0 38.63h-18v30.63h18v-30.63zm0 121.71h-18v30.63h18v-30.63z" fill="#F7D496" fill-opacity=".2"/><path d="M785 745.92h-18v30.636h18V745.92z" fill="#F7D496" fill-opacity=".25"/><path d="M785 784.548h-18v30.636h18v-30.636z" fill="#F7D496" fill-opacity=".15"/><path d="M785 849.283h-18v30.636h18v-30.636z" fill="#F7D496" fill-opacity=".2"/><path d="M785 887.911h-18v30.636h18v-30.636z" fill="#F7D496" fill-opacity=".14"/><path d="M785 933.449h-18v30.636h18v-30.636zm0 69.221h-18v30.64h18v-30.64z" fill="#F7D496" fill-opacity=".3"/><path d="M785 1056.01h-18v30.64h18v-30.64zm0 38.63h-18v30.63h18v-30.63zm0 121.71h-18v30.63h18v-30.63zm0-1171.421h-18v30.636h18V44.929zm0 38.628h-18v30.636h18V83.557z" fill="#F7D496" fill-opacity=".2"/><path d="M785 136.107h-18v30.636h18v-30.636zm0 38.628h-18v30.636h18v-30.636z" fill="#F7D496" fill-opacity=".5"/><path d="M785 266.666h-18v30.636h18v-30.636zm0 38.628h-18v30.636h18v-30.636zm0 64.736h-18v30.636h18V370.03zm0 38.628h-18v30.636h18v-30.636z" fill="#F7D496"/><path d="M785 481.554h-18v30.636h18v-30.636zm0 38.628h-18v30.636h18v-30.636z" fill="#F7D496" fill-opacity=".5"/><path d="M785 576.756h-18v30.636h18v-30.636zm0 38.628h-18v30.636h18v-30.636z" fill="#F7D496" fill-opacity=".3"/><path opacity=".73" d="M913 400.932c-14.683-1.243-24.017-.355-28 2.664v17.316h-23v380.952c5 7.992 26 9.324 51 5.328v-406.26z" fill="#302924"/><path d="M907 400.519v408.005h-9V400.466l9 .053z" fill="#170000"/><path opacity=".73" d="M582 400.932c14.683-1.243 24.017-.355 28 2.664v17.316h23v380.952c-5 7.992-26 9.324-51 5.328v-406.26z" fill="#302924"/><path d="M597 400.466v408.058h-9V400.519l9-.053z" fill="#170000"/><path d="M582 576.756v38.628s-81.31 2.224-185.43 6.54c-7.6.307-15.32.631-23.16.973-2.26.093-4.54.186-6.82.293A11252.616 11252.616 0 00263 628.145a8726.06 8726.06 0 00-34 1.851c-3.34.2-6.68.386-10 .586-4.46.253-8.907.515-13.34.786-53.03 3.17-103.58 6.807-145.3 10.883-24.93 2.437-46.7 5.034-63.96 7.778-20.86 3.33-35.13 6.874-40.4 10.643V511.488s381 47.952 441 53.28c60 5.328 185 11.988 185 11.988zm0-58.382v32.035s-55.2-6.367-126-18.022c-9.21-1.518-18.68-3.13-28.33-4.822a2530.2 2530.2 0 01-6.84-1.212c-9.33-1.665-18.8-3.41-28.33-5.235-25.51-4.861-51.5-10.296-76.5-16.237a1134.908 1134.908 0 01-37.25-9.484c-3.03-.825-6.03-1.665-9-2.517a687.375 687.375 0 01-13.75-4.036 1778.2 1778.2 0 01-23.5-7.326c-20.35-6.46-41.85-13.626-63.5-21.046a4675.519 4675.519 0 01-43.5-15.158c-3.52-1.252-7.02-2.495-10.5-3.729a5836.824 5836.824 0 01-43.5-15.691C9.42 403.263-38 384.948-38 384.948V266.4s218 119.88 307 157.176c89 37.296 243 87.912 313 94.798zM-22 101.232s179 161.172 328 250.416c79.64 47.701 216 107.892 276 114.371v28.499S451 474.192 287 379.62-28 178.488-28 178.488l6-77.256z" fill="#2C1A0F"/><path opacity=".12" d="M-4 9.324s106 114.552 174 178.488c68 63.936 144 125.208 228 133.2 69.09 6.573 187.566 12.246 227.448 14.052 1.755.08 3.481.63 5.073 1.619 1.592.988 3.018 2.394 4.193 4.133 1.175 1.74 2.075 3.777 2.645 5.99.57 2.213.799 4.557.674 6.891l-.033.615h38v38.615l-43 .013v-13.32s-120-1.332-159-2.664-105-3.996-178.563-46.281C224.377 289.829-44 65.268-44 65.268L-4 9.324z" fill="#885B30"/><path opacity=".12" d="M84-146.52s39.138 78.811 99 155.844c59 75.924 128 186.48 204 202.464 69.192 14.552 197.634 22.406 238.883 24.636 1.72.093 3.409.638 4.97 1.603s2.963 2.331 4.127 4.02c1.163 1.689 2.064 3.668 2.652 5.823.587 2.155.849 4.443.771 6.732L638 266.4h38v38.615l-43 .013v-22.644s-116.987-9.324-156-9.324c-58 0-116-6.66-179-55.944C231.264 164.909 7-111.888 7-111.888l77-34.632z" fill="#885B30"/><path opacity=".12" d="M224-117.216c59 75.924 80 177.156 159 213.12 47.613 21.675 199.213 41.144 243.648 46.5 3.334.402 6.425 2.494 8.634 5.843 2.21 3.35 3.37 7.702 3.24 12.158L638 178.488h38v38.615l-43 .013v-22.644c4.057 1.863-95.324-14.577-149-21.312-57.744-7.245-91.476-6.536-155-54.612-44-33.3-155-223.776-155-223.776l50-11.988z" fill="#885B30"/><path opacity=".12" d="M425 0c37 22.644 167 42.624 201.648 54.492 6.734 2.307 12.141 8.746 11.874 18L638 90.577h38v38.615l-43 .013V106.56c4.057 1.863-96-26.64-154-37.296-57.456-10.556-116.632-29.188-136-74.592-25-58.608 6.138-41.1 82 5.328z" fill="#885B30"/><path d="M429.595 620.583v40.089S511 659.34 534 691.308V646.02s-35-27.972-73.049-26.632c-30.956 1.091-31.356 1.195-31.356 1.195zm25.999 89.258v41.99S511 749.916 537 781.884v-44.426c-17-16.846-55-27.502-81.406-27.617z" fill="#3E2211"/><path opacity=".44" d="M670 496.836h-30v34.632h30v-34.632zm0 83.916h-30v34.632h30v-34.632zm0 99.9h-30V792.54h30V680.652zm0-258.408h-30v34.632h30v-34.632z" fill="#885B30"/><path d="M676 843.702h-36s3 15.438-16 16.77c-19 1.332-99-2.664-140 2.664s-112 25.308-215 127.872C182.31 1077.32-13 1322.68-13 1322.68v-138.53s168-170.5 259-247.754c58.22-49.431 109.49-87.952 161.66-107.546 29.36-11.029 59.01-16.064 90.34-13.666 87 6.66 140 0 142-6.66s0-9.324 0-9.324h36v44.502z" fill="#220D08"/><path d="M676 885.78h-36s2 2.664 0 9.324-55 13.32-142 6.66c-30.35-2.368-60.781 2.136-90 13.32-52.17 19.594-92.844 56.747-154 123.876C146 1157.51-.5 1343.32-.5 1343.32l25.5-5.93c18.987-.29 37.973-.18 56.96.35 4.021.1 8.042.22 12.063.36 54.23-84.64 128.173-196.21 174.977-251.19 110-129.202 151-134.53 215-137.194 41.175-1.714 121-1.332 140-2.664s16-16.77 16-16.77h36V885.78z" fill="#220D08"/><path d="M676 968.364h-36s2 10.656 0 17.316c-2 6.66-55 13.32-142 6.66-31.33-2.398-68.64 4.955-98 15.98-52.17 19.6-84.91 41.42-143 113.22-58.911 72.82-115.004 155.39-154.678 216.85 18.718.68 37.431 1.59 56.142 2.59 46.764-71.89 95.541-145.52 127.536-190.13 64-89.25 134-107.89 198-110.56 41.175-1.71 121-1.33 140-2.66s16-26.64 16-26.64h36v-42.626z" fill="#220D08"/><path d="M676 1058.94h-36s2 21.31 0 27.97-73-1.33-160-7.99c-31.33-2.4-68.64 2.29-98 13.32-52.17 19.59-91.91 49.41-150 121.21-46.785 57.83-87.351 122.04-118.631 176.99 17.147 3.76 34.32 7.32 51.495 10.87 41.02-68.2 82.713-134.65 112.136-174.54 56-75.92 131.032-105.02 195-101.23 45 2.66 133 14.65 152 13.32s16-37.3 16-37.3h36v-42.62z" fill="#220D08"/><path d="M676 1148.18h-36s2 23.98 0 30.64-91-11.99-178-18.65c-31.33-2.4-68.285 1.47-98 10.66-56 17.31-91.91 37.42-150 109.22-14.71 18.18-27.023 39.5-37.968 61.89 21.921 1.21 43.842 2.46 65.768 3.51 6.718-12.75 14.138-24.81 22.2-36.09 56-75.93 125.032-106.35 189-102.57 45 2.67 152 25.31 171 23.98 19-1.33 16-39.96 16-39.96h36v-42.63z" fill="#220D08"/><path d="M676 1233.43h-36s2 26.64 0 33.3c-2 6.66-109-31.97-196-38.63-31.33-2.39-72.285 2.8-102 11.99-50.807 15.71-85.902 44.69-135.354 103.55 27.455 1.5 54.912 2.86 82.382 3.62 49.972-64.54 97.339-72.81 146.972-69.87 45 2.66 169 42.62 188 41.29 19-1.33 16-42.62 16-42.62h36v-42.63z" fill="#220D08"/><path opacity=".16" d="M407.66 828.85C345.71 867.984 274.91 944.907 214 999c-63.27 56.18-189.17 204.32-227 249.27v-64.12s168-170.5 259-247.754c58.22-49.431 109.49-87.952 161.66-107.546z" fill="#F7D496"/><path d="M1321 864.468l28 14.652v-83.916l-28-6.66v75.924zm-33-18.648l28 14.652v-83.916l-28-6.66v75.924zm-101-41.292l28 14.652v-83.916l-28-6.66v75.924zm-100-41.292l28 14.652v-83.916l-28-6.66v75.924zm67 22.644l28 14.652v-83.916l-28-6.66v75.924z" fill="#F7D496"/><path d="M1345 796.536v186.48l8 23.974V793.899l-8 2.637z" fill="#3E2211"/><path d="M1353 788.544v218.446h162V855.144l-162-66.6z" fill="#250F08"/><path d="M1200 742.217V881.36l4.42 8.87V740.362l-4.42 1.855z" fill="#3E2211"/><path d="M1204.42 736.596V890.23H1294V778.108l-89.58-41.512z" fill="#250F08"/><path d="M1102.37 706.463v115.655l3.54 2.844V704.978l-3.54 1.485z" fill="#3E2211"/><path d="M1105.91 701.964v122.998H1176v-90.826l-70.09-32.172z" fill="#250F08"/><path d="M1514 776.556s-462-142.141-601-135.864V666s396 79.92 631 249.084l-30-138.528z" fill="#2C1A0F"/><path d="M1039 709.956l-57-39.96s-32 15.984-17 34.632c15 18.648 31 21.312 31 21.312l43-15.984zm-3 86.58l-57-39.96s-32 15.984-17 34.632c15 18.648 35 25.308 35 25.308l39.46 3.389-.46-23.369z" fill="#26160E"/><path d="M913 615.384s585 15.984 626 45.288V511.488s-381 47.952-441 53.28c-60 5.328-185 11.988-185 11.988v38.628zm0-64.969s199-22.943 326-61.571c117.75-35.816 294-103.896 294-103.896V266.4s-218 119.88-307 157.176c-89 37.296-243 87.912-313 94.805v32.034zm604-451.847s-179 161.172-328 250.416c-79.64 47.701-216 110.556-276 117.035v28.499s131-20.326 295-114.898 315-201.132 315-201.132l-6-79.92z" fill="#2C1A0F"/><path opacity=".12" d="M1499 9.324s-106 114.552-174 178.488c-68 63.936-144 125.208-228 133.2-69.09 6.573-187.566 12.246-227.448 14.052-1.755.08-3.481.63-5.073 1.619-1.592.988-3.019 2.394-4.193 4.133-1.175 1.74-2.075 3.777-2.645 5.99-.57 2.213-.8 4.557-.674 6.891l.033.615h-38v38.615l43 .013v-13.32s120-1.332 159-2.664 107 6.66 180.56-35.625C1272.62 300.485 1539 90.576 1539 90.576l-40-81.252z" fill="#885B30"/><path opacity=".12" d="M1411-146.52s-39.14 78.811-99 155.844c-59 75.924-128 186.48-204 202.464-69.19 14.552-197.634 22.406-238.883 24.636-1.72.093-3.409.638-4.97 1.603s-2.963 2.331-4.127 4.02c-1.163 1.689-2.064 3.668-2.652 5.823a22.768 22.768 0 00-.771 6.732L857 266.4h-38v38.615l43 .013v-22.644s116.987-9.324 156-9.324c58 0 116-6.66 179-55.944 66.74-52.207 291-329.004 291-329.004l-77-34.632z" fill="#885B30"/><path opacity=".12" d="M1271-117.216c-59 75.924-80 177.156-159 213.12-47.61 21.675-199.213 41.144-243.648 46.5-3.334.402-6.425 2.494-8.635 5.843-2.209 3.35-3.369 7.702-3.239 12.158l.522 18.083h-38v38.615l43 .013v-22.644c-4.057 1.863 95.324-14.577 149-21.312 57.74-7.245 91.48-6.536 155-54.612 44-33.3 155-223.776 155-223.776l-50-11.988z" fill="#885B30"/><path opacity=".12" d="M1070 0c-37 22.644-167 42.624-201.648 54.492-6.734 2.307-12.141 8.746-11.874 18L857 90.577h-38v38.615l43 .013V106.56c-4.057 1.863 96-26.64 154-37.296 57.46-10.556 116.63-29.188 136-74.592 25-58.608-6.14-41.1-82 5.328z" fill="#885B30"/><path d="M1065.41 620.583v40.089S984 659.34 961 691.308V646.02s35-27.972 73.05-26.632c30.96 1.091 31.36 1.195 31.36 1.195zm-26 89.258v41.99S984 749.916 958 781.884v-44.426c17-16.846 55-27.502 81.41-27.617z" fill="#3E2211"/><path opacity=".44" d="M825 531.468h30v-34.632h-30v34.632zm0 83.916h30v-34.632h-30v34.632zm0 177.156h30V680.652h-30V792.54zm0-335.664h30v-34.632h-30v34.632z" fill="#885B30"/><path d="M819 843.702h36s-3 15.438 16 16.77c19 1.332 99-2.664 140 2.664s112 25.308 215 127.872c86.69 86.312 282 331.672 282 331.672v-138.53s-168-170.5-259-247.754c-58.22-49.431-109.49-87.952-161.66-107.546-29.36-11.029-59.01-16.064-90.34-13.666-87 6.66-140 0-142-6.66s0-9.324 0-9.324h-36v44.502z" fill="#220D08"/><path d="M819 885.78h36s-2 2.664 0 9.324 55 13.32 142 6.66c30.35-2.368 60.78 2.136 90 13.32 52.17 19.594 92.84 56.747 154 123.876 108 118.55 229 270.4 229 270.4v28.03c-18.99-.29-37.97-.18-56.96.35-4.02.1-8.04.22-12.06.36-54.23-84.64-128.18-196.21-174.98-251.19-110-129.202-151-134.53-215-137.194-41.175-1.714-121-1.332-140-2.664s-16-16.77-16-16.77h-36V885.78z" fill="#220D08"/><path d="M819 968.364h36s-2 10.656 0 17.316c2 6.66 55 13.32 142 6.66 31.33-2.398 68.64 4.955 98 15.98 52.17 19.6 84.91 41.42 143 113.22 58.91 72.82 115 155.39 154.68 216.85-18.72.68-37.43 1.59-56.14 2.59-46.77-71.89-95.55-145.52-127.54-190.13-64-89.25-134-107.89-198-110.56-41.175-1.71-121-1.33-140-2.66s-16-26.64-16-26.64h-36v-42.626z" fill="#220D08"/><path d="M819 1058.94h36s-2 21.31 0 27.97 73-1.33 160-7.99c31.33-2.4 68.64 2.29 98 13.32 52.17 19.59 91.91 49.41 150 121.21 46.78 57.83 87.35 122.04 118.63 176.99-17.15 3.76-34.32 7.32-51.49 10.87-41.02-68.2-82.72-134.65-112.14-174.54-56-75.92-131.03-105.02-195-101.23-45 2.66-133 14.65-152 13.32s-16-37.3-16-37.3h-36v-42.62z" fill="#220D08"/><path d="M819 1148.18h36s-2 23.98 0 30.64 91-11.99 178-18.65c31.33-2.4 68.28 1.47 98 10.66 56 17.31 91.91 37.42 150 109.22 14.71 18.18 27.02 39.5 37.97 61.89-21.92 1.21-43.84 2.46-65.77 3.51-6.72-12.75-14.14-24.81-22.2-36.09-56-75.93-125.03-106.35-189-102.57-45 2.67-152 25.31-171 23.98-19-1.33-16-39.96-16-39.96h-36v-42.63z" fill="#220D08"/><path d="M819 1233.43h36s-2 26.64 0 33.3c2 6.66 109-31.97 196-38.63 31.33-2.39 72.28 2.8 102 11.99 50.81 15.71 85.9 44.69 135.35 103.55-27.45 1.5-54.91 2.86-82.38 3.62-46.47-47.12-97.34-72.81-146.97-69.87-45 2.66-169 42.62-188 41.29-19-1.33-16-42.62-16-42.62h-36v-42.63z" fill="#220D08"/><path opacity=".16" d="M1087.34 828.85C1149.29 867.984 1220.09 944.907 1281 999c63.27 56.18 189.17 204.32 227 249.27v-64.12s-168-170.5-259-247.754c-58.22-49.431-109.49-87.952-161.66-107.546z" fill="#F7D496"/><path d="M156.592 1337.41c14.145-21.15 27.819-43.02 41.717-64.69 13.89-21.67 27.999-43.18 42.779-63.86 14.714-20.77 30.264-40.45 46.582-58.97 16.31-18.47 33.636-35.29 51.83-50.32-17.744 15.83-34.573 33.4-50.348 52.58-15.732 19.16-30.671 39.44-44.75 60.76-14.143 21.24-27.603 43.27-40.883 65.53-13.292 22.26-26.389 44.77-40.111 66.8l-6.816-7.83zm32 30.64c13.361-19.93 25.242-41.88 37.293-63.77 12.04-21.9 24.304-43.84 38.16-64.02 13.823-20.17 29.31-38.52 46.621-53.16 17.304-14.55 36.115-25.64 55.834-32.92-19.398 8.19-37.79 20.12-54.59 35.42-16.705 15.31-31.424 34.09-44.489 54.62-13.097 20.55-24.609 42.8-36.02 65.24-11.426 22.43-22.78 45.17-35.993 66.41l-6.816-7.82zm55.323-3.04c10.606-17.76 20.332-36.59 30.528-55.21 10.203-18.55 21.104-36.96 34.393-52.21 6.637-7.6 13.853-14.26 21.53-19.86 7.656-5.53 15.713-10.01 24.048-13.38 8.287-3.33 16.754-5.81 25.326-7.42 8.557-1.56 17.159-2.4 25.76-2.81-8.582.91-17.13 2.25-25.578 4.29-8.424 2.08-16.715 5.02-24.802 8.79-8.037 3.76-15.768 8.59-23.072 14.43-7.253 5.85-14.026 12.69-20.208 20.42-12.355 15.49-22.367 33.95-31.865 52.91-9.487 18.99-18.655 38.53-28.89 57.29l-7.17-7.24zm1089.175-17.11c-13.72-22.02-26.82-44.54-40.11-66.79-13.28-22.27-26.74-44.3-40.88-65.53-14.08-21.32-29.02-41.61-44.75-60.77-15.78-19.17-32.61-36.75-50.35-52.58 18.19 15.03 35.52 31.85 51.83 50.32 16.32 18.52 31.87 38.21 46.58 58.97 14.78 20.69 28.89 42.19 42.78 63.87 13.9 21.66 27.57 43.54 41.72 64.68l-6.82 7.83zm-32 30.64c-13.21-21.25-24.56-43.99-35.99-66.41-11.41-22.44-22.92-44.69-36.02-65.24-13.07-20.54-27.78-39.32-44.49-54.63-16.8-15.29-35.19-27.23-54.59-35.42 19.72 7.28 38.53 18.38 55.83 32.93 17.31 14.64 32.8 32.98 46.63 53.15 13.85 20.19 26.11 42.13 38.16 64.02 12.05 21.89 23.93 43.84 37.29 63.77l-6.82 7.83zm-55.67-3.62c-10.24-18.76-19.41-38.3-28.89-57.3-9.5-18.96-19.51-37.42-31.87-52.9-6.18-7.73-12.95-14.58-20.21-20.43-7.3-5.83-15.03-10.67-23.07-14.43-8.09-3.77-16.38-6.7-24.8-8.78-8.45-2.05-17-3.38-25.58-4.3 8.6.42 17.2 1.26 25.76 2.82 8.57 1.6 17.04 4.08 25.33 7.42 8.33 3.36 16.39 7.84 24.04 13.38 7.68 5.6 14.9 12.25 21.53 19.85 13.29 15.26 24.19 33.66 34.4 52.22 10.19 18.61 19.92 37.45 30.53 55.2l-7.17 7.25zM429.5 618.714a111.284 111.284 0 0127.208-3.11c9.147-.052 18.283.855 27.323 2.715 4.523.972 9.025 2.151 13.477 3.643a103.397 103.397 0 0113.144 5.485 93.428 93.428 0 0112.523 7.625c4.003 2.958 7.794 6.4 11.325 10.282-4.093-2.683-8.178-5.179-12.364-7.319-2.105-1.035-4.185-2.116-6.324-2.995-2.11-.97-4.256-1.805-6.39-2.661a188.697 188.697 0 00-12.991-4.265 198.959 198.959 0 00-13.173-3.217c-8.833-1.828-17.742-3.135-26.702-4.12-8.965-.934-17.963-1.598-27.056-2.063zm0 43.956a113.714 113.714 0 0127.319-2.116 137.032 137.032 0 0127.32 3.553c4.514 1.094 9.006 2.389 13.446 3.979a108.69 108.69 0 0113.102 5.745 98.13 98.13 0 0112.49 7.794c3.997 2.995 7.786 6.459 11.323 10.349-4.101-2.692-8.189-5.213-12.377-7.396-2.105-1.059-4.185-2.162-6.323-3.073-2.11-.997-4.254-1.871-6.387-2.761a206.36 206.36 0 00-12.982-4.531 218.018 218.018 0 00-13.165-3.55c-8.828-2.07-17.736-3.656-26.697-4.943-8.967-1.239-17.97-2.228-27.069-3.05zm26 46.62c7.12-2.054 14.414-2.827 21.688-2.299 7.3.4 14.55 1.816 21.629 4.223 3.567 1.073 7.024 2.708 10.49 4.229a90.82 90.82 0 0110.051 5.807c6.544 4.266 12.642 9.648 18.142 16.012-6.651-3.917-13.004-8.095-19.709-11.209-3.272-1.785-6.679-3.076-10.002-4.626l-5.081-1.949c-.847-.319-1.682-.696-2.537-.979l-2.57-.827a154.246 154.246 0 00-20.777-5.485c-7.019-1.395-14.096-2.34-21.324-2.897zm0 45.288c7.12-2.054 14.414-2.827 21.688-2.299 7.3.4 14.55 1.816 21.629 4.223 3.567 1.073 7.024 2.708 10.49 4.229a90.83 90.83 0 0110.051 5.808c6.544 4.265 12.642 9.647 18.142 16.011-6.651-3.917-13.004-8.095-19.709-11.209-3.272-1.785-6.679-3.076-10.002-4.626l-5.081-1.949c-.847-.319-1.682-.696-2.537-.979l-2.57-.827a154.246 154.246 0 00-20.777-5.485c-7.019-1.395-14.096-2.34-21.324-2.897zm-6.081 59.849a95.07 95.07 0 0118.848-4.604 133.831 133.831 0 0119.107-1.389 118.04 118.04 0 0119.129 1.509c6.367.999 12.65 2.791 18.765 5.353-6.429.127-12.717-.121-19.024-.128l-18.871-.077-18.901-.056c-6.32-.084-12.644-.156-19.053-.608zM1065.5 618.714c-9.09.465-18.09 1.129-27.06 2.063-8.96.985-17.86 2.292-26.7 4.12-4.41.931-8.8 2.003-13.171 3.217a188.519 188.519 0 00-12.991 4.265c-2.134.856-4.28 1.691-6.39 2.661-2.14.879-4.219 1.96-6.324 2.995-4.186 2.14-8.271 4.636-12.364 7.319 3.53-3.882 7.321-7.324 11.325-10.282a93.428 93.428 0 0112.523-7.625c4.302-2.15 8.69-3.981 13.144-5.485 4.448-1.492 8.958-2.671 13.478-3.643 9.04-1.86 18.17-2.767 27.32-2.715 9.12-.092 18.23.95 27.21 3.11zm0 43.956c-9.1.822-18.1 1.811-27.07 3.05-8.96 1.287-17.87 2.873-26.7 4.943-4.41 1.051-8.8 2.234-13.161 3.55a206.36 206.36 0 00-12.982 4.531c-2.133.89-4.278 1.764-6.387 2.761-2.139.911-4.218 2.014-6.323 3.073-4.188 2.183-8.276 4.704-12.377 7.396 3.537-3.89 7.326-7.354 11.323-10.349a98.13 98.13 0 0112.49-7.794 108.69 108.69 0 0113.102-5.745c4.435-1.59 8.935-2.885 13.445-3.979a137.08 137.08 0 0127.32-3.553c9.14-.4 18.28.308 27.32 2.116zm-26 46.62c-7.23.557-14.31 1.502-21.32 2.897a154.3 154.3 0 00-20.781 5.485l-2.57.827c-.855.283-1.69.66-2.537.979l-5.081 1.949c-3.323 1.55-6.73 2.841-10.002 4.626-6.705 3.114-13.059 7.292-19.709 11.209 5.499-6.364 11.598-11.746 18.142-16.012a90.82 90.82 0 0110.051-5.807c3.466-1.521 6.923-3.156 10.49-4.229 7.077-2.407 14.327-3.823 21.627-4.223 7.28-.528 14.57.245 21.69 2.299zm0 45.288c-7.23.557-14.31 1.502-21.32 2.897a154.3 154.3 0 00-20.781 5.485l-2.57.827c-.855.283-1.69.66-2.537.979l-5.081 1.949c-3.323 1.55-6.73 2.841-10.002 4.626-6.705 3.114-13.059 7.292-19.709 11.209 5.499-6.364 11.598-11.747 18.142-16.012a90.989 90.989 0 0110.051-5.808c3.466-1.52 6.923-3.156 10.49-4.229 7.077-2.406 14.327-3.822 21.627-4.222 7.28-.528 14.57.245 21.69 2.299zm6.08 59.849c-6.41.452-12.73.524-19.05.608l-18.9.057-18.875.076c-6.306.007-12.594.255-19.023.128 6.115-2.562 12.398-4.354 18.765-5.353a118.035 118.035 0 0119.133-1.509c6.38.005 12.76.469 19.1 1.389a94.936 94.936 0 0118.85 4.604z" fill="#170000"/><path opacity=".3" d="M115 393.606v47.979a5836.824 5836.824 0 01-43.5-15.691v-52.268l43.5 19.98zm10.5 51.708v-47.712l43.5 19.98v42.89l-43.5-15.158zm144.25 12.028v35.538a687.375 687.375 0 01-13.75-4.036 1778.2 1778.2 0 01-23.5-7.326v-41.292l37.25 17.116zM316 477.868v27.013a1134.908 1134.908 0 01-37.25-9.484v-34.632L316 477.868zm104.83 24.416v24.069c-9.33-1.665-18.8-3.41-28.33-5.235v-29.197l28.33 10.363zm35.17 10.27v19.833c-9.21-1.518-18.68-3.13-28.33-4.822v-22.684l28.33 7.673zm920.5-118.948v47.979a5836.824 5836.824 0 0043.5-15.691v-52.268l-43.5 19.98zm-54 66.866v-42.89l43.5-19.98v47.712l-43.5 15.158zm-100.75-3.13v35.538c4.67-1.319 9.25-2.664 13.75-4.036a1778.2 1778.2 0 0023.5-7.326v-41.292l-37.25 17.116zm-46.25 20.526v27.013c12.74-3.023 25.22-6.194 37.25-9.484v-34.631l-37.25 17.102zm-104.83 24.416v24.069c9.33-1.665 18.8-3.41 28.33-5.235v-29.197l-28.33 10.363zm-35.17 10.269v19.834c9.21-1.519 18.68-3.13 28.33-4.822v-22.684l-28.33 7.672z" fill="#F7D496"/><path opacity=".5" d="M205.66 631.368L185 632.7v-55.944l34 3.996v49.83l-13.34.786zM263 586.08v42.065a8726.06 8726.06 0 00-34 1.851v-47.912l34 3.996zM60.36 567.658v74.592c-24.93 2.438-46.7 5.035-63.96 7.779v-89.896l63.96 7.525zm306.23 22.471v33.061c-7.64.333-15.36.674-23.16 1.025v-36.803l23.16 2.717zm29.98 31.795v-28.158l-23.16-2.718v31.848l23.16-.972zm879 8.658v-49.83l34-3.996V632.7l-20.66-1.332-13.34-.786zm-44-44.502v42.065c11.36.599 22.72 1.212 34 1.851v-47.912l-34 3.996zm202.64-18.422v74.592c24.93 2.438 46.7 5.035 63.96 7.779v-89.896l-63.96 7.525zm-306.23 22.471v33.06c7.64.333 15.36.675 23.16 1.026v-36.803l-23.16 2.717zm-6.82 32.767v-31.848l-23.16 2.718v28.158l23.16.972z" fill="#F7D496"/><path style="mix-blend-mode:screen" opacity=".15" d="M637-77.256H291V1342.66h346V-77.256z" fill="url(#paint0_linear_15_1353)" fill-opacity=".7"/><path style="mix-blend-mode:screen" opacity=".15" d="M851.173-77.256h345.997V1342.66H851.173V-77.256z" fill="url(#paint1_linear_15_1353)" fill-opacity=".5"/><path style="mix-blend-mode:screen" opacity=".15" d="M864 1322.91h346V-97H864v1419.91z" fill="url(#paint2_linear_15_1353)" fill-opacity=".7"/><defs><linearGradient id="paint0_linear_15_1353" x1="291" y1="632.7" x2="637" y2="632.7" gradientUnits="userSpaceOnUse"><stop stop-color="#341500" stop-opacity=".3"/><stop offset=".005" stop-color="#371803" stop-opacity=".308"/><stop offset=".094" stop-color="#735436" stop-opacity=".456"/><stop offset=".182" stop-color="#A58660" stop-opacity=".579"/><stop offset=".264" stop-color="#CCAD81" stop-opacity=".675"/><stop offset=".341" stop-color="#E8C899" stop-opacity=".744"/><stop offset=".41" stop-color="#F9D9A7" stop-opacity=".785"/><stop offset=".465" stop-color="#FFDFAC" stop-opacity=".8"/><stop offset=".599" stop-color="#D2B286" stop-opacity=".845"/><stop offset=".893" stop-color="#5F4025" stop-opacity=".957"/><stop offset="1" stop-color="#341500"/></linearGradient><linearGradient id="paint1_linear_15_1353" x1="1197.17" y1="632.7" x2="851.173" y2="632.7" gradientUnits="userSpaceOnUse"><stop stop-color="#341500" stop-opacity=".3"/><stop offset=".005" stop-color="#371803" stop-opacity=".308"/><stop offset=".094" stop-color="#735436" stop-opacity=".456"/><stop offset=".182" stop-color="#A58660" stop-opacity=".579"/><stop offset=".264" stop-color="#CCAD81" stop-opacity=".675"/><stop offset=".341" stop-color="#E8C899" stop-opacity=".744"/><stop offset=".41" stop-color="#F9D9A7" stop-opacity=".785"/><stop offset=".465" stop-color="#FFDFAC" stop-opacity=".8"/><stop offset=".599" stop-color="#D2B286" stop-opacity=".845"/><stop offset=".893" stop-color="#5F4025" stop-opacity=".957"/><stop offset="1" stop-color="#341500"/></linearGradient><linearGradient id="paint2_linear_15_1353" x1="-294966" y1="-96.998" x2="-414682" y2="-96.998" gradientUnits="userSpaceOnUse"><stop stop-color="#341500" stop-opacity=".3"/><stop offset=".005" stop-color="#371803" stop-opacity=".308"/><stop offset=".094" stop-color="#735436" stop-opacity=".456"/><stop offset=".182" stop-color="#A58660" stop-opacity=".579"/><stop offset=".264" stop-color="#CCAD81" stop-opacity=".675"/><stop offset=".341" stop-color="#E8C899" stop-opacity=".744"/><stop offset=".41" stop-color="#F9D9A7" stop-opacity=".785"/><stop offset=".465" stop-color="#FFDFAC" stop-opacity=".8"/><stop offset=".599" stop-color="#D2B286" stop-opacity=".845"/><stop offset=".893" stop-color="#5F4025" stop-opacity=".957"/><stop offset="1" stop-color="#341500"/></linearGradient></defs></svg>