<svg width="375" height="831" viewBox="0 0 375 831" fill="none" xmlns="http://www.w3.org/2000/svg">
<path d="M-308.31 484.473C-308.31 484.473 -8.9825 395.795 81.0749 399.711V415.5C81.0749 415.5 -175.492 465.36 -327.747 570.897L-308.31 484.473Z" fill="#2C1A0F"/>
<path d="M-0.559814 442.923L36.3703 417.993C36.3703 417.993 57.1029 427.965 47.3845 439.599C37.6661 451.233 27.2997 452.895 27.2997 452.895L-0.559814 442.923Z" fill="#26160E"/>
<path d="M1.38391 496.938L38.3139 472.008C38.3139 472.008 59.0466 481.98 49.3281 493.614C39.6097 505.248 26.6518 509.403 26.6518 509.403L1.08887 511.518L1.38391 496.938Z" fill="#26160E"/>
<path opacity="0.22" d="M197.048 -7.479H178.907V838.479H197.048V-7.479Z" fill="#885B30"/>
<path opacity="0.22" d="M233.978 -7.479H215.837V838.479H233.978V-7.479Z" fill="#885B30"/>
<path opacity="0.22" d="M160.118 -7.479H141.977V838.479H160.118V-7.479Z" fill="#885B30"/>
<path d="M175.02 28.0298H163.358V47.1428H175.02V28.0298Z" fill="#F7D496" fill-opacity="0.2"/>
<path d="M175.02 52.1288H163.358V71.2418H175.02V52.1288Z" fill="#F7D496" fill-opacity="0.2"/>
<path d="M175.02 84.9137H163.358V104.027H175.02V84.9137Z" fill="#F7D496" fill-opacity="0.5"/>
<path d="M175.02 109.013H163.358V128.126H175.02V109.013Z" fill="#F7D496" fill-opacity="0.5"/>
<path d="M175.02 166.366H163.358V185.479H175.02V166.366Z" fill="#F7D496"/>
<path d="M175.02 190.465H163.358V209.578H175.02V190.465Z" fill="#F7D496"/>
<path d="M175.02 230.852H163.358V249.965H175.02V230.852Z" fill="#F7D496"/>
<path d="M175.02 254.951H163.358V274.064H175.02V254.951Z" fill="#F7D496"/>
<path d="M175.02 300.429H163.358V319.542H175.02V300.429Z" fill="#F7D496" fill-opacity="0.5"/>
<path d="M175.02 324.528H163.358V343.641H175.02V324.528Z" fill="#F7D496" fill-opacity="0.5"/>
<path d="M175.02 359.823H163.358V378.936H175.02V359.823Z" fill="#F7D496" fill-opacity="0.3"/>
<path d="M175.02 383.922H163.358V403.035H175.02V383.922Z" fill="#F7D496" fill-opacity="0.3"/>
<path d="M175.02 465.36H163.358V484.473H175.02V465.36Z" fill="#F7D496" fill-opacity="0.25"/>
<path d="M175.02 489.459H163.358V508.572H175.02V489.459Z" fill="#F7D496" fill-opacity="0.15"/>
<path d="M175.02 529.846H163.358V548.959H175.02V529.846Z" fill="#F7D496" fill-opacity="0.2"/>
<path d="M175.02 553.945H163.358V573.058H175.02V553.945Z" fill="#F7D496" fill-opacity="0.14"/>
<path d="M175.02 582.354H163.358V601.467H175.02V582.354Z" fill="#F7D496" fill-opacity="0.3"/>
<path d="M175.02 625.54H163.358V644.653H175.02V625.54Z" fill="#F7D496" fill-opacity="0.3"/>
<path d="M175.02 658.817H163.358V677.93H175.02V658.817Z" fill="#F7D496" fill-opacity="0.2"/>
<path d="M175.02 682.916H163.358V702.029H175.02V682.916Z" fill="#F7D496" fill-opacity="0.2"/>
<path d="M175.02 758.847H163.358V777.96H175.02V758.847Z" fill="#F7D496" fill-opacity="0.2"/>
<path d="M212.598 465.36H200.936V484.473H212.598V465.36Z" fill="#F7D496" fill-opacity="0.25"/>
<path d="M212.598 489.459H200.936V508.572H212.598V489.459Z" fill="#F7D496" fill-opacity="0.15"/>
<path d="M212.598 529.846H200.936V548.959H212.598V529.846Z" fill="#F7D496" fill-opacity="0.2"/>
<path d="M212.598 553.945H200.936V573.058H212.598V553.945Z" fill="#F7D496" fill-opacity="0.14"/>
<path d="M212.598 582.354H200.936V601.467H212.598V582.354Z" fill="#F7D496" fill-opacity="0.3"/>
<path d="M212.598 625.54H200.936V644.653H212.598V625.54Z" fill="#F7D496" fill-opacity="0.3"/>
<path d="M212.598 658.817H200.936V677.93H212.598V658.817Z" fill="#F7D496" fill-opacity="0.2"/>
<path d="M212.598 682.916H200.936V702.029H212.598V682.916Z" fill="#F7D496" fill-opacity="0.2"/>
<path d="M212.598 758.847H200.936V777.96H212.598V758.847Z" fill="#F7D496" fill-opacity="0.2"/>
<path d="M212.598 28.0298H200.936V47.1428H212.598V28.0298Z" fill="#F7D496" fill-opacity="0.2"/>
<path d="M212.598 52.1288H200.936V71.2418H212.598V52.1288Z" fill="#F7D496" fill-opacity="0.2"/>
<path d="M212.598 84.9137H200.936V104.027H212.598V84.9137Z" fill="#F7D496" fill-opacity="0.5"/>
<path d="M212.598 109.013H200.936V128.126H212.598V109.013Z" fill="#F7D496" fill-opacity="0.5"/>
<path d="M212.598 166.366H200.936V185.479H212.598V166.366Z" fill="#F7D496"/>
<path d="M212.598 190.465H200.936V209.578H212.598V190.465Z" fill="#F7D496"/>
<path d="M212.598 230.852H200.936V249.965H212.598V230.852Z" fill="#F7D496"/>
<path d="M212.598 254.951H200.936V274.064H212.598V254.951Z" fill="#F7D496"/>
<path d="M212.598 300.429H200.936V319.542H212.598V300.429Z" fill="#F7D496" fill-opacity="0.5"/>
<path d="M212.598 324.528H200.936V343.641H212.598V324.528Z" fill="#F7D496" fill-opacity="0.5"/>
<path d="M212.598 359.823H200.936V378.936H212.598V359.823Z" fill="#F7D496" fill-opacity="0.3"/>
<path d="M212.598 383.922H200.936V403.035H212.598V383.922Z" fill="#F7D496" fill-opacity="0.3"/>
<path opacity="0.73" d="M295.528 250.131C286.015 249.355 279.968 249.909 277.387 251.793V262.596H262.486V500.262C265.725 505.248 279.331 506.079 295.528 503.586V250.131Z" fill="#302924"/>
<path d="M291.641 249.873V504.126V504.417H289.069H285.81V249.84L291.641 249.873Z" fill="#170000"/>
<path opacity="0.73" d="M81.0752 250.131C90.5885 249.355 96.6355 249.909 99.2163 251.793V262.596H114.118V500.262C110.878 505.248 97.2726 506.079 81.0752 503.586V250.131Z" fill="#302924"/>
<path d="M90.7935 249.84V504.417H87.5346H84.9624V504.126V249.873L90.7935 249.84Z" fill="#170000"/>
<path d="M81.0749 359.823V383.922C81.0749 383.922 28.3946 385.31 -39.0643 388.002C-43.9883 388.193 -48.9901 388.396 -54.0695 388.609C-55.5338 388.667 -57.011 388.725 -58.4882 388.792C-63.4381 388.999 -68.4398 389.213 -73.4934 389.432C-90.546 390.179 -108.091 390.994 -125.604 391.883C-132.964 392.257 -140.324 392.639 -147.632 393.038C-149.796 393.163 -151.96 393.279 -154.111 393.404C-157.001 393.562 -159.882 393.725 -162.754 393.894C-197.112 395.872 -229.863 398.14 -256.893 400.683C-273.045 402.204 -287.15 403.824 -298.332 405.536C-311.848 407.614 -321.093 409.824 -324.507 412.176V319.104C-324.507 319.104 -77.6594 349.02 -38.7857 352.344C0.0880574 355.668 81.0749 359.823 81.0749 359.823Z" fill="#2C1A0F"/>
<path d="M81.075 323.4V343.386C81.075 343.386 45.3112 339.414 -0.559758 332.142C-6.52687 331.195 -12.6624 330.19 -18.9146 329.134C-20.3853 328.885 -21.8625 328.633 -23.3462 328.378C-29.3911 327.339 -35.5267 326.251 -41.7011 325.112C-58.2289 322.079 -75.0677 318.689 -91.2651 314.982C-99.5193 313.096 -107.605 311.118 -115.399 309.066C-117.362 308.55 -119.306 308.027 -121.23 307.495C-124.256 306.672 -127.225 305.833 -130.139 304.977C-135.069 303.531 -140.155 302.01 -145.364 300.406C-158.549 296.376 -172.479 291.905 -186.506 287.277C-195.926 284.169 -205.392 280.986 -214.689 277.82C-216.97 277.039 -219.237 276.263 -221.492 275.493C-231.204 272.161 -240.676 268.87 -249.675 265.704C-289.897 251.585 -320.62 240.159 -320.62 240.159V166.2C-320.62 166.2 -179.379 240.99 -121.716 264.258C-64.0535 287.526 35.7224 319.104 81.075 323.4Z" fill="#2C1A0F"/>
<path d="M-310.254 63.156C-310.254 63.156 -194.28 163.707 -97.7441 219.384C-46.1457 249.143 42.2013 286.695 81.075 290.737V308.517C81.075 308.517 -3.7993 295.836 -110.054 236.835C-216.309 177.834 -314.141 111.354 -314.141 111.354L-310.254 63.156Z" fill="#2C1A0F"/>
<path opacity="0.12" d="M-298.592 5.81702C-298.592 5.81702 -229.915 77.283 -185.858 117.171C-141.801 157.059 -92.561 195.285 -38.1378 200.271C6.62559 204.372 83.3856 207.911 109.224 209.038C110.362 209.088 111.48 209.431 112.511 210.047C113.543 210.664 114.467 211.541 115.228 212.626C115.99 213.712 116.572 214.983 116.942 216.363C117.311 217.744 117.46 219.206 117.378 220.662L117.357 221.046H141.977V245.137L114.118 245.145V236.835C114.118 236.835 36.3702 236.004 11.1023 235.173C-14.1656 234.342 -56.9267 232.68 -104.588 206.3C-150.627 180.816 -324.507 40.719 -324.507 40.719L-298.592 5.81702Z" fill="#885B30"/>
<path opacity="0.12" d="M-241.577 -91.41C-241.577 -91.41 -216.219 -42.2417 -177.435 5.81701C-139.209 53.184 -94.5047 122.157 -45.2646 132.129C-0.435196 141.208 82.7817 146.107 109.507 147.499C110.621 147.557 111.715 147.896 112.726 148.499C113.738 149.101 114.647 149.953 115.4 151.007C116.154 152.061 116.738 153.295 117.119 154.64C117.499 155.984 117.669 157.411 117.618 158.84L117.357 166.2H141.977V190.291L114.118 190.299V176.172C114.118 176.172 38.3222 170.355 13.0459 170.355C-24.532 170.355 -62.1099 166.2 -102.927 135.453C-146.165 102.883 -291.465 -69.804 -291.465 -69.804L-241.577 -91.41Z" fill="#885B30"/>
<path opacity="0.12" d="M-150.871 -73.128C-112.646 -25.761 -99.0397 37.395 -47.856 59.832C-17.0076 73.3548 81.2133 85.501 110.002 88.8424C112.162 89.0931 114.165 90.398 115.597 92.4877C117.028 94.5775 117.78 97.2925 117.696 100.072L117.357 111.354H141.977V135.445L114.118 135.453V121.326C116.746 122.489 52.3577 112.232 17.5814 108.03C-19.8309 103.51 -41.6855 103.952 -82.8423 73.959C-111.35 53.184 -183.266 -65.649 -183.266 -65.649L-150.871 -73.128Z" fill="#885B30"/>
<path opacity="0.12" d="M-20.6447 -2.44077e-05C3.32738 14.127 87.5537 26.592 110.002 33.9964C114.365 35.4355 117.868 39.4522 117.695 45.2262L117.357 56.508H141.977V80.5989L114.117 80.607V66.48C116.746 67.6425 51.9195 49.86 14.3416 43.212C-22.8839 36.6263 -61.2241 25.002 -73.7721 -3.32402C-89.9695 -39.888 -69.7955 -28.9651 -20.6447 -2.44077e-05Z" fill="#885B30"/>
<path d="M-17.6677 387.166V412.176C-17.6677 412.176 35.0745 411.345 49.9761 431.289V403.035C49.9761 403.035 27.2997 385.584 2.6477 386.42C-17.4083 387.101 -17.6677 387.166 -17.6677 387.166Z" fill="#3E2211"/>
<path d="M-0.82251 442.852V469.048C-0.82251 469.048 35.0744 467.853 51.9197 487.797V460.081C40.9055 449.571 16.2855 442.923 -0.82251 442.852Z" fill="#3E2211"/>
<path opacity="0.44" d="M138.09 309.963H118.653V331.569H138.09V309.963Z" fill="#885B30"/>
<path opacity="0.44" d="M138.09 362.316H118.653V383.922H138.09V362.316Z" fill="#885B30"/>
<path opacity="0.44" d="M138.09 424.641H118.653V494.445H138.09V424.641Z" fill="#885B30"/>
<path opacity="0.44" d="M138.09 263.427H118.653V285.033H138.09V263.427Z" fill="#885B30"/>
<path d="M141.977 526.364H118.653C118.653 526.364 120.597 535.995 108.287 536.826C95.9766 537.657 44.145 535.164 17.5813 538.488C-8.98239 541.812 -54.9829 554.277 -121.716 618.264C-177.882 672.113 -304.423 825.183 -304.423 825.183V738.759C-304.423 738.759 -195.576 632.391 -136.618 584.193C-98.8973 553.355 -65.6797 529.322 -31.879 517.098C-12.8568 510.217 6.35329 507.076 26.6518 508.572C83.0187 512.727 117.357 508.572 118.653 504.417C119.949 500.262 118.653 498.6 118.653 498.6H141.977V526.364Z" fill="#220D08"/>
<path d="M141.977 552.615H118.653C118.653 552.615 119.949 554.277 118.653 558.432C117.357 562.587 83.0187 566.742 26.6518 562.587C6.98845 561.11 -12.7278 563.92 -31.6588 570.897C-65.4595 583.121 -91.8117 606.3 -131.435 648.18C-201.407 722.139 -296.324 838.064 -296.324 838.064L-279.803 834.362C-267.501 834.18 -255.2 834.252 -242.898 834.578C-240.293 834.643 -237.688 834.719 -235.083 834.805C-199.948 782.003 -152.041 712.394 -121.716 678.096C-50.4477 597.489 -23.884 594.165 17.5813 592.503C44.2581 591.434 95.9766 591.672 108.287 590.841C120.597 590.01 118.653 580.379 118.653 580.379H141.977V552.615Z" fill="#220D08"/>
<path d="M141.977 604.137H118.653C118.653 604.137 119.949 610.785 118.653 614.94C117.357 619.095 83.0187 623.25 26.6518 619.095C6.35328 617.599 -17.8197 622.186 -36.8419 629.067C-70.6426 641.291 -91.8547 654.908 -129.491 699.702C-167.659 745.129 -204.002 796.641 -229.706 834.984C-217.579 835.409 -205.455 835.977 -193.332 836.602C-163.034 791.751 -131.431 745.818 -110.702 717.984C-69.2367 662.307 -23.884 650.673 17.5813 649.011C44.2581 647.942 95.9766 648.18 108.287 647.349C120.597 646.518 118.653 630.729 118.653 630.729H141.977V604.137Z" fill="#220D08"/>
<path d="M141.977 660.645H118.653C118.653 660.645 119.949 673.941 118.653 678.096C117.357 682.251 71.3566 677.265 14.9898 673.11C-5.3088 671.614 -29.4817 674.539 -48.504 681.42C-82.3047 693.644 -108.052 712.247 -145.688 757.041C-176 793.117 -202.283 833.179 -222.549 867.458C-211.439 869.808 -200.313 872.026 -189.186 874.238C-162.608 831.695 -135.596 790.239 -116.533 765.351C-80.2508 717.984 -31.638 699.833 9.80659 702.195C38.9619 703.857 95.9767 711.336 108.287 710.505C120.597 709.674 118.653 687.237 118.653 687.237H141.977V660.645Z" fill="#220D08"/>
<path d="M141.977 716.322H118.653C118.653 716.322 119.949 731.28 118.653 735.435C117.357 739.59 59.6945 727.956 3.32765 723.801C-16.9709 722.305 -40.9138 724.717 -60.1661 730.449C-96.4482 741.252 -119.714 753.797 -157.35 798.591C-166.881 809.934 -174.859 823.233 -181.95 837.2C-167.747 837.958 -153.544 838.738 -139.339 839.389C-134.987 831.437 -130.179 823.911 -124.956 816.873C-88.6735 769.506 -43.948 750.524 -2.5034 752.886C26.6519 754.548 95.9767 768.675 108.287 767.844C120.597 767.013 118.653 742.914 118.653 742.914H141.977V716.322Z" fill="#220D08"/>
<path d="M141.977 769.506H118.653C118.653 769.506 119.949 786.126 118.653 790.281C117.357 794.436 48.0324 770.337 -8.33446 766.182C-28.633 764.686 -55.1675 767.929 -74.4198 773.661C-107.337 783.462 -130.075 801.54 -162.115 838.259C-144.327 839.196 -126.538 840.049 -108.74 840.522C-76.3635 800.253 -45.6743 795.096 -13.5176 796.929C15.6377 798.591 95.9767 823.521 108.287 822.69C120.597 821.859 118.653 796.098 118.653 796.098H141.977V769.506Z" fill="#220D08"/>
<path d="M684.913 484.473C684.913 484.473 385.586 395.795 295.528 399.711V415.5C295.528 415.5 552.095 465.36 704.35 570.897L684.913 484.473Z" fill="#2C1A0F"/>
<path d="M377.163 442.923L340.233 417.993C340.233 417.993 319.5 427.965 329.219 439.599C338.937 451.233 349.303 452.895 349.303 452.895L377.163 442.923Z" fill="#26160E"/>
<path d="M375.22 496.938L338.29 472.008C338.29 472.008 317.557 481.98 327.275 493.614C336.994 505.248 349.952 509.403 349.952 509.403L375.515 511.518L375.22 496.938Z" fill="#26160E"/>
<path d="M295.528 383.922C295.528 383.922 674.547 393.894 701.111 412.176V319.104C701.111 319.104 454.263 349.02 415.389 352.344C376.515 355.668 295.528 359.823 295.528 359.823V383.922Z" fill="#2C1A0F"/>
<path d="M295.528 343.39C295.528 343.39 424.459 329.076 506.742 304.977C583.034 282.633 697.223 240.159 697.223 240.159V166.2C697.223 166.2 555.982 240.99 498.32 264.258C440.657 287.526 340.881 319.104 295.528 323.404V343.39Z" fill="#2C1A0F"/>
<path d="M686.857 61.494C686.857 61.494 570.884 162.045 474.347 217.722C422.749 247.481 334.402 286.695 295.528 290.737V308.517C295.528 308.517 380.403 295.836 486.657 236.835C592.912 177.834 690.744 111.354 690.744 111.354L686.857 61.494Z" fill="#2C1A0F"/>
<path opacity="0.12" d="M675.195 5.81702C675.195 5.81702 606.518 77.283 562.461 117.171C518.404 157.059 469.164 195.285 414.741 200.271C369.978 204.372 293.217 207.911 267.379 209.038C266.241 209.088 265.123 209.431 264.092 210.047C263.06 210.664 262.136 211.541 261.375 212.626C260.613 213.712 260.031 214.983 259.661 216.363C259.292 217.744 259.143 219.206 259.225 220.662L259.246 221.046H234.626V245.137L262.485 245.145V236.835C262.485 236.835 340.233 236.004 365.501 235.173C390.769 234.342 434.826 239.328 482.487 212.948C528.526 187.464 701.111 56.508 701.111 56.508L675.195 5.81702Z" fill="#885B30"/>
<path opacity="0.12" d="M618.18 -91.41C618.18 -91.41 592.822 -42.2417 554.038 5.81701C515.813 53.184 471.108 122.157 421.868 132.129C377.038 141.208 293.821 146.107 267.096 147.499C265.982 147.557 264.888 147.896 263.877 148.499C262.865 149.101 261.957 149.953 261.203 151.007C260.449 152.061 259.865 153.295 259.485 154.64C259.104 155.984 258.934 157.411 258.985 158.84L259.246 166.2H234.626V190.291L262.485 190.299V176.172C262.485 176.172 338.281 170.355 363.557 170.355C401.135 170.355 438.713 166.2 479.53 135.453C522.769 102.883 668.068 -69.804 668.068 -69.804L618.18 -91.41Z" fill="#885B30"/>
<path opacity="0.12" d="M527.475 -73.128C489.249 -25.761 475.643 37.395 424.459 59.832C393.611 73.3548 295.39 85.501 266.601 88.8424C264.441 89.0931 262.438 90.398 261.007 92.4877C259.575 94.5775 258.824 97.2925 258.908 100.072L259.246 111.354H234.626V135.445L262.485 135.453V121.326C259.857 122.489 324.246 112.232 359.022 108.03C396.434 103.51 418.289 103.952 459.446 73.959C487.953 53.184 559.869 -65.649 559.869 -65.649L527.475 -73.128Z" fill="#885B30"/>
<path opacity="0.12" d="M397.248 -2.44077e-05C373.276 14.127 289.049 26.592 266.601 33.9964C262.238 35.4355 258.735 39.4522 258.908 45.2262L259.246 56.508H234.626V80.5989L262.485 80.607V66.48C259.857 67.6425 324.683 49.86 362.261 43.212C399.487 36.6263 437.827 25.002 450.375 -3.32402C466.573 -39.888 446.399 -28.9651 397.248 -2.44077e-05Z" fill="#885B30"/>
<path d="M394.271 387.166V412.176C394.271 412.176 341.529 411.345 326.627 431.289V403.035C326.627 403.035 349.304 385.584 373.956 386.42C394.012 387.101 394.271 387.166 394.271 387.166Z" fill="#3E2211"/>
<path d="M377.426 442.852V469.048C377.426 469.048 341.529 467.853 324.684 487.797V460.081C335.698 449.571 360.318 442.923 377.426 442.852Z" fill="#3E2211"/>
<path opacity="0.44" d="M238.514 331.569H257.95V309.963H238.514V331.569Z" fill="#885B30"/>
<path opacity="0.44" d="M238.514 383.922H257.95V362.316H238.514V383.922Z" fill="#885B30"/>
<path opacity="0.44" d="M238.514 494.445H257.95V424.641H238.514V494.445Z" fill="#885B30"/>
<path opacity="0.44" d="M238.514 285.033H257.95V263.427H238.514V285.033Z" fill="#885B30"/>
<path d="M234.626 526.364H257.95C257.95 526.364 256.007 535.995 268.317 536.826C280.627 537.657 332.458 535.164 359.022 538.488C385.586 541.812 431.586 554.277 498.319 618.264C554.485 672.113 681.026 825.183 681.026 825.183V738.759C681.026 738.759 572.179 632.391 513.221 584.193C475.5 553.355 442.283 529.322 408.482 517.098C389.46 510.217 370.25 507.076 349.951 508.572C293.584 512.727 259.246 508.572 257.95 504.417C256.654 500.262 257.95 498.6 257.95 498.6H234.626V526.364Z" fill="#220D08"/>
<path d="M234.626 552.615H257.95C257.95 552.615 256.654 554.277 257.95 558.432C259.246 562.587 293.584 566.742 349.951 562.587C369.615 561.11 389.331 563.92 408.262 570.897C442.063 583.121 468.415 606.3 508.038 648.18C578.01 722.139 656.406 816.873 656.406 816.873V834.362C644.104 834.181 631.803 834.252 619.501 834.578C616.896 834.643 614.291 834.719 611.686 834.805C576.551 782.003 528.644 712.394 498.319 678.096C427.051 597.489 400.487 594.165 359.022 592.503C332.345 591.434 280.627 591.672 268.317 590.841C256.007 590.01 257.95 580.379 257.95 580.379H234.626V552.615Z" fill="#220D08"/>
<path d="M234.626 604.137H257.95C257.95 604.137 256.654 610.785 257.95 614.94C259.246 619.095 293.584 623.25 349.951 619.095C370.25 617.599 394.423 622.186 413.445 629.067C447.246 641.291 468.458 654.908 506.094 699.702C544.262 745.129 580.605 796.641 606.309 834.984C594.182 835.409 582.058 835.977 569.935 836.602C539.637 791.751 508.034 745.818 487.305 717.984C445.84 662.307 400.487 650.673 359.022 649.011C332.345 647.942 280.627 648.18 268.317 647.349C256.007 646.518 257.95 630.729 257.95 630.729H234.626V604.137Z" fill="#220D08"/>
<path d="M234.626 660.645H257.95C257.95 660.645 256.654 673.941 257.95 678.096C259.246 682.251 305.247 677.265 361.613 673.11C381.912 671.614 406.085 674.539 425.107 681.42C458.908 693.644 484.655 712.247 522.292 757.041C552.603 793.117 578.886 833.179 599.152 867.458C588.042 869.808 576.916 872.026 565.789 874.238C539.212 831.695 512.199 790.239 493.136 765.351C456.854 717.984 408.241 699.833 366.797 702.195C337.641 703.857 280.627 711.336 268.317 710.505C256.007 709.674 257.95 687.237 257.95 687.237H234.626V660.645Z" fill="#220D08"/>
<path d="M234.626 716.322H257.95C257.95 716.322 256.654 731.28 257.95 735.435C259.246 739.59 316.909 727.956 373.276 723.801C393.574 722.305 417.517 724.717 436.769 730.449C473.051 741.252 496.317 753.797 533.954 798.591C543.484 809.934 551.462 823.233 558.553 837.2C544.35 837.958 530.148 838.738 515.942 839.389C511.59 831.437 506.782 823.911 501.559 816.873C465.277 769.506 420.551 750.524 379.107 752.886C349.951 754.548 280.627 768.675 268.317 767.844C256.007 767.013 257.95 742.914 257.95 742.914H234.626V716.322Z" fill="#220D08"/>
<path d="M234.626 769.506H257.95C257.95 769.506 256.654 786.126 257.95 790.281C259.246 794.436 328.571 770.337 384.938 766.182C405.236 764.686 431.771 767.929 451.023 773.661C483.94 783.462 506.678 801.54 538.718 838.259C520.93 839.196 503.141 840.049 485.343 840.522C455.237 811.125 422.277 795.096 390.121 796.929C360.966 798.591 280.627 823.521 268.317 822.69C256.007 821.859 257.95 796.098 257.95 796.098H234.626V769.506Z" fill="#220D08"/>
<path d="M-17.729 385.999C-11.9128 384.652 -6.01135 384.002 -0.101153 384.059C5.82525 384.027 11.7445 384.593 17.6015 385.753C20.5316 386.36 23.4489 387.095 26.3332 388.026C29.2188 388.964 32.0617 390.106 34.8488 391.448C37.633 392.8 40.3437 394.389 42.9625 396.205C45.5564 398.05 48.0125 400.197 50.3 402.619C47.6479 400.946 45.0017 399.389 42.2892 398.053C40.9253 397.408 39.5782 396.733 38.192 396.185C36.8253 395.58 35.4345 395.058 34.0523 394.525C31.2638 393.539 28.4609 392.644 25.6354 391.864C22.8067 391.1 19.9617 390.431 17.1005 389.857C11.3775 388.717 5.60549 387.901 -0.199658 387.287C-6.00812 386.704 -11.8379 386.29 -17.729 385.999Z" fill="#170000"/>
<path d="M-17.729 413.422C-11.8725 412.295 -5.94806 411.853 -0.0290834 412.102C5.90633 412.263 11.8235 413.004 17.6712 414.319C20.5961 415.001 23.5063 415.809 26.3827 416.801C29.26 417.802 32.0937 418.999 34.8719 420.386C37.6475 421.783 40.3503 423.407 42.9636 425.248C45.5534 427.117 48.0086 429.278 50.3 431.705C47.6431 430.025 44.9943 428.452 42.281 427.09C40.9172 426.43 39.5699 425.741 38.1842 425.173C36.8176 424.551 35.428 424.006 34.0464 423.45C31.2591 422.418 28.4587 421.467 25.6353 420.624C22.8083 419.798 19.9652 419.06 17.1059 418.409C11.3858 417.118 5.61495 416.129 -0.191136 415.325C-6.00104 414.552 -11.8339 413.935 -17.729 413.422Z" fill="#170000"/>
<path d="M-0.883789 442.507C3.729 441.226 8.45493 440.744 13.1677 441.073C17.8976 441.323 22.5943 442.206 27.1812 443.708C29.492 444.377 31.7318 445.397 33.9776 446.346C36.1974 447.403 38.3712 448.612 40.4896 449.969C44.7292 452.63 48.6805 455.988 52.2436 459.958C47.9348 457.515 43.8181 454.908 39.4741 452.966C37.3546 451.852 35.147 451.046 32.9941 450.08L29.7023 448.863C29.1532 448.664 28.6123 448.429 28.0582 448.253L26.3935 447.737C21.9575 446.287 17.4639 445.145 12.9321 444.315C8.38442 443.445 3.7993 442.855 -0.883789 442.507Z" fill="#170000"/>
<path d="M-0.883789 470.762C3.729 469.48 8.45493 468.998 13.1677 469.327C17.8976 469.577 22.5943 470.46 27.1812 471.962C29.492 472.631 31.7318 473.651 33.9776 474.6C36.1974 475.657 38.3712 476.866 40.4896 478.223C44.7292 480.884 48.6805 484.242 52.2436 488.213C47.9348 485.769 43.8181 483.162 39.4741 481.22C37.3546 480.106 35.147 479.3 32.9941 478.334L29.7023 477.118C29.1532 476.918 28.6123 476.683 28.0582 476.507L26.3935 475.991C21.9575 474.541 17.4639 473.399 12.9321 472.569C8.38442 471.699 3.7993 471.109 -0.883789 470.762Z" fill="#170000"/>
<path d="M-4.82373 508.1C-0.818193 506.733 3.26506 505.772 7.38817 505.227C11.4995 504.653 15.6319 504.364 19.7675 504.361C23.9097 504.35 28.0485 504.664 32.1607 505.302C36.2859 505.926 40.3564 507.044 44.3188 508.642C40.1531 508.721 36.0792 508.566 31.9933 508.562L19.7666 508.514L7.52077 508.479C3.42629 508.427 -0.671557 508.381 -4.82373 508.1Z" fill="#170000"/>
<path d="M394.332 386C388.441 386.29 382.611 386.704 376.803 387.287C370.998 387.901 365.226 388.717 359.503 389.857C356.643 390.438 353.798 391.107 350.968 391.864C348.142 392.644 345.339 393.539 342.551 394.525C341.169 395.058 339.778 395.58 338.411 396.185C337.025 396.733 335.678 397.408 334.314 398.053C331.601 399.389 328.955 400.946 326.303 402.619C328.591 400.197 331.047 398.05 333.641 396.205C336.26 394.389 338.97 392.8 341.754 391.448C344.541 390.106 347.384 388.964 350.27 388.026C353.154 387.095 356.072 386.36 359.002 385.753C364.859 384.593 370.778 384.027 376.704 384.059C382.615 384.002 388.516 384.652 394.332 386V386Z" fill="#170000"/>
<path d="M394.332 413.422C388.437 413.935 382.604 414.552 376.794 415.325C370.988 416.128 365.217 417.117 359.497 418.409C356.639 419.065 353.796 419.803 350.968 420.624C348.144 421.467 345.344 422.418 342.557 423.45C341.175 424.006 339.786 424.551 338.419 425.173C337.033 425.741 335.686 426.43 334.322 427.09C331.609 428.452 328.96 430.025 326.303 431.704C328.595 429.278 331.05 427.117 333.64 425.248C336.253 423.407 338.956 421.783 341.731 420.386C344.51 418.999 347.343 417.802 350.22 416.801C353.097 415.809 356.007 415.001 358.932 414.319C364.78 413.004 370.697 412.263 376.632 412.102C382.551 411.853 388.476 412.295 394.332 413.422V413.422Z" fill="#170000"/>
<path d="M377.487 442.508C372.804 442.855 368.219 443.445 363.671 444.315C359.139 445.145 354.646 446.287 350.21 447.737L348.545 448.253C347.991 448.429 347.45 448.664 346.901 448.863L343.609 450.08C341.456 451.046 339.248 451.852 337.129 452.966C332.785 454.908 328.668 457.515 324.359 459.958C327.923 455.988 331.874 452.63 336.113 449.969C338.232 448.612 340.406 447.403 342.625 446.346C344.871 445.397 347.111 444.377 349.422 443.708C354.009 442.206 358.705 441.323 363.435 441.073C368.148 440.744 372.874 441.226 377.487 442.508V442.508Z" fill="#170000"/>
<path d="M377.487 470.762C372.804 471.109 368.219 471.699 363.671 472.569C359.139 473.399 354.646 474.541 350.21 475.991L348.545 476.507C347.991 476.683 347.45 476.918 346.901 477.117L343.609 478.334C341.456 479.3 339.248 480.106 337.129 481.22C332.785 483.162 328.668 485.769 324.359 488.212C327.923 484.242 331.874 480.884 336.113 478.223C338.232 476.866 340.406 475.657 342.625 474.6C344.871 473.651 347.111 472.631 349.422 471.962C354.009 470.46 358.705 469.577 363.435 469.327C368.148 468.998 372.874 469.48 377.487 470.762V470.762Z" fill="#170000"/>
<path d="M381.427 508.1C377.275 508.382 373.177 508.427 369.083 508.479L356.837 508.514L344.61 508.562C340.524 508.566 336.45 508.721 332.284 508.642C336.247 507.044 340.317 505.926 344.443 505.302C348.555 504.664 352.694 504.35 356.836 504.361C360.971 504.364 365.104 504.653 369.215 505.227C373.338 505.772 377.422 506.733 381.427 508.1V508.1Z" fill="#170000"/>
<g opacity="0.3">
<path opacity="0.3" d="M374.896 319.769V332.142C380.863 331.195 386.998 330.19 393.25 329.134V314.982L374.896 319.769Z" fill="#F7D496"/>
</g>
<path style="mix-blend-mode:screen" opacity="0.15" d="M116.709 -48.198H-107.462V837.648H116.709V-48.198Z" fill="url(#paint0_linear_184_845)" fill-opacity="0.7"/>
<path style="mix-blend-mode:screen" opacity="0.15" d="M255.47 -48.198H479.642V837.648H255.47V-48.198Z" fill="url(#paint1_linear_184_845)" fill-opacity="0.5"/>
<path style="mix-blend-mode:screen" opacity="0.15" d="M259.241 837.648H483.413L483.413 -48.198H259.241L259.241 837.648Z" fill="url(#paint2_linear_184_845)" fill-opacity="0.7"/>
<defs>
<linearGradient id="paint0_linear_184_845" x1="-107.462" y1="394.725" x2="116.709" y2="394.725" gradientUnits="userSpaceOnUse">
<stop stop-color="#341500" stop-opacity="0.3"/>
<stop offset="0.00458" stop-color="#371803" stop-opacity="0.30811"/>
<stop offset="0.09431" stop-color="#735436" stop-opacity="0.4563"/>
<stop offset="0.18151" stop-color="#A58660" stop-opacity="0.5794"/>
<stop offset="0.26416" stop-color="#CCAD81" stop-opacity="0.67524"/>
<stop offset="0.34114" stop-color="#E8C899" stop-opacity="0.7439"/>
<stop offset="0.41033" stop-color="#F9D9A7" stop-opacity="0.78548"/>
<stop offset="0.46503" stop-color="#FFDFAC" stop-opacity="0.8"/>
<stop offset="0.59862" stop-color="#D2B286" stop-opacity="0.84464"/>
<stop offset="0.89313" stop-color="#5F4025" stop-opacity="0.95719"/>
<stop offset="0.99998" stop-color="#341500"/>
</linearGradient>
<linearGradient id="paint1_linear_184_845" x1="479.642" y1="394.725" x2="255.47" y2="394.725" gradientUnits="userSpaceOnUse">
<stop stop-color="#341500" stop-opacity="0.3"/>
<stop offset="0.00458" stop-color="#371803" stop-opacity="0.30811"/>
<stop offset="0.09431" stop-color="#735436" stop-opacity="0.4563"/>
<stop offset="0.18151" stop-color="#A58660" stop-opacity="0.5794"/>
<stop offset="0.26416" stop-color="#CCAD81" stop-opacity="0.67524"/>
<stop offset="0.34114" stop-color="#E8C899" stop-opacity="0.7439"/>
<stop offset="0.41033" stop-color="#F9D9A7" stop-opacity="0.78548"/>
<stop offset="0.46503" stop-color="#FFDFAC" stop-opacity="0.8"/>
<stop offset="0.59862" stop-color="#D2B286" stop-opacity="0.84464"/>
<stop offset="0.89313" stop-color="#5F4025" stop-opacity="0.95719"/>
<stop offset="0.99998" stop-color="#341500"/>
</linearGradient>
<linearGradient id="paint2_linear_184_845" x1="-191408" y1="-48.1969" x2="-268971" y2="-48.1969" gradientUnits="userSpaceOnUse">
<stop stop-color="#341500" stop-opacity="0.3"/>
<stop offset="0.00458" stop-color="#371803" stop-opacity="0.30811"/>
<stop offset="0.09431" stop-color="#735436" stop-opacity="0.4563"/>
<stop offset="0.18151" stop-color="#A58660" stop-opacity="0.5794"/>
<stop offset="0.26416" stop-color="#CCAD81" stop-opacity="0.67524"/>
<stop offset="0.34114" stop-color="#E8C899" stop-opacity="0.7439"/>
<stop offset="0.41033" stop-color="#F9D9A7" stop-opacity="0.78548"/>
<stop offset="0.46503" stop-color="#FFDFAC" stop-opacity="0.8"/>
<stop offset="0.59862" stop-color="#D2B286" stop-opacity="0.84464"/>
<stop offset="0.89313" stop-color="#5F4025" stop-opacity="0.95719"/>
<stop offset="0.99998" stop-color="#341500"/>
</linearGradient>
</defs>
</svg>
