<svg width="1496" height="1130" fill="none" xmlns="http://www.w3.org/2000/svg"><path d="M1358.21 94.242l283.74 190.953v276.181L1358.21 206.44V94.242z" fill="url(#paint0_linear_26_1558)"/><path d="M143.725 94.242L-140.02 285.195v276.181L143.725 206.44V94.242z" fill="url(#paint1_linear_26_1558)"/><path opacity=".38" d="M549.048 695.15h-750.899V1070h750.899V695.15z" fill="#250F08"/><path opacity=".4" d="M546.89-11.483h-403.5V695.15h403.5V-11.483z" fill="#2D1B0C"/><path d="M276.092 695.15h-378.686v12.946h378.686V695.15z" fill="#250F08"/><path opacity=".4" d="M1356.05-11.483H952.548V695.15h403.502V-11.483z" fill="#2D1B0C"/><path opacity=".53" d="M683.368 27.355l-76.6 5.394v-64.73h76.6v59.336zm0 85.227l-76.6 5.394v-64.73l76.6-4.315v63.651zM816.07 27.355l76.6 5.394v-64.73h-76.6v59.336zm0 85.227l76.6 5.394v-64.73l-76.6-4.315v63.651z" fill="#F7D496"/><path d="M950.39-9.326H549.048V1049.01H950.39V-9.326zm-719.611 0h-39.918V695.15h39.918V-9.326zm1082.111 0h-39.92V695.15h39.92V-9.326z" fill="#170000"/><path opacity=".38" d="M1698.05 695.15H947.153v400.25h750.897V695.15z" fill="#250F08"/><path d="M1623.61 695.15h-378.69v12.946h378.69V695.15z" fill="#250F08"/><path fill="#170000" d="M191 1070h1114v100H191z"/><defs><linearGradient id="paint0_linear_26_1558" x1="1032.27" y1="-161.654" x2="1630.32" y2="436.4" gradientUnits="userSpaceOnUse"><stop stop-color="#FFD02B"/><stop offset=".964" stop-color="#F7D496" stop-opacity="0"/></linearGradient><linearGradient id="paint1_linear_26_1558" x1="469.657" y1="-161.654" x2="-128.39" y2="436.4" gradientUnits="userSpaceOnUse"><stop stop-color="#FFD02B"/><stop offset=".964" stop-color="#F7D496" stop-opacity="0"/></linearGradient></defs></svg>