<svg width="495" height="495" fill="none" xmlns="http://www.w3.org/2000/svg"><path d="M247.581 494.552c136.399 0 246.971-110.572 246.971-246.971C494.552 111.183 383.98.611 247.581.611 111.183.61.611 111.182.611 247.58c0 136.399 110.572 246.971 246.97 246.971z" fill="url(#paint0_radial_605_15)"/><path style="mix-blend-mode:color-dodge" d="M247.581 494.552c136.399 0 246.971-110.572 246.971-246.971C494.552 111.183 383.98.611 247.581.611 111.183.61.611 111.182.611 247.58c0 136.399 110.572 246.971 246.97 246.971z" fill="url(#paint1_radial_605_15)"/><defs><radialGradient id="paint0_radial_605_15" cx="0" cy="0" r="1" gradientUnits="userSpaceOnUse" gradientTransform="translate(247.581 247.581) scale(286.526)"><stop offset=".001" stop-color="#FFCD35" stop-opacity=".71"/><stop offset=".142" stop-color="#EDBB32" stop-opacity=".633"/><stop offset=".432" stop-color="#BF8D2B" stop-opacity=".434"/><stop offset=".84" stop-color="#764420" stop-opacity=".117"/><stop offset=".982" stop-color="#5B291C" stop-opacity="0"/></radialGradient><radialGradient id="paint1_radial_605_15" cx="0" cy="0" r="1" gradientUnits="userSpaceOnUse" gradientTransform="translate(247.581 247.581) scale(225.456)"><stop offset=".001" stop-color="#FFAD41" stop-opacity=".5"/><stop offset=".444" stop-color="#AC6A2E" stop-opacity=".248"/><stop offset=".802" stop-color="#723B21" stop-opacity=".069"/><stop offset=".982" stop-color="#5B291C" stop-opacity="0"/></radialGradient></defs></svg>