<svg width="497" height="498" fill="none" xmlns="http://www.w3.org/2000/svg"><path d="M49.31 102.124l-2.7 4.014 22.299 14.999 2.7-4.014-22.3-14.999zm15.616-20.158l-3.124 3.694 20.519 17.354 3.124-3.694-20.519-17.354zm19.873-18.75l-3.695 3.123 17.35 20.523 3.694-3.123-17.35-20.523zm19.892-14.734l-3.98 2.749 15.273 22.111 3.98-2.749-15.273-22.111zM3.363 222.831l-.183 4.834 26.855 1.013.183-4.833-26.855-1.014zm2.665-25.36l-.711 4.785 26.581 3.953.712-4.785-26.582-3.953zm7.026-26.403l-1.497 4.6 25.555 8.316 1.497-4.6-25.555-8.316zm9.156-22.999l-1.936 4.433 24.625 10.759 1.937-4.433-24.626-10.759zM149.68 22.83l-4.321 2.174 12.081 24.005 4.321-2.174-12.081-24.006zm23.494-9.913l-4.533 1.688 9.374 25.185 4.534-1.688-9.375-25.185zm26.514-6.599l-4.752.91 5.059 26.394 4.751-.91-5.058-26.394zm24.56-3.088l-4.816.445 2.471 26.76 4.816-.445-2.471-26.76zM68.909 375.103l-22.3 14.999 2.7 4.014 22.3-14.998-2.7-4.015zm13.411 18.122l-20.517 17.357 3.124 3.693 20.517-17.357-3.124-3.693zm16.134 16.153l-17.35 20.523 3.694 3.123 17.35-20.523-3.694-3.123zm21.508 16.269l-15.232 22.058-.038.054-3.982-2.752 15.275-22.112 3.187 2.204.79.548z" fill="#F4DF95"/><path opacity=".6" d="M119.962 425.647l-15.232 22.058-.796-.548 15.238-22.058.79.548z" fill="#734800"/><path d="M30.505 269.571l-26.816 1.773.32 4.827 26.815-1.773-.319-4.827zm2.497 22.409l-26.46 4.701.847 4.763 26.459-4.701-.846-4.763zm5.838 22.069l-25.31 9.034 1.626 4.556 25.31-9.034-1.625-4.556zm8.37 20.496l-24.313 11.448 2.06 4.377 24.315-11.449-2.061-4.376zm114.552 114.859l-12.083 24.009-3.219-1.623-1.102-.554 12.077-23.999.005-.005 1.36.683.86.43 2.102 1.059zm16.252 7.045l-9.372 25.187 4.534 1.687 9.372-25.187-4.534-1.687zm21.98 6.168l-5.056 26.395 4.751.91 5.056-26.394-4.751-.911zm21.91 3.188l-2.473 26.76 4.816.445 2.473-26.76-4.816-.445z" fill="#F4DF95"/><path d="M254.153.086h-12.362V44.16h12.362V.086z" fill="url(#paint0_linear_8_88)"/><path d="M242.598 1.699l1.441 3.053 7.757.11 1.551-3.163h-10.749z" fill="url(#paint1_linear_8_88)"/><path d="M253.347 43.024l-1.441-3.054-7.757-.11-1.551 3.164h10.749z" fill="url(#paint2_linear_8_88)"/><path d="M251.735 4.386h-7.525V39.86h7.525V4.386z" fill="#F0C456"/><path d="M252.004 39.86h-.538V4.654h-7.256v-.538h7.794V39.86z" fill="url(#paint3_linear_8_88)"/><path d="M253.347 1.699l-1.521 2.687-.091 35.474 1.612 3.224V1.7z" fill="url(#paint4_linear_8_88)"/><path d="M251.735 40.128h-7.794V4.386a.27.27 0 01.269-.269.268.268 0 01.269.269v35.205h7.256v.537z" fill="url(#paint5_linear_8_88)"/><path d="M251.735 37.172h-7.525v2.557h7.525v-2.557z" fill="#FFED8E"/><path d="M251.197 5.106h-6.449v2.191h6.449v-2.19z" fill="#FFFFBA"/><path d="M44.806 255.657v-12.362H.733v12.362h44.073z" fill="url(#paint6_linear_8_88)"/><path d="M43.194 244.101l-3.055 1.442-.11 7.756 3.164 1.552v-10.75z" fill="url(#paint7_linear_8_88)"/><path d="M1.869 254.851l3.053-1.442.11-7.756-3.163-1.552v10.75z" fill="url(#paint8_linear_8_88)"/><path d="M40.506 253.238v-7.524H5.033v7.524h35.473z" fill="#F0C456"/><path d="M5.033 253.507v-.538h35.204v-7.256h.538v7.794H5.033z" fill="url(#paint9_linear_8_88)"/><path d="M43.194 254.851l-2.688-1.521-35.473-.092-3.225 1.613h41.386z" fill="url(#paint10_linear_8_88)"/><path d="M4.764 253.238v-7.793h35.742c.071 0 .14.028.19.079a.267.267 0 010 .38.27.27 0 01-.19.078H5.301v7.256h-.537z" fill="url(#paint11_linear_8_88)"/><path d="M7.72 253.238v-7.524H5.163v7.524H7.72z" fill="#FFED8E"/><path d="M40.506 253.238v-7.524H37.95v7.524h2.556z" fill="#8F4D1B"/><path d="M68.058 151.632l6.001-10.807-38.53-21.396-6.002 10.807 38.531 21.396z" fill="url(#paint12_linear_8_88)"/><path d="M72.258 140.747l-3.37-.222-3.861 6.727 2.013 2.893 5.218-9.398z" fill="url(#paint13_linear_8_88)"/><path d="M30.912 130.083l3.369.222 3.862-6.727-2.013-2.893-5.218 9.398z" fill="url(#paint14_linear_8_88)"/><path d="M65.473 147.431l3.653-6.579-31.013-17.221-3.653 6.578 31.013 17.222z" fill="#FFD76B"/><path d="M34.33 130.444l.26-.47 30.779 17.091 3.522-6.344.47.262-3.783 6.813-31.248-17.352z" fill="url(#paint15_linear_8_88)"/><path d="M67.04 150.145l-1.612-2.635-30.968-17.301-3.602-.155 35.712 19.83.47.261z" fill="url(#paint16_linear_8_88)"/><path d="M34.225 130.079l3.784-6.814 31.248 17.352a.263.263 0 01.128.161.27.27 0 01-.185.333.27.27 0 01-.205-.024l-30.777-17.091-3.523 6.344a45.576 45.576 0 00-.47-.261z" fill="url(#paint17_linear_8_88)"/><path d="M36.81 131.514l3.653-6.579-2.235-1.241-3.653 6.579 2.235 1.241zm28.638 15.617l3.4-6.125-2.08-1.155-3.401 6.125 2.08 1.155z" fill="#FFED8E"/><path d="M466.956 130.236l-6.002-10.807-38.531 21.396 6.001 10.807 38.532-21.396z" fill="url(#paint18_linear_8_88)"/><path d="M423.728 140.905l3.828-.359 3.9 6.706-2.353 3.328-5.375-9.675z" fill="url(#paint19_linear_8_88)"/><path d="M465.571 130.083l-3.369.222-3.862-6.727 2.013-2.893 5.218 9.398z" fill="url(#paint20_linear_8_88)"/><path d="M462.022 130.209l-3.653-6.578-31.013 17.221 3.653 6.578 31.013-17.221z" fill="#FFD76B"/><path d="M433.244 146.189l-3.653-6.578-2.235 1.241 3.653 6.578 2.235-1.241z" fill="#FFED8E"/><path d="M462.153 130.444l-.261-.47-30.778 17.091-3.523-6.344-.47.262 3.784 6.813 31.248-17.352z" fill="url(#paint21_linear_8_88)"/><path d="M429.443 150.145l1.611-2.635 30.968-17.301 3.603-.155-35.713 19.83-.469.261z" fill="url(#paint22_linear_8_88)"/><path d="M461.908 130.273l-3.653-6.579-2.235 1.241 3.653 6.579 2.235-1.241z" fill="#FFED8E"/><path d="M378.547 36.162l-10.731-6.138-21.881 38.257 10.73 6.138 21.882-38.257z" fill="url(#paint23_linear_8_88)"/><path d="M347.092 67.675l3.089-2.29 6.809 3.718-.29 4.065-9.608-5.493z" fill="url(#paint24_linear_8_88)"/><path d="M377.283 36.748l-2.767 1.935-6.788-3.756.224-3.517 9.331 5.338z" fill="url(#paint25_linear_8_88)"/><path d="M374.313 38.693l-6.532-3.736-17.612 30.793 6.532 3.736 17.612-30.793z" fill="#FFE57F"/><path d="M357.97 67.267l-6.532-3.736-1.269 2.219 6.532 3.736 1.269-2.22z" fill="#FFFFB9"/><path d="M374.546 38.826l-.467-.266-17.478 30.56-6.299-3.604-.267.467 6.765 3.87 17.746-31.027z" fill="url(#paint26_linear_8_88)"/><path d="M356.766 72.62l.014-3.089 17.532-30.838 3.001-1.999-20.28 35.459-.267.466z" fill="url(#paint27_linear_8_88)"/><path d="M150.461 428.52l-10.731-6.137-21.882 38.257 10.731 6.138 21.882-38.258z" fill="url(#paint28_linear_8_88)"/><path d="M119.006 460.034l3.089-2.291 6.809 3.718-.29 4.065-9.608-5.492z" fill="url(#paint29_linear_8_88)"/><path d="M149.197 429.106l-2.767 1.936-6.788-3.756.224-3.517 9.331 5.337z" fill="url(#paint30_linear_8_88)"/><path d="M146.227 431.052l-6.532-3.736-17.612 30.793 6.532 3.736 17.612-30.793z" fill="#FFE57F"/><path d="M129.884 459.625l-6.532-3.736-1.269 2.22 6.532 3.736 1.269-2.22z" fill="#FFFFB9"/><path d="M146.46 431.185l-.466-.266-17.479 30.559-6.299-3.603-.266.467 6.764 3.869 17.746-31.026z" fill="url(#paint31_linear_8_88)"/><path d="M128.68 464.978l.014-3.088 17.533-30.838 3.001-1.999-20.281 35.458-.267.467z" fill="url(#paint32_linear_8_88)"/><path d="M370.846 468.928l10.73-6.138-21.881-38.257-10.731 6.137 21.882 38.258z" fill="url(#paint33_linear_8_88)"/><path d="M380.419 462.184l-3.089-2.291-6.809 3.718.289 4.065 9.609-5.492z" fill="url(#paint34_linear_8_88)"/><path d="M350.228 431.256l2.767 1.936 6.788-3.756-.224-3.517-9.331 5.337z" fill="url(#paint35_linear_8_88)"/><path d="M370.81 463.994l6.532-3.736-17.612-30.792-6.532 3.736 17.612 30.792z" fill="#FFE57F"/><path d="M370.81 463.994l6.532-3.735-1.269-2.219-6.532 3.735 1.269 2.219z" fill="#FFFFB9"/><path d="M352.965 433.335l.466-.267 17.479 30.56 6.298-3.603.267.467-6.765 3.869-17.745-31.026z" fill="url(#paint36_linear_8_88)"/><path d="M370.745 467.128l-.014-3.088-17.533-30.838-3-1.999 20.28 35.458.267.467z" fill="url(#paint37_linear_8_88)"/><path d="M73.58 355.932l-6.137-10.731-38.257 21.882 6.137 10.731 38.258-21.882z" fill="url(#paint38_linear_8_88)"/><path d="M66.837 346.359l-2.291 3.089 3.718 6.809 4.065-.29-5.492-9.608z" fill="url(#paint39_linear_8_88)"/><path d="M35.909 376.55l1.935-2.767-3.755-6.788-3.517.224 5.337 9.331z" fill="url(#paint40_linear_8_88)"/><path d="M68.647 355.968l-3.736-6.532-30.792 17.612 3.736 6.532 30.792-17.612z" fill="#FFE57F"/><path opacity=".55" d="M56.497 355.983l-5.51 1.417 13.925-7.964 3.735 6.532a24.506 24.506 0 00-12.15.015z" fill="#AF5800"/><path d="M37.988 373.813l-.267-.466 30.56-17.479-3.603-6.299.467-.266 3.869 6.764-31.026 17.746z" fill="url(#paint41_linear_8_88)"/><path d="M71.78 356.033l-3.087.014-30.838 17.533-2 3.001 35.46-20.281.466-.267z" fill="url(#paint42_linear_8_88)"/><path d="M461.414 378.889l6.138-10.731-38.258-21.882-6.137 10.731 38.257 21.882z" fill="url(#paint43_linear_8_88)"/><path d="M429.901 347.434l2.29 3.089-3.718 6.809-4.065-.29 5.493-9.608z" fill="url(#paint44_linear_8_88)"/><path d="M460.828 377.625l-1.935-2.767 3.756-6.788 3.516.224-5.337 9.331z" fill="url(#paint45_linear_8_88)"/><path d="M458.883 374.655l3.736-6.532-30.793-17.612-3.736 6.532 30.793 17.612z" fill="#FFE57F"/><path opacity=".55" d="M440.241 357.058l5.509 1.417-13.924-7.964-3.736 6.532a24.508 24.508 0 0112.151.015z" fill="#AF5800"/><path d="M458.749 374.888l.267-.466-30.559-17.479 3.602-6.299-.466-.266-3.87 6.764 31.026 17.746z" fill="url(#paint46_linear_8_88)"/><path d="M424.957 357.108l3.088.014 30.838 17.533 1.998 3.001-35.458-20.281-.466-.267z" fill="url(#paint47_linear_8_88)"/><path d="M496.287 255.657v-12.362h-44.073v12.362h44.073z" fill="url(#paint48_linear_8_88)"/><path d="M494.675 244.101l-3.054 1.442-.11 7.756 3.164 1.552v-10.75z" fill="url(#paint49_linear_8_88)"/><path d="M453.35 254.851l3.054-1.442.11-7.756-3.164-1.552v10.75z" fill="url(#paint50_linear_8_88)"/><path d="M491.987 253.238v-7.524h-35.473v7.524h35.473z" fill="#F0C456"/><path d="M456.514 253.507v-.538h35.205v-7.256h.537v7.794h-35.742z" fill="url(#paint51_linear_8_88)"/><path d="M494.675 254.851l-2.688-1.521-35.473-.092-3.225 1.613h41.386z" fill="url(#paint52_linear_8_88)"/><path d="M456.245 253.238v-7.793h35.742c.072 0 .14.028.19.079a.268.268 0 01-.19.458h-35.204v7.256h-.538z" fill="url(#paint53_linear_8_88)"/><path d="M459.201 253.238v-7.524h-2.556v7.524h2.556z" fill="#FFED8E"/><path d="M491.987 253.238v-7.524h-2.556v7.524h2.556z" fill="#8F4D1B"/><path d="M254.153 453.717h-12.362v44.074h12.362v-44.074z" fill="url(#paint54_linear_8_88)"/><path d="M242.598 455.33l1.441 3.054 7.757.11 1.551-3.164h-10.749z" fill="url(#paint55_linear_8_88)"/><path d="M253.347 496.655l-1.441-3.054-7.757-.11-1.551 3.164h10.749z" fill="url(#paint56_linear_8_88)"/><path d="M251.735 458.017h-7.525v35.474h7.525v-35.474z" fill="#F0C456"/><path d="M252.004 493.491h-.538v-35.205h-7.256v-.538h7.794v35.743z" fill="url(#paint57_linear_8_88)"/><path d="M253.347 455.33l-1.521 2.687-.091 35.474 1.612 3.225V455.33z" fill="url(#paint58_linear_8_88)"/><path d="M251.735 493.76h-7.794v-35.743a.27.27 0 01.538 0v35.205h7.256v.538z" fill="url(#paint59_linear_8_88)"/><path d="M251.735 490.803h-7.525v2.557h7.525v-2.557z" fill="#FFED8E"/><path d="M251.197 458.737h-6.449v2.192h6.449v-2.192z" fill="#FFFFBA"/><path d="M128.775 28.95l-10.731 6.137 21.882 38.257 10.73-6.137-21.881-38.258z" fill="url(#paint60_linear_8_88)"/><path d="M119.202 35.694l3.088 2.29 6.81-3.719-.29-4.065-9.608 5.494z" fill="url(#paint61_linear_8_88)"/><path d="M149.393 66.62l-2.768-1.934-6.788 3.755.224 3.517 9.332-5.337z" fill="url(#paint62_linear_8_88)"/><path d="M128.81 33.882l-6.532 3.736 17.612 30.793 6.532-3.736-17.612-30.793z" fill="#FFE57F"/><path d="M128.81 33.882l-6.532 3.736 1.27 2.22 6.531-3.736-1.269-2.22z" fill="#FFFFB9"/><path d="M146.655 64.541l-.466.268-17.479-30.56-6.298 3.602-.267-.466 6.765-3.87 17.745 31.026z" fill="url(#paint63_linear_8_88)"/><path d="M128.875 30.75l.014 3.087 17.533 30.838 3.001 1.999-20.28-35.458-.268-.467z" fill="url(#paint64_linear_8_88)"/><path opacity=".6" d="M222.201 4.523l2.15 23.649" stroke="#734800" stroke-width="2" stroke-miterlimit="10"/><path opacity=".5" d="M198.079 7.364l4.658 24.724" stroke="#734800" stroke-width="2" stroke-miterlimit="10"/><path opacity=".46" d="M172.186 14.342l8.629 22.967m-31.471-13.617l11.585 22.754" stroke="#734800" stroke-width="2" stroke-miterlimit="10"/><path opacity=".87" d="M104.493 48.596l15.05 22.036" stroke="#734800" stroke-width="2" stroke-miterlimit="10"/><path opacity=".7" d="M84.607 63.108l17.737 20.424" stroke="#734800" stroke-width="2" stroke-miterlimit="10"/><path opacity=".5" d="M64.72 81.92l20.424 17.736" stroke="#734800" stroke-width="2" stroke-miterlimit="10"/><path opacity=".45" d="M49.133 102.344l22.037 15.049m-48.993 31.091l24.351 10.915" stroke="#734800" stroke-width="2" stroke-miterlimit="10"/><path opacity=".6" d="M13.032 170.877l25.89 8.326" stroke="#734800" stroke-width="2" stroke-miterlimit="10"/><path opacity=".7" d="M6.096 197.918l26.394 4.012" stroke="#734800" stroke-width="2" stroke-miterlimit="10"/><path opacity=".8" d="M3.26 223.298l27.061 1.053M5.598 272.724l23.111-1.612" stroke="#734800" stroke-width="2" stroke-miterlimit="10"/><path opacity=".6" d="M8.977 298.689l22.803-4.094" stroke="#734800" stroke-width="2" stroke-miterlimit="10"/><path opacity=".5" d="M15.918 324.722l21.82-7.787" stroke="#734800" stroke-width="2" stroke-miterlimit="10"/><path opacity=".4" d="M25.495 347.822l20.94-9.915m3.773 54.137l20.075-13.747" stroke="#734800" stroke-width="2" stroke-miterlimit="10"/><path opacity=".5" d="M64.72 414.081l20.51-17.288" stroke="#734800" stroke-width="2" stroke-miterlimit="10"/><path opacity=".6" d="M84.45 432.758l17.356-20.29" stroke="#734800" stroke-width="2" stroke-miterlimit="10"/><path opacity=".6" d="M159.66 448.345l-11.819 23.939-.865-.425 11.824-23.944.86.43z" fill="#734800"/><path opacity=".5" d="M180.507 457.989l-8.863 23.913-.904-.337 8.869-23.919.898.343z" fill="#734800"/><path opacity=".4" d="M202.443 465.336l-3.779 20.341-.948-.173 3.782-20.348.945.18zm22.057 3.034l-1.657 20.623-.961-.074 1.659-20.629.959.08z" fill="#734800"/><path d="M446.69 102.124l-22.298 14.999 2.7 4.014 22.298-14.999-2.7-4.014zm-15.616-20.158l-20.519 17.355 3.124 3.693 20.519-17.354-3.124-3.694zm-19.873-18.75l-17.349 20.523 3.694 3.123 17.349-20.523-3.694-3.123zm-19.894-14.735l-15.273 22.112 3.979 2.749 15.274-22.111-3.98-2.75zm101.33 174.35l-26.855 1.014.183 4.833 26.855-1.014-.183-4.833zm-2.665-25.36l-26.582 3.953.712 4.785 26.582-3.953-.712-4.785zm-7.026-26.403l-25.555 8.316 1.497 4.6 25.555-8.316-1.497-4.6zm-9.156-22.999l-24.626 10.759 1.937 4.433 24.626-10.759-1.937-4.433zM346.32 22.83l-12.081 24.005 4.321 2.174 12.081-24.005-4.321-2.175zm-23.494-9.913l-9.375 25.186 4.534 1.687 9.375-25.185-4.534-1.688zm-26.514-6.599l-5.058 26.394 4.751.91 5.059-26.393-4.752-.91zm-24.56-3.088l-2.471 26.76 4.816.445 2.471-26.76-4.816-.445zm155.339 371.873l-2.7 4.015 22.299 14.998 2.7-4.015-22.299-14.998zm-13.411 18.122l-3.124 3.693 20.517 17.357 3.124-3.694-20.517-17.356zm-16.134 16.153l-3.694 3.123 17.35 20.523 3.694-3.123-17.35-20.523zm-21.508 16.269l15.232 22.058.038.054 3.982-2.752-15.275-22.112-3.187 2.204-.79.548z" fill="#F4DF95"/><path opacity=".6" d="M376.038 425.647l15.232 22.058.795-.548-15.237-22.058-.79.548z" fill="#734800"/><path d="M465.495 269.571l-.319 4.827 26.815 1.773.32-4.827-26.816-1.773zm-2.497 22.409l-.846 4.763 26.459 4.701.847-4.763-26.46-4.701zm-5.839 22.069l-1.626 4.556 25.311 9.034 1.626-4.556-25.311-9.034zm-8.37 20.496l-2.06 4.376 24.313 11.449 2.061-4.377-24.314-11.448zM334.238 449.404l12.083 24.009 3.219-1.624 1.102-.553-12.077-23.999-.005-.005-1.36.683-.86.43-2.102 1.059zm-16.252 7.045l-4.534 1.687 9.372 25.187 4.534-1.687-9.372-25.187zm-21.98 6.169l-4.751.91 5.056 26.394 4.751-.91-5.056-26.394zm-21.91 3.187l-4.816.445 2.473 26.76 4.816-.445-2.473-26.76z" fill="#F4DF95"/><path opacity=".6" d="M273.799 4.523l-2.15 23.649" stroke="#734800" stroke-width="2" stroke-miterlimit="10"/><path opacity=".5" d="M297.921 7.364l-4.658 24.724" stroke="#734800" stroke-width="2" stroke-miterlimit="10"/><path opacity=".46" d="M323.814 14.342l-8.629 22.967m31.471-13.617l-11.585 22.754" stroke="#734800" stroke-width="2" stroke-miterlimit="10"/><path opacity=".87" d="M391.506 48.596l-15.049 22.036" stroke="#734800" stroke-width="2" stroke-miterlimit="10"/><path opacity=".7" d="M411.393 63.108l-17.736 20.424" stroke="#734800" stroke-width="2" stroke-miterlimit="10"/><path opacity=".5" d="M431.28 81.92l-20.424 17.736" stroke="#734800" stroke-width="2" stroke-miterlimit="10"/><path opacity=".45" d="M446.867 102.344l-22.037 15.049m48.993 31.091l-24.351 10.915" stroke="#734800" stroke-width="2" stroke-miterlimit="10"/><path opacity=".6" d="M482.968 170.877l-25.889 8.326" stroke="#734800" stroke-width="2" stroke-miterlimit="10"/><path opacity=".7" d="M489.904 197.918l-26.394 4.012" stroke="#734800" stroke-width="2" stroke-miterlimit="10"/><path opacity=".8" d="M492.74 223.298l-27.062 1.053m24.724 48.373l-23.111-1.612" stroke="#734800" stroke-width="2" stroke-miterlimit="10"/><path opacity=".6" d="M487.023 298.689l-22.803-4.094" stroke="#734800" stroke-width="2" stroke-miterlimit="10"/><path opacity=".5" d="M480.082 324.722l-21.82-7.787" stroke="#734800" stroke-width="2" stroke-miterlimit="10"/><path opacity=".4" d="M470.505 347.822l-20.939-9.915m-3.774 54.137l-20.075-13.747" stroke="#734800" stroke-width="2" stroke-miterlimit="10"/><path opacity=".5" d="M431.28 414.081l-20.51-17.287" stroke="#734800" stroke-width="2" stroke-miterlimit="10"/><path opacity=".6" d="M411.55 432.758l-17.356-20.29" stroke="#734800" stroke-width="2" stroke-miterlimit="10"/><path opacity=".6" d="M336.34 448.345l11.819 23.939.865-.425-11.824-23.944-.86.43z" fill="#734800"/><path opacity=".5" d="M315.493 457.989l8.864 23.913.903-.337-8.868-23.919-.899.343z" fill="#734800"/><path opacity=".4" d="M293.558 465.336l3.778 20.341.948-.173-3.782-20.348-.944.18zM271.5 468.37l1.657 20.623.961-.074-1.66-20.629-.958.08z" fill="#734800"/><defs><linearGradient id="paint0_linear_8_88" x1="237.265" y1="52.321" x2="256.998" y2="-3.331" gradientUnits="userSpaceOnUse"><stop stop-color="#FFE482"/><stop offset=".977" stop-color="#A16200"/></linearGradient><linearGradient id="paint1_linear_8_88" x1="247.972" y1="-.392" x2="247.972" y2="5.087" gradientUnits="userSpaceOnUse"><stop stop-color="#875924" stop-opacity="0"/><stop offset=".142" stop-color="#A26B2B" stop-opacity=".221"/><stop offset=".31" stop-color="#BE7F32" stop-opacity=".455"/><stop offset=".472" stop-color="#D58F38" stop-opacity=".65"/><stop offset=".623" stop-color="#E79C3D" stop-opacity=".802"/><stop offset=".762" stop-color="#F4A540" stop-opacity=".911"/><stop offset=".884" stop-color="#FCAA42" stop-opacity=".977"/><stop offset=".976" stop-color="#FFAC43"/></linearGradient><linearGradient id="paint2_linear_8_88" x1="247.972" y1="45.114" x2="247.972" y2="39.635" gradientUnits="userSpaceOnUse"><stop stop-color="#F4DF95" stop-opacity="0"/><stop offset=".373" stop-color="#CAA360" stop-opacity=".408"/><stop offset=".797" stop-color="#9E6428" stop-opacity=".833"/><stop offset="1" stop-color="#8D4B12"/></linearGradient><linearGradient id="paint3_linear_8_88" x1="239.203" y1="25.306" x2="253.622" y2="19.933" gradientUnits="userSpaceOnUse"><stop stop-color="#F4DF95" stop-opacity="0"/><stop offset=".664" stop-color="#81643F" stop-opacity=".717"/><stop offset=".984" stop-color="#53331D"/></linearGradient><linearGradient id="paint4_linear_8_88" x1="1240.34" y1="9086.5" x2="1240.34" y2="6206.69" gradientUnits="userSpaceOnUse"><stop stop-color="#DA930A" stop-opacity=".5"/><stop offset=".979" stop-color="#5B291C"/></linearGradient><linearGradient id="paint5_linear_8_88" x1="246.604" y1="42.418" x2="249.178" y2=".438" gradientUnits="userSpaceOnUse"><stop offset=".101" stop-color="#FFED9F"/><stop offset=".22" stop-color="#FBE89B"/><stop offset=".356" stop-color="#EEDA91"/><stop offset=".5" stop-color="#DAC380"/><stop offset=".651" stop-color="#BDA367"/><stop offset=".806" stop-color="#997A48"/><stop offset=".963" stop-color="#6C4822"/><stop offset=".984" stop-color="#66411D"/></linearGradient><linearGradient id="paint6_linear_8_88" x1="-109757" y1="79858.4" x2="-107779" y2="82358" gradientUnits="userSpaceOnUse"><stop stop-color="#FFE482"/><stop offset=".977" stop-color="#A16200"/></linearGradient><linearGradient id="paint7_linear_8_88" x1="-24946.6" y1="18080.8" x2="-25056.2" y2="18080.8" gradientUnits="userSpaceOnUse"><stop stop-color="#875924" stop-opacity="0"/><stop offset=".142" stop-color="#A26B2B" stop-opacity=".221"/><stop offset=".31" stop-color="#BE7F32" stop-opacity=".455"/><stop offset=".472" stop-color="#D58F38" stop-opacity=".65"/><stop offset=".623" stop-color="#E79C3D" stop-opacity=".802"/><stop offset=".762" stop-color="#F4A540" stop-opacity=".911"/><stop offset=".884" stop-color="#FCAA42" stop-opacity=".977"/><stop offset=".976" stop-color="#FFAC43"/></linearGradient><linearGradient id="paint8_linear_8_88" x1="-67867.6" y1="-5175.99" x2="-67758" y2="-5175.99" gradientUnits="userSpaceOnUse"><stop stop-color="#F4DF95" stop-opacity="0"/><stop offset=".373" stop-color="#CAA360" stop-opacity=".408"/><stop offset=".797" stop-color="#9E6428" stop-opacity=".833"/><stop offset="1" stop-color="#8D4B12"/></linearGradient><linearGradient id="paint9_linear_8_88" x1="-18179.2" y1="237220" x2="-17703.3" y2="237498" gradientUnits="userSpaceOnUse"><stop stop-color="#F4DF95" stop-opacity="0"/><stop offset=".664" stop-color="#81643F" stop-opacity=".717"/><stop offset=".984" stop-color="#53331D"/></linearGradient><linearGradient id="paint10_linear_8_88" x1="-3006" y1="276223" x2="-2893.8" y2="276223" gradientUnits="userSpaceOnUse"><stop stop-color="#DA930A" stop-opacity=".5"/><stop offset=".979" stop-color="#5B291C"/></linearGradient><linearGradient id="paint11_linear_8_88" x1="-18427.1" y1="239523" x2="-17816.2" y2="239532" gradientUnits="userSpaceOnUse"><stop offset=".101" stop-color="#FFED9F"/><stop offset=".22" stop-color="#FBE89B"/><stop offset=".356" stop-color="#EEDA91"/><stop offset=".5" stop-color="#DAC380"/><stop offset=".651" stop-color="#BDA367"/><stop offset=".806" stop-color="#997A48"/><stop offset=".963" stop-color="#6C4822"/><stop offset=".984" stop-color="#66411D"/></linearGradient><linearGradient id="paint12_linear_8_88" x1="-80110.7" y1="65800.5" x2="-79595.6" y2="68945.7" gradientUnits="userSpaceOnUse"><stop stop-color="#FFE482"/><stop offset=".977" stop-color="#A16200"/></linearGradient><linearGradient id="paint13_linear_8_88" x1="-32842.5" y1="44483.1" x2="-32928.3" y2="44435.5" gradientUnits="userSpaceOnUse"><stop stop-color="#875924" stop-opacity="0"/><stop offset=".142" stop-color="#A26B2B" stop-opacity=".221"/><stop offset=".31" stop-color="#BE7F32" stop-opacity=".455"/><stop offset=".472" stop-color="#D58F38" stop-opacity=".65"/><stop offset=".623" stop-color="#E79C3D" stop-opacity=".802"/><stop offset=".762" stop-color="#F4A540" stop-opacity=".911"/><stop offset=".884" stop-color="#FCAA42" stop-opacity=".977"/><stop offset=".976" stop-color="#FFAC43"/></linearGradient><linearGradient id="paint14_linear_8_88" x1="-37698.6" y1="-25733.8" x2="-37612.9" y2="-25686.2" gradientUnits="userSpaceOnUse"><stop stop-color="#F4DF95" stop-opacity="0"/><stop offset=".373" stop-color="#CAA360" stop-opacity=".408"/><stop offset=".797" stop-color="#9E6428" stop-opacity=".833"/><stop offset="1" stop-color="#8D4B12"/></linearGradient><linearGradient id="paint15_linear_8_88" x1="-148920" y1="238705" x2="-148812" y2="239562" gradientUnits="userSpaceOnUse"><stop stop-color="#F4DF95" stop-opacity="0"/><stop offset=".664" stop-color="#81643F" stop-opacity=".717"/><stop offset=".984" stop-color="#53331D"/></linearGradient><linearGradient id="paint16_linear_8_88" x1="-156046" y1="246486" x2="-154823" y2="247164" gradientUnits="userSpaceOnUse"><stop stop-color="#DA930A" stop-opacity=".5"/><stop offset=".979" stop-color="#5B291C"/></linearGradient><linearGradient id="paint17_linear_8_88" x1="-150473" y1="240287" x2="-149272" y2="241004" gradientUnits="userSpaceOnUse"><stop offset=".101" stop-color="#FFED9F"/><stop offset=".22" stop-color="#FBE89B"/><stop offset=".356" stop-color="#EEDA91"/><stop offset=".5" stop-color="#DAC380"/><stop offset=".651" stop-color="#BDA367"/><stop offset=".806" stop-color="#997A48"/><stop offset=".963" stop-color="#6C4822"/><stop offset=".984" stop-color="#66411D"/></linearGradient><linearGradient id="paint18_linear_8_88" x1="-213219" y1="175876" x2="-213734" y2="179021" gradientUnits="userSpaceOnUse"><stop stop-color="#FFE482"/><stop offset=".977" stop-color="#A16200"/></linearGradient><linearGradient id="paint19_linear_8_88" x1="424.3" y1="146.919" x2="429.864" y2="143.829" gradientUnits="userSpaceOnUse"><stop stop-color="#875924" stop-opacity="0"/><stop offset=".142" stop-color="#A26F2F" stop-opacity=".221"/><stop offset=".31" stop-color="#BE873A" stop-opacity=".455"/><stop offset=".472" stop-color="#D59B43" stop-opacity=".65"/><stop offset=".623" stop-color="#E7AA4A" stop-opacity=".802"/><stop offset=".762" stop-color="#F4B550" stop-opacity=".911"/><stop offset=".884" stop-color="#FCBC53" stop-opacity=".977"/><stop offset=".976" stop-color="#FFBE54"/></linearGradient><linearGradient id="paint20_linear_8_88" x1="-31471.9" y1="-17842.1" x2="-31557.6" y2="-17794.5" gradientUnits="userSpaceOnUse"><stop stop-color="#F4DF95" stop-opacity="0"/><stop offset=".373" stop-color="#CAA360" stop-opacity=".408"/><stop offset=".797" stop-color="#9E6428" stop-opacity=".833"/><stop offset="1" stop-color="#8D4B12"/></linearGradient><linearGradient id="paint21_linear_8_88" x1="-24380.4" y1="179497" x2="-24488.4" y2="180354" gradientUnits="userSpaceOnUse"><stop stop-color="#F4DF95" stop-opacity="0"/><stop offset=".664" stop-color="#81643F" stop-opacity=".717"/><stop offset=".984" stop-color="#53331D"/></linearGradient><linearGradient id="paint22_linear_8_88" x1="-33607.2" y1="191155" x2="-34829.4" y2="191834" gradientUnits="userSpaceOnUse"><stop stop-color="#DA930A" stop-opacity=".5"/><stop offset=".979" stop-color="#5B291C"/></linearGradient><linearGradient id="paint23_linear_8_88" x1="367.939" y1="20.692" x2="357.438" y2="78.797" gradientUnits="userSpaceOnUse"><stop stop-color="#FFE482"/><stop offset=".979" stop-color="#FFC049"/></linearGradient><linearGradient id="paint24_linear_8_88" x1="-8819.68" y1="49724.3" x2="-8773.92" y2="49644.3" gradientUnits="userSpaceOnUse"><stop stop-color="#875924" stop-opacity="0"/><stop offset=".142" stop-color="#A26F2F" stop-opacity=".221"/><stop offset=".31" stop-color="#BE873A" stop-opacity=".455"/><stop offset=".472" stop-color="#D59B43" stop-opacity=".65"/><stop offset=".623" stop-color="#E7AA4A" stop-opacity=".802"/><stop offset=".762" stop-color="#F4B550" stop-opacity=".911"/><stop offset=".884" stop-color="#FCBC53" stop-opacity=".977"/><stop offset=".976" stop-color="#FFBE54"/></linearGradient><linearGradient id="paint25_linear_8_88" x1="-60519.3" y1="-22333.7" x2="-60556.1" y2="-22269.3" gradientUnits="userSpaceOnUse"><stop stop-color="#F4DF95" stop-opacity="0"/><stop offset=".373" stop-color="#CAA360" stop-opacity=".408"/><stop offset=".797" stop-color="#9E6428" stop-opacity=".833"/><stop offset="1" stop-color="#8D4B12"/></linearGradient><linearGradient id="paint26_linear_8_88" x1="-52012.4" y1="175587" x2="-51513.5" y2="176104" gradientUnits="userSpaceOnUse"><stop stop-color="#F4DF95" stop-opacity="0"/><stop offset=".664" stop-color="#81643F" stop-opacity=".717"/><stop offset=".984" stop-color="#53331D"/></linearGradient><linearGradient id="paint27_linear_8_88" x1="-70315.8" y1="194885" x2="-71556.9" y2="197055" gradientUnits="userSpaceOnUse"><stop stop-color="#DA930A" stop-opacity=".5"/><stop offset=".979" stop-color="#5B291C"/></linearGradient><linearGradient id="paint28_linear_8_88" x1="-124474" y1="259470" x2="-123286" y2="262427" gradientUnits="userSpaceOnUse"><stop stop-color="#FFE482"/><stop offset=".979" stop-color="#FFC049"/></linearGradient><linearGradient id="paint29_linear_8_88" x1="-12060.3" y1="54813.4" x2="-12014.5" y2="54733.4" gradientUnits="userSpaceOnUse"><stop stop-color="#875924" stop-opacity="0"/><stop offset=".142" stop-color="#A26F2F" stop-opacity=".221"/><stop offset=".31" stop-color="#BE873A" stop-opacity=".455"/><stop offset=".472" stop-color="#D59B43" stop-opacity=".65"/><stop offset=".623" stop-color="#E7AA4A" stop-opacity=".802"/><stop offset=".762" stop-color="#F4B550" stop-opacity=".911"/><stop offset=".884" stop-color="#FCBC53" stop-opacity=".977"/><stop offset=".976" stop-color="#FFBE54"/></linearGradient><linearGradient id="paint30_linear_8_88" x1="-63614.1" y1="-16577.6" x2="-63650.9" y2="-16513.3" gradientUnits="userSpaceOnUse"><stop stop-color="#F4DF95" stop-opacity="0"/><stop offset=".373" stop-color="#CAA360" stop-opacity=".408"/><stop offset=".797" stop-color="#9E6428" stop-opacity=".833"/><stop offset="1" stop-color="#8D4B12"/></linearGradient><linearGradient id="paint31_linear_8_88" x1="-65260.3" y1="197996" x2="-64761.3" y2="198513" gradientUnits="userSpaceOnUse"><stop stop-color="#F4DF95" stop-opacity="0"/><stop offset=".664" stop-color="#81643F" stop-opacity=".717"/><stop offset=".984" stop-color="#53331D"/></linearGradient><linearGradient id="paint32_linear_8_88" x1="-85484.5" y1="220702" x2="-86725.6" y2="222872" gradientUnits="userSpaceOnUse"><stop stop-color="#DA930A" stop-opacity=".5"/><stop offset=".979" stop-color="#5B291C"/></linearGradient><linearGradient id="paint33_linear_8_88" x1="173497" y1="293594" x2="172309" y2="296552" gradientUnits="userSpaceOnUse"><stop stop-color="#FFE482"/><stop offset=".979" stop-color="#FFC049"/></linearGradient><linearGradient id="paint34_linear_8_88" x1="34239.1" y1="52709.3" x2="34193.3" y2="52629.3" gradientUnits="userSpaceOnUse"><stop stop-color="#875924" stop-opacity="0"/><stop offset=".142" stop-color="#A26F2F" stop-opacity=".221"/><stop offset=".31" stop-color="#BE873A" stop-opacity=".455"/><stop offset=".472" stop-color="#D59B43" stop-opacity=".65"/><stop offset=".623" stop-color="#E7AA4A" stop-opacity=".802"/><stop offset=".762" stop-color="#F4B550" stop-opacity=".911"/><stop offset=".884" stop-color="#FCBC53" stop-opacity=".977"/><stop offset=".976" stop-color="#FFBE54"/></linearGradient><linearGradient id="paint35_linear_8_88" x1="85245.3" y1="-19086.3" x2="85282.2" y2="-19021.9" gradientUnits="userSpaceOnUse"><stop stop-color="#F4DF95" stop-opacity="0"/><stop offset=".373" stop-color="#CAA360" stop-opacity=".408"/><stop offset=".797" stop-color="#9E6428" stop-opacity=".833"/><stop offset="1" stop-color="#8D4B12"/></linearGradient><linearGradient id="paint36_linear_8_88" x1="129116" y1="205471" x2="128617" y2="205989" gradientUnits="userSpaceOnUse"><stop stop-color="#F4DF95" stop-opacity="0"/><stop offset=".664" stop-color="#81643F" stop-opacity=".717"/><stop offset=".984" stop-color="#53331D"/></linearGradient><linearGradient id="paint37_linear_8_88" x1="144794" y1="237362" x2="146035" y2="239532" gradientUnits="userSpaceOnUse"><stop stop-color="#DA930A" stop-opacity=".5"/><stop offset=".979" stop-color="#5B291C"/></linearGradient><linearGradient id="paint38_linear_8_88" x1="205692" y1="-91549.9" x2="208649" y2="-90361.8" gradientUnits="userSpaceOnUse"><stop stop-color="#FFE482"/><stop offset=".979" stop-color="#FFC049"/></linearGradient><linearGradient id="paint39_linear_8_88" x1="55282.5" y1="-15224.4" x2="55180.7" y2="-15166.3" gradientUnits="userSpaceOnUse"><stop stop-color="#875924" stop-opacity="0"/><stop offset=".142" stop-color="#A26F2F" stop-opacity=".221"/><stop offset=".31" stop-color="#BE873A" stop-opacity=".455"/><stop offset=".472" stop-color="#D59B43" stop-opacity=".65"/><stop offset=".623" stop-color="#E7AA4A" stop-opacity=".802"/><stop offset=".762" stop-color="#F4B550" stop-opacity=".911"/><stop offset=".884" stop-color="#FCBC53" stop-opacity=".977"/><stop offset=".976" stop-color="#FFBE54"/></linearGradient><linearGradient id="paint40_linear_8_88" x1="-14864.2" y1="-44641.9" x2="-14779.6" y2="-44690.3" gradientUnits="userSpaceOnUse"><stop stop-color="#F4DF95" stop-opacity="0"/><stop offset=".373" stop-color="#CAA360" stop-opacity=".408"/><stop offset=".797" stop-color="#9E6428" stop-opacity=".833"/><stop offset="1" stop-color="#8D4B12"/></linearGradient><linearGradient id="paint41_linear_8_88" x1="136854" y1="-11105.9" x2="137563" y2="-10613.4" gradientUnits="userSpaceOnUse"><stop stop-color="#F4DF95" stop-opacity="0"/><stop offset=".664" stop-color="#81643F" stop-opacity=".717"/><stop offset=".984" stop-color="#53331D"/></linearGradient><linearGradient id="paint42_linear_8_88" x1="123178" y1="7780.93" x2="124419" y2="7071.05" gradientUnits="userSpaceOnUse"><stop stop-color="#DA930A" stop-opacity=".5"/><stop offset=".979" stop-color="#5B291C"/></linearGradient><linearGradient id="paint43_linear_8_88" x1="-109314" y1="-54417.2" x2="-112272" y2="-53229.1" gradientUnits="userSpaceOnUse"><stop stop-color="#FFE482"/><stop offset=".979" stop-color="#FFC049"/></linearGradient><linearGradient id="paint44_linear_8_88" x1="-31193.1" y1="-12444.2" x2="-31091.4" y2="-12386" gradientUnits="userSpaceOnUse"><stop stop-color="#875924" stop-opacity="0"/><stop offset=".142" stop-color="#A26F2F" stop-opacity=".221"/><stop offset=".31" stop-color="#BE873A" stop-opacity=".455"/><stop offset=".472" stop-color="#D59B43" stop-opacity=".65"/><stop offset=".623" stop-color="#E7AA4A" stop-opacity=".802"/><stop offset=".762" stop-color="#F4B550" stop-opacity=".911"/><stop offset=".884" stop-color="#FCBC53" stop-opacity=".977"/><stop offset=".976" stop-color="#FFBE54"/></linearGradient><linearGradient id="paint45_linear_8_88" x1="38309.2" y1="-42348.9" x2="38224.6" y2="-42397.3" gradientUnits="userSpaceOnUse"><stop stop-color="#F4DF95" stop-opacity="0"/><stop offset=".373" stop-color="#CAA360" stop-opacity=".408"/><stop offset=".797" stop-color="#9E6428" stop-opacity=".833"/><stop offset="1" stop-color="#8D4B12"/></linearGradient><linearGradient id="paint46_linear_8_88" x1="-67596.1" y1="-18567.1" x2="-68305.2" y2="-18074.6" gradientUnits="userSpaceOnUse"><stop stop-color="#F4DF95" stop-opacity="0"/><stop offset=".664" stop-color="#81643F" stop-opacity=".717"/><stop offset=".984" stop-color="#53331D"/></linearGradient><linearGradient id="paint47_linear_8_88" x1="-58886.4" y1="-9637.48" x2="-60127.5" y2="-10347.4" gradientUnits="userSpaceOnUse"><stop stop-color="#DA930A" stop-opacity=".5"/><stop offset=".979" stop-color="#5B291C"/></linearGradient><linearGradient id="paint48_linear_8_88" x1="-72735.5" y1="80309.9" x2="-70758.2" y2="82809.5" gradientUnits="userSpaceOnUse"><stop stop-color="#FFE482"/><stop offset=".977" stop-color="#A16200"/></linearGradient><linearGradient id="paint49_linear_8_88" x1="-15916.8" y1="18532.3" x2="-16026.4" y2="18532.3" gradientUnits="userSpaceOnUse"><stop stop-color="#875924" stop-opacity="0"/><stop offset=".142" stop-color="#A26B2B" stop-opacity=".221"/><stop offset=".31" stop-color="#BE7F32" stop-opacity=".455"/><stop offset=".472" stop-color="#D58F38" stop-opacity=".65"/><stop offset=".623" stop-color="#E79C3D" stop-opacity=".802"/><stop offset=".762" stop-color="#F4A540" stop-opacity=".911"/><stop offset=".884" stop-color="#FCAA42" stop-opacity=".977"/><stop offset=".976" stop-color="#FFAC43"/></linearGradient><linearGradient id="paint50_linear_8_88" x1="-58839" y1="-5627.47" x2="-58729.4" y2="-5627.47" gradientUnits="userSpaceOnUse"><stop stop-color="#F4DF95" stop-opacity="0"/><stop offset=".373" stop-color="#CAA360" stop-opacity=".408"/><stop offset=".797" stop-color="#9E6428" stop-opacity=".833"/><stop offset="1" stop-color="#8D4B12"/></linearGradient><linearGradient id="paint51_linear_8_88" x1="-11632.8" y1="237671" x2="-11156.8" y2="237949" gradientUnits="userSpaceOnUse"><stop stop-color="#F4DF95" stop-opacity="0"/><stop offset=".664" stop-color="#81643F" stop-opacity=".717"/><stop offset=".984" stop-color="#53331D"/></linearGradient><linearGradient id="paint52_linear_8_88" x1="-1651.56" y1="276675" x2="-1539.36" y2="276675" gradientUnits="userSpaceOnUse"><stop stop-color="#DA930A" stop-opacity=".5"/><stop offset=".979" stop-color="#5B291C"/></linearGradient><linearGradient id="paint53_linear_8_88" x1="-11880.6" y1="239975" x2="-11269.7" y2="239983" gradientUnits="userSpaceOnUse"><stop offset=".101" stop-color="#FFED9F"/><stop offset=".22" stop-color="#FBE89B"/><stop offset=".356" stop-color="#EEDA91"/><stop offset=".5" stop-color="#DAC380"/><stop offset=".651" stop-color="#BDA367"/><stop offset=".806" stop-color="#997A48"/><stop offset=".963" stop-color="#6C4822"/><stop offset=".984" stop-color="#66411D"/></linearGradient><linearGradient id="paint54_linear_8_88" x1="7469.89" y1="48255.9" x2="9969.51" y2="46278.6" gradientUnits="userSpaceOnUse"><stop stop-color="#FFE482"/><stop offset=".977" stop-color="#A16200"/></linearGradient><linearGradient id="paint55_linear_8_88" x1="6742.04" y1="3576.9" x2="6742.04" y2="3609.16" gradientUnits="userSpaceOnUse"><stop stop-color="#875924" stop-opacity="0"/><stop offset=".142" stop-color="#A26B2B" stop-opacity=".221"/><stop offset=".31" stop-color="#BE7F32" stop-opacity=".455"/><stop offset=".472" stop-color="#D58F38" stop-opacity=".65"/><stop offset=".623" stop-color="#E79C3D" stop-opacity=".802"/><stop offset=".762" stop-color="#F4A540" stop-opacity=".911"/><stop offset=".884" stop-color="#FCAA42" stop-opacity=".977"/><stop offset=".976" stop-color="#FFAC43"/></linearGradient><linearGradient id="paint56_linear_8_88" x1="88138.7" y1="-16111.7" x2="88138.7" y2="-16079.4" gradientUnits="userSpaceOnUse"><stop stop-color="#F4DF95" stop-opacity="0"/><stop offset=".373" stop-color="#CAA360" stop-opacity=".408"/><stop offset=".797" stop-color="#9E6428" stop-opacity=".833"/><stop offset="1" stop-color="#8D4B12"/></linearGradient><linearGradient id="paint57_linear_8_88" x1="4829.14" y1="37427.5" x2="5065.68" y2="37408.3" gradientUnits="userSpaceOnUse"><stop stop-color="#F4DF95" stop-opacity="0"/><stop offset=".664" stop-color="#81643F" stop-opacity=".717"/><stop offset=".984" stop-color="#53331D"/></linearGradient><linearGradient id="paint58_linear_8_88" x1="1240.34" y1="44469.7" x2="1240.34" y2="41589.9" gradientUnits="userSpaceOnUse"><stop stop-color="#DA930A" stop-opacity=".5"/><stop offset=".979" stop-color="#5B291C"/></linearGradient><linearGradient id="paint59_linear_8_88" x1="4936.23" y1="38852.1" x2="5676.84" y2="36238.8" gradientUnits="userSpaceOnUse"><stop offset=".101" stop-color="#FFED9F"/><stop offset=".22" stop-color="#FBE89B"/><stop offset=".356" stop-color="#EEDA91"/><stop offset=".5" stop-color="#DAC380"/><stop offset=".651" stop-color="#BDA367"/><stop offset=".806" stop-color="#997A48"/><stop offset=".963" stop-color="#6C4822"/><stop offset=".984" stop-color="#66411D"/></linearGradient><linearGradient id="paint60_linear_8_88" x1="-51716.1" y1="-68661.3" x2="-50528" y2="-71618.7" gradientUnits="userSpaceOnUse"><stop stop-color="#FFE482"/><stop offset=".979" stop-color="#FFC049"/></linearGradient><linearGradient id="paint61_linear_8_88" x1="-17215.9" y1="-13377.8" x2="-17170.2" y2="-13297.8" gradientUnits="userSpaceOnUse"><stop stop-color="#875924" stop-opacity="0"/><stop offset=".142" stop-color="#A26F2F" stop-opacity=".221"/><stop offset=".31" stop-color="#BE873A" stop-opacity=".455"/><stop offset=".472" stop-color="#D59B43" stop-opacity=".65"/><stop offset=".623" stop-color="#E7AA4A" stop-opacity=".802"/><stop offset=".762" stop-color="#F4B550" stop-opacity=".911"/><stop offset=".884" stop-color="#FCBC53" stop-opacity=".977"/><stop offset=".976" stop-color="#FFBE54"/></linearGradient><linearGradient id="paint62_linear_8_88" x1="-68683.6" y1="56335.7" x2="-68720.5" y2="56271.4" gradientUnits="userSpaceOnUse"><stop stop-color="#F4DF95" stop-opacity="0"/><stop offset=".373" stop-color="#CAA360" stop-opacity=".408"/><stop offset=".797" stop-color="#9E6428" stop-opacity=".833"/><stop offset="1" stop-color="#8D4B12"/></linearGradient><linearGradient id="paint63_linear_8_88" x1="-49847.2" y1="-42614.1" x2="-49348.2" y2="-43131.5" gradientUnits="userSpaceOnUse"><stop stop-color="#F4DF95" stop-opacity="0"/><stop offset=".664" stop-color="#81643F" stop-opacity=".717"/><stop offset=".984" stop-color="#53331D"/></linearGradient><linearGradient id="paint64_linear_8_88" x1="-50299" y1="-51901.3" x2="-51540.1" y2="-54071.2" gradientUnits="userSpaceOnUse"><stop stop-color="#DA930A" stop-opacity=".5"/><stop offset=".979" stop-color="#5B291C"/></linearGradient></defs></svg>