<svg width="25" height="21" fill="none" xmlns="http://www.w3.org/2000/svg"><path d="M24.459 1.376c-.051.533-.221 1.155-.354 1.783-1.116 5.276-2.235 10.55-3.358 15.824-.07.328-.14.657-.296.958-.24.465-.674.664-1.18.54a2.169 2.169 0 01-.784-.363c-1.741-1.287-3.486-2.57-5.22-3.865-.19-.14-.292-.124-.45.032-.852.84-1.714 1.67-2.572 2.503-.309.299-.65.515-1.108.482-.421-.03-.531-.101-.657-.512a2044.89 2044.89 0 01-1.95-6.424c-.07-.232-.17-.355-.412-.43C4.403 11.382 2.694 10.84.984 10.3c-.224-.07-.45-.136-.648-.273-.418-.29-.448-.668-.079-1.022.295-.283.665-.438 1.036-.582 3.962-1.532 7.924-3.062 11.888-4.59 3.168-1.222 6.336-2.446 9.504-3.67l.153-.057c.95-.34 1.633.149 1.62 1.27zM9.224 17.586l.104-.22c.521-1.167 1.047-2.331 1.56-3.501.12-.273.292-.52.506-.726 3.24-3.18 6.475-6.362 9.708-9.548.066-.065.162-.112.18-.245-.284.089-.502.27-.738.41-4.317 2.557-8.633 5.115-12.95 7.674-.167.099-.193.184-.137.365.362 1.159.71 2.322 1.063 3.484l.704 2.307z" fill="#250F08" fill-opacity=".7"/></svg>