<svg width="375" height="2236" viewBox="0 0 375 2236" fill="none" xmlns="http://www.w3.org/2000/svg">
<path d="M19 1448L48 1448L48 1186L19 1186L19 1448Z" fill="#220C00"/>
<path d="M28 1448L38 1448L38 1187L28 1187L28 1448Z" fill="#2C1A0F"/>
<path d="M25.0279 1181.14L41.7302 1181.14L38.3413 1187.44L28.6588 1187.44L25.0279 1181.14Z" fill="#2C1A0F"/>
<path d="M25.2699 1169.33L25.2699 1178.78L41.9722 1178.78L41.9722 1169.33L43.9087 1162.66L23.0914 1162.51L25.2699 1169.33Z" fill="#2C1A0F"/>
<g opacity="0.58">
<path opacity="0.58" d="M22.8491 1157.93L24.7856 1153.05L24.7856 1134.94L42.2141 1134.94L42.2141 1153.05L44.1506 1158.04L22.8491 1157.93Z" fill="#2C1A0F"/>
</g>
<path d="M19.4601 1089L47.5393 1089.13L44.9868 1094.51L22.0129 1094.51L19.4601 1089Z" fill="#2C1A0F"/>
<path d="M22.849 1108.43L44.6345 1108.43L44.6345 1100.03L22.849 1100.03L22.849 1108.43Z" fill="#2C1A0F"/>
<g opacity="0.58">
<path opacity="0.58" d="M8.80955 1103.18L22.8491 1100.03L22.8491 1108.43L8.80955 1111.58L8.80955 1103.18Z" fill="#2C1A0F"/>
</g>
<g opacity="0.58">
<path opacity="0.58" d="M58.6746 1103.18L44.6349 1100.03L44.6349 1108.43L58.6746 1111.58L58.6746 1103.18Z" fill="#2C1A0F"/>
</g>
<path d="M28.6584 1187.44L25.0275 1181.14L15.5871 1179.83L18.7339 1185.87L28.6584 1187.44Z" fill="#230F0F"/>
<path d="M38.0991 1187.44L41.73 1181.14L51.6545 1179.83L48.0236 1185.87L38.0991 1187.44Z" fill="#230F0F"/>
<g opacity="0.58">
<path opacity="0.58" d="M51.6542 1177.73L52.3719 1170.47L56.6165 1164.21L43.9082 1162.77L41.9717 1169.33L41.9717 1178.78L51.6542 1177.73Z" fill="#2C1A0F"/>
</g>
<g opacity="0.58">
<path opacity="0.58" d="M15.2244 1177.73L14.5067 1170.47L10.2622 1164.21L23.0915 1162.24L25.27 1169.33L25.27 1178.78L15.2244 1177.73Z" fill="#2C1A0F"/>
</g>
<g opacity="0.58">
<path opacity="0.58" d="M47.0553 1158.04L56.7378 1159.35L52.8648 1152.53L52.8648 1137.57L44.1506 1135.73L44.1506 1152L47.0553 1158.04Z" fill="#2C1A0F"/>
</g>
<g opacity="0.58">
<path opacity="0.58" d="M19.9444 1158.04L10.2619 1159.35L14.1349 1152.53L14.1349 1137.57L22.8491 1135.73L22.8491 1152L19.9444 1158.04Z" fill="#2C1A0F"/>
</g>
<path d="M22.365 1094.51L6.87306 1097.66L3.00008 1093.2L19.4603 1089L22.365 1094.51Z" fill="#2C1A0F"/>
<path d="M44.8768 1094.51L60.3688 1097.66L63.9998 1093.2L47.5395 1089L44.8768 1094.51Z" fill="#2C1A0F"/>
<g opacity="0.58">
<path opacity="0.58" d="M23.5048 1129.69L44.7199 1129.69L54.9695 1132.34C55.1567 1132.39 55.3184 1132.51 55.4191 1132.69C55.5199 1132.87 55.5514 1133.08 55.5068 1133.29C55.4622 1133.49 55.3451 1133.66 55.1812 1133.77C55.0174 1133.88 54.8201 1133.92 54.6329 1133.87L44.5492 1131.27L23.6457 1131.27L11.3698 1133.88C11.2762 1133.9 11.1799 1133.9 11.0864 1133.88C10.9929 1133.85 10.904 1133.81 10.8249 1133.76C10.7457 1133.7 10.6778 1133.62 10.6251 1133.54C10.5723 1133.45 10.5357 1133.36 10.5173 1133.25C10.499 1133.15 10.4993 1133.05 10.5181 1132.95C10.537 1132.85 10.5741 1132.75 10.6273 1132.66C10.6805 1132.58 10.7488 1132.5 10.8283 1132.45C10.9077 1132.39 10.9968 1132.35 11.0904 1132.33L23.5048 1129.69Z" fill="#2C1A0F"/>
</g>
<path d="M24.3013 1124.96L42.2139 1124.96L42.2139 1113.68L24.3013 1113.68L24.3013 1124.96Z" fill="#2C1A0F"/>
<g opacity="0.58">
<path opacity="0.58" d="M11.2302 1116.3L24.3015 1113.68L24.3015 1124.97L11.2302 1127.59L11.2302 1116.3Z" fill="#2C1A0F"/>
</g>
<g opacity="0.58">
<path opacity="0.58" d="M55.2854 1116.3L42.214 1113.68L42.214 1124.97L55.2854 1127.59L55.2854 1116.3Z" fill="#2C1A0F"/>
</g>
<path d="M331 1479.5L360 1479.5L360 833L331 833L331 1479.5Z" fill="#220C00"/>
<path d="M340.42 1478L349.925 1478L349.925 833.999L340.421 833.999L340.42 1478Z" fill="#2C1A0F"/>
<path d="M337.028 828.237L353.73 828.237L350.342 834.537L340.659 834.537L337.028 828.237Z" fill="#2C1A0F"/>
<path d="M337.27 816.424L337.27 825.875L353.972 825.875L353.972 816.424L355.909 809.757L335.092 809.598L337.27 816.424Z" fill="#2C1A0F"/>
<g opacity="0.58">
<path opacity="0.58" d="M334.849 805.02L336.786 800.147L336.786 782.034L354.214 782.034L354.214 800.147L356.151 805.135L334.849 805.02Z" fill="#2C1A0F"/>
</g>
<path d="M331.46 736.093L359.54 736.221L356.987 741.606L334.013 741.606L331.46 736.093Z" fill="#2C1A0F"/>
<path d="M334.849 755.519L356.635 755.519L356.635 747.119L334.849 747.119L334.849 755.519Z" fill="#2C1A0F"/>
<g opacity="0.58">
<path opacity="0.58" d="M320.81 750.269L334.849 747.119L334.849 755.519L320.81 758.669L320.81 750.269Z" fill="#2C1A0F"/>
</g>
<g opacity="0.58">
<path opacity="0.58" d="M370.675 750.269L356.635 747.119L356.635 755.519L370.675 758.669L370.675 750.269Z" fill="#2C1A0F"/>
</g>
<path d="M340.659 834.537L337.028 828.237L327.587 826.924L330.734 832.962L340.659 834.537Z" fill="#230F0F"/>
<path d="M350.099 834.537L353.73 828.237L363.655 826.924L360.024 832.962L350.099 834.537Z" fill="#230F0F"/>
<g opacity="0.58">
<path opacity="0.58" d="M363.654 824.824L364.372 817.56L368.617 811.304L355.908 809.861L353.972 816.424L353.972 825.874L363.654 824.824Z" fill="#2C1A0F"/>
</g>
<g opacity="0.58">
<path opacity="0.58" d="M327.225 824.824L326.507 817.561L322.262 811.305L335.092 809.336L337.27 816.424L337.27 825.875L327.225 824.824Z" fill="#2C1A0F"/>
</g>
<g opacity="0.58">
<path opacity="0.58" d="M359.056 805.135L368.738 806.448L364.865 799.622L364.865 784.659L356.151 782.821L356.151 799.097L359.056 805.135Z" fill="#2C1A0F"/>
</g>
<g opacity="0.58">
<path opacity="0.58" d="M331.945 805.135L322.262 806.448L326.135 799.622L326.135 784.659L334.849 782.821L334.849 799.097L331.945 805.135Z" fill="#2C1A0F"/>
</g>
<path d="M334.365 741.605L318.873 744.756L315 740.293L331.46 736.093L334.365 741.605Z" fill="#2C1A0F"/>
<path d="M356.877 741.605L372.369 744.756L376 740.293L359.54 736.093L356.877 741.605Z" fill="#2C1A0F"/>
<g opacity="0.58">
<path opacity="0.58" d="M335.505 776.783L356.72 776.783L366.97 779.43C367.157 779.479 367.319 779.606 367.419 779.784C367.52 779.961 367.552 780.175 367.507 780.378C367.462 780.581 367.345 780.757 367.181 780.866C367.018 780.976 366.82 781.01 366.633 780.962L356.549 778.358L335.646 778.358L323.37 780.969C323.276 780.989 323.18 780.989 323.087 780.968C322.993 780.948 322.904 780.907 322.825 780.85C322.746 780.792 322.678 780.718 322.625 780.632C322.573 780.546 322.536 780.449 322.518 780.347C322.499 780.246 322.5 780.142 322.518 780.04C322.537 779.939 322.574 779.842 322.628 779.757C322.681 779.671 322.749 779.597 322.829 779.54C322.908 779.483 322.997 779.443 323.091 779.423L335.505 776.783Z" fill="#2C1A0F"/>
</g>
<path d="M336.302 772.058L354.214 772.058L354.214 760.769L336.302 760.769L336.302 772.058Z" fill="#2C1A0F"/>
<g opacity="0.58">
<path opacity="0.58" d="M323.23 763.395L336.302 760.77L336.302 772.058L323.23 774.683L323.23 763.395Z" fill="#2C1A0F"/>
</g>
<g opacity="0.58">
<path opacity="0.58" d="M367.286 763.395L354.214 760.77L354.214 772.058L367.286 774.683L367.286 763.395Z" fill="#2C1A0F"/>
</g>
<g opacity="0.08">
<path opacity="0.08" d="M277.351 319.954H277.376V561.256H265.197C265.146 563.57 265.092 565.886 265.034 568.203C265.019 565.887 265.005 563.571 264.991 561.256H100.3V319.954H100.575C100.476 318.469 100.426 316.973 100.425 315.467C100.425 294.451 110.131 262.682 125.86 235.949H252.066C267.798 262.682 277.501 294.451 277.501 315.467C277.501 316.974 277.451 318.469 277.351 319.954Z" fill="white"/>
</g>
<path d="M259.88 168.508H259.901V1447.51H118L118 168.508H118.222C118.143 166.463 118.099 164.401 118.099 162.322C118.099 119.37 135.206 40.1904 159.799 1.08521H218.302C242.894 40.1904 260 119.37 260 162.322C260 164.401 259.96 166.463 259.88 168.508Z" fill="#130000"/>
<g opacity="0.28">
<path opacity="0.28" d="M88 1.00024H76V2255H88V1.00024Z" fill="url(#paint0_linear_691_11)"/>
</g>
<g opacity="0.28">
<path opacity="0.28" d="M304 1.00024H289V1789H304V1.00024Z" fill="url(#paint1_linear_691_11)"/>
</g>
<path d="M361 0H330V112.306H361V0Z" fill="#220C00"/>
<path d="M351 0H341V111.216H351V0Z" fill="#2C1A0F"/>
<path d="M354.569 117.499H336.996L340.561 110.629H350.749L354.569 117.499Z" fill="#2C1A0F"/>
<path d="M360 218.07H331V737.079H360V218.07Z" fill="#311D0F"/>
<g opacity="0.58">
<path opacity="0.58" d="M377.745 213.389V741.084L360.427 737.078V217.343L377.745 213.389Z" fill="#2C1A0F"/>
</g>
<path d="M354.314 130.379V120.074H336.741V130.379L334.704 137.648L356.606 137.821L354.314 130.379Z" fill="#2C1A0F"/>
<g opacity="0.58">
<path opacity="0.58" d="M356.861 142.814L354.824 148.127V167.877H336.487V148.127L334.449 142.688L356.861 142.814Z" fill="#2C1A0F"/>
</g>
<path d="M360.427 217.969L330.884 217.829L333.569 211.958H357.741L360.427 217.969Z" fill="#2C1A0F"/>
<path d="M356.861 196.787H333.94V205.946H356.861V196.787Z" fill="#2C1A0F"/>
<g opacity="0.58">
<path opacity="0.58" d="M371.632 202.512L356.861 205.947V196.787L371.632 193.352V202.512Z" fill="#2C1A0F"/>
</g>
<g opacity="0.58">
<path opacity="0.58" d="M319.168 202.512L333.94 205.947V196.787L319.168 193.352V202.512Z" fill="#2C1A0F"/>
</g>
<path d="M350.749 110.629L354.569 117.499L364.501 118.93L361.191 112.347L350.749 110.629Z" fill="#230F0F"/>
<path d="M340.816 110.629L336.996 117.499L326.554 118.93L330.374 112.347L340.816 110.629Z" fill="#230F0F"/>
<g opacity="0.58">
<path opacity="0.58" d="M326.555 121.22L325.8 129.14L321.334 135.961L334.704 137.536L336.742 130.38V120.075L326.555 121.22Z" fill="#2C1A0F"/>
</g>
<g opacity="0.58">
<path opacity="0.58" d="M364.883 121.22L365.638 129.14L370.104 135.961L356.606 138.108L354.314 130.379V120.075L364.883 121.22Z" fill="#2C1A0F"/>
</g>
<g opacity="0.58">
<path opacity="0.58" d="M331.393 142.688L321.206 141.257L325.281 148.699V165.015L334.449 167.018V149.272L331.393 142.688Z" fill="#2C1A0F"/>
</g>
<g opacity="0.58">
<path opacity="0.58" d="M359.917 142.688L370.104 141.256L366.029 148.699V165.014L356.861 167.018V149.271L359.917 142.688Z" fill="#2C1A0F"/>
</g>
<path d="M357.37 211.958L373.67 208.523L377.745 213.389L360.427 217.969L357.37 211.958Z" fill="#2C1A0F"/>
<g opacity="0.58">
<path opacity="0.58" d="M330.884 217.343V737.078L315 741.084L313.566 213.389L330.884 217.343Z" fill="#2C1A0F"/>
</g>
<path d="M333.685 211.958L317.386 208.523L313.565 213.389L330.884 217.969L333.685 211.958Z" fill="#2C1A0F"/>
<g opacity="0.58">
<path opacity="0.58" d="M356.171 173.602H333.85L323.066 170.716C322.869 170.663 322.699 170.524 322.593 170.33C322.487 170.136 322.454 169.903 322.501 169.682C322.548 169.46 322.671 169.269 322.844 169.15C323.016 169.03 323.224 168.993 323.421 169.045L334.03 171.884H356.023L368.939 169.038C369.037 169.016 369.138 169.016 369.237 169.039C369.335 169.061 369.429 169.105 369.512 169.168C369.595 169.231 369.667 169.311 369.722 169.405C369.778 169.499 369.816 169.605 369.836 169.715C369.855 169.826 369.855 169.94 369.835 170.05C369.815 170.161 369.776 170.266 369.72 170.36C369.664 170.453 369.592 170.534 369.508 170.596C369.425 170.658 369.331 170.702 369.233 170.723L356.171 173.602Z" fill="#2C1A0F"/>
</g>
<path d="M355.333 178.754H336.487V191.062H355.333V178.754Z" fill="#2C1A0F"/>
<g opacity="0.58">
<path opacity="0.58" d="M369.086 188.2L355.333 191.062V178.754L369.086 175.891V188.2Z" fill="#2C1A0F"/>
</g>
<g opacity="0.58">
<path opacity="0.58" d="M322.734 188.2L336.487 191.062V178.754L322.734 175.891V188.2Z" fill="#2C1A0F"/>
</g>
<path d="M48 1H17V365.298H48V1Z" fill="#220C00"/>
<path d="M37 1H27V362H37V1Z" fill="#2C1A0F"/>
<path d="M41.0594 369.383H23.4866L27.3068 363.829H37.2392L41.0594 369.383Z" fill="#2C1A0F"/>
<path d="M47 451.084H17V1090.08H47V451.084Z" fill="#311D0F"/>
<g opacity="0.58">
<path opacity="0.58" d="M64.2354 446.91L63 1094.08L46.9172 1089.58V450.584L64.2354 446.91Z" fill="#2C1A0F"/>
</g>
<path d="M40.8049 379.797V371.465H23.232V379.797L21.1946 385.674L43.097 385.814L40.8049 379.797Z" fill="#2C1A0F"/>
<g opacity="0.58">
<path opacity="0.58" d="M43.3517 389.387L41.3143 393.682V409.651H22.9774V393.682L20.9399 389.285L43.3517 389.387Z" fill="#2C1A0F"/>
</g>
<path d="M46.9173 450.612L17.3745 450.499L20.0601 445.752H44.2314L46.9173 450.612Z" fill="#2C1A0F"/>
<path d="M43.3515 433.487H20.4304V440.893H43.3515V433.487Z" fill="#2C1A0F"/>
<g opacity="0.58">
<path opacity="0.58" d="M58.123 438.116L43.3516 440.893V433.487L58.123 430.71V438.116Z" fill="#2C1A0F"/>
</g>
<g opacity="0.58">
<path opacity="0.58" d="M5.65918 438.116L20.4306 440.893V433.487L5.65918 430.71V438.116Z" fill="#2C1A0F"/>
</g>
<path d="M37.2395 363.829L41.0597 369.383L50.9922 370.54L47.6814 365.217L37.2395 363.829Z" fill="#230F0F"/>
<path d="M27.307 363.829L23.4868 369.383L13.0449 370.54L16.8651 365.217L27.307 363.829Z" fill="#230F0F"/>
<g opacity="0.58">
<path opacity="0.58" d="M13.0447 372.391L12.2895 378.795L7.82373 384.309L21.1944 385.582L23.2318 379.797V371.465L13.0447 372.391Z" fill="#2C1A0F"/>
</g>
<g opacity="0.58">
<path opacity="0.58" d="M51.3739 372.391L52.129 378.795L56.5948 384.309L43.0968 386.045L40.8047 379.797V371.465L51.3739 372.391Z" fill="#2C1A0F"/>
</g>
<g opacity="0.58">
<path opacity="0.58" d="M17.8839 389.285L7.69678 388.128L11.7716 394.145V407.336L20.9401 408.956V394.608L17.8839 389.285Z" fill="#2C1A0F"/>
</g>
<g opacity="0.58">
<path opacity="0.58" d="M46.4077 389.285L56.5949 388.128L52.52 394.145V407.336L43.3516 408.956V394.608L46.4077 389.285Z" fill="#2C1A0F"/>
</g>
<path d="M43.8611 445.753L60.1606 442.976L64.2354 446.91L46.9172 450.613L43.8611 445.753Z" fill="#2C1A0F"/>
<g opacity="0.58">
<path opacity="0.58" d="M17.3746 450.463V1090.08L0.0563965 1094.58V446.91L17.3746 450.463Z" fill="#2C1A0F"/>
</g>
<path d="M20.1758 445.753L3.87634 442.976L0.0561523 446.91L17.3743 450.613L20.1758 445.753Z" fill="#2C1A0F"/>
<g opacity="0.58">
<path opacity="0.58" d="M42.6619 414.742H20.3409L9.55711 412.409C9.36018 412.366 9.19002 412.254 9.08401 412.097C8.978 411.94 8.94482 411.752 8.99176 411.573C9.03869 411.394 9.16191 411.239 9.33432 411.142C9.50674 411.046 9.71426 411.016 9.91127 411.058L20.5205 413.353H42.5137L55.4295 411.052C55.6283 411.017 55.8345 411.054 56.0027 411.157C56.1709 411.26 56.2873 411.419 56.3263 411.6C56.3653 411.781 56.3237 411.968 56.2106 412.121C56.0975 412.274 55.9223 412.379 55.7234 412.415L42.6619 414.742Z" fill="#2C1A0F"/>
</g>
<path d="M41.8238 418.908H22.9775V428.859H41.8238V418.908Z" fill="#2C1A0F"/>
<g opacity="0.58">
<path opacity="0.58" d="M55.5764 426.544L41.8237 428.859V418.907L55.5764 416.593V426.544Z" fill="#2C1A0F"/>
</g>
<g opacity="0.58">
<path opacity="0.58" d="M9.22461 426.544L22.9773 428.859V418.907L9.22461 416.593V426.544Z" fill="#2C1A0F"/>
</g>
<g style="mix-blend-mode:hard-light" opacity="0.11">
<path opacity="0.11" d="M186.481 235.949H185.208V561.256H186.481V235.949Z" fill="white"/>
</g>
<path d="M206 1.00024H191V2870.08H206V1.00024Z" fill="url(#paint2_linear_691_11)"/>
<path d="M184 1.00024H169V2870H184V1.00024Z" fill="url(#paint3_linear_691_11)"/>
<path d="M70.9876 66.9612L70.0674 69.9126L90.6964 86.8636L91.6166 83.9122L70.9876 66.9612Z" fill="#170000"/>
<path d="M70.9876 45.0706L70.0674 48.022L90.6964 64.973L91.6166 62.0216L70.9876 45.0706Z" fill="#170000"/>
<path d="M70.9876 25.2884L70.0674 28.2397L90.6964 45.1907L91.6166 42.2394L70.9876 25.2884Z" fill="#170000"/>
<path d="M71.0487 3.52762L70.1284 6.479L90.7574 23.43L91.6777 20.4786L71.0487 3.52762Z" fill="#170000"/>
<path d="M70.9129 89.4085L69.9927 92.3599L90.6217 109.311L91.5419 106.359L70.9129 89.4085Z" fill="#170000"/>
<path d="M70.8375 111.856L69.9172 114.807L90.5463 131.758L91.4665 128.807L70.8375 111.856Z" fill="#170000"/>
<path d="M70.7628 134.304L69.8425 137.255L90.4715 154.206L91.3918 151.255L70.7628 134.304Z" fill="#170000"/>
<path d="M70.6878 156.751L69.7676 159.703L90.3966 176.654L91.3168 173.702L70.6878 156.751Z" fill="#170000"/>
<path d="M70.6134 179.198L69.6931 182.15L90.3221 199.101L91.2424 196.149L70.6134 179.198Z" fill="#170000"/>
<path d="M70.5382 201.646L69.6179 204.597L90.2469 221.548L91.1672 218.597L70.5382 201.646Z" fill="#170000"/>
<path d="M70.4635 224.092L69.5432 227.044L90.1722 243.995L91.0925 241.043L70.4635 224.092Z" fill="#170000"/>
<path d="M70.3883 246.54L69.468 249.491L90.097 266.442L91.0173 263.491L70.3883 246.54Z" fill="#170000"/>
<path d="M70.3136 268.988L69.3933 271.939L90.0223 288.89L90.9426 285.939L70.3136 268.988Z" fill="#170000"/>
<path d="M70.2386 291.435L69.3184 294.386L89.9474 311.337L90.8676 308.386L70.2386 291.435Z" fill="#170000"/>
<path d="M70.1639 313.882L69.2437 316.833L89.8727 333.784L90.7929 330.833L70.1639 313.882Z" fill="#170000"/>
<path d="M70.0887 336.329L69.1685 339.281L89.7975 356.232L90.7177 353.28L70.0887 336.329Z" fill="#170000"/>
<path d="M70.014 358.777L69.0938 361.728L89.7228 378.679L90.643 375.728L70.014 358.777Z" fill="#170000"/>
<path d="M69.9391 381.224L69.0188 384.175L89.6478 401.126L90.5681 398.175L69.9391 381.224Z" fill="#170000"/>
<path d="M69.8659 403.673L68.9438 406.623L89.5824 423.539L90.5044 420.59L69.8659 403.673Z" fill="#170000"/>
<path d="M69.7909 426.121L68.8689 429.07L89.5075 445.987L90.4295 443.037L69.7909 426.121Z" fill="#170000"/>
<path d="M71.0623 448.566L70.1421 451.517L90.7711 468.468L91.6913 465.517L71.0623 448.566Z" fill="#170000"/>
<path d="M71.0623 471.305L70.1421 474.256L90.7711 491.207L91.6913 488.256L71.0623 471.305Z" fill="#170000"/>
<path d="M71.0623 494.458L70.1421 497.41L90.7711 514.361L91.6913 511.409L71.0623 494.458Z" fill="#170000"/>
<path d="M71.0623 519.677L70.1421 522.628L90.7711 539.58L91.6913 536.628L71.0623 519.677Z" fill="#170000"/>
<path d="M306.664 522.571L286.035 539.521L286.955 542.473L307.584 525.522L306.664 522.571Z" fill="#170000"/>
<path d="M306.589 500.123L285.96 517.074L286.88 520.025L307.509 503.075L306.589 500.123Z" fill="#170000"/>
<path d="M306.514 477.676L285.885 494.627L286.805 497.578L307.434 480.628L306.514 477.676Z" fill="#170000"/>
<path d="M306.439 455.228L285.81 472.179L286.73 475.13L307.359 458.18L306.439 455.228Z" fill="#170000"/>
<path d="M306.364 432.781L285.735 449.731L286.655 452.683L307.285 435.732L306.364 432.781Z" fill="#170000"/>
<path d="M306.289 410.335L285.66 427.285L286.58 430.237L307.209 413.286L306.289 410.335Z" fill="#170000"/>
<path d="M306.215 387.887L285.585 404.838L286.506 407.789L307.135 390.839L306.215 387.887Z" fill="#170000"/>
<path d="M306.14 365.441L285.51 382.391L286.431 385.342L307.06 368.392L306.14 365.441Z" fill="#170000"/>
<path d="M306.064 342.993L285.435 359.944L286.356 362.895L306.985 345.945L306.064 342.993Z" fill="#170000"/>
<path d="M305.99 320.545L285.36 337.496L286.281 340.447L306.91 323.496L305.99 320.545Z" fill="#170000"/>
<path d="M305.915 298.098L285.286 315.049L286.206 318L306.835 301.05L305.915 298.098Z" fill="#170000"/>
<path d="M305.84 275.651L285.211 292.602L286.131 295.553L306.76 278.602L305.84 275.651Z" fill="#170000"/>
<path d="M305.765 253.204L285.136 270.155L286.056 273.106L306.685 256.156L305.765 253.204Z" fill="#170000"/>
<path d="M305.69 230.757L285.061 247.707L285.981 250.659L306.61 233.708L305.69 230.757Z" fill="#170000"/>
<path d="M305.615 208.31L284.986 225.26L285.906 228.212L306.535 211.261L305.615 208.31Z" fill="#170000"/>
<path d="M305.55 185.897L284.911 202.812L285.833 205.762L306.472 188.846L305.55 185.897Z" fill="#170000"/>
<path d="M305.475 163.449L284.836 180.365L285.758 183.315L306.397 166.399L305.475 163.449Z" fill="#170000"/>
<path d="M306.739 140.967L286.11 157.918L287.03 160.869L307.659 143.919L306.739 140.967Z" fill="#170000"/>
<path d="M306.739 116.161L286.11 133.111L287.03 136.062L307.659 119.112L306.739 116.161Z" fill="#170000"/>
<path d="M306.739 91.5606L286.11 108.511L287.03 111.463L307.659 94.5121L306.739 91.5606Z" fill="#170000"/>
<path d="M306.739 66.9833L286.11 83.9338L287.03 86.8852L307.659 69.9347L306.739 66.9833Z" fill="#170000"/>
<path d="M306.739 44.6742L286.11 61.6248L287.03 64.5762L307.659 47.6256L306.739 44.6742Z" fill="#170000"/>
<path d="M306.739 24.892L286.11 41.8425L287.03 44.7939L307.659 27.8434L306.739 24.892Z" fill="#170000"/>
<path d="M306.739 5.10927L286.11 22.0598L287.03 25.0112L307.659 8.06067L306.739 5.10927Z" fill="#170000"/>
<g opacity="0.58">
<path opacity="0.58" d="M69.8383 1.00024H68.8196V1905.01H69.8383V1.00024Z" fill="url(#paint4_linear_691_11)"/>
</g>
<path d="M60.9245 234.99L60.9118 235.949L58.8871 378.001L56.8623 235.949L56.8496 234.99H60.9245Z" fill="#130000"/>
<path d="M7.69645 243.135L5.65901 378.001L3.62158 243.135H7.69645Z" fill="#130000"/>
<path d="M321.206 235.949L319.169 378.001L317.131 235.949H321.206Z" fill="#130000"/>
<path d="M374.179 243.135L372.142 378.001L370.104 243.135H374.179Z" fill="#130000"/>
<g opacity="0.58">
<path opacity="0.58" d="M95 1.00024H94V1905H95V1.00024Z" fill="url(#paint5_linear_691_11)"/>
</g>
<g opacity="0.58">
<path opacity="0.58" d="M284 1.00024H283L284 2178H285L284 1.00024Z" fill="url(#paint6_linear_691_11)"/>
</g>
<g opacity="0.05">
<path opacity="0.05" d="M179.987 321.708C181.042 321.708 181.897 320.903 181.897 319.911C181.897 318.919 181.042 318.115 179.987 318.115C178.932 318.115 178.077 318.919 178.077 319.911C178.077 320.903 178.932 321.708 179.987 321.708Z" fill="#886F1F"/>
</g>
<g opacity="0.05">
<path opacity="0.05" d="M195.777 321.708C196.831 321.708 197.687 320.903 197.687 319.911C197.687 318.919 196.831 318.115 195.777 318.115C194.722 318.115 193.866 318.919 193.866 319.911C193.866 320.903 194.722 321.708 195.777 321.708Z" fill="#886F1F"/>
</g>
<g opacity="0.05">
<path opacity="0.05" d="M179.987 389.021C181.042 389.021 181.897 388.216 181.897 387.224C181.897 386.232 181.042 385.427 179.987 385.427C178.932 385.427 178.077 386.232 178.077 387.224C178.077 388.216 178.932 389.021 179.987 389.021Z" fill="#886F1F"/>
</g>
<g opacity="0.05">
<path opacity="0.05" d="M195.777 389.021C196.831 389.021 197.687 388.216 197.687 387.224C197.687 386.232 196.831 385.427 195.777 385.427C194.722 385.427 193.866 386.232 193.866 387.224C193.866 388.216 194.722 389.021 195.777 389.021Z" fill="#886F1F"/>
</g>
<g opacity="0.05">
<path opacity="0.05" d="M179.987 456.335C181.042 456.335 181.897 455.531 181.897 454.538C181.897 453.546 181.042 452.742 179.987 452.742C178.932 452.742 178.077 453.546 178.077 454.538C178.077 455.531 178.932 456.335 179.987 456.335Z" fill="#886F1F"/>
</g>
<g opacity="0.05">
<path opacity="0.05" d="M195.776 456.335C196.831 456.335 197.686 455.53 197.686 454.538C197.686 453.546 196.831 452.741 195.776 452.741C194.721 452.741 193.866 453.546 193.866 454.538C193.866 455.53 194.721 456.335 195.776 456.335Z" fill="#886F1F"/>
</g>
<g style="mix-blend-mode:hard-light" opacity="0.11">
<path opacity="0.11" d="M190.556 235.948H189.283V561.256H190.556V235.948Z" fill="white"/>
</g>
<path d="M330 2178L359 2178L359 1575L330 1575L330 2178Z" fill="#220C00"/>
<path d="M339 2178L349 2178L349 1576L339 1576L339 2178Z" fill="#2C1A0F"/>
<path d="M336.028 1570.14L352.73 1570.14L349.341 1576.44L339.659 1576.44L336.028 1570.14Z" fill="#2C1A0F"/>
<path d="M336.27 1558.33L336.27 1567.78L352.972 1567.78L352.972 1558.33L354.909 1551.66L334.091 1551.51L336.27 1558.33Z" fill="#2C1A0F"/>
<g opacity="0.58">
<path opacity="0.58" d="M333.849 1546.93L335.786 1542.05L335.786 1523.94L353.214 1523.94L353.214 1542.05L355.151 1547.04L333.849 1546.93Z" fill="#2C1A0F"/>
</g>
<path d="M330.46 1478L358.539 1478.13L355.987 1483.51L333.013 1483.51L330.46 1478Z" fill="#2C1A0F"/>
<path d="M333.849 1497.43L355.635 1497.43L355.635 1489.03L333.849 1489.03L333.849 1497.43Z" fill="#2C1A0F"/>
<g opacity="0.58">
<path opacity="0.58" d="M319.81 1492.18L333.849 1489.03L333.849 1497.43L319.81 1500.58L319.81 1492.18Z" fill="#2C1A0F"/>
</g>
<g opacity="0.58">
<path opacity="0.58" d="M369.675 1492.18L355.635 1489.03L355.635 1497.43L369.675 1500.58L369.675 1492.18Z" fill="#2C1A0F"/>
</g>
<path d="M339.658 1576.44L336.028 1570.14L326.587 1568.83L329.734 1574.87L339.658 1576.44Z" fill="#230F0F"/>
<path d="M349.099 1576.44L352.73 1570.14L362.655 1568.83L359.024 1574.87L349.099 1576.44Z" fill="#230F0F"/>
<g opacity="0.58">
<path opacity="0.58" d="M362.654 1566.73L363.372 1559.47L367.616 1553.21L354.908 1551.77L352.972 1558.33L352.972 1567.78L362.654 1566.73Z" fill="#2C1A0F"/>
</g>
<g opacity="0.58">
<path opacity="0.58" d="M326.224 1566.73L325.507 1559.47L321.262 1553.21L334.091 1551.24L336.27 1558.33L336.27 1567.78L326.224 1566.73Z" fill="#2C1A0F"/>
</g>
<g opacity="0.58">
<path opacity="0.58" d="M358.055 1547.04L367.738 1548.35L363.865 1541.53L363.865 1526.57L355.151 1524.73L355.151 1541L358.055 1547.04Z" fill="#2C1A0F"/>
</g>
<g opacity="0.58">
<path opacity="0.58" d="M330.944 1547.04L321.262 1548.35L325.135 1541.53L325.135 1526.57L333.849 1524.73L333.849 1541L330.944 1547.04Z" fill="#2C1A0F"/>
</g>
<path d="M333.365 1483.51L317.873 1486.66L314 1482.2L330.46 1478L333.365 1483.51Z" fill="#2C1A0F"/>
<path d="M355.877 1483.51L371.369 1486.66L375 1482.2L358.539 1478L355.877 1483.51Z" fill="#2C1A0F"/>
<g opacity="0.58">
<path opacity="0.58" d="M334.505 1518.69L355.72 1518.69L365.969 1521.34C366.157 1521.39 366.318 1521.51 366.419 1521.69C366.52 1521.87 366.551 1522.08 366.507 1522.29C366.462 1522.49 366.345 1522.66 366.181 1522.77C366.017 1522.88 365.82 1522.92 365.633 1522.87L355.549 1520.27L334.646 1520.27L322.37 1522.88C322.276 1522.9 322.18 1522.9 322.086 1522.88C321.993 1522.85 321.904 1522.81 321.825 1522.76C321.746 1522.7 321.678 1522.62 321.625 1522.54C321.572 1522.45 321.536 1522.36 321.517 1522.25C321.499 1522.15 321.499 1522.05 321.518 1521.95C321.537 1521.85 321.574 1521.75 321.627 1521.66C321.681 1521.58 321.749 1521.5 321.828 1521.45C321.908 1521.39 321.997 1521.35 322.09 1521.33L334.505 1518.69Z" fill="#2C1A0F"/>
</g>
<path d="M335.301 1513.96L353.214 1513.96L353.214 1502.68L335.301 1502.68L335.301 1513.96Z" fill="#2C1A0F"/>
<g opacity="0.58">
<path opacity="0.58" d="M322.23 1505.3L335.302 1502.68L335.302 1513.97L322.23 1516.59L322.23 1505.3Z" fill="#2C1A0F"/>
</g>
<g opacity="0.58">
<path opacity="0.58" d="M366.285 1505.3L353.214 1502.68L353.214 1513.97L366.285 1516.59L366.285 1505.3Z" fill="#2C1A0F"/>
</g>
<defs>
<linearGradient id="paint0_linear_691_11" x1="82" y1="1.00024" x2="82" y2="1779.45" gradientUnits="userSpaceOnUse">
<stop offset="0.119792" stop-color="#965E3B"/>
<stop offset="1" stop-color="#965E3B" stop-opacity="0"/>
</linearGradient>
<linearGradient id="paint1_linear_691_11" x1="296.5" y1="1.00024" x2="296.5" y2="1850.28" gradientUnits="userSpaceOnUse">
<stop offset="0.119792" stop-color="#963B4E"/>
<stop offset="1" stop-color="#965E3B" stop-opacity="0"/>
</linearGradient>
<linearGradient id="paint2_linear_691_11" x1="198.5" y1="0.0844727" x2="198.5" y2="2870.08" gradientUnits="userSpaceOnUse">
<stop stop-color="#2F0E01"/>
<stop offset="0.630208" stop-color="#1F0900" stop-opacity="0"/>
</linearGradient>
<linearGradient id="paint3_linear_691_11" x1="176.5" y1="1.00024" x2="176.5" y2="2870" gradientUnits="userSpaceOnUse">
<stop stop-color="#2F0E01"/>
<stop offset="0.630208" stop-color="#1F0900" stop-opacity="0"/>
</linearGradient>
<linearGradient id="paint4_linear_691_11" x1="69.3289" y1="1.00024" x2="69.3289" y2="1905.01" gradientUnits="userSpaceOnUse">
<stop stop-color="#3C2315"/>
<stop offset="0.484375" stop-color="#2C1A0F" stop-opacity="0"/>
<stop offset="1" stop-color="#2C200F"/>
</linearGradient>
<linearGradient id="paint5_linear_691_11" x1="94.5" y1="1.00024" x2="94.5" y2="1905" gradientUnits="userSpaceOnUse">
<stop stop-color="#3C2315"/>
<stop offset="0.484375" stop-color="#2C1A0F" stop-opacity="0"/>
<stop offset="1" stop-color="#2C200F"/>
</linearGradient>
<linearGradient id="paint6_linear_691_11" x1="283.5" y1="1.00024" x2="283.5" y2="1678.67" gradientUnits="userSpaceOnUse">
<stop stop-color="#3C2315"/>
<stop offset="0.484375" stop-color="#2C1A0F" stop-opacity="0"/>
<stop offset="1" stop-color="#2C200F"/>
</linearGradient>
</defs>
</svg>
