<svg width="24" height="21" fill="none" xmlns="http://www.w3.org/2000/svg"><path d="M.187 18.237v-.224c.144-.06.288-.168.434-.17 1.643-.035 3.19-.429 4.631-1.219.486-.266.942-.588 1.429-.895-.495-.102-.949-.156-1.378-.29-1.2-.378-2.111-1.13-2.802-2.184-.327-.5-.035-1.024.52-1.013.358.007.718-.08 1.077-.124l-.004-.06c-.048-.013-.094-.029-.142-.041-1.476-.4-2.588-1.268-3.313-2.613-.185-.345-.303-.725-.452-1.09v-.313c.103-.26.243-.502.537-.551.191-.032.398.002.594.035.345.058.686.137 1.029.208l.019-.058c-.154-.127-.316-.246-.461-.382C1.02 6.43.532 5.403.369 4.216a5.193 5.193 0 01.138-2.134c.12-.426.473-.661.86-.539.156.049.294.172.421.281.669.575 1.296 1.202 2.002 1.725C5.598 4.89 7.64 5.701 9.86 6.057c.476.076.959.11 1.457.165-.01-.099-.01-.158-.02-.215-.212-1.15-.075-2.256.476-3.286.855-1.598 2.198-2.527 4.003-2.697C17.31-.12 18.64.39 19.752 1.468a.372.372 0 00.288.079 9.093 9.093 0 002.118-.708c.167-.079.34-.155.495.009.167.176.075.353-.038.507-.26.355-.51.722-.806 1.044-.255.275-.569.496-.857.74a15.923 15.923 0 001.674-.358c.22-.059.393-.05.53.146v.225a9.908 9.908 0 01-1.73 1.68.432.432 0 00-.198.409c.06 1.73-.212 3.41-.768 5.046-.806 2.372-2.096 4.438-3.941 6.14-2.45 2.26-5.37 3.407-8.675 3.595a14.03 14.03 0 01-6.735-1.257c-.32-.146-.615-.35-.921-.528z" fill="#250F08" fill-opacity=".7"/></svg>