<svg width="399" height="397" xmlns="http://www.w3.org/2000/svg">

 <g>
  <title>background</title>
  <rect fill="#000000" id="canvas_background" height="399" width="401" y="-1" x="-1"/>
 </g>
 <g>
  <title>Layer 1</title>
  <path id="svg_1" fill="#CC9966" d="m324.6,26l-254.4,0c-27.1,0 -49.2,22.1 -49.2,49.2l0,254.4c0,27.1 22.1,49.2 49.2,49.2l254.4,0c27.1,0 49.2,-22.1 49.2,-49.2l0,-254.4c0,-27.1 -22.1,-49.2 -49.2,-49.2zm-21.5,58.9c-2.7,-11.3 4,-22.8 15,-25.6c1.8,-0.4 3.6,-0.6 5.3,-0.6c9.7,0 18,6.4 20.3,15.7c2.7,10.6 -4.2,22.1 -15.3,25.5c-1.9,0.4 -3.4,0.4 -5.4,0.4c-9.2,0.1 -17.8,-6.6 -19.9,-15.4zm-105.7,9.1c58.4,0 106,47.6 106,106s-47.6,106 -106,106s-106,-47.6 -106,-106s47.6,-106 106,-106z"/>
  <path id="svg_2" fill="#875426" d="m343.2,70.7c-2.2,-8.5 -10.4,-14.9 -19.2,-14.9c-1.1,0 -3.3,0 -5.3,1.2c-4.7,1.2 -8.8,4.3 -11.3,8.4c-2.7,4.5 -3.4,9.9 -1.9,15c1.9,8.7 9.3,14.8 18.3,14.8c1.8,0 3.6,-0.3 5.4,-0.8c5.1,-1.1 9.5,-4.2 12.1,-8.6c2.8,-4.5 3.4,-10 1.9,-15.1z"/>
  <path id="svg_3" fill="#42210B" d="m310.4,79.2c2.4,8 10.4,12.8 17.6,10.4c8,-2.4 12.8,-10.4 10.4,-17.6c-1.6,-6.4 -8,-11.2 -14.4,-11.2c-0.8,0 -2.4,0 -4,0.8c-7.2,1.6 -12,9.6 -9.6,17.6zm44,-11.2c4,16.8 -5.6,32.8 -22.4,37.6c-2.4,0.8 -4.8,0.8 -8,0.8c-13.6,0 -26.4,-9.6 -29.6,-23.2c-4,-16 5.6,-32.8 22.4,-37.6c16,-4 32.8,5.6 37.6,22.4z"/>
  <path stroke="null" id="svg_6" fill="#42210B" d="m198.4,99.8c53.1,0 96,42.9 96,96s-42.9,96 -96,96s-96,-42.9 -96,-96s42.9,-96 96,-96zm74.4,95.2c0,-41.6 -33.6,-75.2 -75.2,-75.2s-75.2,33.6 -75.2,75.2s33.6,75.2 75.2,75.2s75.2,-33.6 75.2,-75.2z"/>
  <path id="svg_7" fill="#875426" d="m288.8,196c0,-50.4 -40.8,-91.2 -91.2,-91.2s-91.2,40.8 -91.2,91.2s40.8,91.2 91.2,91.2c51.2,0 91.2,-40.8 91.2,-91.2zm9.6,0c0,55.2 -44.8,100 -100,100s-100,-44.8 -100,-100s44.8,-100 100,-100s100,44.8 100,100z"/>
  <path id="svg_8" fill="#42210B" d="m198.4,296c55.2,0 100,-44.8 100,-100s-44.8,-100 -100,-100s-100,44.8 -100,100s44.8,100 100,100zm116,-100c0,64 -52,116 -116,116s-116,-52 -116,-116s52,-116 116,-116s116,52 116,116z"/>
  <path id="svg_9" fill="#996632" d="m329.7,5l-262.6,0c-34.3,0 -62.1,27.9 -62.1,62.1l0,262.5c0,34.3 27.9,62.1 62.1,62.1l262.5,0c34.3,0 62.1,-27.9 62.1,-62.1l0,-262.5c0.1,-34.2 -27.8,-62.1 -62,-62.1zm35.3,323.8c0,19.5 -15.8,35.3 -35.3,35.3l-5.2,0l0,0.8l-257.4,0c-19.5,0 -35.3,-15.8 -35.3,-35.3l0,-262.5c0,-19.5 15.8,-35.3 35.3,-35.3l262.5,0c19.5,0 35.3,15.8 35.3,35.3l0,261.7l0.1,0z"/>
  <path id="svg_10" fill="#42210B" d="m325.6,0c39.2,0 71.2,32 71.2,71.2l0,254.4c0,39.2 -32,71.2 -71.2,71.2l-254.4,0c-39.2,0 -71.2,-32 -71.2,-71.2l0,-254.4c0,-39.2 32,-71.2 71.2,-71.2l254.4,0zm55.2,71.2c0,-30.4 -24.8,-55.2 -55.2,-55.2l-254.4,0c-30.4,0 -55.2,24.8 -55.2,55.2l0,254.4c0,30.4 24.8,55.2 55.2,55.2l254.4,0c30.4,0 55.2,-24.8 55.2,-55.2l0,-254.4l0,0z"/>
  <g id="svg_11"/>
  <g id="svg_12"/>
  <g id="svg_13"/>
  <g id="svg_14"/>
  <g id="svg_15"/>
  <g id="svg_16"/>
  <g id="svg_17"/>
  <g id="svg_18"/>
  <g id="svg_19"/>
  <g id="svg_20"/>
  <g id="svg_21"/>
  <g id="svg_22"/>
  <g id="svg_23"/>
  <g id="svg_24"/>
  <g id="svg_25"/>
 </g>
</svg>