<svg width="102" height="149" fill="none" xmlns="http://www.w3.org/2000/svg"><path d="M88.14 48.708a13.919 13.919 0 01-2.634 1.824h-.001c-.529-.211-4.473-2.35-12.504-2.706-7.272-.321-16.735 2.464-14.845-.134 2.033-2.794-.762-3.853-.762-5.334 0-3.81 1.666-4.102 2.683-7.541a12.21 12.21 0 00-.884-7.003l-3.832-8.57-22.615.508s-2.195 1.186-4.924 2.87c-2.917 1.804-6.441 4.173-8.543 6.274-4.066 4.064-7.623 20.574-10.164 21.59-2.54 1.016-.762 20.066-.762 20.066s.762 22.605 1.524 29.717c.763 7.112 0 11.684 2.795 18.796 2.796 7.112 10.673 12.7 20.074 20.828 3.108 2.687 6.635 4.514 9.961 5.756.376.139.75.274 1.12.396a42.708 42.708 0 0011.465 2.227h.023c.03.003.046.003.046.003v-.003c.75-1.653 1.847-3.103 2.033-5.077.081-.925.095-1.854.04-2.781a31.931 31.931 0 00-.23-2.482c-.405-3.101-1.195-6.423-1.82-9.649l-.023-.12c-.752-1.059-.818-2.354-.254-3.764l.536-1.476.3-.822.18-.496c-.378-5.656-1.766-10.246-.508-19.05.508-3.556 2.874-6.466 2.541-7.112-4.065-7.873-2.896-19.946-2.795-33.02a33.54 33.54 0 01-.03-.392 7.485 7.485 0 018.655-7.918c1.085.171 2.272.319 3.572.437 7.437.676 12.787-1.022 16.165-2.759l.011-.006a21.57 21.57 0 001.708-.977l.017-.01v-.001a14.731 14.731 0 002.68-2.09zm-25.014 1.724c1.58-.666 4.65-1.45 9.661-.843 4.973.604 7.612.59 9.509 1.15-6.861 4.573-13.944 1.445-19.17-.307z" fill="#DEB288"/><path d="M25.627 26.166l1.02 30.162-7.368 5.08-.762 3.302 5.844 4.318.254 3.556-4.065 2.54-.509 1.778-3.811 1.524 1.524 34.29 19.312 29.209s-2.626-1.668-6.903-4.644c-4.277-2.976-14.899-14.109-16.067-16.162-1.17-2.054-4.219-.784-3.964-8.911.254-8.128-.89-25.967-.89-25.967l-.635-15.69-1.009-12.85s9.14-28.805 14.73-32.869 3.299 1.334 3.299 1.334z" fill="#F1D59E"/><path d="M60.232 32.15c-5.468.157-13.648.066-16.981-.61a5.106 5.106 0 00-6.127 5.194l.958 23.912-11.434-1.27-1.016-33.274 2.19-3.48 2.13-3.378h25.41l3.83 8.57a12.102 12.102 0 011.04 4.336zm-30.789 79.041s-2.033 7.112.508 8.636a7.151 7.151 0 004.066 1.016l.432-.503a2.062 2.062 0 00.065-2.602l-5.071-6.547z" fill="#D29E73"/><path d="M57.42 117.734c-.224 1.735-.857 3.561-1.678 4.76l-8.258-.127-3.557-1.524s-6.607-3.302-1.525-5.08c0 0 8.893-3.556 10.164-3.048 1.27.508 4.066.762 4.066.762.83.831 1.019 2.497.787 4.257z" fill="#B4765C"/><path d="M24.615 72.584s.748 5.057 7.877 4.826c5.8-.188 7.115-3.048 11.18-4.064 0 0-2.54-1.016-4.065-.508-1.525.508-6.098 1.778-8.64 1.27-2.54-.508-5.59-5.334-6.352-1.524z" fill="#D29E73"/><path d="M28.935 68.774s-3.05.889-3.303 2.222c-.255 1.334-4.574-.444-1.017-1.968 3.558-1.524 5.59-1.016 5.59-1.016l-1.27.762zm7.623-1.524c.254 0 7.369-.254 8.13 1.778.763 2.031-1.016 3.555-1.016 3.555l-7.114-5.333zm7.115 5.334s-3.558 5.841-7.878 6.603L33 85.284s11.435-2.54 10.673-12.7z" fill="#D29E73"/><path d="M43.419 89.347s-.735 11.31 2.795 12.192c3.049.762 3.557.254 3.557.254s-2.287-3.048-1.779-4.318c.299-.745-.89-3.061-.89-3.061l-3.683-5.067z" fill="#B17451"/><path d="M53.582 102.047l-2.516 6.29s-10.765 4.205-13.492 8.188l1.017-3.556c.254-4.318 6.812-5.471 14.991-10.922zm1.525 22.352s-4.818 1.296-6.129 3.758l6.352.103c-.428-1.328-.794-2.67-.223-3.861z" fill="#D29E73"/><path d="M56.886 86.808c-.673-1.597.106-3.098 0-4.826 0-3.556-.54-8.437-1.525-13.97V62.33c-6.284-1.915-17.279-2.7-17.279-2.7 1.42 4.398 6.882 7.051 11.428 8.537-.055 1.393-.433 11.905.515 17.117 0 0-6.352 7.873-1.016 11.683 3.242 2.314 5.844 2.286 7.368 1.016 4.066-3.048 2.541-6.35.509-11.175z" fill="#F1D59E"/><path d="M49.39 88.379c.655-1.042.872-2.3.603-3.5-1.337-6.112 1.205-12.48.286-16.613-.178-.8-4.828-4.318-6.606-5.842-4.218-3.614-6.062-1.99-6.079-1.79-.222-.004-1.06.076-1.036.266.508 4.064 9.656 4.064 9.656 9.398v4.572l-1.525 5.588-.65 8.668c-.166.429-.038-.602-.112-.032-.763 5.842 5.082 7.874 5.082 7.874-2.607-2.78-.936-6.509.382-8.59z" fill="#D29E73"/><path d="M20.343 72.375c.047.298.121.648.195.975a28.52 28.52 0 00.845 2.977c.23.651.488 1.294.783 1.927.302.634.653 1.244 1.052 1.823a13.64 13.64 0 01-1.625-1.423 22.773 22.773 0 01-1.433-1.651 29.876 29.876 0 01-1.882-2.717 19.062 19.062 0 01-.572-.985l2.637-.926zm7.829 44.912c.793 5.29 5.082 11.43 8.894 15.24l-3.812-11.684c-1.457.504-3.241-1.328-5.081-3.556z" fill="#F1D59E"/><path d="M57.394 143.195c-.186 1.974-.508 3.81-2.033 5.078a.176.176 0 01-.046 0h-.023c-4.301-.038-8.296-.854-11.464-2.228a16.641 16.641 0 01-.867-.396 30.877 30.877 0 01-5.895-3.724c.534-6.411-.968-13.515-3.812-21.082l10.419 17.526c3.28 1.969 10.415 2.24 13.761 2.045.055.927.041 1.856-.04 2.781z" fill="#D29E73"/><path d="M55.361 101.794l.616 5.664c.137 1.256.955 2.488 1.163 3.733.254 1.524.254 3.048-.254 3.81-.432-.099-1.909-2.067-4.32-2.286-2.795-.254-15.754 5.334-15.754 5.334 1.779-5.08 14.23-9.651 14.23-9.651l2.54-6.604h1.78z" fill="#F1D59E"/><path d="M30.205 69.028s.763 4.318 2.033 4.572c0 0-4.448.306-5.527-2.133-1.08-2.44 3.494-2.44 3.494-2.44zm4.575 4.064s1.778-2.794 1.778-4.318c0 0 5.66 2.506 6.641 3.412a.753.753 0 01-1.059.7c-1.008-.302-1.99-.042-3.15.209-1.162.25-4.21-.003-4.21-.003z" fill="#D9D8CD"/><path d="M43.331 93.247l-3.724-7.963 6.514-6.751-2.79 14.714z" fill="#D29E73"/><path d="M58.418 5.879l-.42 1.996-2.383 11.37-12.959 1.015s-9.91-1.778-16.008 2.286c-6.098 4.064-9.656 11.684-11.434 20.32-1.78 8.636-7.623 14.732-7.623 14.732l.007 8.89H4.541L3.525 48.962s-3.05-8.89-3.05-12.954c0-2.794.509-6.858.509-6.858-.254-7.874 14.484-14.986 14.484-14.986-1.052-2.946 7.132-7.109 9.976-8.453h.002c.59-.28.948-.437.948-.437.071-.08.142-.162.218-.236 1.53-1.567 3.97-1.854 11.725-3.066 5.92-.924 14.13.305 18.157 1.042.163.029.321.076.473.14a2.403 2.403 0 011.45 2.725z" fill="#4C321E"/><path d="M33.382 73.092c1.754 0 3.176-1.308 3.176-2.921 0-1.614-1.422-2.921-3.176-2.921-1.755 0-3.177 1.308-3.177 2.92 0 1.614 1.422 2.922 3.177 2.922z" fill="#5D6059"/><path d="M31.478 68.52s-.318 2.794 2.539 2.794l-.318-2.794h-2.221zm2.792 1.27l2.288.254v-1.27h-2.795l.508 1.016z" fill="#8B9491"/><path d="M33.89 71.314a.635.635 0 100-1.27.635.635 0 000 1.27z" fill="#8B9491"/><path d="M7.59 66.487s-4.573.509-5.081 2.032c-.509 1.524 2.54 8.89 2.54 8.89s2.033 13.97 1.017 18.796c-1.016 4.826 3.303 2.286 3.303 2.286l-.622-22.266-1.156-9.737z" fill="#B17451"/><path d="M58.418 5.879l-.42 1.996c-7.732-2.639-23.219-1.33-23.219-1.33s5.463 5.206 5.463 5.46c0 .254-14.798-6.294-14.798-6.294h.002c.37-.255.76-.48 1.166-.673 3.36-1.636 8.602-1.95 15.155-2.177 4.124-.142 10.44.074 15.2.292a2.403 2.403 0 011.45 2.726zM.669 38.167c.068.123 7.938-8.509 12.766-12.827 0 0-7.369 3.048-9.91 6.35C.984 34.992-.662 35.754.669 38.167z" fill="#C7A167"/><path d="M55.615 15.942c-.762.254-29.475-4.318-37.098-6.604-.404 1.997.222 3.835 3.049 5.334 0 0 8.893 2.54 8.385 2.54-.508 0-12.959 2.032-13.213 13.208l.489 2.159s3.323-7.747 9.42-10.287c6.1-2.54 13.595-2.708 13.595-2.708s11.816 1.692 15.373-.34v-3.302z" fill="#281B11"/><path d="M25.378 5.782s-11.18 4.826-9.91 8.128c0 0 10.224 1.28 9.655 1.27-2.04-.036-7.585-3.903-6.098-4.064 0 0 13.175 2.86 18.55 4.826-3.558-3.302-7.878-5.08-12.668-7.178l6.823-1.458-6.352-1.524z" fill="#C7A167"/><path d="M15.468 30.928c-1.23 1.14-2.504 2.117-3.771 3.087L7.905 36.84c-1.244.94-2.476 1.873-3.608 2.892-.573.5-1.108 1.041-1.599 1.622a6.82 6.82 0 00-1.206 2.012 4.494 4.494 0 01.223-2.555 9.014 9.014 0 011.237-2.273 17.048 17.048 0 013.582-3.528 24.572 24.572 0 014.239-2.53 18.876 18.876 0 014.695-1.552z" fill="#6E5446"/><path d="M15.849 38.42c-1.25.821-2.488 1.5-3.706 2.184-1.216.678-2.413 1.34-3.557 2.04a22.569 22.569 0 00-3.206 2.297 8.76 8.76 0 00-2.363 3.25 4.52 4.52 0 01.013-2.286 6.637 6.637 0 01.986-2.135c.9-1.248 2.05-2.296 3.377-3.075a16.178 16.178 0 014.076-1.75 13.4 13.4 0 014.38-.524zm-.509 4.573c-1.229.834-2.431 1.542-3.604 2.267a53.246 53.246 0 00-3.374 2.206 16.853 16.853 0 00-2.882 2.558 9.288 9.288 0 00-1.121 1.578 12.03 12.03 0 00-.834 1.924 5.156 5.156 0 01-.241-2.252 6.5 6.5 0 01.69-2.233 9.833 9.833 0 013.047-3.426 14.337 14.337 0 013.973-1.985 14.555 14.555 0 012.139-.512 9.867 9.867 0 012.208-.125z" fill="#281B11"/><path d="M12.546 48.835c-.706.64-1.35 1.133-1.976 1.62l-1.793 1.39a35.84 35.84 0 00-1.71 1.418c-.607.486-1.128 1.06-1.89 1.668a4.305 4.305 0 01-.054-.703c-.002-.119.004-.235.008-.354.007-.118.035-.227.053-.343.045-.227.098-.455.162-.682.078-.22.167-.434.267-.645l.152-.318.19-.293c.123-.199.259-.39.406-.572.153-.176.312-.346.474-.515.167-.162.343-.314.526-.456a6.671 6.671 0 012.449-1.217 6.11 6.11 0 011.352-.187c.231-.005.462.006.691.035.236.025.468.077.693.154zM42.275 8.703c1.08.29 2.043.648 3 1.008.951.365 1.879.735 2.8 1.113l2.763 1.151c.927.42 1.875.764 2.871 1.3-.265.08-.536.144-.81.192-.136.027-.272.046-.41.068-.136.015-.271.02-.408.03-.273.014-.548.022-.823.022a11.42 11.42 0 01-3.959-.884 12.481 12.481 0 01-2.806-1.605 16.16 16.16 0 01-.626-.517c-.2-.184-.398-.37-.586-.566a6.809 6.809 0 01-1.006-1.312z" fill="#281B11"/><path d="M57.42 117.734l-15.272-.955 10.418-4.064c1.27.508 4.828.508 4.828.508.254 1.27.257 2.751.025 4.511z" fill="#904B3B"/><path d="M55.615 19.244c-.99.496-2.028.893-3.096 1.186l-.796.22c-.267.067-.534.124-.802.187-.535.128-1.074.221-1.614.316a38.71 38.71 0 01-6.53.498L41.14 21.6a33.304 33.304 0 01-1.632-.117c-.542-.058-1.086-.096-1.626-.176a51.684 51.684 0 01-1.616-.254 21.557 21.557 0 01-1.606-.323 49.149 49.149 0 01-1.591-.395 24.525 24.525 0 01-1.571-.496 21.7 21.7 0 01-1.548-.595c1.11-.166 2.193-.216 3.273-.274a51.73 51.73 0 011.614-.068c.268-.01.535-.01.802-.014.267-.009.535-.023.801-.025a49.47 49.47 0 011.597-.015l1.591-.012c.53-.002 1.059.02 1.588.006l1.586.017c2.113.012 4.223.056 6.347.11 2.127.06 4.252.132 6.465.275z" fill="#100"/><path d="M32.931 19.752c-.792.473-1.521.947-2.237 1.434l-.533.359c-.173.129-.35.248-.522.372-.352.235-.687.5-1.029.743-1.358.998-2.65 2.046-3.933 3.117-.314.277-.632.55-.954.818-.165.129-.317.274-.472.416-.157.14-.31.283-.471.42-.316.28-.646.546-.952.84-.308.29-.626.574-.949.856-.331.274-.634.577-.956.866-.319.292-.649.578-.986.863a23.75 23.75 0 01-2.072 1.723c.127-.441.274-.874.442-1.297.166-.424.337-.849.536-1.256.21-.4.426-.798.654-1.19.219-.397.46-.781.724-1.15a19.183 19.183 0 011.691-2.136c.31-.334.607-.68.944-.989a52.8 52.8 0 011.018-.918 18.74 18.74 0 014.665-2.892c.424-.181.857-.34 1.297-.477.222-.066.44-.137.662-.198.225-.054.45-.105.675-.153a8.573 8.573 0 012.758-.17zm20.779-3.429c-3.045.368-6.183-.018-9.163-.849-2.984-.841-5.805-2.123-8.487-3.5-2.69-1.37-5.249-2.854-7.9-4.017a25.93 25.93 0 00-4.09-1.429 21.28 21.28 0 00-4.41-.619 12.582 12.582 0 014.581-.743 18.34 18.34 0 014.654.72 32.02 32.02 0 014.355 1.617c.7.31 1.385.643 2.068.97l2.017 1.016c2.664 1.371 5.256 2.75 7.945 3.922a52.758 52.758 0 004.113 1.602c1.401.485 2.838.897 4.316 1.31zm-13.468 0a6.223 6.223 0 01-1.797.325 11.257 11.257 0 01-1.834-.101 22.913 22.913 0 01-3.515-.797c-2.269-.686-4.42-1.525-6.557-2.282a56.224 56.224 0 00-6.428-1.944 33.232 33.232 0 00-6.803-.789c2.14-1.1 4.644-1.495 7.082-1.39 2.424.143 4.813.646 7.089 1.492a55.518 55.518 0 016.427 2.879c1.028.524 2.043 1.045 3.074 1.515a19.89 19.89 0 001.576.65c.55.192 1.113.34 1.686.442zM13.308 35.881a4.652 4.652 0 011.284-1.414c.46-.341.966-.612 1.505-.804a5.72 5.72 0 011.67-.342 4.611 4.611 0 011.893.274 4.608 4.608 0 01-1.283 1.417c-.46.341-.967.611-1.506.801a5.79 5.79 0 01-1.672.34 4.654 4.654 0 01-1.891-.272zM8.226 42.74a10.094 10.094 0 012.173-1.96 15.59 15.59 0 012.44-1.369c.85-.386 1.734-.694 2.64-.92a9.997 9.997 0 012.91-.324 9.986 9.986 0 01-2.171 1.963c-.77.528-1.588.985-2.441 1.365-.852.385-1.736.692-2.643.918-.948.25-1.928.36-2.908.326zm-.762 5.333a11.742 11.742 0 012.338-2.138c.83-.59 1.708-1.11 2.623-1.556.914-.45 1.863-.822 2.839-1.114a11.62 11.62 0 013.126-.526 11.613 11.613 0 01-2.337 2.141 18.41 18.41 0 01-2.625 1.553c-.915.447-1.864.819-2.84 1.111a11.75 11.75 0 01-3.124.529zm0 4.064a4.417 4.417 0 01.941-1.597 5.368 5.368 0 011.272-1.038c.472-.283.986-.49 1.522-.615a4.38 4.38 0 011.855-.052 4.377 4.377 0 01-.94 1.6 5.3 5.3 0 01-1.274 1.035 5.374 5.374 0 01-1.523.613 4.421 4.421 0 01-1.853.054zm-1.017 5.842a7.105 7.105 0 011.134-2.142c.456-.606.978-1.159 1.555-1.65a10.128 10.128 0 011.874-1.274 7.04 7.04 0 012.298-.776c-.25.775-.634 1.5-1.132 2.145a10.12 10.12 0 01-1.557 1.646c-.576.492-1.205.919-1.876 1.272a7.11 7.11 0 01-2.296.779z" fill="#100"/><path d="M7.463 55.693a47.278 47.278 0 011.39 6.61c.32 2.212.543 4.429.685 6.65.144 2.221.2 4.448.17 6.68a56.947 56.947 0 01-.466 6.73 19.625 19.625 0 01-.508-1.634c-.15-.547-.28-1.097-.403-1.647a53.38 53.38 0 01-.617-3.311 74.321 74.321 0 01-.71-6.657 79.329 79.329 0 01-.14-6.69 45.64 45.64 0 01.6-6.731z" fill="#100"/><path d="M8.48 70.425c.21 2.14.404 4.282.586 6.424l.273 3.212.252 3.214c.346 4.285.636 8.572.934 12.86.293 4.287.557 8.577.792 12.868l.169 3.196c.098.949.329 1.879.686 2.763.368.936.808 1.842 1.318 2.708a33.362 33.362 0 001.672 2.598 58.47 58.47 0 003.934 4.893 95.732 95.732 0 004.377 4.589c3.015 2.984 6.2 5.815 9.468 8.548a82.14 82.14 0 002.469 1.988 58.881 58.881 0 002.559 1.846 53.9 53.9 0 002.666 1.677 34.536 34.536 0 003.51 1.773c.24.106.484.205.728.301.484.203.976.388 1.473.561.996.348 2.012.635 3.043.86 2.063.486 4.204.673 6.353.844a45.17 45.17 0 01-3.235.178 29.126 29.126 0 01-3.262-.144 26.92 26.92 0 01-3.24-.559 26.744 26.744 0 01-1.595-.422c-.263-.08-.526-.162-.786-.253a21.115 21.115 0 01-.779-.273c-4.15-1.5-7.937-3.865-11.39-6.509a113.192 113.192 0 01-9.91-8.44c-3.12-3.031-6.106-6.244-8.62-9.906a26.207 26.207 0 01-3.16-5.98 12.074 12.074 0 01-.713-3.503l-.078-3.243c-.096-4.291-.204-8.586-.278-12.881-.07-4.296-.155-8.592-.186-12.89l-.032-3.224-.011-3.224c-.011-2.15-.007-4.3.013-6.45z" fill="#100"/><path d="M6.984 67.653l-.024-.01-.056-.02a2.784 2.784 0 00-.39-.107 2.901 2.901 0 00-.535-.06 2.053 2.053 0 00-.947.205 2.18 2.18 0 00-.76.636c-.24.314-.433.66-.575 1.028l-.015-.886c.136.354.24.663.352.993l.315.974a61.382 61.382 0 011.507 5.893 56.89 56.89 0 011.06 8.013c.083 1.347.092 2.7.069 4.047l-.115 3.993c-.022.66-.028 1.318-.022 1.964-.002.624.04 1.247.127 1.865.081.58.275 1.094.498 1.293a.877.877 0 00.403.205c.217.047.44.064.662.052a1.148 1.148 0 011.068 1.64 1.146 1.146 0 01-.688.599c-.15.047-.308.063-.464.047l-.032-.003a4.718 4.718 0 01-1.288-.308 3.01 3.01 0 01-1.223-.902 3.426 3.426 0 01-.613-1.247 6.5 6.5 0 01-.195-1.158 32.774 32.774 0 01.096-4.12l.118-1.985c.03-.66.056-1.317.077-1.975a40.58 40.58 0 00-.079-3.907 45.608 45.608 0 00-1.207-7.722 45.48 45.48 0 00-1.091-3.752 36.732 36.732 0 00-.668-1.829 27.056 27.056 0 00-.76-1.747l-.015-.886c.223-.572.527-1.11.904-1.595a4.467 4.467 0 011.548-1.273c.615-.3 1.293-.45 1.978-.437a5.18 5.18 0 011.667.298l.121.045c.047.019.074.029.15.063a1.143 1.143 0 11-.958 2.076zM18.39 61.28c-.54-.538 13.992-.84 21.09.763 3.939.889 5.209.127 5.209.127s-12.45-5.842-16.008-5.842c-4.828 0-10.164 5.08-10.291 4.953zm7.75 9.018c.212-.37.483-.701.803-.983a6.844 6.844 0 011.027-.764 9.645 9.645 0 012.345-1.02 13.26 13.26 0 012.499-.465c.422-.032.835-.055 1.265-.062.45 0 .9.035 1.345.108 1.702.304 3.317.981 4.727 1.983.686.474 1.33 1.005 1.927 1.588a11.38 11.38 0 011.594 1.9c-1.46-.771-2.858-1.515-4.282-2.136a16.7 16.7 0 00-4.269-1.336 10.09 10.09 0 00-1.056-.088h-1.143c-.38.024-.766.005-1.143.044-.19.01-.381.016-.571.03a15.96 15.96 0 01-.568.052c-.761.075-1.517.196-2.263.363a9.19 9.19 0 00-2.237.786z" fill="#100"/><path d="M23.98 71.187a1.998 1.998 0 01-.612-.525 1.37 1.37 0 01-.298-.857c.011-.334.13-.656.336-.918a3.03 3.03 0 01.655-.634c.46-.323.96-.587 1.487-.784a13.07 13.07 0 011.537-.49 45.437 45.437 0 016.083-1.021c.507-.056 1.015-.099 1.52-.148l1.508-.118.17-.012.079-.007c.085-.008.096-.005.138-.006l.142.005a12.163 12.163 0 011.228.156c.523.089 1.038.197 1.55.33 1.033.253 2.036.616 2.992 1.083.486.24.945.534 1.367.874.44.328.77.778.954 1.294a3.22 3.22 0 00-1.277-.734 10.058 10.058 0 00-1.418-.358 29.57 29.57 0 00-2.924-.371c-.491-.04-.983-.074-1.47-.1l-.723-.027a5.947 5.947 0 00-.377.004c.01 0-.01.002.043-.001l.022-.003-.013.002-.026.005-.207.034c-.52.073-1.02.138-1.526.2l-1.513.168c-2.011.212-4.045.34-6.02.492-.49.036-.971.09-1.441.163a7.43 7.43 0 00-1.347.323c-.41.155-.776.356-.916.688-.15.34.006.87.297 1.293z" fill="#100"/><path d="M30.271 69.028c.293.925.653 1.74 1.16 2.255.493.514 1.083.708 1.826.776.335.04.674.026 1.005-.04.31-.071.597-.215.839-.42.297-.258.556-.558.767-.89.252-.388.481-.789.687-1.202.162.477.216.984.16 1.485a3.4 3.4 0 01-.524 1.515 2.918 2.918 0 01-1.388 1.126c-.284.105-.58.173-.881.202a4.675 4.675 0 01-.83-.01 3.873 3.873 0 01-1.621-.512 3.108 3.108 0 01-1.19-1.272 3.381 3.381 0 01-.347-1.562c.001-.503.117-1 .337-1.451z" fill="#100"/><path d="M26.52 70.933c.44.552.978 1.019 1.586 1.377a7.004 7.004 0 001.846.763 11.27 11.27 0 003.992.16 142.3 142.3 0 004.216-.555c.706-.098 1.407-.232 2.177-.282.391-.025.784.013 1.164.111.362.106.708.26 1.028.458-.187-.007-.365-.04-.547-.038l-.266-.01-.261.01a4.174 4.174 0 00-.99.207c-.647.22-1.332.494-2.034.712a23.68 23.68 0 01-4.31.9 9.08 9.08 0 01-4.562-.545 6.044 6.044 0 01-1.924-1.313 4.216 4.216 0 01-1.114-1.955zm-1.778-.254c.241.33.464.673.667 1.028.174.31.318.602.454.898.136.295.243.603.362.937.133.391.231.793.296 1.2a2.136 2.136 0 01-1.257-.484 2.778 2.778 0 01-1.028-2.325 2 2 0 01.506-1.254zm26.553 27.813s-2.16-2.414-3.176-2.16c-1.016.255-.254 2.033 0 2.033s3.176.127 3.176.127zm-7.623-6.35c-.054 1.076-.105 2.09-.078 3.077.007.941.15 1.877.425 2.778a5.11 5.11 0 001.437 2.208 11.451 11.451 0 002.536 1.588 5.255 5.255 0 01-3.226-.608 4.845 4.845 0 01-2.192-2.704 6.736 6.736 0 01-.17-3.366 7.315 7.315 0 011.268-2.973zm13.595 21.208c-.84.118-1.678.185-2.516.222-.418.015-.838.03-1.258.03-.21 0-.42.004-.632-.003l-.317-.008c-.1-.003-.245-.013-.238.007-.1.029-.28.07-.45.127l-.543.18c-.369.133-.746.264-1.124.406-.758.274-1.523.556-2.297.818-1.546.529-3.112 1.027-4.718 1.428a36.01 36.01 0 01-2.438.533c-.835.16-1.679.268-2.526.324a17.778 17.778 0 012.11-1.434 28.312 28.312 0 012.216-1.181 34.032 34.032 0 014.651-1.827c.799-.25 1.611-.464 2.444-.64.417-.083.84-.163 1.276-.215.22-.027.44-.052.674-.062a4.44 4.44 0 01.782.015c.128.018.254.045.378.079l.297.073.599.147 1.207.299c.807.204 1.615.425 2.423.682z" fill="#100"/><path d="M56.25 117.415c-1.644.185-3.254.265-4.86.332a222.08 222.08 0 01-4.799.134c-1.596.023-3.188.059-4.79.07-1.604.002-3.203.049-4.862-.028a21.019 21.019 0 014.733-1.365 31.633 31.633 0 014.886-.455c1.634-.03 3.269.054 4.891.251 1.633.186 3.242.541 4.802 1.061zm-.307 4.686l-.3.823-.249.03a72.566 72.566 0 01-6.035.399 89.313 89.313 0 01-3.018.025l-.288-.005-.218-.155a27.655 27.655 0 01-2.419-1.953c-.386-.351-.76-.718-1.123-1.102-.37-.387-.715-.796-1.034-1.225.513.153 1.016.338 1.507.554.482.208.955.433 1.417.676.46.243.915.497 1.357.767.361.216.716.44 1.065.673.917-.005 1.837.005 2.754.028a69.37 69.37 0 013.017.134 55.852 55.852 0 013.567.331zm-27.085-7.58c.404.834.678 1.606.963 2.343.247.685.538 1.354.872 2.001a3.502 3.502 0 001.17 1.342c.514.349 1.283.496 2.2.661a3.112 3.112 0 01-1.187.735 3.26 3.26 0 01-.724.159 3.158 3.158 0 01-.783-.035 3.236 3.236 0 01-1.47-.681 3.987 3.987 0 01-.987-1.202 5.757 5.757 0 01-.66-2.71 5.515 5.515 0 01.606-2.613zM56.505 3.115c-2.632.118-5.195.092-7.748.083-2.55-.022-5.08-.037-7.596-.007-.628.012-1.257.014-1.883.043-.628.004-1.251.047-1.877.066a76.63 76.63 0 00-3.735.271 37.59 37.59 0 00-3.704.55 24.595 24.595 0 00-3.695 1.026 11.675 11.675 0 013.238-2.321 19.686 19.686 0 013.754-1.413 29.443 29.443 0 013.915-.754 42.719 42.719 0 011.974-.182c.659-.044 1.317-.058 1.975-.079 2.622-.026 5.241.18 7.826.619 1.288.22 2.567.492 3.83.832 1.27.331 2.516.754 3.726 1.266zm-29.73 12.446c-.893.044-1.782.057-2.668.05a80.46 80.46 0 01-2.65-.064 85.095 85.095 0 01-2.64-.14c-.879-.055-1.755-.13-2.63-.202l.635-.083-.265.149-.291.171c-.195.118-.39.24-.584.368-.39.25-.778.507-1.158.78-.38.273-.764.542-1.137.827l-1.113.865a63.378 63.378 0 00-4.25 3.759 92.492 92.492 0 00-3.996 4.128c-1.31 1.424-2.581 2.9-3.933 4.378A27.113 27.113 0 012.6 25.114a32.322 32.322 0 013.54-4.868 31.116 31.116 0 014.42-4.147c.4-.313.812-.612 1.234-.898.423-.284.845-.572 1.287-.83.44-.262.887-.515 1.346-.752.23-.117.465-.23.703-.34l.362-.162c.128-.055.237-.1.399-.164l.358-.142.278.059c.86.182 1.72.36 2.578.56a94.002 94.002 0 015.128 1.319c.85.247 1.698.515 2.541.812zM4.16 66.36a42.88 42.88 0 01-.837-5.783c-.165-1.91-.256-3.808-.318-5.698-.062-1.89-.08-3.774-.111-5.655-.013-.941-.028-1.883-.058-2.83a35.784 35.784 0 00-.2-2.893 9.297 9.297 0 011.54 2.594c.374.926.675 1.88.898 2.854.435 1.919.677 3.876.724 5.843.058 1.949-.037 3.9-.286 5.833a25.67 25.67 0 01-1.352 5.736z" fill="#100"/><path d="M.095 37.151A3.07 3.07 0 01.08 35.7c.096-.48.241-.95.433-1.402.382-.89.867-1.733 1.445-2.511a22.996 22.996 0 013.932-4.091c.356-.307.73-.587 1.101-.873.374-.28.748-.563 1.135-.821l.575-.397c.228-.146.464-.279.707-.399.438-.22.89-.412 1.351-.575.89-.317 1.803-.559 2.732-.723a13.063 13.063 0 012.866-.219c-.7.644-1.448 1.233-2.238 1.762-.763.519-1.535 1-2.292 1.45-.185.118-.377.223-.559.336-.176.116-.366.222-.53.33-.18.106-.311.214-.461.312l-.543.392c-.182.13-.363.26-.54.394l-.544.389-1.073.789c-1.426 1.055-2.829 2.123-4.155 3.27a22.674 22.674 0 00-1.894 1.816 10.12 10.12 0 00-.827 1.023c-.273.36-.479.766-.606 1.199zM15.89 63.919c.215-.455.544-.847.955-1.137.393-.291.835-.51 1.304-.645a3.94 3.94 0 011.452-.159c.503.03.99.187 1.415.458-.421.207-.855.386-1.3.535-.41.137-.807.266-1.208.384a26.63 26.63 0 01-1.234.325c-.456.109-.918.188-1.385.239zm17.619 7.395c.42 0 .762-.853.762-1.905s-.341-1.905-.762-1.905-.763.853-.763 1.905.342 1.905.763 1.905z" fill="#100"/><path d="M86.14 29.965a17.66 17.66 0 01-8.756-1.257c-5.23-2.182-18.72-5.4-21.769-6.416-9.69-3.229 1.692 3.048 1.692 3.048s16.795 3.048 20.923 4.572c-17.636 1.27-19.312-2.032-19.312-2.032s-12.595 2.44-4.573 3.81c10.418 1.778 32.27-1.778 32.27-1.778l-.474.053z" fill="#D29E73"/><path d="M55.615 15.942s3.303-.254 5.844.762c2.541 1.016 5.337 3.048 13.468-.254 7.896-3.206 19.82-2.54 19.82-2.54s-8.132.508-15.755 2.54c-7.623 2.032-6.86 4.572-14.23 3.302-6.925-1.193-11.053-.17-11.053-.17l1.906-3.64z" fill="#281B11"/><path d="M51.5 147.513s3 1.815 16.5-2.032c8.496-2.421 10.664-3.15 16-3.15 0 0-10.434 1.075-14.5 2.091-4.066 1.016-14.139 1.821-13.123.297 1.017-1.524 7.623-.254 9.91 0s7.623.762 7.623.762-13.213-3.556-17.532-2.286c-4.32 1.27-4.878 4.318-4.878 4.318z" fill="#D29E73"/><path d="M101.099 128.971c-18.55 4.826-45.738-.762-45.738-.762H49.01l-1.78 6.719a2.042 2.042 0 00.75 2.165c.217.162.464.28.727.347 1.936.48 5.99.584 8.497.492l-.006-.049a4.118 4.118 0 014.257-4.673c20.624.964 39.645-4.239 39.645-4.239z" fill="#F1D59E"/><path d="M56.377 137.353a38.117 38.117 0 009.148-4.826s7.043-1.151 6.098-.762c-4.32 1.778-12.114 6.096-14.23 6.096-3.048 0-1.016-.508-1.016-.508z" fill="#F1D59E"/><path d="M53.582 127.447s10.927-6.096 34.304 0c0 0 5.59.762 8.64.762 0 0-7.116-1.524-13.722-3.302-6.607-1.778-20.836-2.286-27.443-.508-6.606 1.778-1.779 3.048-1.779 3.048z" fill="#D29E73"/><path d="M65.695 109.1c-2.7-2.44-10.08-4.97-10.08-4.97s-2.033 7.57.89 8.459c2.922.889 24.012-2.667 24.012-2.667-5.082-.762-9.078.798-10.454.837a6.267 6.267 0 01-4.368-1.659zm-7.793.822c-.7-3.251 7.57-.958 8.546.914-4.057.049-8.364-.068-8.546-.914zm35.025-30.655l.004-.006-.004.006zm1.214-.346c-6.735-.09-14.453.628-23.28 1.029-11.18.508-15.246-5.588-15.246-5.588s-.762 5.08 0 7.08c.762 2.002 2.795-.222 7.623.032s8.385 2.286 10.926 3.81c2.541 1.523 11.368-.158 14.23-1.27 2.317-.901 3.46-2.128 4.024-3.12a3.337 3.337 0 012.897-1.706h4.005a62.617 62.617 0 00-5.179-.267zm-5.747 4.077c-3.557 2.793-16.517 1.524-12.197-1.27 2.446-1.582 8.285-1.551 13.976-1.778.01.388.798 1.023-1.78 3.048z" fill="#F1D59E"/><path d="M75.689 80.458l-2.033 1.778s-1.016-.508-.762-1.016 2.795-.762 2.795-.762z" fill="#fff"/><path d="M55.615 74.362s13.976-.254 23.377 3.556l3.812 2.032 2.863-.687s-12.01-6.425-20.142-6.68c-8.131-.253-10.598-1.117-10.598-1.117l.688 2.896zm.508 10.922s10.418.762 14.23.508l-13.721 2.54-.509-3.048z" fill="#F1D59E"/><path d="M58.47 72.507s-3.194-.175-3.109-4.495c.085-4.32 6.85-3.181 11.689-2.794 6.352.508 18.04-2.794 18.04-2.794s-13.72 1.524-21.852 0c-6.513-1.22-10.672 0-10.672 0l.762 9.906 5.142.177z" fill="#F1D59E"/><path d="M56.886 3.496s9.366 3.376 18.04 1.778c9.656-1.778 18.804-1.27 18.804-1.27s-9.91-.254-18.803 2.54c-4.37 1.373-17.533 0-17.533 0l-.508-3.048z" fill="#C7A167"/><path d="M59.173 6.544s-1.213.27-.763.508c4.32 2.286 14.484-.762 14.484-.762S64 10.1 57.712 7.78c-1.555-.573-.572-1.998 1.46-1.236z" fill="#C7A167"/><path d="M56.886 10.862s29.221 4.318 24.647 4.318c-6.606-1.016-23.632-.918-25.664.762l1.017-5.08z" fill="#4C321E"/><path d="M62.476 107.381s2.16.635 3.557.762c2.04.186 9.272.381 11.687 1.778l-2.463.214s-6.325-1.786-9.986-1.23l-2.795-1.524z" fill="#F1D59E"/></svg>