<svg width="102" height="149" fill="none" xmlns="http://www.w3.org/2000/svg"><path d="M12.959 48.708c.805.707 1.688 1.32 2.633 1.824h.002c.528-.211 4.473-2.35 12.504-2.706 7.272-.321 16.735 2.464 14.845-.134-2.033-2.794.762-3.853.762-5.334 0-3.81-1.667-4.102-2.683-7.541a12.207 12.207 0 01.884-7.003l3.832-8.57 22.615.508s2.195 1.186 4.924 2.87c2.917 1.804 6.441 4.173 8.543 6.274 4.065 4.064 7.623 20.574 10.164 21.59 2.54 1.016.762 20.066.762 20.066s-.762 22.605-1.525 29.717c-.762 7.112 0 11.684-2.795 18.796s-10.672 12.7-20.073 20.828c-3.108 2.687-6.635 4.514-9.961 5.756-.376.139-.75.274-1.12.396a42.708 42.708 0 01-11.466 2.227h-.023l-.045.003v-.003c-.75-1.653-1.848-3.103-2.033-5.077a19.025 19.025 0 01-.04-2.781c.04-.808.121-1.636.23-2.482.404-3.101 1.195-6.423 1.82-9.649l.023-.12c.752-1.059.818-2.354.254-3.764l-.536-1.476-.3-.822-.18-.496c.378-5.656 1.765-10.246.508-19.05-.509-3.556-2.874-6.466-2.541-7.112 4.065-7.873 2.896-19.946 2.795-33.02l.03-.392a7.482 7.482 0 00-5.32-7.698 7.493 7.493 0 00-3.335-.22 54.468 54.468 0 01-3.572.437c-7.437.676-12.787-1.022-16.165-2.759l-.012-.006c-.641-.33-1.208-.66-1.708-.977l-.016-.01-.001-.001a14.79 14.79 0 01-2.68-2.09zm25.014 1.724c-1.58-.666-4.65-1.45-9.661-.843-4.974.604-7.613.59-9.509 1.15 6.86 4.573 13.943 1.445 19.17-.307z" fill="#DEB288"/><path d="M75.472 26.166l-1.021 30.162 7.369 5.08.762 3.302-5.844 4.318-.254 3.556 4.065 2.54.508 1.778 3.812 1.524-1.525 34.29-19.311 29.209s2.626-1.668 6.903-4.644c4.277-2.976 14.898-14.109 16.067-16.162 1.17-2.054 4.218-.784 3.964-8.911-.254-8.128.89-25.967.89-25.967l.635-15.69 1.009-12.85s-9.14-28.805-14.73-32.869-3.299 1.334-3.299 1.334z" fill="#F1D59E"/><path d="M40.867 32.15c5.468.157 13.647.066 16.981-.61a5.106 5.106 0 016.126 5.194l-.957 23.912 11.434-1.27 1.016-33.274-2.19-3.48-2.13-3.378h-25.41l-3.831 8.57a12.1 12.1 0 00-1.04 4.336zm30.789 79.041s2.033 7.112-.508 8.636a7.151 7.151 0 01-4.066 1.016l-.432-.503a2.062 2.062 0 01-.065-2.602l5.07-6.547z" fill="#D29E73"/><path d="M43.68 117.734c.223 1.735.856 3.561 1.676 4.76l8.259-.127 3.557-1.524s6.607-3.302 1.525-5.08c0 0-8.894-3.556-10.164-3.048-1.27.508-4.066.762-4.066.762-.83.831-1.019 2.497-.788 4.257z" fill="#B4765C"/><path d="M76.484 72.584s-.748 5.057-7.877 4.826c-5.8-.188-7.115-3.048-11.18-4.064 0 0 2.54-1.016 4.065-.508 1.524.508 6.098 1.778 8.64 1.27 2.54-.508 5.59-5.334 6.352-1.524z" fill="#D29E73"/><path d="M72.164 68.774s3.05.889 3.303 2.222c.254 1.334 4.574-.444 1.017-1.968-3.558-1.524-5.59-1.016-5.59-1.016l1.27.762zm-7.623-1.524c-.254 0-7.369-.254-8.131 1.778-.762 2.031 1.016 3.555 1.016 3.555l7.115-5.333zm-7.115 5.334s3.558 5.841 7.877 6.603l2.795 6.097s-11.434-2.54-10.672-12.7z" fill="#D29E73"/><path d="M57.68 89.347s.735 11.31-2.795 12.192c-3.049.762-3.557.254-3.557.254s2.287-3.048 1.779-4.318c-.299-.745.89-3.061.89-3.061l3.683-5.067z" fill="#B17451"/><path d="M47.516 102.047l2.517 6.29s10.765 4.205 13.492 8.188l-1.017-3.556c-.254-4.318-6.812-5.471-14.992-10.922zm-1.524 22.352s4.818 1.296 6.129 3.758l-6.352.103c.428-1.328.794-2.67.223-3.861z" fill="#D29E73"/><path d="M44.213 86.808c.672-1.597-.106-3.098 0-4.826 0-3.556.54-8.437 1.525-13.97V62.33c6.284-1.915 17.278-2.7 17.278-2.7-1.418 4.398-6.881 7.051-11.428 8.537.056 1.393.434 11.905-.514 17.117 0 0 6.352 7.873 1.016 11.683-3.242 2.314-5.844 2.286-7.369 1.016-4.065-3.048-2.54-6.35-.508-11.175z" fill="#F1D59E"/><path d="M51.708 88.379a4.664 4.664 0 01-.603-3.5c1.338-6.112-1.204-12.48-.285-16.613.178-.8 4.828-4.318 6.606-5.842 4.218-3.614 6.062-1.99 6.079-1.79.222-.004 1.06.076 1.036.266-.508 4.064-9.656 4.064-9.656 9.398v4.572l1.525 5.588.65 8.668c.165.429.038-.602.112-.032.762 5.842-5.082 7.874-5.082 7.874 2.606-2.78.935-6.509-.382-8.59z" fill="#D29E73"/><path d="M80.755 72.375c-.046.298-.12.648-.194.975a28.576 28.576 0 01-.845 2.977c-.23.651-.488 1.294-.783 1.927a13.278 13.278 0 01-1.052 1.823 13.64 13.64 0 001.624-1.423c.503-.523.98-1.077 1.434-1.651a29.83 29.83 0 001.881-2.717c.197-.321.38-.624.572-.985l-2.637-.926zm-7.829 44.912c-.792 5.29-5.082 11.43-8.893 15.24l3.811-11.684c1.458.504 3.242-1.328 5.082-3.556z" fill="#F1D59E"/><path d="M43.705 143.195c.185 1.974.508 3.81 2.033 5.078a.17.17 0 00.045 0h.023c4.302-.038 8.297-.854 11.465-2.228.298-.124.585-.259.867-.396a30.877 30.877 0 005.895-3.724c-.534-6.411.968-13.515 3.811-21.082l-10.418 17.526c-3.28 1.969-10.415 2.24-13.762 2.045-.054.927-.04 1.856.04 2.781z" fill="#D29E73"/><path d="M45.738 101.794l-.616 5.664c-.137 1.256-.955 2.488-1.163 3.733-.254 1.524-.254 3.048.254 3.81.432-.099 1.908-2.067 4.32-2.286 2.795-.254 15.754 5.334 15.754 5.334-1.779-5.08-14.23-9.651-14.23-9.651l-2.54-6.604h-1.78z" fill="#F1D59E"/><path d="M70.894 69.028s-.763 4.318-2.033 4.572c0 0 4.448.306 5.527-2.133 1.08-2.44-3.495-2.44-3.495-2.44zm-4.574 4.064s-1.779-2.794-1.779-4.318c0 0-5.66 2.506-6.641 3.412a.753.753 0 001.058.7c1.01-.302 1.99-.042 3.152.209 1.16.25 4.21-.003 4.21-.003z" fill="#D9D8CD"/><path d="M57.768 93.247l3.724-7.963-6.515-6.751 2.79 14.714z" fill="#D29E73"/><path d="M42.681 5.879l.42 1.996 2.383 11.37 12.959 1.015s9.91-1.778 16.008 2.286c6.098 4.064 9.656 11.684 11.434 20.32 1.779 8.636 7.623 14.732 7.623 14.732l-.007 8.89h3.056l1.017-17.526s3.049-8.89 3.049-12.954c0-2.794-.508-6.858-.508-6.858.254-7.874-14.484-14.986-14.484-14.986 1.052-2.946-7.132-7.109-9.976-8.453h-.002c-.59-.28-.948-.437-.948-.437a3.872 3.872 0 00-.218-.236c-1.53-1.567-3.97-1.854-11.725-3.066-5.92-.924-14.13.305-18.157 1.042a2.218 2.218 0 00-.473.14 2.403 2.403 0 00-1.451 2.725z" fill="#4C321E"/><path d="M67.717 73.092c-1.754 0-3.176-1.308-3.176-2.921 0-1.614 1.422-2.921 3.176-2.921 1.754 0 3.177 1.308 3.177 2.92 0 1.614-1.423 2.922-3.177 2.922z" fill="#5D6059"/><path d="M69.62 68.52s.318 2.794-2.538 2.794l.317-2.794h2.222zm-2.792 1.27l-2.287.254v-1.27h2.795l-.508 1.016z" fill="#8B9491"/><path d="M67.21 71.314a.635.635 0 11-.001-1.27.635.635 0 010 1.27z" fill="#8B9491"/><path d="M93.508 66.487s4.574.509 5.082 2.032c.508 1.524-2.54 8.89-2.54 8.89s-2.034 13.97-1.017 18.796c1.016 4.826-3.303 2.286-3.303 2.286l.622-22.266 1.156-9.737z" fill="#B17451"/><path d="M42.68 5.879l.42 1.996c7.732-2.639 23.22-1.33 23.22-1.33s-5.463 5.206-5.463 5.46c0 .254 14.798-6.294 14.798-6.294h-.002c-.37-.255-.76-.48-1.167-.673-3.359-1.636-8.6-1.95-15.154-2.177-4.124-.142-10.44.074-15.2.292A2.403 2.403 0 0042.68 5.88zm57.75 32.288c-.068.123-7.938-8.509-12.766-12.827 0 0 7.369 3.048 9.91 6.35 2.541 3.302 4.187 4.064 2.856 6.477z" fill="#C7A167"/><path d="M45.484 15.942c.762.254 29.475-4.318 37.098-6.604.404 1.997-.222 3.835-3.05 5.334 0 0-8.893 2.54-8.384 2.54.508 0 12.959 2.032 13.213 13.208l-.489 2.159s-3.323-7.747-9.421-10.287c-6.098-2.54-13.594-2.708-13.594-2.708s-11.816 1.692-15.373-.34v-3.302z" fill="#281B11"/><path d="M75.721 5.782s11.18 4.826 9.91 8.128c0 0-10.224 1.28-9.656 1.27 2.042-.036 7.586-3.903 6.099-4.064 0 0-13.176 2.86-18.55 4.826 3.558-3.302 7.878-5.08 12.668-7.178l-6.823-1.458 6.352-1.524z" fill="#C7A167"/><path d="M85.631 30.928c1.23 1.14 2.503 2.117 3.771 3.087l3.792 2.825c1.243.94 2.476 1.873 3.608 2.892.573.5 1.107 1.041 1.598 1.622a6.82 6.82 0 011.207 2.012 4.493 4.493 0 00-.223-2.555 9.013 9.013 0 00-1.237-2.273 17.05 17.05 0 00-3.582-3.528 24.571 24.571 0 00-4.24-2.53 18.874 18.874 0 00-4.694-1.552z" fill="#6E5446"/><path d="M85.25 38.42c1.25.821 2.487 1.5 3.705 2.184 1.217.678 2.414 1.34 3.558 2.04 1.133.67 2.206 1.44 3.205 2.297a8.76 8.76 0 012.364 3.25 4.52 4.52 0 00-.013-2.286 6.637 6.637 0 00-.986-2.135 11.087 11.087 0 00-3.377-3.075 16.178 16.178 0 00-4.076-1.75 13.401 13.401 0 00-4.38-.524zm.508 4.573c1.23.834 2.432 1.542 3.604 2.267a53.25 53.25 0 013.374 2.206 16.849 16.849 0 012.882 2.558 9.287 9.287 0 011.122 1.578c.334.616.613 1.26.834 1.924a5.156 5.156 0 00.241-2.252 6.502 6.502 0 00-.69-2.233 9.833 9.833 0 00-3.047-3.426 14.336 14.336 0 00-3.974-1.985 14.553 14.553 0 00-2.138-.512 9.867 9.867 0 00-2.208-.125z" fill="#281B11"/><path d="M88.553 48.835c.706.64 1.35 1.133 1.975 1.62l1.794 1.39c.585.45 1.136.917 1.71 1.418.607.486 1.128 1.06 1.89 1.668a4.31 4.31 0 00.053-.703c.003-.119-.003-.235-.007-.354-.007-.118-.036-.227-.053-.343a9.071 9.071 0 00-.162-.682 6.943 6.943 0 00-.267-.645l-.152-.318-.19-.293a5.892 5.892 0 00-.406-.572 14.082 14.082 0 00-.474-.515 6.302 6.302 0 00-.526-.456 6.672 6.672 0 00-2.449-1.217 6.11 6.11 0 00-1.353-.187 4.776 4.776 0 00-.69.035 3.213 3.213 0 00-.693.154zM58.824 8.703c-1.08.29-2.043.648-3 1.008-.951.365-1.88.735-2.8 1.113l-2.763 1.151c-.928.42-1.875.764-2.872 1.3.266.08.536.144.81.192.136.027.273.046.41.068.136.015.272.02.409.03.273.014.548.022.823.022a11.42 11.42 0 003.959-.884 12.481 12.481 0 002.806-1.605c.213-.168.422-.34.626-.517.2-.184.398-.37.586-.566a6.809 6.809 0 001.006-1.312z" fill="#281B11"/><path d="M43.68 117.734l15.27-.955-10.417-4.064c-1.27.508-4.828.508-4.828.508-.254 1.27-.257 2.751-.026 4.511z" fill="#904B3B"/><path d="M45.484 19.244c.99.496 2.028.893 3.096 1.186l.796.22c.266.067.534.124.802.187.535.128 1.074.221 1.614.316 2.159.35 4.343.517 6.53.498l1.636-.051a33.317 33.317 0 001.632-.117c.542-.058 1.086-.096 1.625-.176.54-.075 1.08-.162 1.617-.254a21.557 21.557 0 001.605-.323 49.149 49.149 0 001.592-.395c.528-.142 1.05-.318 1.571-.496a21.7 21.7 0 001.548-.595c-1.11-.166-2.193-.216-3.273-.274a49.71 49.71 0 00-1.614-.068c-.268-.01-.535-.01-.802-.014-.267-.009-.535-.023-.802-.025a49.47 49.47 0 00-1.596-.015l-1.592-.012c-.53-.002-1.058.02-1.587.006l-1.586.017a329.95 329.95 0 00-6.347.11c-2.128.06-4.252.132-6.465.275z" fill="#100"/><path d="M68.168 19.752c.792.473 1.52.947 2.236 1.434l.534.359c.173.129.349.248.522.372.352.235.686.5 1.029.743 1.358.998 2.65 2.046 3.933 3.117.314.277.632.55.954.818.165.129.317.274.472.416.157.14.31.283.471.42.316.28.645.546.951.84.308.29.626.574.95.856.33.274.634.577.956.866.319.292.649.578.985.863.658.613 1.35 1.188 2.073 1.723a14.243 14.243 0 00-.442-1.297 17.088 17.088 0 00-.536-1.256c-.21-.4-.427-.798-.654-1.19-.219-.397-.46-.781-.724-1.15a19.183 19.183 0 00-1.691-2.136c-.31-.334-.607-.68-.945-.989a52.8 52.8 0 00-1.017-.918 18.739 18.739 0 00-4.666-2.892c-.423-.181-.856-.34-1.296-.477-.222-.066-.44-.137-.662-.198a26.37 26.37 0 00-.676-.153 8.573 8.573 0 00-2.757-.17zM47.39 16.323c3.044.368 6.182-.018 9.161-.849 2.985-.841 5.806-2.123 8.488-3.5 2.69-1.37 5.249-2.854 7.9-4.017a25.926 25.926 0 014.09-1.429 21.28 21.28 0 014.41-.619 12.58 12.58 0 00-4.581-.743 18.34 18.34 0 00-4.654.72 32.03 32.03 0 00-4.355 1.617c-.7.31-1.385.643-2.068.97l-2.017 1.016c-2.665 1.371-5.256 2.75-7.945 3.922a52.76 52.76 0 01-4.113 1.602c-1.402.485-2.838.897-4.317 1.31zm13.466 0a6.22 6.22 0 001.797.325c.614.016 1.227-.018 1.834-.101a22.991 22.991 0 003.516-.797c2.268-.686 4.42-1.525 6.556-2.282a56.218 56.218 0 016.429-1.944 33.232 33.232 0 016.803-.789c-2.14-1.1-4.644-1.495-7.083-1.39a24.464 24.464 0 00-7.088 1.492 55.51 55.51 0 00-6.427 2.879c-1.028.524-2.043 1.045-3.074 1.515a19.89 19.89 0 01-1.576.65c-.55.192-1.114.34-1.687.442zm26.935 19.558a4.652 4.652 0 00-1.285-1.414 5.794 5.794 0 00-1.504-.804 5.72 5.72 0 00-1.67-.342 4.612 4.612 0 00-1.893.274 4.61 4.61 0 001.283 1.417c.459.341.967.611 1.506.801.537.195 1.1.31 1.671.34a4.654 4.654 0 001.892-.272zm5.082 6.859a10.09 10.09 0 00-2.173-1.96 15.585 15.585 0 00-2.44-1.369 15.381 15.381 0 00-2.641-.92 9.997 9.997 0 00-2.91-.324 9.989 9.989 0 002.172 1.963c.77.528 1.588.985 2.44 1.365.853.385 1.737.692 2.643.918.949.25 1.929.36 2.909.326zm.762 5.333a11.746 11.746 0 00-2.338-2.138 18.697 18.697 0 00-2.623-1.556 18.404 18.404 0 00-2.839-1.114 11.62 11.62 0 00-3.126-.526 11.613 11.613 0 002.337 2.141c.83.59 1.708 1.109 2.624 1.553.915.447 1.865.819 2.84 1.111a11.75 11.75 0 003.125.529zm0 4.064a4.418 4.418 0 00-.942-1.597 5.372 5.372 0 00-1.271-1.038 5.3 5.3 0 00-1.522-.615 4.38 4.38 0 00-1.855-.052 4.39 4.39 0 00.94 1.6 5.3 5.3 0 001.274 1.035c.473.28.987.488 1.523.613a4.421 4.421 0 001.853.054zm1.017 5.842a7.104 7.104 0 00-1.134-2.142 10.272 10.272 0 00-1.555-1.65 10.133 10.133 0 00-1.874-1.274 7.042 7.042 0 00-2.298-.776c.25.775.633 1.5 1.132 2.145.456.605.978 1.157 1.557 1.646.576.492 1.205.919 1.876 1.272.715.39 1.491.653 2.296.779zm-1.017-2.286a47.272 47.272 0 00-1.388 6.61 83.72 83.72 0 00-.687 6.65 84.959 84.959 0 00-.169 6.68c.022 2.25.178 4.497.466 6.73.19-.54.366-1.086.508-1.634.15-.547.28-1.097.403-1.647.246-1.101.442-2.205.616-3.311a74.34 74.34 0 00.712-6.657c.14-2.225.186-4.455.138-6.69a45.632 45.632 0 00-.599-6.731z" fill="#100"/><path d="M92.619 70.425c-.21 2.14-.404 4.282-.586 6.424l-.273 3.212-.252 3.214c-.347 4.285-.636 8.572-.934 12.86a952.424 952.424 0 00-.793 12.868l-.168 3.196a10.156 10.156 0 01-.686 2.763 19.142 19.142 0 01-1.319 2.708 33.334 33.334 0 01-1.671 2.598 58.43 58.43 0 01-3.934 4.893 95.73 95.73 0 01-4.377 4.589c-3.015 2.984-6.2 5.815-9.468 8.548a82.011 82.011 0 01-2.469 1.988 58.881 58.881 0 01-2.559 1.846 53.856 53.856 0 01-2.666 1.677 34.52 34.52 0 01-3.51 1.773c-.24.106-.484.205-.728.301a25.64 25.64 0 01-1.473.561c-.996.348-2.013.635-3.044.86-2.063.486-4.203.673-6.352.844a45.17 45.17 0 003.235.178 29.128 29.128 0 003.262-.144c1.09-.12 2.172-.307 3.24-.559a26.76 26.76 0 001.595-.422c.263-.08.526-.162.786-.253.26-.087.522-.176.779-.273 4.15-1.5 7.937-3.865 11.39-6.509a113.193 113.193 0 009.91-8.44c3.12-3.031 6.105-6.244 8.62-9.906a26.204 26.204 0 003.16-5.98c.41-1.126.65-2.306.712-3.503l.078-3.243c.097-4.291.205-8.586.279-12.881.07-4.296.155-8.592.186-12.89l.032-3.224.01-3.224c.012-2.15.008-4.3-.012-6.45z" fill="#100"/><path d="M94.114 67.653l.025-.01.056-.02a2.781 2.781 0 01.39-.107 2.9 2.9 0 01.534-.06c.328-.008.653.062.948.205.298.15.559.368.76.636.24.314.433.66.575 1.028l.015-.886c-.136.354-.24.663-.352.993l-.315.974a59.04 59.04 0 00-1.507 5.893 56.925 56.925 0 00-1.06 8.013 51.573 51.573 0 00-.07 4.047l.116 3.993c.021.66.028 1.318.021 1.964a12.93 12.93 0 01-.127 1.865c-.08.58-.274 1.094-.497 1.293a.877.877 0 01-.403.205c-.217.047-.44.064-.662.052a1.148 1.148 0 00-1.068 1.64 1.146 1.146 0 001.151.646l.033-.003a4.72 4.72 0 001.288-.308 3.01 3.01 0 001.223-.902c.287-.37.496-.794.613-1.247a6.5 6.5 0 00.195-1.158c.054-1.374.022-2.75-.097-4.12l-.117-1.985c-.03-.66-.056-1.317-.077-1.975a40.538 40.538 0 01.078-3.907 45.602 45.602 0 011.208-7.722 45.75 45.75 0 011.09-3.752c.21-.616.43-1.227.67-1.829.12-.3.238-.6.368-.894.126-.29.264-.597.39-.853l.016-.886a6.398 6.398 0 00-.904-1.595 4.467 4.467 0 00-1.548-1.273 4.347 4.347 0 00-1.978-.437 5.181 5.181 0 00-1.668.298l-.12.045c-.047.019-.075.029-.15.063a1.143 1.143 0 10.957 2.076zM82.709 61.28c.54-.538-13.993-.84-21.09.763-3.939.889-5.21.127-5.21.127s12.452-5.842 16.01-5.842c4.827 0 10.163 5.08 10.29 4.953zm-7.75 9.018a3.882 3.882 0 00-.803-.983 6.844 6.844 0 00-1.027-.764 9.645 9.645 0 00-2.345-1.02 13.203 13.203 0 00-2.499-.465 20.629 20.629 0 00-1.266-.062c-.45 0-.9.035-1.344.108a11.726 11.726 0 00-4.727 1.983 14.813 14.813 0 00-1.927 1.588c-.6.574-1.134 1.211-1.595 1.9 1.46-.771 2.86-1.515 4.283-2.136a16.702 16.702 0 014.269-1.336c.35-.048.702-.077 1.056-.088h1.143c.38.024.766.005 1.143.044.19.01.381.016.571.03.188.022.377.038.568.052.761.075 1.517.196 2.263.363a9.19 9.19 0 012.237.786z" fill="#100"/><path d="M77.119 71.187c.237-.132.446-.31.612-.525a1.37 1.37 0 00.297-.857 1.565 1.565 0 00-.336-.918 3.025 3.025 0 00-.654-.634 6.653 6.653 0 00-1.487-.784 13.063 13.063 0 00-1.537-.49 45.437 45.437 0 00-6.083-1.021c-.507-.056-1.015-.099-1.52-.148l-1.509-.118-.17-.012-.078-.007c-.085-.008-.096-.005-.138-.006l-.143.005a12.163 12.163 0 00-1.228.156c-.522.089-1.038.197-1.549.33a14.903 14.903 0 00-2.992 1.083 7.38 7.38 0 00-1.367.874 2.77 2.77 0 00-.954 1.294c.363-.34.8-.591 1.277-.734.463-.154.937-.273 1.418-.358a29.09 29.09 0 012.924-.371c.491-.04.983-.074 1.47-.1l.723-.027a5.947 5.947 0 01.377.004c-.011 0 .01.002-.043-.001l-.023-.003.013.002.026.005.208.034c.52.073 1.02.138 1.526.2l1.513.168c2.011.212 4.045.34 6.02.492.49.036.97.09 1.441.163a7.34 7.34 0 011.347.323c.41.155.776.356.915.688.15.34-.006.87-.296 1.293z" fill="#100"/><path d="M70.828 69.028c-.294.925-.653 1.74-1.16 2.255-.494.514-1.083.708-1.826.776-.335.04-.674.026-1.005-.04a1.983 1.983 0 01-.84-.42 4.073 4.073 0 01-.766-.89 12.216 12.216 0 01-.687-1.202 3.436 3.436 0 00-.16 1.485c.051.54.23 1.06.524 1.515.333.511.819.905 1.388 1.126.283.105.58.173.88.202.277.02.555.018.83-.01a3.873 3.873 0 001.622-.512c.51-.302.923-.743 1.19-1.272a3.382 3.382 0 00.347-1.562 3.337 3.337 0 00-.337-1.451z" fill="#100"/><path d="M74.578 70.933a5.761 5.761 0 01-1.585 1.377 7.005 7.005 0 01-1.846.763c-1.31.29-2.663.345-3.992.16a142.3 142.3 0 01-4.217-.555c-.705-.098-1.406-.232-2.176-.282a3.675 3.675 0 00-1.164.111c-.362.106-.708.26-1.028.458.187-.007.365-.04.547-.038l.266-.01.261.01c.337.029.669.098.989.207.648.22 1.333.494 2.035.712a23.68 23.68 0 004.31.9 9.08 9.08 0 004.561-.545 6.044 6.044 0 001.924-1.313 4.216 4.216 0 001.115-1.955zm1.779-.254c-.242.33-.464.673-.667 1.028-.175.31-.319.602-.454.898-.136.295-.243.603-.362.937a7.29 7.29 0 00-.296 1.2c.46-.021.901-.19 1.257-.484a2.778 2.778 0 001.028-2.325 2.002 2.002 0 00-.506-1.254zM49.803 98.492s2.16-2.414 3.177-2.16c1.016.255.254 2.033 0 2.033-.255 0-3.177.127-3.177.127zm7.623-6.35c.055 1.076.106 2.09.078 3.077a9.742 9.742 0 01-.424 2.778 5.105 5.105 0 01-1.437 2.208 11.451 11.451 0 01-2.536 1.588 5.256 5.256 0 003.226-.608 4.846 4.846 0 002.192-2.704c.34-1.09.399-2.248.17-3.366a7.316 7.316 0 00-1.269-2.973zM43.832 113.35c.84.118 1.678.185 2.515.222.42.015.839.03 1.258.03.21 0 .421.004.632-.003l.318-.008c.099-.003.245-.013.238.007.1.029.28.07.45.127l.542.18c.37.133.747.264 1.125.406.758.274 1.523.556 2.296.818 1.546.529 3.113 1.027 4.719 1.428a36.01 36.01 0 002.438.533c.835.16 1.678.268 2.526.324a17.778 17.778 0 00-2.11-1.434 28.312 28.312 0 00-2.216-1.181 34.032 34.032 0 00-4.652-1.827c-.798-.25-1.61-.464-2.443-.64-.418-.083-.84-.163-1.276-.215a8.378 8.378 0 00-.674-.062 4.448 4.448 0 00-.783.015 3.028 3.028 0 00-.377.079l-.297.073-.599.147-1.207.299a41.51 41.51 0 00-2.423.682z" fill="#100"/><path d="M44.848 117.415c1.645.185 3.255.265 4.862.332 1.605.062 3.205.107 4.798.134 1.596.023 3.188.059 4.79.07 1.604.002 3.203.049 4.862-.028a21.021 21.021 0 00-4.733-1.365 31.633 31.633 0 00-4.886-.455 35.222 35.222 0 00-4.891.251 23.624 23.624 0 00-4.802 1.061zm.308 4.686l.3.823.249.03c1.006.114 2.012.202 3.018.264a72.62 72.62 0 003.017.135c1.006.025 2.012.034 3.018.025l.287-.005.219-.155a27.715 27.715 0 002.419-1.953c.386-.351.76-.718 1.123-1.102.37-.387.715-.796 1.034-1.225-.513.153-1.017.338-1.507.554-.482.208-.955.433-1.417.676-.46.243-.915.497-1.357.767-.361.216-.716.44-1.065.673a90.337 90.337 0 00-2.755.028 69.404 69.404 0 00-3.016.134 55.868 55.868 0 00-3.018.265c-.183.02-.366.043-.55.066zm27.084-7.58c-.403.834-.677 1.606-.962 2.343a16.84 16.84 0 01-.872 2.001 3.502 3.502 0 01-1.17 1.342c-.514.349-1.283.496-2.2.661.335.332.74.583 1.187.735.235.08.478.134.724.159.262.021.525.009.783-.035a3.236 3.236 0 001.47-.681c.404-.332.74-.74.987-1.202a5.758 5.758 0 00.66-2.71 5.516 5.516 0 00-.606-2.613zM44.594 3.115c2.632.118 5.195.092 7.748.083 2.55-.022 5.08-.037 7.596-.007.628.012 1.257.014 1.883.043.628.004 1.25.047 1.877.066a76.63 76.63 0 013.735.271c1.243.12 2.472.306 3.704.55a24.53 24.53 0 013.695 1.026 11.675 11.675 0 00-3.238-2.321 19.686 19.686 0 00-3.754-1.413 29.443 29.443 0 00-3.915-.754 42.719 42.719 0 00-1.974-.182c-.66-.044-1.317-.058-1.975-.079a44.185 44.185 0 00-7.826.619c-1.288.22-2.567.492-3.83.832-1.27.331-2.516.754-3.726 1.266zm29.73 12.446c.893.044 1.782.057 2.668.05a89.01 89.01 0 005.29-.204c.879-.055 1.755-.13 2.63-.202l-.635-.083.265.149.291.171c.195.118.39.24.584.368.39.25.778.507 1.158.78.38.273.763.542 1.137.827l1.113.865a63.378 63.378 0 014.25 3.759 92.521 92.521 0 013.995 4.128c1.31 1.424 2.582 2.9 3.934 4.378a27.09 27.09 0 00-2.506-5.433 32.322 32.322 0 00-3.54-4.868 31.115 31.115 0 00-4.42-4.147c-.4-.313-.812-.612-1.234-.898-.423-.284-.845-.572-1.288-.83a24.36 24.36 0 00-1.345-.752c-.23-.117-.465-.23-.703-.34l-.363-.162c-.127-.055-.236-.1-.398-.164l-.359-.142-.277.059c-.86.182-1.72.36-2.578.56a94.091 94.091 0 00-5.128 1.319 47.73 47.73 0 00-2.541.812zM96.939 66.36c.41-1.906.69-3.839.837-5.783.165-1.91.256-3.808.318-5.698.062-1.89.08-3.774.11-5.655.014-.941.03-1.883.06-2.83.032-.95.085-1.893.2-2.893a9.298 9.298 0 00-1.541 2.594c-.375.926-.675 1.88-.899 2.854a29.689 29.689 0 00-.723 5.843c-.058 1.949.037 3.9.285 5.833.23 1.957.683 3.882 1.353 5.736z" fill="#100"/><path d="M101.004 37.151a3.07 3.07 0 00.015-1.451 7.166 7.166 0 00-.433-1.402 12.415 12.415 0 00-1.445-2.511 23 23 0 00-3.932-4.091c-.356-.307-.731-.587-1.102-.873-.373-.28-.747-.563-1.134-.821l-.576-.397a7.427 7.427 0 00-.706-.399 11.96 11.96 0 00-1.351-.575 17.023 17.023 0 00-2.733-.723 13.063 13.063 0 00-2.865-.219c.7.644 1.448 1.233 2.238 1.762.763.519 1.534 1 2.292 1.45.185.118.377.223.558.336.177.116.366.222.53.33.181.106.312.214.462.312l.543.392c.182.13.363.26.54.394l.544.389 1.073.789c1.425 1.055 2.828 2.123 4.155 3.27a22.678 22.678 0 011.893 1.816c.298.322.575.664.828 1.023.273.36.479.766.606 1.199zM85.21 63.919a2.929 2.929 0 00-.957-1.137 4.108 4.108 0 00-1.303-.645 3.94 3.94 0 00-1.452-.159c-.503.03-.99.187-1.415.458.421.207.855.386 1.3.535a25.405 25.405 0 002.441.709c.457.109.92.188 1.385.239zm-17.62 7.395c-.42 0-.762-.853-.762-1.905s.341-1.905.762-1.905.763.853.763 1.905-.342 1.905-.763 1.905z" fill="#100"/><path d="M14.958 29.965a17.66 17.66 0 008.757-1.257c5.23-2.182 18.72-5.4 21.769-6.416 9.69-3.229-1.692 3.048-1.692 3.048s-16.795 3.048-20.923 4.572c17.635 1.27 19.311-2.032 19.311-2.032s12.595 2.44 4.574 3.81c-10.418 1.778-32.27-1.778-32.27-1.778l.474.053z" fill="#D29E73"/><path d="M45.484 15.942s-3.304-.254-5.845.762c-2.54 1.016-5.336 3.048-13.467-.254-7.896-3.206-19.82-2.54-19.82-2.54s8.132.508 15.755 2.54c7.623 2.032 6.86 4.572 14.23 3.302 6.925-1.193 11.052-.17 11.052-.17l-1.905-3.64z" fill="#281B11"/><path d="M49.599 147.513s-3 1.815-16.5-2.032c-8.496-2.421-10.664-3.15-16-3.15 0 0 10.434 1.075 14.5 2.091 4.065 1.016 14.139 1.821 13.122.297-1.016-1.524-7.623-.254-9.91 0-2.286.254-7.622.762-7.622.762s13.213-3.556 17.532-2.286c4.32 1.27 4.878 4.318 4.878 4.318z" fill="#D29E73"/><path d="M0 128.971c18.55 4.826 45.738-.762 45.738-.762h6.352l1.779 6.719a2.042 2.042 0 01-.75 2.165 2.07 2.07 0 01-.726.347c-1.937.48-5.99.584-8.498.492l.007-.049a4.118 4.118 0 00-4.257-4.673C19.021 134.174 0 128.971 0 128.971z" fill="#F1D59E"/><path d="M44.721 137.353a38.116 38.116 0 01-9.147-4.826s-7.044-1.151-6.099-.762c4.32 1.778 12.115 6.096 14.23 6.096 3.05 0 1.016-.508 1.016-.508z" fill="#F1D59E"/><path d="M47.516 127.447s-10.926-6.096-34.303 0c0 0-5.59.762-8.64.762 0 0 7.115-1.524 13.722-3.302 6.607-1.778 20.836-2.286 27.443-.508 6.606 1.778 1.778 3.048 1.778 3.048z" fill="#D29E73"/><path d="M35.404 109.1c2.699-2.44 10.08-4.97 10.08-4.97s2.032 7.57-.89 8.459c-2.922.889-24.012-2.667-24.012-2.667 5.082-.762 9.078.798 10.454.837a6.267 6.267 0 004.368-1.659zm7.793.822c.7-3.251-7.57-.958-8.546.914 4.056.049 8.363-.068 8.546-.914zM8.171 79.267l-.003-.006.003.006zm-1.213-.346c6.734-.09 14.453.628 23.28 1.029 11.18.508 15.246-5.588 15.246-5.588s.762 5.08 0 7.08c-.763 2.002-2.796-.222-7.623.032-4.828.254-8.386 2.286-10.927 3.81-2.54 1.523-11.368-.158-14.23-1.27-2.317-.901-3.46-2.128-4.024-3.12a3.337 3.337 0 00-2.896-1.706H1.779a62.617 62.617 0 015.179-.267zm5.747 4.077c3.557 2.793 16.516 1.524 12.197-1.27-2.446-1.582-8.286-1.551-13.976-1.778-.01.388-.798 1.023 1.779 3.048z" fill="#F1D59E"/><path d="M25.41 80.458l2.033 1.778s1.016-.508.762-1.016-2.795-.762-2.795-.762z" fill="#fff"/><path d="M45.484 74.362s-13.976-.254-23.378 3.556l-3.81 2.032-2.864-.687s12.01-6.425 20.142-6.68c8.13-.253 10.598-1.117 10.598-1.117l-.688 2.896zm-.509 10.922s-10.418.762-14.23.508l13.722 2.54.508-3.048z" fill="#F1D59E"/><path d="M42.629 72.507s3.194-.175 3.109-4.495c-.085-4.32-6.85-3.181-11.689-2.794-6.352.508-18.04-2.794-18.04-2.794s13.72 1.524 21.852 0c6.512-1.22 10.672 0 10.672 0l-.763 9.906-5.141.177z" fill="#F1D59E"/><path d="M44.213 3.496s-9.366 3.376-18.04 1.778c-9.657-1.778-18.804-1.27-18.804-1.27s9.91-.254 18.803 2.54c4.37 1.373 17.533 0 17.533 0l.508-3.048z" fill="#C7A167"/><path d="M41.926 6.544s1.213.27.762.508c-4.32 2.286-14.483-.762-14.483-.762s8.893 3.81 15.181 1.49c1.556-.573.573-1.998-1.46-1.236z" fill="#C7A167"/><path d="M44.213 10.862S14.992 15.18 19.566 15.18c6.606-1.016 23.632-.918 25.664.762l-1.017-5.08z" fill="#4C321E"/><path d="M38.623 107.381s-2.16.635-3.557.762c-2.04.186-9.272.381-11.688 1.778l2.464.214s6.325-1.786 9.986-1.23l2.795-1.524z" fill="#F1D59E"/></svg>