<svg width="375" height="692" viewBox="0 0 375 692" fill="none" xmlns="http://www.w3.org/2000/svg">
<g clip-path="url(#clip0_194_275)">
<path opacity="0.38" d="M61.362 425.703H-398.48V655.257L-121.5 692H63.5L61.362 425.703Z" fill="#250F08"/>
<path opacity="0.4" d="M60.0405 -7.03223H-187.059V425.703H60.0405V-7.03223Z" fill="#2D1B0C"/>
<path d="M307.14 -5.71082H61.3623V642.401H307.14V-5.71082Z" fill="#170000"/>
<path opacity="0.4" d="M555.56 -7.03223H308.461V425.703H555.56V-7.03223Z" fill="#2D1B0C"/>
<g opacity="0.53">
<path opacity="0.53" d="M143.618 16.7518L96.709 20.0551V-19.5847H143.618V16.7518Z" fill="#F7D496"/>
<path opacity="0.53" d="M143.618 68.9441L96.709 72.2475V32.6076L143.618 29.965V68.9441Z" fill="#F7D496"/>
<path opacity="0.53" d="M224.884 16.7518L271.793 20.0551V-19.5847H224.884V16.7518Z" fill="#F7D496"/>
<path opacity="0.53" d="M224.884 68.9441L271.793 72.2475V32.6076L224.884 29.965V68.9441Z" fill="#F7D496"/>
</g>
<path opacity="0.38" d="M765 425.703H305.158V693H535.079L765 670.809V425.703Z" fill="#250F08"/>
<path opacity="0.11" d="M321.391 286.963C316.766 296.213 257.343 324.806 257.423 325.943C259.002 349.627 280.437 643.675 273.5 696H97.5C97.5 696 104.684 491.109 109.969 454.772C113.874 427.929 121.386 369.718 125.04 341.138C125.608 336.678 126.083 332.939 126.44 330.158C126.856 326.92 127.101 324.965 127.141 324.661C127.144 324.648 127.146 324.635 127.147 324.621L99.3981 312.729L88.827 312.069L81.5594 301.498C81.5594 301.498 67.7377 296.536 61.6395 283.759C59.7914 279.874 58.8258 275.628 58.8118 271.325C58.7885 269.706 58.8835 268.088 59.0959 266.483C59.6839 261.904 61.2299 256.124 63.3705 249.702C73.3074 219.972 96.0947 176.632 96.0947 176.632L106.666 167.383C106.666 167.383 106.005 166.062 106.666 160.776C107.188 156.588 106.884 141.194 106.732 134.991C106.692 133.366 106.666 132.368 106.666 132.368C106.666 131.707 88.827 129.065 88.827 129.065L111.951 125.761L113.273 119.155L101.38 109.245L121.201 112.548L124.504 109.245L114.594 96.6921L129.79 103.299L138.379 101.317L132.433 86.1214L147.629 99.3347H153.575C153.575 99.3347 153.225 97.5906 152.941 94.8026C152.881 94.1749 152.835 93.6398 152.802 93.217C152.789 93.0187 152.776 92.847 152.762 92.7017C152.756 92.5563 152.742 92.4375 152.736 92.3449C152.729 92.2789 152.729 92.2128 152.723 92.1401C152.28 85.2295 152.643 74.7118 157.539 66.9622C165.467 54.4096 180.663 55.0703 180.663 55.0703H187.931C187.931 55.0703 204.448 53.0883 211.716 63.6589C219.248 74.6127 218.984 96.6921 218.984 96.6921H223.608C223.608 96.6921 238.144 85.4608 242.108 84.1395L230.876 99.3348L236.822 101.317L257.964 96.6921L246.733 109.245L252.679 111.887L269.857 109.245L257.964 119.815L259.946 124.44C259.946 124.44 281.749 126.422 279.107 126.422C276.464 126.422 264.571 132.368 264.571 132.368L266.91 135.836C268.445 136.748 269.911 137.77 271.297 138.895C276.18 142.793 283.52 150.312 284.392 160.777C285.165 170.244 287.164 179.571 290.338 188.524C290.338 188.524 300.024 211.146 307.695 230.43C312.214 241.781 316.033 251.975 316.766 255.714C317.604 259.359 318.666 262.948 319.944 266.463C320.241 267.348 320.532 268.234 320.803 269.125C322.765 275.382 324.067 281.619 321.391 286.963Z" fill="#885B30"/>
<path d="M189.683 189.466C189.683 189.466 193.65 208.25 193.879 210.326C194.806 219.15 193.304 228.06 189.536 236.092C189.536 236.092 180.665 214.29 180.665 212.308C180.665 210.326 189.683 189.466 189.683 189.466Z" fill="#170000"/>
<path d="M111.293 169.365C111.293 169.365 122.524 201.077 122.524 209.665L106.668 199.095C106.668 199.095 121.203 214.951 122.524 220.236C123.846 225.521 116.578 241.377 116.578 241.377C116.578 241.377 93.454 233.449 84.865 234.771C84.865 234.771 103.364 244.681 107.989 249.966L127.81 251.287C127.81 251.287 149.613 246.002 160.845 246.002L166.13 248.645L178.023 238.735V206.362C178.023 204.38 143.006 218.915 138.381 212.308C133.756 205.702 120.542 173.99 111.293 169.365Z" fill="#170000"/>
<path d="M152.738 92.344C152.731 92.2783 152.731 92.2125 152.725 92.1401C152.725 92.1401 152.731 92.2125 152.738 92.344Z" fill="#250000"/>
<path d="M152.764 92.7019C152.751 92.583 152.745 92.4706 152.738 92.3451C152.745 92.4376 152.758 92.5565 152.764 92.7019Z" fill="#250000"/>
<path d="M152.804 93.217C152.784 93.0518 152.777 92.88 152.764 92.7017C152.777 92.847 152.791 93.0188 152.804 93.217Z" fill="#250000"/>
<path d="M279.106 126.422C276.464 126.422 264.571 132.368 264.571 132.368L266.91 135.836L250.036 135.671L211.418 138.902L209.238 139.087L207.811 140.19L187.931 155.491L160.287 140.468L157.539 138.975C157.539 138.975 155.497 138.928 152.359 138.856C143.42 138.631 125.608 138.142 121.201 137.653C119.146 137.422 113.391 136.332 106.732 134.991C106.692 133.366 106.666 132.368 106.666 132.368C106.666 131.707 88.8269 129.065 88.8269 129.065L111.951 125.761L113.273 119.155L101.38 109.245L121.201 112.548L124.504 109.245L114.594 96.6921L129.79 103.299L138.379 101.317L132.433 86.1214L147.629 99.3347H153.39C153.608 101.317 153.885 103.57 154.229 105.908C155.55 114.953 157.849 125.325 161.503 126.422C168.11 128.404 180.663 138.314 180.663 138.314L187.554 143.599C187.554 143.599 191.234 139.635 199.823 133.029C208.412 126.422 210.394 126.422 210.394 126.422C213.414 119.833 215.775 112.962 217.444 105.908C218.144 103.015 218.759 99.9162 219.228 96.6921H223.608C223.608 96.6921 238.143 85.4609 242.108 84.1395L230.876 99.3348L236.822 101.317L257.964 96.6921L246.732 109.245L252.679 111.887L269.857 109.245L257.964 119.815L259.946 124.44C259.946 124.44 281.749 126.422 279.106 126.422Z" fill="#220602"/>
<path d="M219.267 268.465L208.696 267.804C208.696 267.804 196.804 262.519 190.858 261.198L205.111 274.411L222.95 281.678L219.267 268.465Z" fill="#170000"/>
<path d="M250.32 131.707L211.418 138.902L207.811 140.19L201.594 142.397L186.609 154.322L169.762 142.397L160.287 140.468L152.359 138.856L120.164 132.302C124.601 127.543 131.555 125.072 137.882 123.794C142.16 122.95 146.056 120.759 148.997 117.54C151.939 114.321 153.773 110.245 154.229 105.908C155.55 114.953 157.849 125.325 161.503 126.422C168.11 128.404 180.663 138.314 180.663 138.314L187.554 143.599C187.554 143.599 191.234 139.635 199.823 133.029C208.412 126.422 210.394 126.422 210.394 126.422C213.414 119.833 215.775 112.962 217.444 105.908H217.451C218.419 110.669 220.739 115.048 224.134 118.523C227.528 121.998 231.853 124.419 236.59 125.498C245.889 127.593 250.32 131.707 250.32 131.707Z" fill="#170000"/>
<path opacity="0.19" d="M26.3815 365.956C42.3395 453.6 56.2721 694 56.2721 694H-108.764V601.255C-119.123 485.218 -87.698 360.953 -84.4791 348.615C-84.3018 347.948 -84.2131 347.611 -84.2131 347.611C-136.725 335.666 -149 291.401 -149 291.401L-143.79 280.743L-101.262 193.738C-101.262 193.738 -82.5559 185.335 -73.3017 182.629L-73.1312 182.58L-72.1559 182.306L-72.1287 182.299C-71.1771 182.019 -70.1981 181.849 -69.2098 181.793L-69.1962 181.477L-68.5279 166.336C-72.6197 165.633 -104.672 180.388 -108.082 180.388C-111.492 180.388 -114.902 176.875 -114.902 176.875L-100.58 168.444L-106.036 162.823L-91.0328 153.689L-97.1705 147.365L-84.2131 141.042L-89.6689 131.908C-89.6689 129.097 -64.4361 131.908 -64.4361 131.908L-65.118 126.287L-65.8 105.911C-65.8 105.911 -69.8918 88.3456 -61.7082 76.4011C-59.8906 73.6401 -57.4251 71.3972 -54.5407 69.8809C-54.5339 69.8738 -54.5203 69.8668 -54.5134 69.8598C-50.3777 67.8214 -45.6642 67.3995 -41.2492 68.6724C-41.2492 68.6724 -40.8195 68.5248 -40.0353 68.3211C-36.2845 67.3304 -24.3364 64.9696 -11.9246 70.7802C3.07869 77.8064 2.39673 97.4796 2.39673 97.4796C7.1705 100.993 4.44263 115.748 4.44263 115.748L4.71541 115.79L9.2164 116.45C9.2164 116.45 18.7639 109.424 20.1279 108.721C21.4918 108.019 14.6721 117.153 14.6721 117.153L18.082 121.369L27.6295 117.153L20.8098 124.882L22.8557 128.395H36.4951L24.2197 135.421V143.15L41.9508 144.555L22.8557 148.771L18.7639 157.905L19.1322 158.143L31.7213 166.336H22.1738L19.4459 175.47C21.9977 175.519 24.5431 175.751 27.0635 176.165C31.5986 176.896 37.2794 178.393 41.5007 181.463C41.6508 181.569 41.8008 181.681 41.9508 181.793C43.9763 183.36 46.0426 191.075 48.0067 201.797C53.9807 234.426 59 294.914 59 294.914C59 294.914 45.3607 318.101 41.9508 325.83C38.541 333.558 18.082 336.369 18.082 336.369C18.2388 336.594 18.3889 336.839 18.5457 337.107C20.3529 340.226 22.1602 346.009 23.9537 353.913C24.7652 357.503 25.5768 361.536 26.3815 365.956Z" fill="#885B30"/>
<path d="M-56.2419 262.519L-55.5813 269.126C-55.5813 269.126 -50.9564 266.483 -48.9743 266.483C-46.9922 266.483 -1.40445 263.84 -1.40445 263.84L5.20248 256.573L1.23832 214.951L-2.06514 202.398C-2.06514 202.398 -3.38653 249.306 -4.70791 249.306C-6.0293 249.306 -56.2419 262.519 -56.2419 262.519Z" fill="#250F08"/>
<path opacity="0.55" d="M-48.3134 173.329C-48.3134 173.329 -58.2238 195.792 -59.5452 205.041V212.309C-59.5452 212.309 -56.2417 212.969 -56.2417 220.236C-56.2417 227.504 -55.581 232.789 -56.2417 241.378C-56.9024 249.966 -48.3134 212.969 -48.3134 212.969L-41.0458 218.915C-41.0458 218.915 -35.7602 171.347 -25.1891 171.347H7.84554C7.18485 171.347 -41.0458 167.383 -48.3134 173.329Z" fill="#250F08"/>
<path d="M17.0953 143.599L13.1311 152.188L13.4879 152.413C6.86114 151.23 -2.46125 149.631 -11.9752 148.224C-28.8295 145.727 -38.6078 154.434 -39.6318 155.405C-34.7757 150.569 -9.96012 127.691 -4.7076 119.155C-3.43247 117.087 -1.97234 114.827 -0.479172 112.588L3.8814 113.209C3.8814 113.209 13.1311 106.602 14.4525 105.942C15.7739 105.281 9.16695 113.869 9.16695 113.869L12.4704 117.833L21.7201 113.869L15.1132 121.137L17.0953 124.44H30.3091L18.4167 131.047V138.314L35.5947 139.635L17.0953 143.599Z" fill="#170000"/>
<path d="M35.1584 174.34C15.4499 174.043 2.55978 195.131 2.55978 195.131C1.68766 179.394 13.2498 172.332 21.1715 169.359C25.5651 170.046 31.0687 171.453 35.1584 174.34Z" fill="#250F08"/>
<path opacity="0.16" d="M-25.1893 374.832C-25.1893 374.832 -9.99333 574.352 -44.3494 660.899H-19.243C-19.243 660.899 1.89914 518.857 -25.1893 374.832Z" fill="#885B30"/>
<path opacity="0.16" d="M52.1118 281.017C52.1118 281.017 38.898 302.819 35.5945 310.087C32.2911 317.354 12.4703 319.997 12.4703 319.997C12.6222 320.208 12.7676 320.439 12.9195 320.69C14.6704 323.624 16.4212 329.061 18.1589 336.493C13.3226 339.579 9.82751 341.799 9.82751 341.799L-41.0458 345.762L-44.3493 330.567L-48.9741 272.429L2.55989 266.483L11.8096 253.93L5.20266 206.362C21.3236 183.583 32.2977 180.491 40.2194 187.864C46.0071 218.545 52.1118 281.017 52.1118 281.017Z" fill="#885B30"/>
<path d="M20.5108 347.817C10.4067 348.598 -33.1177 351.709 -33.1177 351.709C-40.3853 374.832 -47.6529 390.027 -56.2419 401.258C-46.9922 364.922 -53.5992 329.246 -48.3136 276.393C-48.3136 276.393 -45.0102 340.477 -41.7067 341.138C-38.4032 341.799 -20.5645 341.138 -9.33274 335.192C-0.268032 330.396 5.88964 323.016 12.9194 320.69C15.4697 324.958 18.0134 334.518 20.5108 347.817Z" fill="#250F08"/>
<path opacity="0.19" d="M361.204 347.817C345.743 430.228 328 693 328 693H407.944L492.133 656.275V569.067C502.169 459.958 471.725 343.113 468.606 331.512C468.434 330.884 468.348 330.567 468.348 330.567C519.222 319.336 531.114 277.714 531.114 277.714L526.066 267.692L484.866 185.882C484.866 185.882 466.743 177.98 457.777 175.437L457.612 175.39L456.667 175.133L456.641 175.126C455.719 174.863 454.77 174.703 453.813 174.65L453.8 174.353L453.152 160.116C457.117 159.455 488.169 173.329 491.473 173.329C494.776 173.329 498.08 170.026 498.08 170.026L484.205 162.098L489.491 156.813L474.955 148.224L480.902 142.278L468.348 136.332L473.634 127.743C473.634 125.101 449.188 127.743 449.188 127.743L449.849 122.458L450.51 103.299C450.51 103.299 454.474 86.7821 446.545 75.5508C444.785 72.9546 442.396 70.8457 439.602 69.4199C439.595 69.4133 439.582 69.4067 439.575 69.4C435.568 67.4834 431.002 67.0867 426.725 68.2836C426.725 68.2836 426.308 68.1448 425.549 67.9532C421.915 67.0217 410.34 64.8019 398.315 70.2656C383.78 76.8722 384.44 95.3708 384.44 95.3708C379.815 98.6741 382.458 112.548 382.458 112.548L382.194 112.588L377.833 113.209C377.833 113.209 368.583 106.602 367.262 105.941C365.941 105.281 372.548 113.869 372.548 113.869L369.244 117.833L359.995 113.869L366.601 121.137L364.619 124.44H351.406L363.298 131.047V138.314L346.12 139.635L364.619 143.599L368.584 152.188L368.227 152.413L356.03 160.116H365.28L367.923 168.705C365.451 168.751 362.985 168.969 360.543 169.359C356.149 170.046 350.646 171.453 346.556 174.34C346.411 174.439 346.265 174.545 346.12 174.65C344.158 176.124 342.156 183.378 340.253 193.46C334.465 224.141 329.603 281.017 329.603 281.017C329.603 281.017 342.817 302.819 346.12 310.087C349.424 317.354 369.244 319.997 369.244 319.997C369.092 320.208 368.947 320.439 368.795 320.69C367.044 323.624 365.293 329.061 363.556 336.493C362.769 339.869 361.983 343.662 361.204 347.817Z" fill="#885B30"/>
<path opacity="0.55" d="M430.028 173.329C430.028 173.329 439.938 195.792 441.259 205.041V212.308C441.259 212.308 437.956 212.969 437.956 220.236C437.956 227.504 437.295 232.789 437.956 241.378C438.617 249.966 430.028 212.969 430.028 212.969L422.76 218.915C422.76 218.915 417.475 171.347 406.903 171.347H373.869C374.53 171.347 422.76 167.383 430.028 173.329Z" fill="#250F08"/>
<path d="M364.62 143.599L368.584 152.188L368.227 152.413C374.854 151.23 384.176 149.631 393.69 148.224C410.544 145.727 420.323 154.434 421.347 155.405C416.491 150.569 391.675 127.69 386.422 119.155C385.147 117.087 383.687 114.827 382.194 112.588L377.833 113.209C377.833 113.209 368.584 106.602 367.262 105.941C365.941 105.281 372.548 113.869 372.548 113.869L369.244 117.833L359.995 113.869L366.602 121.137L364.62 124.44H351.406L363.298 131.047V138.314L346.12 139.635L364.62 143.599Z" fill="#170000"/>
<path d="M346.556 174.34C366.264 174.043 379.154 195.131 379.154 195.131C380.027 179.394 368.464 172.332 360.543 169.359C356.149 170.046 350.646 171.453 346.556 174.34Z" fill="#250F08"/>
<path opacity="0.16" d="M329.603 281.017C329.603 281.017 342.816 302.819 346.12 310.087C349.423 317.354 369.244 319.997 369.244 319.997C369.092 320.208 368.947 320.439 368.795 320.69C367.044 323.624 365.293 329.061 363.556 336.493C368.392 339.579 371.887 341.798 371.887 341.798L422.76 345.762L426.064 330.567L430.689 272.429L379.155 266.483L369.905 253.93L376.512 206.362C360.391 183.583 349.417 180.491 341.495 187.864C335.707 218.545 329.603 281.017 329.603 281.017Z" fill="#885B30"/>
<path d="M361.204 347.817C371.308 348.598 414.832 351.708 414.832 351.708C422.1 374.832 429.367 390.027 437.956 401.258C428.707 364.922 435.313 329.246 430.028 276.393C430.028 276.393 426.724 340.477 423.421 341.138C420.118 341.798 402.279 341.138 391.047 335.192C381.982 330.395 375.825 323.016 368.795 320.69C366.245 324.958 363.701 334.518 361.204 347.817Z" fill="#250F08"/>
<path d="M320.803 269.125H307.14L307.695 230.43C312.214 241.781 316.033 251.975 316.766 255.714C317.604 259.359 318.666 262.948 319.944 266.463C320.241 267.348 320.532 268.233 320.803 269.125Z" fill="#3F1E0B"/>
<path opacity="0.75" d="M141.227 345.763L131.748 694H229.5L216.343 354.351L183.969 343.781L162.826 354.351L141.227 345.763Z" fill="#31160B"/>
<path d="M206.432 155.491C206.432 155.491 216.343 233.45 214.361 242.699H247.395L251.359 213.63C251.359 213.63 260.609 149.545 206.432 155.491Z" fill="#31160B"/>
<path d="M173.336 155.491C173.336 155.491 163.426 233.45 165.408 242.699H132.373L128.409 213.63C128.409 213.63 119.159 149.545 173.336 155.491Z" fill="#31160B"/>
<path d="M182.647 172.668C182.647 172.668 174.719 214.29 178.023 238.735L166.13 248.645L162.827 272.429L193.219 251.287L199.825 242.699C199.825 242.699 203.129 238.735 199.165 232.128C195.201 225.521 184.912 214.29 186.233 205.702C187.554 197.113 191.236 183.239 187.933 181.918C187.933 181.918 187.933 172.008 182.647 172.668Z" fill="#31160B"/>
<path d="M275.805 262.519C275.805 262.519 296.948 274.411 292.983 277.053L261.931 195.131L269.859 263.84C269.859 263.84 271.841 263.84 275.805 262.519Z" fill="#31160B"/>
<path d="M321.393 286.963C283.355 335.192 242.392 324.621 216.343 341.138V263.84C219.983 259.678 289.541 257.973 319.946 266.463C322.318 273.598 325.62 281.604 321.393 286.963Z" fill="#351B0B"/>
<path d="M127.143 324.661C127.149 324.634 80.9007 321.979 61.6415 283.759C60.3894 279.691 59.4442 275.535 58.8137 271.325C58.7905 269.706 58.8854 268.088 59.0978 266.483C59.6858 261.904 61.2318 256.124 63.3725 249.702L66.3654 262.519C70.9257 265.737 76.0976 267.985 81.5614 269.125C90.8111 271.107 166.877 260.537 166.877 260.537L170.755 339.816C170.755 339.816 127.103 324.965 127.143 324.661Z" fill="#351B0B"/>
<path d="M158.202 91.4068L160.184 102.638L177.199 124.694C177.246 124.755 177.312 124.8 177.387 124.82C177.462 124.84 177.541 124.834 177.612 124.804C177.684 124.774 177.743 124.721 177.781 124.654C177.82 124.586 177.834 124.508 177.823 124.431C177.119 119.699 174.818 103.959 175.38 103.959C176.04 103.959 181.326 90.0854 181.326 90.0854L173.398 94.7101L158.202 91.4068Z" fill="#31160B"/>
<path d="M211.718 91.4068L209.736 102.638L192.721 124.694C192.674 124.755 192.608 124.8 192.533 124.82C192.458 124.84 192.379 124.834 192.307 124.804C192.236 124.774 192.176 124.721 192.138 124.654C192.1 124.586 192.085 124.508 192.096 124.431C192.801 119.699 195.101 103.959 194.54 103.959C193.879 103.959 188.594 90.0854 188.594 90.0854L196.522 94.7101L211.718 91.4068Z" fill="#31160B"/>
<path d="M159.523 84.1394C160.184 84.8001 173.398 90.0854 173.398 90.0854L180.004 84.1394H190.576L197.843 90.0854L211.718 84.1394L204.45 74.8901L190.576 80.1754H180.004L168.112 74.8901L159.523 82.8181V84.1394Z" fill="#31160B"/>
<path d="M180.005 100.656H190.576L185.29 107.923L180.005 100.656Z" fill="#31160B"/>
<path d="M192.179 124.44H177.644L175.662 115.191H194.161L192.179 124.44Z" fill="#31160B"/>
<path d="M192.179 127.743H177.644V133.029H192.179V127.743Z" fill="#31160B"/>
<path d="M166.13 64.9801C165.353 65.4996 185.29 76.8721 185.29 76.8721L204.45 63.6588C204.45 63.6588 180.947 55.0702 166.13 64.9801Z" fill="#31160B"/>
<path d="M88.8291 140.957C90.8112 140.957 134.417 125.101 150.274 130.386C166.13 135.671 187.933 155.491 187.933 155.491C187.933 155.491 168.773 143.599 146.97 142.278C125.167 140.957 88.8291 140.957 88.8291 140.957Z" fill="#31160B"/>
<path d="M284.394 140.957C282.412 140.957 238.806 125.101 222.95 130.386C207.093 135.671 185.29 155.491 185.29 155.491C185.29 155.491 204.45 143.599 226.253 142.278C248.056 140.957 284.394 140.957 284.394 140.957Z" fill="#31160B"/>
<path d="M216.343 354.351V691.951H247.395L216.343 354.351Z" fill="#170000"/>
<path d="M141.227 363.579L104.011 699.12L134.874 702.543L141.227 363.579Z" fill="#170000"/>
<path d="M216.343 302.159V333.21C216.343 333.21 203.129 322.639 193.879 327.925L178.022 559.157L153.577 354.351L125.042 341.138C126.277 331.499 127.07 325.229 127.143 324.661C135.963 327.297 156.742 333.21 165.469 333.21L162.827 272.429L175.413 263.675C175.413 263.675 170.755 273.75 173.398 283.66C173.398 283.66 170.755 292.249 175.38 294.891C175.38 294.891 177.362 304.801 184.629 304.141C191.897 303.48 196.332 303.224 203.79 302.159C213.039 300.837 216.343 302.159 216.343 302.159Z" fill="#170000"/>
</g>
<defs>
<clipPath id="clip0_194_275">
<rect width="988.396" height="692" fill="white" transform="translate(-311)"/>
</clipPath>
</defs>
</svg>
