<svg width="375" height="703" viewBox="0 0 375 703" fill="none" xmlns="http://www.w3.org/2000/svg">
<g clip-path="url(#clip0_206_2)">
<path d="M263.533 58.6301L437.226 177.427V349.245L263.533 128.431V58.6301Z" fill="url(#paint0_linear_206_2)" fill-opacity="0.3"/>
<path d="M13.892 -5.80164H-231.787V652.612H13.892V-5.80164Z" fill="#170000"/>
<path opacity="0.4" d="M262.212 -7.14404H15.2124V432.47H262.212V-7.14404Z" fill="#2D1B0C"/>
<path d="M235.795 -5.80164H211.36V432.47H235.795V-5.80164Z" fill="#170000"/>
<path opacity="0.38" d="M471.568 432.469H15V702H471.568V432.469Z" fill="#250F08"/>
<path d="M425.999 432.469H194.188V440.523H425.999V432.469Z" fill="#250F08"/>
<path opacity="0.11" d="M28.1371 291.525C23.5142 300.921 -35.8847 329.969 -35.8055 331.124C-34.227 355.185 -6.91176 649.793 -13.8462 702.95L-193.767 686.17C-193.767 686.17 -188.483 498.915 -183.2 462.001C-179.297 434.732 -171.787 375.595 -168.135 346.56C-167.567 342.03 -167.092 338.231 -166.735 335.406C-166.319 332.117 -166.075 330.13 -166.035 329.822C-166.032 329.808 -166.029 329.795 -166.029 329.781L-193.767 317.7L-204.333 317.029L-211.598 306.29C-211.598 306.29 -225.414 301.25 -231.51 288.27C-233.357 284.323 -234.323 280.009 -234.337 275.638C-234.36 273.994 -234.265 272.349 -234.053 270.719C-233.465 266.068 -231.919 260.195 -229.78 253.671C-219.847 223.469 -197.069 179.44 -197.069 179.44L-186.502 170.044C-186.502 170.044 -187.162 168.701 -186.502 163.332C-185.98 159.077 -186.284 143.439 -186.436 137.136C-186.475 135.485 -186.502 134.472 -186.502 134.472C-186.502 133.801 -204.333 131.116 -204.333 131.116L-181.218 127.76L-179.897 121.049L-191.785 110.981L-171.972 114.337L-168.67 110.981L-178.577 98.229L-163.387 104.941L-154.801 102.927L-160.745 87.4903L-145.555 100.914H-139.611C-139.611 100.914 -139.961 99.1417 -140.245 96.3094C-140.305 95.6718 -140.351 95.1282 -140.384 94.6986C-140.397 94.4972 -140.411 94.3227 -140.424 94.1751C-140.43 94.0275 -140.444 93.9067 -140.45 93.8127C-140.457 93.7457 -140.457 93.6785 -140.463 93.6047C-140.906 86.5842 -140.543 75.8993 -135.649 68.0265C-127.724 55.2744 -112.534 55.9455 -112.534 55.9455H-105.269C-105.269 55.9455 -88.7584 53.932 -81.4937 64.6707C-73.9649 75.7986 -74.229 98.229 -74.229 98.229H-69.606C-69.606 98.229 -55.0766 86.8192 -51.1141 85.4768L-62.3414 100.914L-56.3975 102.927L-35.2638 98.229L-46.4911 110.981L-40.5472 113.666L-23.3761 110.981L-35.2638 121.72L-33.2825 126.418C-33.2825 126.418 -11.4884 128.431 -14.1301 128.431C-16.7719 128.431 -28.6595 134.472 -28.6595 134.472L-26.3216 137.996C-24.7873 138.921 -23.3217 139.96 -21.9364 141.103C-17.0558 145.063 -9.71849 152.701 -8.84673 163.332C-8.07411 172.95 -6.07613 182.426 -2.90288 191.521C-2.90288 191.521 6.77898 214.502 14.4465 234.093C18.9639 245.624 22.7812 255.98 23.5142 259.779C24.3523 263.481 25.4131 267.128 26.6909 270.699C26.9881 271.598 27.2787 272.497 27.5494 273.403C29.5109 279.759 30.8119 286.095 28.1371 291.525Z" fill="#885B30"/>
<path opacity="0.19" d="M67.9347 370.216C52.4807 458.883 38.9881 702.088 38.9881 702.088H198.812V608.26C208.844 490.869 178.411 365.155 175.294 352.673C175.122 351.998 175.036 351.656 175.036 351.656C225.889 339.573 237.777 294.791 237.777 294.791L232.731 284.008L191.547 195.988C191.547 195.988 173.431 187.487 164.469 184.75L164.304 184.7L163.36 184.423L163.334 184.416C162.412 184.133 161.464 183.961 160.507 183.904L160.494 183.584L159.846 168.266C163.809 167.556 194.849 182.483 198.151 182.483C201.453 182.483 204.756 178.929 204.756 178.929L190.887 170.399L196.17 164.712L181.641 155.472L187.584 149.074L175.036 142.677L180.32 133.436C180.32 130.593 155.884 133.436 155.884 133.436L156.544 127.75L157.205 107.136C157.205 107.136 161.167 89.366 153.242 77.2822C151.482 74.4889 149.094 72.2198 146.301 70.6858C146.294 70.6787 146.281 70.6716 146.275 70.6645C142.269 68.6024 137.705 68.1755 133.429 69.4632C133.429 69.4632 133.013 69.314 132.254 69.1078C128.621 68.1056 117.051 65.7172 105.031 71.5957C90.5015 78.7038 91.1619 98.6066 91.1619 98.6066C86.5389 102.161 89.1807 117.088 89.1807 117.088L88.9165 117.13L84.5577 117.799C84.5577 117.799 75.3117 110.69 73.9908 109.98C72.67 109.269 79.2742 118.509 79.2742 118.509L75.9721 122.774L66.7261 118.509L73.3304 126.328L71.3491 129.882H58.1406L70.0283 136.991V144.81L52.8571 146.231L71.3491 150.496L75.3117 159.737L74.9551 159.978L62.7635 168.266H72.0095L74.6512 177.507C72.18 177.557 69.7151 177.792 67.2743 178.211C62.8824 178.95 57.381 180.464 53.293 183.57C53.1477 183.677 53.0024 183.791 52.8571 183.904C50.8957 185.489 48.8946 193.294 46.9925 204.141C41.2072 237.151 36.3464 298.345 36.3464 298.345C36.3464 298.345 49.555 321.802 52.8571 329.621C56.1593 337.44 75.9721 340.283 75.9721 340.283C75.8202 340.511 75.6749 340.76 75.523 341.03C73.7729 344.186 72.0228 350.036 70.2858 358.032C69.4999 361.665 68.714 365.745 67.9347 370.216Z" fill="#885B30"/>
<path opacity="0.16" d="M175.294 352.673C175.122 351.998 175.037 351.657 175.037 351.657C225.889 339.573 237.777 294.791 237.777 294.791L232.731 284.008C227.633 287.569 219.292 291.749 210.7 289.105C196.831 284.84 182.301 278.443 182.301 278.443L169.093 348.813C171.062 350.275 173.135 351.565 175.294 352.673Z" fill="#885B30"/>
<path d="M169.753 205.94L165.79 204.518L161.467 199.461C161.21 199.15 160.888 198.911 160.527 198.763C160.166 198.615 159.777 198.563 159.394 198.611C159.01 198.659 158.643 198.806 158.323 199.04C158.004 199.273 157.741 199.586 157.558 199.952L154.563 205.94C153.994 205.94 153.442 206.141 152.99 206.514C152.539 206.886 152.214 207.408 152.067 207.999L147.959 224.421L146.229 225.479C145.74 225.778 145.326 226.201 145.024 226.711C144.721 227.221 144.538 227.803 144.491 228.407C143.912 235.811 142.304 261.69 147.959 263.516C154.563 265.648 169.753 270.624 169.753 260.672C169.753 250.721 171.734 225.842 171.734 225.842L169.753 205.94Z" fill="#250F08"/>
<path d="M189.566 205.939C189.566 205.939 184.943 249.284 184.943 265.648V269.202L191.547 269.913L201.454 276.31C201.454 276.31 207.397 266.359 217.304 266.359L189.566 205.939Z" fill="#250F08"/>
<path d="M144.657 278.443L143.996 285.551C143.996 285.551 139.373 282.708 137.392 282.708C135.411 282.708 89.8413 279.864 89.8413 279.864L83.2371 272.045L87.1996 227.264L90.5017 213.759C90.5017 213.759 91.8226 264.226 93.1434 264.226C94.4643 264.226 144.657 278.443 144.657 278.443Z" fill="#250F08"/>
<path opacity="0.55" d="M136.731 182.483C136.731 182.483 146.638 206.65 147.959 216.602V224.421C147.959 224.421 144.656 225.131 144.656 232.95C144.656 240.769 143.996 246.456 144.656 255.696C145.317 264.937 136.731 225.131 136.731 225.131L129.467 231.529C129.467 231.529 124.183 180.35 113.616 180.35H80.595C81.2554 180.35 129.467 176.085 136.731 182.483Z" fill="#250F08"/>
<path d="M71.3491 150.496L75.3117 159.737L74.9551 159.978C81.5792 158.706 90.8978 156.986 100.408 155.472C117.255 152.785 127.03 162.153 128.053 163.198C123.199 157.995 98.3937 133.38 93.1433 124.196C91.8687 121.971 90.4091 119.54 88.9165 117.131L84.5577 117.799C84.5577 117.799 75.3117 110.69 73.9909 109.98C72.67 109.269 79.2743 118.509 79.2743 118.509L75.9721 122.774L66.7262 118.509L73.3304 126.328L71.3491 129.882H58.1406L70.0283 136.991V144.81L52.8572 146.231L71.3491 150.496Z" fill="#170000"/>
<path opacity="0.55" d="M129.467 175.374C129.467 175.374 120.221 161.158 101.068 163.291V174.664L129.467 175.374Z" fill="#250F08"/>
<path opacity="0.16" d="M144.656 178.929L160.494 183.584L159.846 168.266L144.656 178.929Z" fill="#885B30"/>
<path d="M182.301 272.756C182.301 272.756 180.32 345.259 169.093 348.813C169.093 348.813 161.167 328.911 169.093 286.262L175.697 291.948C175.697 291.948 181.641 290.527 182.301 272.756Z" fill="#250F08"/>
<path d="M177.678 269.913L172.395 264.937C172.395 264.937 176.218 234.297 175.037 233.661C174.578 233.383 174.207 232.964 173.972 232.457C173.736 231.951 173.647 231.38 173.716 230.818C173.716 229.229 173.055 205.229 169.753 205.939C166.451 206.65 168.432 231.529 168.432 231.529C168.432 231.529 170.414 239.348 167.772 241.48C165.13 243.613 167.772 263.515 160.507 262.805C153.243 262.094 147.299 259.251 147.959 263.515C148.62 267.78 175.697 291.948 175.697 291.948C175.697 291.948 185.603 284.84 177.678 269.913Z" fill="#3C220E"/>
<path d="M53.293 183.57C72.9935 183.25 85.8784 205.94 85.8784 205.94C86.7502 189.008 75.1927 181.409 67.2742 178.211C62.8824 178.95 57.381 180.464 53.293 183.57Z" fill="#250F08"/>
<path opacity="0.16" d="M153.242 113.534C153.242 113.534 153.242 108.558 143.996 109.98L144.657 105.004H153.242V113.534Z" fill="#885B30"/>
<path opacity="0.16" d="M124.184 113.534C124.184 113.534 124.184 108.558 136.732 109.98L135.836 105.004H124.184V113.534Z" fill="#885B30"/>
<path opacity="0.16" d="M141.354 87.9442C141.354 87.9442 118.24 87.9442 114.277 113.534C114.277 113.534 110.975 105.004 114.277 98.6064C117.579 92.2091 130.127 82.2577 141.354 87.9442Z" fill="#885B30"/>
<path opacity="0.16" d="M169.753 359.475C169.753 359.475 174.376 504.481 153.903 559.925C153.903 559.925 125.504 447.616 128.146 412.076C128.146 412.076 113.617 531.492 142.015 599.731C170.413 667.969 182.301 527.938 182.301 496.662C182.301 465.387 169.753 359.475 169.753 359.475Z" fill="#885B30"/>
<path opacity="0.16" d="M113.617 399.281C113.617 399.281 98.4269 613.947 132.769 707.063H107.673C107.673 707.063 86.5392 554.238 113.617 399.281Z" fill="#885B30"/>
<path opacity="0.16" d="M36.3462 298.345C36.3462 298.345 49.5548 321.802 52.8569 329.621C56.159 337.44 75.9719 340.283 75.9719 340.283C75.82 340.511 75.6747 340.76 75.5228 341.03C73.7727 344.186 72.0225 350.036 70.2856 358.032C75.1199 361.352 78.6136 363.74 78.6136 363.74L129.467 368.005L132.769 351.656L137.392 289.105L85.8783 282.707L76.6323 269.202L83.2366 218.023C67.1222 193.514 56.1524 190.188 48.2339 198.12C42.4485 231.131 36.3462 298.345 36.3462 298.345Z" fill="#885B30"/>
<path d="M67.9346 370.216C78.0346 371.056 121.541 374.402 121.541 374.402C128.806 399.281 136.071 415.63 144.656 427.714C135.41 388.619 142.015 350.235 136.731 293.37C136.731 293.37 133.429 362.319 130.127 363.029C126.825 363.74 108.993 363.029 97.7661 356.632C88.705 351.472 82.5498 343.532 75.5229 341.03C72.9736 345.622 70.4309 355.907 67.9346 370.216Z" fill="#250F08"/>
<path opacity="0.16" d="M156.544 146.942L147.959 136.28H136.731C136.731 136.28 122.983 147.225 121.932 158.812L136.731 171.82C136.731 171.82 156.544 157.604 156.544 146.942Z" fill="#885B30"/>
<path d="M132.769 168.267L136.731 178.929C136.731 178.929 154.563 161.869 163.148 160.448C171.734 159.026 190.886 170.399 190.886 170.399L196.17 164.712L181.64 155.472L187.584 149.075L175.036 142.677L180.319 133.437C180.319 130.593 155.884 133.437 155.884 133.437C153.242 143.388 153.242 146.942 153.242 146.942C152.299 149.7 151.634 152.56 151.261 155.472C150.6 160.448 132.769 168.267 132.769 168.267Z" fill="#170000"/>
<path opacity="0.16" d="M155.224 141.966C154.642 143.427 147.959 132.015 147.959 132.015H139.373C139.373 132.015 126.825 139.834 123.523 147.653C123.523 147.653 123.523 138.412 124.183 137.701C124.844 136.991 138.052 127.75 138.052 127.75H149.28C149.28 127.75 157.205 136.991 155.224 141.966Z" fill="#885B30"/>
<path d="M138.643 323.848C138.643 323.848 164.469 328.2 171.734 315.405C174.983 309.683 171.734 326.778 171.734 326.778C171.734 326.778 151.921 338.862 137.392 329.263C129.816 324.258 138.643 323.848 138.643 323.848Z" fill="#250F08"/>
<path opacity="0.16" d="M142.015 307.586H163.809C165.384 303.321 164.503 299.056 161.167 294.791H139.373L142.015 307.586Z" fill="#885B30"/>
<path d="M132.254 69.1079L141.354 86.5229C141.354 86.5229 153.242 92.9202 155.223 100.028C155.223 100.028 157.191 79.0095 146.301 70.6859C146.294 70.6788 146.281 70.6717 146.275 70.6646C142.269 68.6025 137.705 68.1756 133.429 69.4634C133.429 69.4634 133.013 69.3141 132.254 69.1079Z" fill="#250F08"/>
<path d="M27.5493 273.403H13.8916L14.4463 234.093C18.9637 245.624 22.781 255.98 23.5141 259.779C24.3521 263.481 25.413 267.128 26.6908 270.699C26.988 271.598 27.2786 272.497 27.5493 273.403Z" fill="#3F1E0B"/>
<path d="M-17.4301 266.692C-17.4301 266.692 3.70354 278.773 -0.259016 281.457L-31.2991 198.233L-23.374 268.034C-23.374 268.034 -21.3927 268.034 -17.4301 266.692Z" fill="#31160B"/>
<path d="M28.1391 291.525C-9.88384 340.52 -50.8303 329.781 -76.8689 346.561V268.034C-73.2299 263.806 -3.70014 262.074 26.6927 270.699C29.0637 277.947 32.364 286.081 28.1391 291.525Z" fill="#351B0B"/>
</g>
<defs>
<linearGradient id="paint0_linear_206_2" x1="64.0162" y1="-100.569" x2="436.027" y2="265.478" gradientUnits="userSpaceOnUse">
<stop stop-color="#FFD02B"/>
<stop offset="0.963573" stop-color="#F7D496" stop-opacity="0"/>
</linearGradient>
<clipPath id="clip0_206_2">
<rect width="988" height="703" fill="white" transform="translate(-604)"/>
</clipPath>
</defs>
</svg>
