<svg width="433" height="1041" fill="none" xmlns="http://www.w3.org/2000/svg"><path opacity=".11" d="M429.661 379.596c-7.552 15.104-104.586 61.796-104.457 63.651 2.579 38.676 47.201 512.229 35.873 597.673l-293.918-26.97s8.63-300.995 17.262-360.331c6.376-43.833 18.643-138.889 24.609-185.559.928-7.282 1.705-13.388 2.287-17.93.68-5.286 1.079-8.48 1.144-8.976a.353.353 0 00.011-.065L67.159 421.67l-17.262-1.078-11.868-17.262s-22.57-8.102-32.528-28.966A47.632 47.632 0 01.883 354.06a54.337 54.337 0 01.464-7.908c.96-7.476 3.485-16.916 6.98-27.402 16.227-48.547 53.437-119.319 53.437-119.319l17.262-15.103s-1.078-2.158 0-10.788c.853-6.84.356-31.977.108-42.107-.064-2.654-.108-4.283-.108-4.283 0-1.079-29.13-5.394-29.13-5.394l37.761-5.394 2.158-10.789-19.42-16.182 32.367 5.394 5.394-5.394-16.183-20.498 24.814 10.788 14.026-3.236-9.71-24.813 24.814 21.576h9.71s-.572-2.848-1.036-7.4a163.755 163.755 0 01-.227-2.59 36.022 36.022 0 00-.064-.841c-.011-.238-.033-.432-.043-.583-.011-.107-.011-.215-.022-.334-.723-11.285-.129-28.46 7.865-41.114C175.047-.152 199.861.926 199.861.926h11.867s26.972-3.236 38.84 14.026c12.299 17.887 11.868 53.941 11.868 53.941h7.552s23.735-18.34 30.208-20.498l-18.341 24.813 9.71 3.237 34.524-7.552-18.341 20.498 9.71 4.315 28.051-4.315-19.42 17.261 3.237 7.552s35.603 3.236 31.287 3.236c-4.315 0-23.735 9.71-23.735 9.71l3.819 5.664a59.67 59.67 0 017.164 4.995c7.973 6.365 19.959 18.642 21.383 35.731a179.238 179.238 0 009.71 45.31s15.817 36.94 28.342 68.431c7.38 18.534 13.616 35.18 14.813 41.286a149.072 149.072 0 005.19 17.553c.485 1.446.96 2.891 1.402 4.348 3.204 10.216 5.33 20.4.96 29.128z" fill="#885B30"/><path d="M214.589 220.389s6.478 30.672 6.852 34.063a79.506 79.506 0 01-7.091 42.074s-14.486-35.601-14.486-38.838c0-3.236 14.725-37.299 14.725-37.299zM86.582 187.564s18.341 51.784 18.341 65.809L79.03 236.112s23.735 25.892 25.893 34.522c2.158 8.631-9.71 34.523-9.71 34.523s-37.76-12.946-51.786-10.788c0 0 30.208 16.182 37.76 24.813l32.367 2.157s35.603-8.63 53.944-8.63l8.631 4.315 19.419-16.183v-52.862c0-3.237-57.18 20.498-64.732 9.709-7.552-10.788-29.13-62.572-44.234-70.124z" fill="#170000"/><path d="M154.26 61.794c-.011-.107-.011-.216-.022-.334 0 0 .011.118.022.334zm.043.583a9.664 9.664 0 01-.043-.583c.011.151.032.346.043.583zm.065.841c-.033-.27-.043-.55-.065-.841.022.237.043.518.065.841z" fill="#250000"/><path d="M360.613 117.44c-4.315 0-23.735 9.71-23.735 9.71l3.819 5.664-27.554-.27-63.061 5.275-3.56.302-2.33 1.802-32.464 24.986-45.14-24.533-4.488-2.438-8.459-.194c-14.597-.367-43.683-1.165-50.879-1.964-3.356-.377-12.753-2.157-23.628-4.347-.065-2.654-.108-4.283-.108-4.283 0-1.079-29.13-5.394-29.13-5.394l37.761-5.395 2.158-10.788-19.42-16.182 32.367 5.394 5.394-5.394-16.183-20.498 24.814 10.788 14.025-3.236-9.71-24.813 24.815 21.576h9.407c.356 3.237.81 6.916 1.371 10.735 2.157 14.769 5.912 31.706 11.878 33.497 10.789 3.237 31.287 19.419 31.287 19.419l11.253 8.631s6.01-6.473 20.035-17.261c14.025-10.789 17.262-10.789 17.262-10.789a179.705 179.705 0 0011.512-33.497 165.722 165.722 0 002.913-15.05h7.152s23.736-18.34 30.209-20.498l-18.341 24.813 9.71 3.237 34.524-7.552-18.341 20.498 9.71 4.315 28.051-4.315-19.42 17.261 3.237 7.552s35.603 3.236 31.287 3.236z" fill="#220602"/><path d="M262.899 349.389l-17.262-1.079s-19.42-8.631-29.129-10.788l23.274 21.576 29.13 11.867-6.013-21.576zm50.708-223.318l-63.525 11.749-5.89 2.103-10.153 3.604-24.469 19.472-27.511-19.472-15.471-3.151-12.947-2.632-52.573-10.702c7.246-7.772 18.601-11.807 28.933-13.893a33.328 33.328 0 0026.694-29.206c2.157 14.769 5.912 31.707 11.878 33.497 10.789 3.237 31.288 19.419 31.288 19.419l11.252 8.631s6.01-6.473 20.035-17.261c14.025-10.789 17.262-10.789 17.262-10.789a179.704 179.704 0 0011.512-33.497h.01a41.235 41.235 0 0031.253 31.988c15.186 3.422 22.422 10.14 22.422 10.14z" fill="#170000"/><path d="M428.701 350.468H406.39l.906-63.187c7.38 18.534 13.616 35.18 14.813 41.286a149.072 149.072 0 005.19 17.553c.485 1.446.96 2.891 1.402 4.348z" fill="#3F1E0B"/><path opacity=".75" d="M135.463 475.612l-15.976 538.338h159.625l-20.989-524.313-52.865-17.262-34.524 17.262-35.271-14.025z" fill="#31160B"/><path d="M241.94 164.909s16.183 127.302 12.947 142.405h53.944l6.473-47.468s15.104-104.647-73.364-94.937zm-54.044 0s-16.183 127.302-12.946 142.405h-53.944l-6.474-47.468s-15.104-104.647 73.364-94.937zm15.205 28.049s-12.947 67.967-7.553 107.883l-19.419 16.183-5.395 38.838 49.629-34.523 10.788-14.025s5.395-6.473-1.079-17.261c-6.473-10.788-23.274-29.128-21.117-43.153 2.158-14.025 8.171-36.68 2.777-38.838 0 0 0-16.182-8.631-15.104zm152.121 146.721s34.524 19.419 28.051 23.735l-50.707-133.775 12.946 112.198s3.237 0 9.71-2.158z" fill="#31160B"/><path d="M429.665 379.596c-62.115 78.755-129.005 61.493-171.542 88.464V341.837c5.945-6.797 119.529-9.58 169.179 4.283 3.873 11.651 9.265 24.725 2.363 33.476zm-317.201 61.558c.011-.043-75.51-4.38-106.96-66.79A139.018 139.018 0 01.887 354.06a54.337 54.337 0 01.463-7.908c.96-7.476 3.485-16.916 6.98-27.402l4.888 20.929a66.655 66.655 0 0024.814 10.789c15.105 3.236 139.316-14.025 139.316-14.025l6.333 129.459s-71.282-24.252-71.217-24.748z" fill="#351B0B"/><path d="M163.182 60.262l3.237 18.34 27.785 36.016a.568.568 0 00.951-.065.574.574 0 00.068-.363c-1.15-7.727-4.907-33.43-3.99-33.43 1.079 0 9.71-22.655 9.71-22.655l-12.947 7.551-24.814-5.394zm87.389 0l-3.236 18.34-27.785 36.016a.574.574 0 01-.676.181.574.574 0 01-.344-.609c1.15-7.727 4.907-33.43 3.99-33.43-1.078 0-9.709-22.655-9.709-22.655l12.946 7.551 24.814-5.394z" fill="#31160B"/><path d="M165.34 48.395c1.079 1.08 22.656 9.71 22.656 9.71l10.789-9.71h17.262l11.868 9.71 22.656-9.71-11.867-15.103-22.657 8.63h-17.262l-19.42-8.63-14.025 12.946v2.157zm33.445 26.971h17.262l-8.631 11.867-8.631-11.867zm19.88 38.838H194.93L191.693 99.1h30.209l-3.237 15.104zm0 5.394H194.93v8.631h23.735v-8.631z" fill="#31160B"/><path d="M176.129 17.11c-1.269.847 31.287 19.418 31.287 19.418l31.287-21.576S200.324.926 176.129 17.108zM49.9 141.175c3.237 0 74.443-25.892 100.336-17.262 25.893 8.631 61.496 40.996 61.496 40.996s-31.288-19.419-66.891-21.577c-35.603-2.157-94.941-2.157-94.941-2.157z" fill="#31160B"/><path d="M369.248 141.175c-3.237 0-74.443-25.892-100.336-17.262-25.893 8.631-61.496 40.996-61.496 40.996s31.287-19.419 66.89-21.577c35.603-2.157 94.942-2.157 94.942-2.157z" fill="#31160B"/><path d="M258.123 489.637v551.283h50.707l-50.707-551.283zm-122.66 15.068L74.691 1052.63l50.398 5.59 10.374-553.515z" fill="#170000"/><path d="M258.123 404.409v50.705s-21.577-17.261-36.681-8.63l-25.893 377.59-39.919-334.437-46.597-21.577c2.018-15.74 3.312-25.978 3.431-26.906 14.403 4.305 48.334 13.96 62.586 13.96l-4.316-99.252 20.553-14.295s-7.606 16.453-3.291 32.635c0 0-4.315 14.025 3.237 18.34 0 0 3.237 16.183 15.104 15.104 11.868-1.079 19.11-1.497 31.288-3.237 15.104-2.157 20.498 0 20.498 0z" fill="#170000"/></svg>