<svg width="324" height="362" fill="none" xmlns="http://www.w3.org/2000/svg"><path d="M118.9 187.312l-4.379 2.389 7.166 31.451s22.692 1.592 25.479 3.981c2.787 2.389 19.109 30.256 19.109 30.256l31.451-36.228-10.749-5.971v-3.185s-5.573 2.786-7.564 3.185c-1.99.398-15.128 4.777-29.858 0-14.73-4.778-20.304-9.555-22.295-11.546-1.99-1.99-7.962-9.554-8.36-14.332z" fill="#D4895D"/><path d="M192.551 216.374l-7.489 2.174a12.604 12.604 0 00-7.385 5.785l-6.764 11.692a4.324 4.324 0 01-3.763 2.057 4.335 4.335 0 01-2.133-.607 4.336 4.336 0 01-1.552-1.585l-6.048-10.662a12.636 12.636 0 00-7.297-5.836l-30.973-9.387s-5.821-20.304-4.626-20.304c1.194 0 4.379-2.389 4.379-2.389s3.185 13.934 14.332 19.906a76.678 76.678 0 0020.825 7.64l.283.951c5.92.442 21.546.848 32.637-5.804 0 3.185 3.504 5.561 5.574 6.369z" fill="#BB714A"/><path d="M179.015 222.346a17.84 17.84 0 00-1.338 1.987l-6.764 11.692a4.323 4.323 0 01-5.896 1.449 4.326 4.326 0 01-1.552-1.584l-6.047-10.662a12.624 12.624 0 00-1.975-2.611l-.032-.072s12.059 2.19 23.604-.199z" fill="#E6B082"/><path d="M125.668 179.748s-3.981 6.768-6.768 7.564c0 0 6.305 25.253 35.432 28.266 23.091 2.389 32.645-5.573 32.645-5.573l-.398-15.129s-8.758 3.583-14.332 3.981c-5.573.399-20.702 0-26.275-1.99-5.574-1.991-20.304-17.119-20.304-17.119z" fill="#170000"/><path d="M121.282 185.097a37.092 37.092 0 004.233 9.101 38.864 38.864 0 006.354 7.726 38.375 38.375 0 008.118 5.797 40.23 40.23 0 009.332 3.523 49.972 49.972 0 007.401 1.241c.834.08 1.667.159 2.503.201 1.67.121 3.344.141 5.016.134 1.671-.044 3.343-.122 5.005-.299a36.484 36.484 0 009.726-2.293 24.505 24.505 0 004.462-2.275c.702-.456 1.372-.96 2.006-1.508a11.224 11.224 0 001.738-1.815 14.438 14.438 0 01-3.622 3.502 24.578 24.578 0 01-4.43 2.466 37.016 37.016 0 01-9.808 2.545 55.46 55.46 0 01-10.136.274 52.854 52.854 0 01-10.052-1.408 38.63 38.63 0 01-17.673-9.651 37.69 37.69 0 01-10.173-17.261z" fill="#F7D1A0"/><path d="M122.476 173.949a36.667 36.667 0 004.228 8.919 39.12 39.12 0 0014.214 13.343 41.252 41.252 0 009.11 3.647 53.836 53.836 0 009.695 1.681c1.639.16 3.283.227 4.928.268a73.759 73.759 0 004.932-.113 48.494 48.494 0 009.732-1.551 30.363 30.363 0 009.056-3.873 21.965 21.965 0 01-4.284 2.507 36.388 36.388 0 01-4.661 1.756 49.033 49.033 0 01-9.798 1.795 61.21 61.21 0 01-9.968-.055 51.44 51.44 0 01-9.841-1.659 39.691 39.691 0 01-17.254-9.737 37.683 37.683 0 01-10.089-16.928zm39.42 31.278l-.199 4.977s11.943.796 16.721-2.389v-4.379s-5.972 2.388-16.522 1.791z" fill="#F7D1A0"/><path d="M187.176 192.687l13.536-10.351s9.555 3.981 12.342 3.583v1.99l-11.546 11.148-14.332-6.37z" fill="#803718"/><path d="M187.375 192.488l-.398 20.702 14.332 7.962v-21.896l-13.934-6.768z" fill="#331A0F"/><path d="M201.309 199.256l13.934-13.138h2.389l.796 17.517-17.119 17.517v-21.896z" fill="#943718"/><path d="M206.485 200.914v5.247a.271.271 0 00.168.252c.05.021.105.026.158.015a.27.27 0 00.14-.074l3.728-3.729a.272.272 0 00.08-.193v-4.588a.282.282 0 00-.042-.147.276.276 0 00-.265-.124.268.268 0 00-.139.06l-3.729 3.07a.278.278 0 00-.099.211z" fill="#FF6A37"/><path opacity=".44" d="M208.622 185.665l-13.079 10.79 5.766 2.801 13.934-13.138-6.621-.453z" fill="#FF5418"/><path d="M258.637 243.446l-24.683-9.555-10.749-11.943-11.943 26.673-20.304 6.768-22.294 38.219-3.981 2.787c-12.341-7.564-44.987-66.883-44.987-66.883l.797-1.592c-6.768-.797-9.555-6.768-9.555-6.768l-32.247 18.711 19.507-49.366c5.574 1.991 16.323-1.194 16.323-1.194l7.353 31.06s22.903 3.974 24.209 4.193c1.306.219 13.094 18.922 13.094 18.922l7.098 11.911 31.451-36.228 3.583 1.991 17.119-17.517-.295-14.89 1.091-3.025c4.38.398 11.546-2.389 11.546-2.389l2.942 6.35-4.368.729a25.38 25.38 0 00-.883 2.392c0 .004-.005.008-.005.012a26.346 26.346 0 00-1.269 8.074c0 9.527 11.183 12.485 19.905 19.468.004.004 4.777 11.545 7.25 13.822l4.295 9.268z" fill="#3A4D49"/><path d="M108.549 190.563l1.323 18.466a6.29 6.29 0 01-2.924 5.77l-24.674 15.509 15.128-39.811s7.564 1.724 11.147.066z" fill="#728A76"/><path d="M131.242 228.318l25.877 35.83 6.37-5.574s-19.508-30.654-25.081-30.654c-5.574 0-7.166.398-7.166.398z" fill="#486A68"/><path d="M120.094 221.152s-3.184-3.981-6.767 0 3.981 5.971 6.767 6.768c2.787.796 15.841 0 15.841 0s5.746-.851 10.28 6.541c4.534 7.393 17.274 24.113 17.274 24.113l2.786-3.185s-17.118-30.256-20.303-30.654c-3.185-.398-25.878-3.583-25.878-3.583z" fill="#728A76"/><path d="M160.304 262.157l43.146-33.719a3.683 3.683 0 001.409-3.132 3.67 3.67 0 00-.529-1.687 3.68 3.68 0 00-1.254-1.248l-5.35-3.21-37.422 42.996z" fill="#728A76"/><path d="M136.753 258.574s17.037 23.02 26.736 20.304c9.952-2.787 17.517-20.304 17.517-20.304l9.952-3.185-26.275 41.006s-23.613-26.674-27.93-37.821z" fill="#728A76"/><path d="M322.448 271.002c-.07.113-.14.226-.21.333-.07.118-.14.231-.209.344l-.533.855a187.637 187.637 0 01-8.196 12.093 189.635 189.635 0 01-22.977 25.858 167.452 167.452 0 01-4.074 3.703 189.852 189.852 0 01-13.598 10.949c-.108.08-.221.156-.328.242-.952.687-1.908 1.368-2.87 2.042a184.245 184.245 0 01-9.455 6.197 187.145 187.145 0 01-91.871 27.567c-2.123.076-4.255.113-6.396.113h-.295a189.476 189.476 0 01-7.444-.161 38.896 38.896 0 01-1.081-.048 57.65 57.65 0 01-1.902-.097 1.202 1.202 0 01-.199-.011c-.866-.043-1.731-.102-2.591-.167a186.93 186.93 0 01-91.635-31.63 15.686 15.686 0 01-.403-.269c-.532-.36-1.064-.725-1.596-1.091-.317-.22-.64-.446-.957-.672a188.012 188.012 0 01-15.646-12.286 211.137 211.137 0 01-2.279-2.021 99.7 99.7 0 01-1.338-1.221 166.782 166.782 0 01-2.467-2.305 189.662 189.662 0 01-24.036-27.885H7.86l-.002-.001v-.002l-.001-.002v-.005a590.63 590.63 0 01-1.64-2.36c-.494-.731-.988-1.462-1.472-2.198-.51-.769-1.01-1.543-1.51-2.317-.07-.107-.135-.215-.205-.322-.424-.667-.847-1.339-1.268-2.016-.022-.032-.043-.07-.065-.102-.328-.532-.65-1.059-.973-1.591l-.37-.612 2.956-5.757 1.607-4.504v-.009l.005-.007.097-.269.28-.785a150.771 150.771 0 015.573-18.397 100.6 100.6 0 012.214-5.386 96.821 96.821 0 01.973-2.096 8.459 8.459 0 011.107-1.656c.275-.333.586-.677.941-1.031.097-.103.194-.199.29-.296.092-.097.188-.188.285-.28.07-.069.14-.134.215-.204.113-.107.226-.209.344-.317.016-.016.038-.032.054-.048.21-.194.435-.387.66-.581.345-.295.705-.596 1.087-.897.123-.103.252-.205.381-.307.07-.059.145-.118.22-.172.146-.118.296-.236.447-.349.156-.118.306-.237.467-.355.156-.118.317-.236.479-.355a64.515 64.515 0 011.913-1.37c.21-.151.425-.296.64-.441a.052.052 0 01.027-.021c.338-.231.682-.463 1.032-.699a170.472 170.472 0 016.96-4.386c.381-.226.763-.457 1.15-.682a150.88 150.88 0 012.403-1.403c.247-.145.494-.29.741-.43.323-.188.65-.376.984-.559.328-.188.661-.376.994-.565.264-.155.532-.306.806-.456.398-.221.807-.447 1.21-.672.338-.194.682-.382 1.021-.57.505-.274 1.005-.554 1.516-.833.634-.344 1.268-.688 1.908-1.032.64-.349 1.279-.693 1.924-1.037.656-.35 1.317-.699 1.978-1.048l1.128-.597c.366-.194.737-.387 1.102-.575.742-.393 1.487-.78 2.236-1.161.71-.371 1.414-.731 2.123-1.097.78-.403 1.554-.795 2.328-1.187.516-.269 1.032-.527 1.542-.785s1.021-.516 1.532-.769c.51-.258 1.016-.516 1.521-.763a970.288 970.288 0 0110.078-4.95c.451-.22.892-.435 1.333-.645l3.24-1.559c.2-.091.398-.188.592-.279 1.048-.5 2.046-.975 2.994-1.425.188-.085.376-.177.559-.263.37-.172.73-.344 1.085-.511.15-.069.301-.145.452-.215.435-.204.854-.403 1.263-.591.526-.252 1.032-.483 1.5-.704 1.074-.5 1.993-.93 2.74-1.274.108-.053.216-.102.318-.15.424-.199.774-.366 1.058-.495.054-.026.103-.048.151-.069.043-.022.08-.038.118-.054v-.002l.002-.002.002-.001.002-.001c.048-.021.091-.043.134-.064.15-.07.258-.124.322-.151l.054.011.677.113 4.279.71.564.096.134.022 1.457.242-.355.935-.338.887-.183.483-.022.049-.016.043-.37.978-.619 1.629-.258.677-.247.661-9.142 24.138-1.973 5.192-1.559 4.112-2.58 6.804-.806 2.129-.242.645.592-.344 2.037-1.183 26.239-15.221.006-.006c.01-.01.021-.016.032-.026l3.343-1.93a4.351 4.351 0 00-.011.457c.002.5.08.996.231 1.473.016.068.038.134.065.198 1.032 2.865 4.569 3.972 6.847 4.386.011 0 .027.006.038.006.032.005.065.01.091.016.307.059.592.102.839.129.317.043.575.07.758.08.188.016.295.022.295.022a19.965 19.965 0 00.205.392l.639 1.242c.14.279.301.586.473.924 2.204 4.257 6.821 13.088 11.217 20.897.076.129.145.253.221.382a222.3 222.3 0 003.966 6.821c.081.134.162.268.248.403 0 .005.005.005.005.01 2.832 4.585 7.901 11.852 12.958 18.893.07.096.14.193.21.285a1199.61 1199.61 0 006.197 8.535 1519.276 1519.276 0 005.434 7.369c.043.064.091.123.14.188 0 .005.005.005.005.01.839 1.129 1.537 2.064 2.053 2.758.248.333.452.612.613.822.092.118.167.22.22.296.124.161.183.241.183.241l.258-.43.747-1.241 1.355-2.247v-.005l22.063-36.661h.006l1.01-1.683.237-.387.059-.102.145-.242 1.499-.5 18.801-6.267 11.234-25.078.29-.651.424-.946.656.78.484.57 9.605 11.394 22.59 8.014 1.478.521.618.221-.258-.602-.629-1.446-3.047-7.057-14.846-34.372-1.768-4.09v-.006l-1.419-3.289-.484-1.118-.515-1.188-.291-.677v-.005l-.064-.151c.032.016.183.097.44.237.35.177.893.467 1.608.843l.064.033c2.892 1.531 8.498 4.504 15.281 8.121.013.01.027.019.043.027 18.741 9.992 46.459 24.901 50.872 28.019l.064.048a.257.257 0 01.049.038 16.338 16.338 0 012.445 2.219c2.575 2.801 5.117 6.912 7.17 11.191a65.964 65.964 0 011.672 3.751c.01.037.022.073.037.108 1.769 4.369 2.892 8.546 2.892 11.308.004.367.027.733.07 1.097.004.047.012.093.021.139.043.318.092.651.162 1.006.01.048.016.102.026.15.645 3.177 2.295 7.53 4.118 11.771a.28.28 0 00.026.059c.199.467.404.93.608 1.392z" fill="#885B30"/><path opacity=".48" d="M97.8 200.888c0 9.527-5.187 18.293-13.91 25.276-.004.004-.008.008-.012.008-12.118 9.71-31.056 15.948-52.332 15.948a103.43 103.43 0 01-20.136-1.943c.951-2.512 2.014-5.056 3.185-7.48a8.414 8.414 0 011.107-1.656c10.092-12.222 68.877-39.059 74.212-41.587l5.728.956c.335.782.63 1.58.884 2.392 0 .004.004.008.004.012a26.356 26.356 0 011.27 8.074z" fill="#F0C456"/><path d="M84.662 234.688l16.721-45.385" stroke="#FF6B00" stroke-width="7.407" stroke-miterlimit="10" stroke-linecap="round"/><path opacity=".48" d="M313.577 240.177a103.435 103.435 0 01-20.137 1.943c-14.622 0-28.138-2.946-39.098-7.942l-20.63-44.497 1.361-.227c5.335 2.528 64.12 29.365 74.212 41.587a8.41 8.41 0 011.107 1.656c1.17 2.425 2.233 4.968 3.185 7.48z" fill="#F0C456"/><path d="M230.603 188.623c7.565 3.84 15.095 7.72 22.592 11.639a1712.85 1712.85 0 0122.43 11.939 793.636 793.636 0 0111.116 6.171c3.684 2.099 7.354 4.227 10.946 6.516a76.284 76.284 0 012.666 1.781 21.88 21.88 0 012.565 2.037 54.64 54.64 0 014.293 4.756 40.39 40.39 0 013.558 5.305 24.378 24.378 0 012.41 5.873 24.21 24.21 0 00-2.772-5.657 39.804 39.804 0 00-3.84-4.977 53.804 53.804 0 00-4.503-4.367 20.724 20.724 0 00-2.521-1.736c-.89-.54-1.8-1.059-2.719-1.564-3.684-2.016-7.467-3.885-11.262-5.723a629.343 629.343 0 00-11.454-5.393 1329.731 1329.731 0 00-23.112-10.387 2285.31 2285.31 0 00-23.245-10.076l2.852-6.137z" fill="#FFD182"/><path d="M219.224 185.72l.216 18.731a6.281 6.281 0 002.924 5.77l27.117 15.708-18.711-42.598s-7.963 4.047-11.546 2.389z" fill="#728A76"/><path d="M228.271 184.264l26.691 57.317" stroke="#FF6B00" stroke-width="7.407" stroke-miterlimit="10"/><path d="M208.621 249.524l-39.956 69.561v42.1c-2.123.076-4.255.113-6.396.113-2.591 0-5.171-.054-7.74-.161-.36-.011-.72-.027-1.08-.048l-.312-42.8 14.335-23.848.005-.005 23.042-38.317.236-.387.059-.102.145-.242 1.5-.5 16.162-5.364zm99.207 25.514a97.49 97.49 0 00-1.956 3.311.102.102 0 00-.021.043c-3.268 5.73-6.633 12.733-9.836 19.973 0 .005-.006.005-.006.011a452.763 452.763 0 00-5.149 12.109 163.8 163.8 0 01-4.074 3.703 189.852 189.852 0 01-13.598 10.949c-.108.08-.22.156-.328.242 4.112-7.611 8.525-16.689 12.792-26.503.005-.006.005-.017.011-.022l.36-.666a.371.371 0 01.027-.065l.021-.038a.194.194 0 01.022-.043l1.521-2.843c2.542 1.618 8.965-5.471 13.915-11.711a183.966 183.966 0 005.273-7.004c.005-.005.011-.005.011-.011.505-.698.854-1.204 1.015-1.435z" fill="#6E3F19"/><path opacity=".48" d="M56.719 328.915c-.532-.36-1.064-.726-1.596-1.091-.318-.22-.64-.446-.957-.672-4.176-7.374-9.675-17.624-14.953-29.099-.005-.005-.005-.011-.01-.016-5.187-11.276-10.159-23.735-13.438-35.812a1.008 1.008 0 01-.021-.07s11.147 5.176 20.698-.398c0 0-11.276 15.867 10.277 67.158z" fill="#F0C456"/><path opacity=".48" d="M54.804 261.759c-.143 3.2-.502 6.177-.841 9.132-.36 2.944-.707 5.834-1.017 8.703-.072.717-.157 1.434-.206 2.15-.089.715-.116 1.43-.186 2.147-.113 1.431-.178 2.86-.248 4.306a106.653 106.653 0 00-.052 4.383c.021 1.488.112 2.991.161 4.611a16.14 16.14 0 01-2.635-4.023 23.585 23.585 0 01-1.524-4.576 28.922 28.922 0 01-.61-4.768 38.466 38.466 0 01-.008-2.392c.027-.797.098-1.586.162-2.378a36.065 36.065 0 012.232-9.16 26.87 26.87 0 014.772-8.135zm244.043.396c-4.23 13.958-8.626 25.923-12.797 35.968a274.311 274.311 0 01-12.862 27.014c-.108.08-.22.155-.328.241-.951.688-1.908 1.369-2.87 2.043 20.188-47.164 8.154-65.664 8.154-65.664 9.556 5.574 20.703.398 20.703.398z" fill="#F0C456"/><path opacity=".48" d="M269.784 261.759a26.874 26.874 0 014.773 8.135 36.04 36.04 0 012.231 9.16c.064.792.135 1.581.162 2.378.024.795.019 1.595-.007 2.392a28.999 28.999 0 01-.61 4.768 23.64 23.64 0 01-1.524 4.576 16.142 16.142 0 01-2.636 4.023c.05-1.62.14-3.123.161-4.612.007-1.489.001-2.939-.052-4.382-.07-1.446-.135-2.875-.247-4.307-.071-.716-.098-1.431-.187-2.146-.049-.716-.133-1.433-.205-2.15-.31-2.869-.657-5.759-1.017-8.703-.339-2.955-.698-5.932-.842-9.132zm38.568 8.464l4.827-7.27h-9.555s-2.929 11.521 2.261 9.369a5.574 5.574 0 002.467-2.099zm-290.259.255l-4.827-7.27h9.555s2.929 11.521-2.261 9.369a5.574 5.574 0 01-2.467-2.099z" fill="#F0C456"/><path d="M127.037 358.003a186.923 186.923 0 01-58.784-21.848c-4.413-9.288-8.008-19.817-10.637-29.604 0 0 21.075 29.754 63.536 31.904l5.885 19.548z" fill="#6E3F19"/><path d="M96.838 193.566a2100.458 2100.458 0 00-23.245 10.076 1699.68 1699.68 0 00-23.112 10.386 800.914 800.914 0 00-11.455 5.393c-3.795 1.839-7.578 3.708-11.261 5.724-.92.505-1.83 1.024-2.72 1.564a20.641 20.641 0 00-2.52 1.736 53.6 53.6 0 00-4.503 4.366 39.74 39.74 0 00-3.84 4.978 24.163 24.163 0 00-2.772 5.657 24.393 24.393 0 012.41-5.874 40.368 40.368 0 013.558-5.304 54.685 54.685 0 014.292-4.756 21.909 21.909 0 012.565-2.038 75.882 75.882 0 012.667-1.78c3.592-2.289 7.261-4.417 10.946-6.517a629.954 629.954 0 0111.115-6.17 1338.829 1338.829 0 0122.43-11.939c7.51-3.921 15.04-7.801 22.592-11.64l2.853 6.138z" fill="#FFD182"/><path opacity=".48" d="M165.08 297.193l-.403.656-2.779 4.52c-.264-.14-.532-.295-.796-.446l-.048.086-.113.183-9.395 15.882v42.918a1.202 1.202 0 01-.199-.011c-.865-.043-1.731-.102-2.591-.167v-43.503l9.987-16.866c-11.368-7.815-23.794-25.659-33.679-42.133a.187.187 0 00-.026-.048c-10.729-17.92-18.431-34.205-18.431-34.205l.011-.011c.059-.065.43-.446.941-.935l.005-.006c.011-.011.022-.016.032-.027 1.28-1.225 3.343-3.026 3.343-1.929.009.138.05.272.119.392.141.242.309.467.5.672.005 0 .005 0 .005.005.124.129.258.269.408.409.129.124.269.252.414.381a59.934 59.934 0 006.515 4.564.542.542 0 01.026.048v.005c.027.038.065.103.113.189.022.043.049.086.081.139.161.28.403.704.72 1.263 2.08 3.623 7.315 12.722 12.787 22.155l.22.382c1.322 2.284 2.661 4.579 3.967 6.82a7.707 7.707 0 01.202.346l.002.002v.002l.005.005c3.268 5.542 8.191 12.497 13.002 18.952.07.096.14.193.209.284 4.128 5.537 8.165 10.68 10.976 14.222l.011.011c1.236 1.553 2.241 2.8 2.913 3.628l.005.005.301.377c.414.51.64.784.64.784z" fill="#F0C456"/><path d="M212.176 119.511c-2.331 9.988-5.993 25.635-7.324 34.957-1.332 9.322-14.316 16.313-17.645 23.97-3.329 7.657-9.655 12.984-11.319 14.316-1.665 1.331-18.644-.666-22.306-1.665-3.662-.999-7.99-6.325-7.99-6.325s-5.064-5.95-10.57-12.395c-5.7-6.672-11.875-13.876-13.4-15.571-2.996-3.329-1.998-20.308-3.662-23.637-1.259-2.52-4.235-11.905-5.896-18.194-.536-2.024-.932-3.725-1.096-4.777-.289-1.888.117-5.164.666-8.26.709-4.012 1.665-7.72 1.665-7.72s-.027-1.329-.043-3.48a476.03 476.03 0 01-.004-5.812c.037-5.71.197-12.994.713-18.674.998-10.986 22.971-23.304 22.971-23.304 1.305.826 2.553 1.597 3.755 2.297 25.209 14.682 27.08 2.767 31.867 4.361 4.994 1.665 5.993-9.654 16.313-8.988 10.321.666 11.986 8.323 18.311 17.977 6.325 9.655.666 23.305 3.329 32.293 2.664 8.99 3.995 18.644 1.665 28.631z" fill="#E6B082"/><path d="M211.17 82.92a97.505 97.505 0 00-2.045-18.673c-2.663-11.985-20.254-27.632-20.254-27.632-1.305.825-3.942 5.919-5.141 6.625l-.001.066-.184-.033-43.454 1.607a142.95 142.95 0 01-3.155-1.94s-1.328.793-3.331 2.18l-4.078.15 2.144 1.229c-5.825 4.277-14.624 11.867-16.375 19.745a97.584 97.584 0 00-2.044 18.674 476.22 476.22 0 00.004 5.813l15.024 6.808c1.998-1.332 6.659-3.662 13.65-3.33l-.729-28.805a7.686 7.686 0 0111.498-6.86l4.195 2.404a10.42 10.42 0 0010.355 0l4.427-2.536a7.68 7.68 0 0111.497 6.86l-.681 26.94c6.991-.333 11.652 1.998 13.65 3.33l15.024-6.809c.01-1.565.017-3.566.004-5.813z" fill="#DC9B6C"/><path d="M227.49 97.539s-1.665-9.322-4.328-7.99c-2.663 1.331-5.586 10.986-9.784 12.817 0 0-2.534-8.156-2.867-15.814-.333-7.657.083-11.562-4.284-17.934-4.372-6.369-.377-13.693-5.37-19.02-4.994-5.326-11.792-11.985-15.841-8.156-11.792 11.153-17.118 7.49-21.114 3.828 0 0-2.164 3.902-11.319 3.33-9.155-.57-16.979-6.659-16.979-6.659l-.626 2.164s-14.628 7.83-15.657 13.82c-1.028 5.989-6.392 14.978-5.21 25.631 1.185 10.654-3.059 24.137-3.059 24.137s-9.072-7.824-10.071-11.153c-.999-3.33-6.991-1.997-6.991-1.997s-4.328 1.997-5.993-.333-8.656-5.993-8.989-9.655a24.627 24.627 0 010-5.66s6.326 8.323 10.987 5.66c4.66-2.663 5.66-16.646 5.326-19.975-.32-3.18-3.066-18.823-1.568-24.566.064-.25.142-.496.237-.736 0 0 .888-1.065 2.283-2.663 1.648-1.891 4.002-4.528 6.429-7.022l.12-.12c1.611-1.65 3.252-3.235 4.734-4.494.146-.123.283-.24.416-.35 2.031-1.674 5.52-4.288 9.635-7.047a144.87 144.87 0 016.269-3.985h.003c5.913-3.543 12.215-6.675 17.052-7.61 10.321-1.998 17.978-2.997 17.978-2.997 2.215.2 4.443.2 6.658 0 3.662-.333 6.326-1.332 11.652 1.331 5.327 2.664 19.31 11.32 19.31 11.32v7.657l5.326-3.995s3.995.999 8.323 6.658c4.328 5.66 12.651 11.32 13.317 18.644.666 7.324 3.995 17.977 3.995 24.969 0 6.991 1.665 17.311 3.329 22.638 1.665 5.327-3.329 5.327-3.329 5.327z" fill="#2A1A0F"/><path d="M93.99 94.21s-.666 10.653-3.995 13.649c-3.33 2.997-7.658 12.984-4.994 19.31 2.663 6.325 7.657 13.982 8.989 18.976 1.331 4.994 5.66 12.651 0 20.974l5.992-5.66s-1.332 5.993-4.328 8.323c-2.996 2.331-13.983 8.323-11.32 12.984 2.664 4.661 13.65 9.988 24.97 7.657 11.319-2.33 20.308-11.319 19.975-16.979-.333-5.659-1.323-8.815-1.323-8.815s-4.67-6.166-5.335-10.161c-.666-3.995-4.661-25.302-4.661-25.302s-3.33 4.994-8.323 1.332c-4.994-3.662-11.985-21.307-11.985-21.307l.971-14.981H93.99zm133.5 3.329s2.331 10.986.999 13.317c-1.332 2.33-5.66 11.652-5.66 11.652s-4.811 10.875-12.984 7.99c0 0-3.329 6.733-3.163 13.687.167 6.954-3.828 16.957-6.658 20.611-2.83 3.655-2.164 15.973 6.159 19.302 8.323 3.329 26.967.999 29.63-3.662 2.663-4.661 0-7.657 0-7.657l-2.996-1.998s-.333.333 2.996-2.663c3.329-2.997 6.658-8.323 5.993-10.987-.666-2.663-3.663-6.658-6.659-7.657-2.996-.999-5.659-5.659-4.661-8.656.999-2.996 3.995-10.986 6.659-14.981 2.663-3.995 2.996-4.661 2.996-6.658 0-1.998-2.996-10.654-2.996-10.654l-6.659-13.65-2.996 2.664z" fill="#2A1A0F"/><path d="M228.522 109.191c-1.032 3.329-7.717 17.492-10.034 19.732-2.317 2.241-6.645 3.905-10.64 1.575 0 0 1.425-3.006 2.743-6.399.596-1.531 1.172-3.139 1.585-4.588 1.331-4.66 2.33-13.982 1.331-17.311a27.643 27.643 0 004.818-4.824 16.769 16.769 0 002.733-4.974c1.771-5.517 3.978-2.144 4.708 0 .725 2.14 3.791 13.46 2.756 16.789zm-111.688 21.204c-3.126 2.56-5.533.769-8.862-1.076-3.329-1.841-7.324-13.137-8.989-15.467-1.664-2.331-1.331-3.329-1.664-11.319-.333-7.99 2.077-7.74 2.077-7.74s3.249 3.079 3.599 5.096c.087.503.629 1.255 1.395 2.098 2.29 2.526 6.578 5.872 6.578 5.872v4.661c0 1.335 1.928 7.018 3.576 11.622a441.26 441.26 0 002.29 6.253z" fill="#E6B082"/><path opacity=".8" d="M153.582 109.857s3.907.307 1.997 6.991c-1.331 4.661-2.996 8.989-.998 16.313 0 0 1.649-.211 7.657 6.991 1.538 1.844 0-23.304 0-23.304l-2.663-8.656c-2.694-.535-4.908-.318-5.993 1.665zm18.643.333s-3.051.544-.531 6.658c2.196 5.327 2.529 10.321.999 16.313 0 0-2.502-.211-7.657 6.991-1.397 1.953 0-23.304 0-23.304l2.663-8.656c2.694-.535 3.441.015 4.526 1.998z" fill="#DC9B6C"/><path d="M212.519 97.95l.735 10.565-.259 2.471c-1.221 6.389-3.538 15.958-4.619 18.559-1.429 3.437.745 20.305-2.013 23.834-1.403 1.797-7.064 9.412-12.287 16.464l-3.207 5.266s-.508-26.289 3.278-34.229c3.786-7.939 14.727-18.734 12.843-31.262-.601-3.995-2.107-5.27-3.501-5.523a1.826 1.826 0 01-1.302-.952 1.826 1.826 0 01-.032-1.613l1.106-2.332c-.849-2.61-7.214-2.378-7.699-5.137-1.647-9.38-.017-29.687 1.033-33.11 1.045-3.4 9.329 12.536 13.129 20.14l2.795 16.86z" fill="#F7D496"/><path d="M156.678 169.326l.623 5.783h15.669l.665-6.278s-10.865-3.291-16.957.495z" fill="#DC9B6C"/><path d="M113.252 84.918c3.263-7.85 10.421-24.323 11.699-21.004 1.285 3.343 4.321 23.487 3.329 32.959-.293 2.786-6.658 2.996-7.324 5.66l1.265 2.249a1.822 1.822 0 01.08 1.611 1.821 1.821 0 01-1.233 1.04c-1.373.349-2.786 1.726-3.108 5.753-1.011 12.629 10.653 22.639 14.981 30.296 4.328 7.657 6.991 33.957 6.991 33.957l-4.91-5.07c-5.7-6.672-11.875-13.876-13.4-15.571-2.997-3.329-1.998-20.308-3.662-23.637-1.259-2.52-4.235-11.905-5.896-18.194l-.43-2.447v-10.59l1.618-17.012z" fill="#F7D496"/><path d="M124.6 99.817s-6.973 1.051-2.312 5.379c4.661 4.328 6.658 2.33 9.654-.333 2.997-2.663 4.661-2.663 4.661-2.663l11.319.665 5.66 6.992s3.995-1.665 1.998-5.66c-1.998-3.995-7.99-4.328-8.656-3.995-.666.333-22.324-.385-22.324-.385zm75.877-1.543s6.703.316 2.653 5.22c-3.605 4.365-5.105 2.836-8.266.37a10.919 10.919 0 00-6.213-2.441l-11.253 1.392-5.199 7.34s-4.093-1.405-2.357-5.52c1.737-4.115 7.696-4.832 8.382-4.542.686.289 22.253-1.819 22.253-1.819z" fill="#BB714A"/><path d="M154.914 108.525h15.98v-5.243l-7.99-6.742-8.288 6.742.298 5.243z" fill="#BB714A"/><path d="M129.279 109.857l-3.329 1.664s5.326 3.995 8.989 5.327c3.995 4.994 10.986 3.329 14.315-1.664.666-1.332 1.998-1.998 3.329-2.331 0 0 .208-1.082-.333-1.332-.541-.249-1.831 0-3.329.333-2.996.666-13.982.999-13.982.999l-5.66-2.996zm66.584-.333l3.329 1.332s-2.996 2.663-7.657 5.992c-3.995 4.994-9.948 3.329-13.278-1.664-.953-.937-1.997-1.998-3.329-2.331 0 0-.208-1.082.333-1.332.541-.249 2.458-.332 3.956 0 2.996.666 10.653 1.332 10.653 1.332l5.993-3.329z" fill="#D4895D"/><path opacity=".61" d="M150.586 138.821c-4.994 7.99-11.794 8.01-11.985 12.651a23.96 23.96 0 00.333 4.328c.275 1.911.934 3.239 2.866 3.218a6.758 6.758 0 012.46.444c2.664.998 13.317-5.66 17.978-4.328 2.33.666 1.997-5.993 1.332-5.993-.666 0-9.655-2.663-10.987-4.994a22.178 22.178 0 01-1.997-5.326zm33.969 12.956a246.6 246.6 0 013.44-.045c.595-.578.765-1.335.611-2.5a1.558 1.558 0 01.048-.682c-2.271-2.276-6.937-3.833-10.622-9.729a22.18 22.18 0 01-1.998 5.326c-.654 1.145-3.156 2.369-5.611 3.319.138 1.432.339 2.85.592 4.26 4.506.387 9.023.145 13.54.051z" fill="#F7D1A0"/><path d="M165.442 131.824a88.7 88.7 0 001.124-18.305l1.332-4.994h-8.323l1.331 4.994a96.036 96.036 0 00.891 17.796 11.884 11.884 0 01-.457 5.391c-.174.531-.334 1.05-.434 1.449-.333 1.332-2.33 6.658 2.664 6.991 3.062.204 4.328-1.997 3.995-3.995a29.748 29.748 0 00-1.482-4.498 9.45 9.45 0 01-.641-4.829z" fill="#F7D1A0"/><path d="M134.939 107.193s1.331-.998 5.992-.998 4.661.666 4.661.666 0 4.66-4.994 4.66-5.659-4.328-5.659-4.328zm45.277-.665s1.331-.999 5.992-.999 4.661.666 4.661.666 0 4.661-4.994 4.661-5.659-4.328-5.659-4.328z" fill="#637B82"/><path d="M133.607 106.861l-3.419 3.162s4.393 2.593 7.734 2.545c0 0-3.649-4.376-4.315-5.707zm17.645 3.329l-5.66-3.995s.666 4.993-4.328 5.659l9.324-.333s2.328 0 .664-1.331zm39.617-3.995s-1.332 5.659-1.998 5.659c-.665 0 6.659-1.664 7.325-2.996 0 0-2.997-2.663-5.327-2.663zm-10.986-.333s.998 4.994 2.996 5.326c0 0-4.711-.968-6.326 0-1.664.999-3.329-.332-.665-1.997a17.023 17.023 0 003.995-3.329z" fill="#CCC6B7"/><path d="M156.911 160.128a36.67 36.67 0 015.993-.666c2.663 0 3.995-.999 7.657-.999s7.324-.333 9.654.666c2.331.999-18.31 3.662-23.304.999z" fill="#70261B"/><path d="M150.919 161.126l8.656 5.993 8.988-.666s5.66-.333 7.99-4.994a26.517 26.517 0 00-9.488-.166c-5.493.832-19.808-2.164-16.146-.167z" fill="#BF7257"/><path d="M176.553 161.459c-5.93 1.781-13.982 2.997-22.638.666l-2.996-1.997 18.643.333 6.991.998z" fill="#E08C69"/><path d="M130.893 137.082c1.331-.768-.143-5.813-3.292-11.268-3.149-5.455-6.781-9.254-8.112-8.485-1.332.768.142 5.813 3.292 11.268 3.149 5.455 6.781 9.254 8.112 8.485zm70.616-8.485c3.149-5.455 4.623-10.5 3.292-11.268-1.331-.769-4.963 3.03-8.112 8.485-3.15 5.455-4.623 10.5-3.292 11.268 1.331.769 4.963-3.03 8.112-8.485z" fill="#DC9B70"/><path opacity=".5" d="M150.854 95.795l-5.545-.646c-1.574-.184-2.713-1.03-2.713-2.017V72.295c0-1.567 2.737-2.556 4.959-1.792l4.703 1.619c1.027.353 1.676 1.014 1.706 1.738l.842 19.864c.055 1.308-1.864 2.314-3.952 2.07z" fill="url(#paint0_linear_663_2)"/><path opacity=".5" d="M172.956 95.129l5.544-.646c1.575-.183 2.714-1.03 2.714-2.017V71.63c0-1.567-2.737-2.556-4.959-1.792l-4.703 1.619c-1.027.353-1.676 1.014-1.707 1.738l-.841 19.865c-.055 1.308 1.864 2.313 3.952 2.07z" fill="url(#paint1_linear_663_2)"/><path d="M166.372 103.456l-.278-12.115 3.329-.052.278 12.115-3.329.052z" fill="url(#paint2_linear_663_2)"/><path d="M156.052 103.456l-.278-12.115 3.329-.052.277 12.115-3.328.052z" fill="url(#paint3_linear_663_2)"/><path d="M184.876 106.195v1.664l.333.666-2.33 2.663s-2.663-2.996-2.996-5.326c-.333-2.331 4.993.333 4.993.333zm-44.611.666v1.664l-1.997 3.329s-2.664-2.996-2.997-5.326c-.332-2.331 4.994.333 4.994.333zm46.276.333l4.286.499.042-1.499h-4.328v1zm-45.277.665l4.286.5.042-1.499h-4.328v.999z" fill="#89A8C2"/><path d="M166.03 148.475l.767 5.584a2.112 2.112 0 01-1.163 2.195c-.267.13-.557.201-.854.211h-.054a1.94 1.94 0 01-1.973-1.339 2.812 2.812 0 01-.114-1.415l.783-4.903 2.608-.333z" fill="#DC9B6C"/><path d="M143.59 180.076l-2.612-14.887a.305.305 0 01.043-.214.3.3 0 01.536.064c5.086 14.392 9.891 16.485 14.337 26.036a.3.3 0 01-.339.42c-2.033-.469-8.851-2.661-11.951-11.366a.346.346 0 01-.014-.053zm43.385-.291l1.755-14.839a.3.3 0 00-.587-.116c-4.099 14.597-7.583 16.668-11.466 26.607a.302.302 0 00.026.273.305.305 0 00.236.14c1.059.078 4.32-.816 10.005-11.962a.286.286 0 00.031-.103z" fill="#F7D496"/><path d="M150.919 139.82s11.319 5.326 12.651 5.326c2.663 0 12.983-6.325 12.983-6.325s1.332 3.662-.665 5.326a8.084 8.084 0 01-4.661 1.665s-2.997 3.662-7.657 2.996c-4.661-.666-4.661-2.996-6.992-2.996-2.33 0-6.325-2.33-5.659-5.992z" fill="#BB714A"/><path d="M155.58 160.793s-13.983-6.325-15.315-2.33c-1.331 3.995 8.656 1.998 8.656 1.998l6.659.332zm27.632-2.663s2.33-.999 3.995-.999c1.664 0 1.332-3.662-1.332-2.663-2.663.999-4.328 3.995-4.328 3.995l1.665-.333z" fill="#DC9B6C"/><path d="M148.921 160.461l8.875 10.142a.924.924 0 001.069.241l5.618-2.44a2 2 0 011.492.026l4.961 2.384a.927.927 0 001.089-.212l9.522-10.474-3.403.578-7.721 5.927-9.184-.18-1.664.666s-8.323-6.991-10.654-6.658z" fill="#F7D1A0"/><path d="M185.537 170.595a87.838 87.838 0 01-1.591 3.457c-.28.568-.563 1.135-.854 1.698-.272.57-.587 1.12-.942 1.643a62.073 62.073 0 01-4.818 5.866c-.852.975-7.77 1.837-11.765 1.837-4.121 0-10.294-1.259-11.081-2.08-1.952-2.037-4.037-3.752-5.825-5.731l-.328-.376c-.106-.129-.194-.274-.291-.41l-.572-.831c-.366-.563-.742-1.122-1.093-1.697a66.263 66.263 0 01-2.03-3.497 64.72 64.72 0 01-3.416-7.35 64.945 64.945 0 003.006 7.557 67.051 67.051 0 001.846 3.637c.321.601.669 1.187 1.008 1.778.348.59.723 1.147 1.042 1.774 1.366 2.429 3.059 4.622 4.407 6.879a20.944 20.944 0 011.697 3.392 9.533 9.533 0 01.67 3.297l.836-.127c-.015.179-.03.277-.03.277 2.701.542 5.429.942 8.172 1.198 5.176.532 12.136-.865 13.135-1.198a.482.482 0 00.199-.155l.181.06c.035-.193.08-.387.124-.581.35-.851.63-1.73.837-2.626a36.136 36.136 0 011.616-3.418 63.739 63.739 0 003.382-6.998c.218-.618.503-1.185.76-1.772.259-.585.51-1.173.757-1.762a88.964 88.964 0 001.389-3.57 70.919 70.919 0 002.241-7.309 70.764 70.764 0 01-2.669 7.138z" fill="#D4895D"/><path opacity=".61" d="M158.947 174.705c3.092-.197 9.685-.509 13.775.075 1.307.186 2.337.851 2.635 1.716.061.177.125.369.19.574 1.286 4.061-3.298 7.914-9.549 8.02l-.274.005c-6.415.096-11.398-3.799-10.058-7.963.093-.295.207-.582.341-.86.424-.865 1.576-1.481 2.94-1.567z" fill="#F7D1A0"/><path opacity=".51" d="M170.894 114.518l9.654 11.319v5.992l-6.991-7.657c0-2.996-2.33-8.656-2.663-9.654z" fill="url(#paint4_linear_663_2)"/><path opacity=".51" d="M155.912 114.851l-8.988 10.986v5.992l6.991-7.657c.126-2.901 2.169-7.942 1.997-9.321z" fill="url(#paint5_linear_663_2)"/><path d="M222.496 109.191c0 8.273-4.844 14.981-10.82 14.981a8.379 8.379 0 01-1.085-.073c.596-1.531 1.172-3.139 1.585-4.588 1.331-4.66 2.33-13.982 1.331-17.311a27.64 27.64 0 004.818-4.824c2.54 2.74 4.171 7.014 4.171 11.815zm-107.619 14.951c-.22.02-.443.03-.666.03-5.976 0-10.82-6.708-10.82-14.981a19.589 19.589 0 011.332-7.204c2.29 2.526 6.578 5.872 6.578 5.872v4.661c0 1.335 1.928 7.018 3.576 11.622z" fill="#D4895D"/><path opacity=".7" d="M158.243 48.933c-6.658-1.998-31.295-24.303-36.621-25.635-5.327-1.332-13.65 7.324-13.65 7.324l-14.219 9.392c.064-.25.142-.496.237-.736 0 0 .888-1.065 2.283-2.663 1.648-1.891 4.002-4.528 6.429-7.022l.12-.12c1.838-1.834 3.522-3.448 4.734-4.494.146-.123.283-.24.416-.35 3.006-2.476 2.624-2.976 9.322-6.99 0 0 .11-.027.313-.057 1.235-.187 5.962-.516 11.672 4.051 7.541 6.033 28.964 27.3 28.964 27.3z" fill="#F7C070"/><path opacity=".8" d="M159.242 2.99c-4.525.673-22.882 3.181-34.303 10.04l-.058-.026-1.222.723c.323.15.646.3.962.472l.673.347.075.042 5.575 3.716.09-.043.023.017c.832.589 1.634 1.228 2.45 1.844.796.646 1.608 1.265 2.394 1.924 3.162 2.607 6.225 5.357 9.268 8.13 3.03 2.796 6.016 5.646 9.089 8.43a125.634 125.634 0 00-8.18-9.359 110.567 110.567 0 00-9.122-8.486c-.799-.666-1.631-1.295-2.447-1.94l-1.265-.926a46.434 46.434 0 00-.54-.393c3.696-1.643 12.336-5.266 17.216-5.523 0 0 12.984 7.324 18.976 14.981 0 0-7.324-13.65-11.319-16.646.5-.865 20.512 14.718 23.637 20.974.582-1.299-16.659-29.088-21.972-28.298z" fill="#F7C070"/><path opacity=".7" d="M170.894 2.918c-8.323.405-8.139 2.675-8.139 2.675l4.966 2.63-.91.215s14.403 10.199 17.4 20.187c0 0 .544-9-9.225-18.36 7.271 2.303 18.044 6.647 21.875 13.033V15.64S179.217 2.513 170.894 2.918z" fill="#F7C070"/><path d="M204.519 21.966l-13.317 11.32 5.659-9.988 5.327-3.995 2.331 2.663z" fill="#5A3718"/><path d="M202.05 23.298s13.788 12.65 14.454 17.978c.666 5.326 9.321 62.255 21.306 68.914 0 0-5.982-12.28-6.986-16.96-1.004-4.68-4-16-3.667-21.326.333-5.327-2.996-27.3-4.661-30.462-1.664-3.163-18.677-21.774-18.677-21.774l-1.769 3.63zm-87.919 13.816a34.54 34.54 0 00-8.218 3.493c-2.458 1.488-4.501 3.424-5.601 5.67l-.201.422-.174.431-.088.214-.02.106c-.018.083-.039.2-.057.33a18.371 18.371 0 00-.127 1.91c-.034 1.4.019 2.884.05 4.373.095 2.986.18 6.033.164 9.103a86.292 86.292 0 01-.508 9.307c-.407 3.125-.946 6.306-2.308 9.45-.345.81-.762 1.587-1.248 2.321a10.06 10.06 0 01-1.843 2.13 7.328 7.328 0 01-2.614 1.457 7.04 7.04 0 01-2.888.206 10.825 10.825 0 01-4.64-1.985 19.897 19.897 0 01-3.47-3.162 37.917 37.917 0 004.198 1.724c1.285.47 2.654.67 4.02.59a3.771 3.771 0 002.736-1.522 9.75 9.75 0 001.517-3.316 41.322 41.322 0 001.145-8.375c.178-2.914.214-5.885.258-8.88.048-2.999.056-6.021.208-9.103.067-1.546.177-3.097.39-4.724a16.74 16.74 0 01.527-2.59c.076-.258.165-.511.266-.76.051-.13.123-.287.19-.422l.164-.296.332-.588.377-.559c1-1.439 2.26-2.68 3.713-3.66a18.04 18.04 0 014.438-2.182c1.51-.505 3.068-.85 4.65-1.033 1.546-.194 3.11-.22 4.662-.08zm82.731 16.146a8.291 8.291 0 012.247.818c.716.363 1.406.776 2.065 1.236.652.464 1.28.962 1.88 1.49l.895.802c.283.28.563.563.838.852l.827.867.764.912c.511.61 1.018 1.226 1.468 1.875.462.642.917 1.292 1.358 1.948l1.228 2.023c.809 1.355 1.479 2.776 2.181 4.182.615 1.442 1.245 2.878 1.768 4.353.494 1.486.991 2.968 1.379 4.485.359 1.526.693 3.057.91 4.62-.895-1.313-1.674-2.658-2.427-4.007-.766-1.342-1.538-2.671-2.249-4.023-.741-1.336-1.495-2.657-2.199-4.002l-1.125-1.97c-.364-.663-.716-1.333-1.117-1.97l-1.134-1.953-1.18-1.917c-.373-.656-.807-1.262-1.208-1.896l-.611-.946-.643-.918-.638-.929-.674-.897c-.435-.618-.922-1.18-1.388-1.779a21.871 21.871 0 00-3.215-3.255zm3.162-8.822a27.545 27.545 0 013.742 3.635 39.526 39.526 0 013.134 4.13 33.44 33.44 0 012.548 4.541 18.319 18.319 0 011.563 5.006l-2.931-4.233c-.951-1.403-1.918-2.794-2.846-4.212a132.97 132.97 0 01-2.734-4.311 50.46 50.46 0 01-2.476-4.556z" fill="#5A3718"/><path d="M150.419 138.987l3.163-5.493s-7.324.999-6.658 9.754a9.786 9.786 0 003.495-4.261zm27.923 0l-3.163-5.493s7.324.999 6.658 9.754a9.78 9.78 0 01-3.495-4.261z" fill="#D4895D"/><path opacity=".7" d="M235.314 120.344a81.893 81.893 0 00-3.946 7.154 71.222 71.222 0 00-3.126 7.383 54.731 54.731 0 00-2.102 7.595 41.108 41.108 0 00-.765 7.722 33.938 33.938 0 00.192 3.852c.061.64.167 1.275.246 1.914l.359 1.897c.594 2.595 1.239 5.181 2.044 7.719a62.68 62.68 0 002.888 7.452c.271.614.595 1.196.89 1.803.323.585.638 1.183.985 1.76.335.587.704 1.153 1.092 1.709.379.571.793 1.116 1.243 1.632a16.114 16.114 0 01-3.213-2.667c-.505-.491-.942-1.035-1.408-1.565-.43-.55-.876-1.098-1.279-1.673a42.348 42.348 0 01-4.134-7.334 60.031 60.031 0 01-2.789-7.933c-.174-.7-.337-1.405-.49-2.111-.117-.712-.259-1.423-.352-2.14a36.106 36.106 0 01-.268-4.323 36.573 36.573 0 011.068-8.533 42.07 42.07 0 012.907-7.987 46.035 46.035 0 014.344-7.189 42.344 42.344 0 012.643-3.23 29.331 29.331 0 012.971-2.907z" fill="#F7C070"/><path opacity=".8" d="M238.643 121.01a48.26 48.26 0 00-7.013 11.407 27.201 27.201 0 00-1.9 6.352 14.808 14.808 0 00.282 6.427c.151.506.339 1 .562 1.479.113.237.239.468.376.692.123.23.265.451.423.659l.466.627c.158.205.357.381.531.572.331.362.777.772 1.182 1.196a17.696 17.696 0 012.247 2.805 15.05 15.05 0 011.575 3.277c.404 1.188.622 2.43.648 3.683a11.25 11.25 0 01-.139 1.905 9.978 9.978 0 01-.541 1.837 8.623 8.623 0 01-2.069 3.077 9.404 9.404 0 01-1.398 1.126 11.5 11.5 0 01-1.558.819c1.338-1.915 2.4-3.777 2.733-5.724.33-1.947.167-3.946-.473-5.814a22.122 22.122 0 00-1.129-2.877 19.338 19.338 0 00-1.586-2.72c-.305-.446-.629-.853-.982-1.382-.168-.253-.35-.493-.502-.754l-.44-.792a6.014 6.014 0 01-.383-.817c-.108-.28-.253-.543-.345-.828-.2-.56-.362-1.134-.483-1.716a15.935 15.935 0 01.104-6.927 29.936 29.936 0 012.317-6.402 46.503 46.503 0 013.405-5.835 52.786 52.786 0 014.09-5.352z" fill="#F7C070"/><path opacity=".83" d="M98.484 161.293c.17-1.118.233-2.249.19-3.379a26.992 26.992 0 00-.292-3.324 33.957 33.957 0 00-1.617-6.403c-.191-.517-.343-1.043-.565-1.548l-.632-1.522c-.192-.513-.47-.995-.695-1.495-.242-.494-.461-.997-.72-1.483l-.795-1.448c-.262-.484-.516-.972-.822-1.433l-.865-1.412-.43-.707-.452-.77a25.296 25.296 0 01-1.657-3.169c-.233-.551-.476-1.098-.7-1.652l-.53-1.718-.257-.86c-.066-.293-.117-.589-.176-.883a72.268 72.268 0 01-.324-1.766 25.756 25.756 0 01-.167-3.578 21.846 21.846 0 014.515-13.053c-.226.528-.44 1.053-.617 1.592-.195.53-.359 1.071-.513 1.61-.154.54-.28 1.086-.423 1.623l-.315 1.636a26.002 26.002 0 00-.292 6.538 31.11 31.11 0 00.419 3.203l.396 1.562c.066.26.124.521.196.779l.273.758.53 1.519.678 1.462c.443.983.953 1.933 1.526 2.845l.4.705.449.752.894 1.505c.306.496.562 1.024.824 1.547l.783 1.57a36.611 36.611 0 012.319 6.634c.563 2.28.84 4.621.823 6.97a22.936 22.936 0 01-.347 3.482 13.01 13.01 0 01-1.012 3.311z" fill="#F7E3A6"/><path d="M95.82 169.949a24.894 24.894 0 004.703-5.975 21.915 21.915 0 002.531-6.932c.22-1.197.333-2.413.337-3.631.028-.606-.033-1.215-.047-1.82-.075-.605-.101-1.211-.214-1.811a29.467 29.467 0 00-2.038-7.035c-.478-1.136-1.021-2.231-1.594-3.426a86.98 86.98 0 01-1.613-3.557 72.667 72.667 0 01-2.723-7.349 41.334 41.334 0 01-1.646-7.719 20.53 20.53 0 01-.04-3.983 11.33 11.33 0 01.388-1.965c.098-.32.224-.63.377-.928.14-.301.338-.572.58-.798a4.16 4.16 0 00-.466 1.821 10.76 10.76 0 00.04 1.878c.132 1.249.363 2.485.69 3.698.301 1.221.702 2.421 1.112 3.614a73.18 73.18 0 001.33 3.553c.934 2.355 1.973 4.674 3.033 6.987.539 1.152 1.072 2.31 1.635 3.454a68.362 68.362 0 011.64 3.589 28.967 28.967 0 012.002 7.831c.091.673.083 1.359.125 2.036-.022.682.01 1.362-.069 2.042a20.617 20.617 0 01-.693 4.013 21.083 21.083 0 01-9.38 12.413zm33.625-124.512a50.937 50.937 0 00-5.02 3.39 37.476 37.476 0 00-4.419 3.918 24.006 24.006 0 00-3.476 4.55 16.8 16.8 0 00-1.22 2.518c-.182.428-.313.872-.464 1.309-.118.459-.24.86-.352 1.377a101.135 101.135 0 01-3.371 11.79 28.324 28.324 0 01-2.749 5.634 12.288 12.288 0 01-2.088 2.414c-.41.342-.854.642-1.325.894a5.617 5.617 0 01-1.483.492c1.832-.98 2.842-2.728 3.605-4.506a40.022 40.022 0 001.793-5.635c.972-3.864 1.76-7.825 2.703-11.772.108-.473.276-1.045.422-1.565.184-.52.344-1.049.574-1.55a17.707 17.707 0 011.544-2.891 19.362 19.362 0 011.982-2.56 21.89 21.89 0 012.302-2.215 27.36 27.36 0 015.246-3.443 25.698 25.698 0 015.796-2.149z" fill="#5A3718"/><path d="M144.219 47.201s13.358 7.391 21.515 5.227l-11.476-5.564s14.971 6.397 20.964 3.733l-14.316-6.991-16.687 3.595z" fill="#2A1A0F"/><path d="M97.319 39.944c2.147-1.967 4.426-3.775 6.748-5.535a85.377 85.377 0 017.265-4.9 44.25 44.25 0 013.905-2.113 19.572 19.572 0 014.355-1.552 6.873 6.873 0 012.629-.059 9.63 9.63 0 012.373.82 25.551 25.551 0 013.865 2.462c2.367 1.8 4.538 3.72 6.724 5.613a398.884 398.884 0 006.56 5.62 129.33 129.33 0 0014.003 10.13 68.16 68.16 0 01-15.27-8.482c-2.384-1.69-4.671-3.505-6.921-5.337l-3.35-2.753a90.398 90.398 0 00-3.347-2.663 23.823 23.823 0 00-3.427-2.234 7.142 7.142 0 00-1.703-.644 4.603 4.603 0 00-1.684.006 18.989 18.989 0 00-3.858 1.214 62.344 62.344 0 00-3.856 1.785c-5.086 2.613-10.031 5.63-15.011 8.622zm2.497 49.106a34.934 34.934 0 004.671-1.478 22.43 22.43 0 004.028-2.06c.319-.196.628-.409.924-.638l.468-.315c.152-.111.286-.245.437-.36.295-.237.592-.475.899-.708.275-.267.562-.527.857-.785.144-.132.298-.257.45-.385.136-.143.27-.288.413-.427.28-.284.574-.564.877-.846.581-.582 1.128-1.208 1.823-1.794-.05.435-.125.868-.224 1.296-.085.433-.201.86-.348 1.276-.165.405-.338.81-.526 1.213-.09.204-.189.402-.288.603-.117.187-.233.377-.359.562-.245.372-.497.744-.762 1.109-.286.346-.605.667-.912 1-.156.166-.313.33-.481.482l-.529.432a11.808 11.808 0 01-6.2 2.629 9.243 9.243 0 01-5.218-.807z" fill="#5A3718"/><path d="M98.151 89.715s9.655 12.651 12.984 14.316" stroke="#5A3718" stroke-width="5.575" stroke-miterlimit="10"/><path d="M159.741 26.46a9.947 9.947 0 013.427 1.435 16.246 16.246 0 012.837 2.298 16.524 16.524 0 012.252 2.862 11.757 11.757 0 011.472 3.393 21.585 21.585 0 01-2.878-2.218 50.342 50.342 0 01-2.507-2.404 57.287 57.287 0 01-2.358-2.538 35.396 35.396 0 01-2.245-2.827zm43.113 135.332c-.087 2.358-.178 4.608-.135 6.816.001 2.139.243 4.272.721 6.357.24.99.578 1.953 1.009 2.876.44.908.994 1.756 1.649 2.524 1.306 1.587 3.165 2.769 5.245 3.899a10.512 10.512 0 01-3.555-.455 10.324 10.324 0 01-5.833-4.606 13.222 13.222 0 01-1.422-3.517 17.602 17.602 0 01-.154-7.27 18.454 18.454 0 012.475-6.624zm2.83-5.493c.714 3.018 1.406 5.956 2.215 8.833a57.526 57.526 0 002.937 8.309c1.228 2.603 2.695 5.083 4.757 6.985a14.587 14.587 0 003.477 2.427c1.363.626 2.791 1.1 4.258 1.411a12.375 12.375 0 01-4.729-.018 12.68 12.68 0 01-4.475-1.978 15.342 15.342 0 01-3.532-3.418 22.852 22.852 0 01-2.477-4.158 33.632 33.632 0 01-2.431-18.393zM95.321 187.427a54.88 54.88 0 0011.112-1.158 30.203 30.203 0 009.962-3.912 24.002 24.002 0 004.105-3.313 26.464 26.464 0 003.283-4.202 43.551 43.551 0 004.331-10.22 25.26 25.26 0 01-2.259 11.341 22.492 22.492 0 01-3.267 5.01 22.244 22.244 0 01-4.585 3.912 25.289 25.289 0 01-11.213 3.704 28.543 28.543 0 01-11.469-1.162z" fill="#5A3718"/><path d="M84.612 181.439c2.003.168 4.014.232 6.024.189a65.265 65.265 0 006.074-.38 46.911 46.911 0 0011.818-2.738 26.354 26.354 0 0010.082-6.586 21.667 21.667 0 003.37-5.077 24.52 24.52 0 001.806-5.887 24.643 24.643 0 01-1.462 6.035 22.2 22.2 0 01-3.145 5.416 27.463 27.463 0 01-10.068 7.479 48.756 48.756 0 01-12.086 3.583 66.477 66.477 0 01-6.266.774 59.89 59.89 0 01-6.368.18l.221-2.988z" fill="#5A3718"/><path d="M218.168 129.499s-8.989 35.955 2.331 45.61c0 0-12.651-4.994-14.316-27.965 0 0-1.664-9.655 3.662-16.646 0 0 4.994 3.662 8.323-.999zm-113.525-4.552s14.981 32.184 4.994 48.83a22.701 22.701 0 0011.985-17.312l-2.219-20.973-2.442-4.994s-5.327 5.992-12.318-5.551zm80.233-84.337l7.26-4.894a10.294 10.294 0 017.835-1.758 10.304 10.304 0 016.717 4.4c2.492 3.723 4.949 8.171 5.821 12.24 0 0-11.362-11.45-19.997-8.555a8.223 8.223 0 00-7.636-1.433zm-54.931-1.332s-2.131.004-6.326.333c-8.649.678-15.537 7.933-16.837 16.51l-.475 3.132c9.322-12.984 19.288-17.465 30.629-15.314l-6.991-4.661zm33.958 5.992s-17.312-19.642-21.307-22.638c0 0 10.653 2.33 21.639 14.316 10.053 10.966 16.933 7.505 16.933 7.505s-5.28 10.472-17.265.818z" fill="#170000"/><path d="M125.841 107.526s.727 2.067.941 2.164c1.831.833 3.568-.333 4.78-1.165 1.213-.832 4.209-3.496 8.204-3.163 3.995.333 5.065-.333 6.527.833 1.463 1.165 6.29 7.324 7.289 3.662l-4.881-6.029s-.271-1.462-3.105-1.295c-2.834.166-9.159-.5-9.159-.5s-8.541 6.326-10.596 5.493zm74.017-1.331s-1.783 2.899-1.998 2.996c-1.831.832-2.345-.499-3.557-1.332-1.213-.832-4.209-3.495-8.204-3.162-3.995.332-5.065-.333-6.527.832-1.463 1.165-5.349 6.991-7.347 4.661l4.939-7.028s.271-1.462 3.105-1.295c2.834.166 10.933.333 10.933.333s7.324 4.661 8.656 3.995z" fill="#9D553D"/><path d="M146.924 105.862l-12.984.666v-3.995h12.984v3.329zm45.609-.333l-12.983.665V102.2h12.983v3.329z" fill="#E6B082"/><path d="M150.253 109.191l1.664 1.997-2.912.376 5.126 1.265a1.336 1.336 0 001.451-.599 1.33 1.33 0 00-.83-1.98l-4.499-1.059zm25.735-.522l-1.473 2.142 2.935.106-4.988 1.731a1.327 1.327 0 11-.857-2.51l4.383-1.469z" fill="#F7D1A0"/><path d="M129.288 167.504l-2.142 10.511s5.392 9.74 14.048 16.065c8.656 6.326 40.21 3.583 40.21 3.583l18.454-15.23.276-4.263-1.621-12.893-10.307 13.827s-7.158 13.289-15.065 13.469c-7.907.181-19.559-1.484-19.559-1.484l-24.294-23.585z" fill="#BB714A"/><path d="M136.77 42.774a6.156 6.156 0 01-2.082 2.774 76.727 76.727 0 00-2.529 1.946 65.982 65.982 0 00-2.446 2.031 66.067 66.067 0 00-2.356 2.11 59.967 59.967 0 00-4.372 4.476 32.69 32.69 0 00-3.642 4.948c-.252.44-.505.88-.723 1.333-.243.444-.442.903-.645 1.362-.208.458-.36.932-.54 1.4l-.213.714-.108.358-.11.397a57.666 57.666 0 01-.947 3.172 50.976 50.976 0 01-1.106 3.133l-.642 1.54-.706 1.518a25.106 25.106 0 01-1.715 2.902 12.298 12.298 0 01-2.267 2.522 7.263 7.263 0 01-2.981 1.48c1.963-1.028 3.194-2.797 4.053-4.701.443-.953.827-1.934 1.148-2.935l.472-1.514.412-1.538c.528-2.059.956-4.15 1.351-6.25l.079-.395.098-.429.199-.859c.17-.558.318-1.129.523-1.674a22.045 22.045 0 011.406-3.184 35.725 35.725 0 018.655-10.402 51.757 51.757 0 015.392-3.94 59.802 59.802 0 012.853-1.708 5.194 5.194 0 013.489-.587z" fill="#000"/><path d="M118.126 72.07a34.247 34.247 0 01-.816 8.305 28.944 28.944 0 01-1.18 4.072 13.326 13.326 0 01-2.206 3.979 10.082 10.082 0 01-3.894 2.643 13.073 13.073 0 01-4.4.888 11.586 11.586 0 01-4.364-.689 7.2 7.2 0 01-3.448-2.552 9.351 9.351 0 003.792 1.12 13.72 13.72 0 003.783-.223 14.396 14.396 0 003.505-1.15 8.696 8.696 0 002.77-2.008c.75-.95 1.371-1.993 1.847-3.105.557-1.17 1.047-2.413 1.548-3.657 1.001-2.498 1.935-5.06 3.063-7.622z" fill="#000"/><path d="M114.626 86.94c.241 3.048.319 6.034.259 9.072a54.287 54.287 0 01-.943 9.143c-.188.77-.337 1.537-.6 2.31l-.18.579-.083.272-.054.195c-.078.267-.136.54-.172.816a11.763 11.763 0 00.315 3.812 52.323 52.323 0 002.846 8.084c1.134 2.711 2.36 5.428 3.455 8.267a45.215 45.215 0 011.472 4.404c.456 1.585.704 3.222.738 4.87.025 2.864.286 5.722.78 8.543a46.978 46.978 0 002.147 8.27 21.312 21.312 0 001.737 3.667c.157.264.332.518.524.758l.269.343.38.435 1.464 1.724 5.7 6.847c3.796 4.551 7.634 9.063 11.567 13.444a137.235 137.235 0 002.997 3.215c1.012 1.043 2.047 2.077 3.096 2.969.259.209.525.444.774.612.114.09.235.173.36.248l.161.098.077.047a.15.15 0 01.088.043c.048.017.155.037.23.055l.492.114 1.038.197c1.41.24 2.858.418 4.305.573 2.9.294 5.824.438 8.721.449 1.448.018 2.894.084 4.344.126 1.452.027 2.892.112 4.456.047a10.909 10.909 0 01-4.203 2.027 22.271 22.271 0 01-4.539.706 76.031 76.031 0 01-9.068-.267 72.464 72.464 0 01-4.531-.526l-1.153-.199-.595-.125c-.105-.025-.183-.035-.312-.071a8.832 8.832 0 01-.463-.167l-.227-.093c-.063-.03-.11-.059-.165-.09l-.32-.182a6.02 6.02 0 01-.565-.369c-.368-.247-.663-.5-.986-.751-1.229-1.012-2.312-2.065-3.386-3.133a128.955 128.955 0 01-3.132-3.246c-4.093-4.372-7.96-8.9-11.822-13.424l-5.759-6.789-1.433-1.658-.357-.4-.428-.524a10.015 10.015 0 01-.753-1.064 24.488 24.488 0 01-2.091-4.355 50.753 50.753 0 01-2.342-8.941 55.88 55.88 0 01-.849-9.173c-.017-2.51-.913-5.264-1.919-7.957-1.024-2.708-2.224-5.413-3.365-8.186a52.499 52.499 0 01-2.92-8.745 15.105 15.105 0 01-.289-5.029c.067-.459.171-.912.31-1.355l.346-1.079c.231-.63.374-1.321.551-1.99a50.958 50.958 0 001.014-8.538c.136-2.896.149-5.855.003-8.731l-.001-.03a1.5 1.5 0 011.399-1.57 1.496 1.496 0 011.59 1.376zm37.125-34.845a40.069 40.069 0 01-7.199-2.852 79.807 79.807 0 01-6.668-3.715 81.856 81.856 0 01-6.29-4.314 48.349 48.349 0 01-5.811-5.099 44.503 44.503 0 017.186 2.872 75.114 75.114 0 016.671 3.713 82.494 82.494 0 016.286 4.325 56.514 56.514 0 015.825 5.07z" fill="#000"/><path d="M165.73 52.493a8.992 8.992 0 01-3.144-.605 27.665 27.665 0 01-2.962-1.205c-1.929-.899-3.78-1.934-5.6-3.008-3.636-2.161-7.115-4.542-10.542-6.982-1.722-1.21-3.393-2.483-5.075-3.742-1.67-1.273-3.304-2.59-4.942-3.9l-4.832-4.025-4.784-4.06.231.152c.052.026 0-.002-.013-.008l-.083-.035a2.85 2.85 0 00-.197-.073 4.851 4.851 0 00-.45-.124 6.668 6.668 0 00-.993-.136 9.614 9.614 0 00-2.125.128 15.166 15.166 0 00-4.27 1.468 28.922 28.922 0 00-3.999 2.491 51.613 51.613 0 01-4.151 2.8c-2.839 1.738-5.802 3.181-8.558 4.859a13.003 13.003 0 00-3.621 3.094 7.602 7.602 0 00-1.464 4.523 8.48 8.48 0 01.107-2.472 7.22 7.22 0 01.924-2.34 13.714 13.714 0 013.492-3.614c1.325-1.02 2.721-1.907 4.098-2.795 1.377-.889 2.742-1.776 4.057-2.718a49.493 49.493 0 003.797-2.989 26.965 26.965 0 014.153-2.99 17.744 17.744 0 014.893-2.004 11.65 11.65 0 012.762-.316c.486.006.97.049 1.449.128.246.044.492.094.745.165.127.035.253.074.386.12l.203.076c.082.035.123.048.267.12l.094.047.137.105 4.993 3.825 4.95 3.852 4.896 3.906 4.854 3.949a409.373 409.373 0 009.796 7.754c1.654 1.26 3.327 2.493 5.045 3.65.865.567 1.727 1.145 2.632 1.642.449.253.911.482 1.384.685.469.214.961.372 1.467.473a.072.072 0 01.024.008.064.064 0 01.03.04.065.065 0 01-.02.064.067.067 0 01-.041.017zm-6.655-13.049a47.317 47.317 0 007.269 6.243 13.914 13.914 0 003.933 1.84 7.207 7.207 0 003.895.011 8.408 8.408 0 001.844-.796 16.133 16.133 0 001.798-1.255c1.192-.95 2.382-2.075 3.743-3.13a14.257 14.257 0 012.232-1.431 7.886 7.886 0 012.62-.82 6.433 6.433 0 012.672.23 8.36 8.36 0 012.287 1.106c-.793-.156-1.6-.236-2.409-.239a6.5 6.5 0 00-2.195.424 10.03 10.03 0 00-3.526 2.627c-1.079 1.116-2.123 2.385-3.402 3.572a11.906 11.906 0 01-4.729 2.89 9.43 9.43 0 01-5.758-.114 13.352 13.352 0 01-4.649-2.772 20.867 20.867 0 01-5.625-8.386zm32.293 1.998a14.176 14.176 0 014.843 2.254 20.897 20.897 0 013.947 3.549 20.53 20.53 0 012.955 4.412 15.33 15.33 0 011.572 5.1c-1.337-1.251-2.406-2.551-3.535-3.797l-3.254-3.752-3.249-3.761c-1.088-1.28-2.176-2.567-3.279-4.005zm4.661 10.986a32.453 32.453 0 015.318 5.303 47.67 47.67 0 014.235 6.165 42.302 42.302 0 013.167 6.802 27.297 27.297 0 011.596 7.365c-1.352-2.153-2.514-4.28-3.737-6.382l-3.623-6.292a357.863 357.863 0 01-3.583-6.344c-1.173-2.146-2.33-4.309-3.373-6.617z" fill="#000"/><path d="M210.369 69.74c.47 2.686.805 5.395 1.004 8.115.225 2.707.309 5.463.309 8.16a38.2 38.2 0 001.143 7.67c.594 2.592 1.326 5.184 1.98 7.852.624 2.672 1.329 5.383 1.184 8.505l-.117 1.141-.185 1.063c-.114.72-.289 1.378-.434 2.067a94.35 94.35 0 01-1.036 3.993c-1.463 5.252-3.073 10.4-4.367 15.578a65.191 65.191 0 00-1.54 7.732c-.09.64-.107 1.26-.166 1.891l-.115 2.065c-.112 1.394-.244 2.79-.479 4.185a31.89 31.89 0 01-2.383 8.205 30.504 30.504 0 01-4.641 7.175 34.118 34.118 0 01-1.413 1.571l-.681.726c-.221.229-.43.479-.646.718a52.597 52.597 0 00-2.458 3.085c-1.593 2.131-3.089 4.371-4.637 6.591-1.554 2.216-3.158 4.423-4.952 6.51a34.188 34.188 0 01-2.874 2.986 10.861 10.861 0 01-3.482 2.267 15.411 15.411 0 002.618-3.034c.765-1.093 1.469-2.229 2.176-3.366 1.403-2.282 2.783-4.594 4.227-6.883a166.376 166.376 0 014.523-6.815 55.593 55.593 0 012.522-3.324c.231-.269.45-.543.693-.808l.689-.771c.434-.485.867-.97 1.267-1.477a27.293 27.293 0 004-6.507c.49-1.173.905-2.376 1.241-3.602.329-1.242.584-2.503.763-3.776.198-1.276.298-2.58.389-3.884l.097-1.989c.058-.716.081-1.452.174-2.153a62.99 62.99 0 011.588-8.19c1.328-5.326 2.991-10.504 4.497-15.661a143.54 143.54 0 001.061-3.85c.146-.632.332-1.279.439-1.896l.184-.932.108-.877c.175-2.303-.376-4.945-.945-7.529-.582-2.602-1.269-5.236-1.831-7.933a31.895 31.895 0 01-.858-8.402l.605-8.073c.199-2.697.414-5.401.711-8.118l.048-.002z" fill="#000"/><path d="M169.562 106.195c.042-1.642 1.101-3.255 2.515-4.317a9.677 9.677 0 012.331-1.291c.818-.313 1.744-.52 2.36-.723 2.735-.882 5.398-1.975 8.355-2.966a34.813 34.813 0 014.648-1.206 20.307 20.307 0 015.022-.298 14.416 14.416 0 019.06 3.81 37.656 37.656 0 00-8.866.472 79.295 79.295 0 00-8.27 2.292c-2.881.855-6.064 1.719-9.414 1.697l-.624-.011-.555-.023a11.978 11.978 0 00-1.003.004 9.36 9.36 0 00-1.978.281 7.006 7.006 0 00-1.902.791 5.832 5.832 0 00-1.679 1.488z" fill="#000"/><path d="M169.396 106.028a3.143 3.143 0 01-.58-1.518 4.271 4.271 0 01.101-1.552c.127-.515.356-1 .672-1.425a2.84 2.84 0 011.305-.998 9.821 9.821 0 01-.106 1.523c-.062.441-.148.878-.258 1.31-.111.439-.251.87-.419 1.291-.188.481-.428.94-.715 1.369zm-14.134-.327a7.014 7.014 0 00-3.444-2.52 6.881 6.881 0 00-1.9-.313 10.53 10.53 0 00-.956.033c-.16.013-.319.028-.48.055l-.537.081a30.32 30.32 0 01-4.795.373 33.62 33.62 0 01-4.806-.397c-1.577-.242-3.104-.606-4.512-.937-.707-.151-1.38-.328-2.042-.435a17.58 17.58 0 00-1.965-.285 23.68 23.68 0 00-4.193.051c-1.486.12-3.029.344-4.676.46a16.134 16.134 0 013.818-3.062 14.055 14.055 0 014.799-1.772c.869-.148 1.75-.218 2.632-.21.841.018 1.681.08 2.516.188 1.611.205 3.083.5 4.53.773 2.879.563 5.728 1.053 8.712 1.574l.279.053.333.049a9.2 9.2 0 01.669.117c.448.088.889.212 1.317.37a7.982 7.982 0 012.373 1.343 6.303 6.303 0 012.328 4.411z" fill="#000"/><path d="M155.421 105.527a7.119 7.119 0 01-.778-1.334 10.509 10.509 0 01-.477-1.271c-.13-.426-.236-.859-.318-1.297a9.78 9.78 0 01-.176-1.516 2.825 2.825 0 011.349.937c.336.41.587.884.737 1.393.152.5.21 1.024.173 1.546a3.143 3.143 0 01-.51 1.542zm-28.972 4.163c.85.04 1.701-.009 2.541-.145.183-.036.361-.09.533-.162.067-.032.131-.071.191-.116l.069-.059.096-.091.894-.905a11.308 11.308 0 014.707-2.925 10.419 10.419 0 012.84-.412c.863-.007 1.727-.016 2.59-.004 1.727.016 3.454.067 5.181.172l.413.025.214.2a74.635 74.635 0 012.961 2.915c.482.499.945 1.022 1.414 1.536.454.531.92 1.055 1.324 1.636l-1.794-1.08c-.583-.376-1.177-.739-1.753-1.123a95.802 95.802 0 01-3.405-2.363l.626.225c-1.727.105-3.454.156-5.181.172-.863.012-1.727.002-2.59-.005a10.053 10.053 0 00-2.289.201 12.61 12.61 0 00-4.328 1.975c-.357.236-.697.473-1.116.73l-.167.096-.218.094a2.446 2.446 0 01-.414.108c-.248.032-.498.04-.747.023a7.728 7.728 0 01-2.592-.718zm12.523-8.397a6.998 6.998 0 01-1.132 1.15c-.388.327-.8.624-1.232.89-.834.554-1.836.753-2.755 1.135-.919.381-1.828.778-2.729 1.194-.913.394-1.786.875-2.607 1.436l-.141-.142a12.88 12.88 0 012.222-2.143 28.798 28.798 0 012.516-1.762c.863-.542 1.662-1.233 2.647-1.527.49-.166.994-.288 1.506-.363a5.922 5.922 0 011.628-.052l.077.184zm9.353-.441a79.119 79.119 0 002.022 4.02 44.02 44.02 0 001.117 1.961c.38.651.81 1.273 1.286 1.859a15.118 15.118 0 01-1.853-1.369 44.853 44.853 0 01-1.732-1.53 78.57 78.57 0 01-1.672-1.595 75.02 75.02 0 01-1.637-1.649l2.469-1.697zm51.699 8.173a7.743 7.743 0 01-2.592.717c-.249.017-.499.01-.747-.023a2.446 2.446 0 01-.414-.108l-.218-.094-.166-.096c-.42-.257-.76-.494-1.117-.729a12.594 12.594 0 00-4.328-1.976 9.996 9.996 0 00-2.289-.2c-.863.007-1.727.016-2.59.004a100.718 100.718 0 01-5.181-.172l.626-.225a94.504 94.504 0 01-3.405 2.363c-.576.384-1.17.747-1.753 1.123l-1.793 1.08c.404-.58.869-1.105 1.323-1.636.469-.514.932-1.037 1.414-1.536a75.356 75.356 0 012.962-2.915l.213-.2.413-.025c1.727-.105 3.454-.156 5.181-.172.863-.012 1.727-.003 2.59.004.961.006 1.917.145 2.84.412a11.311 11.311 0 014.708 2.925l.893.905.097.092.068.058c.06.045.124.084.192.117.171.071.35.125.532.161.84.136 1.691.185 2.541.146zm-16.16-6.924a6.541 6.541 0 011.903-.735 9.347 9.347 0 011.984-.264c.334-.012.667 0 .999.036.333.031.664.088.988.171.653.15 1.29.376 1.928.559 1.275.402 2.49.973 3.612 1.698a11.568 11.568 0 012.824 2.729l-.15.132a12.393 12.393 0 00-3.154-1.985c-.277-.129-.576-.219-.86-.33-.143-.051-.284-.108-.43-.155l-.444-.119a16.426 16.426 0 00-1.78-.419 14.141 14.141 0 00-1.827-.152l-.91-.059c-.302-.027-.603-.079-.907-.112a27.698 27.698 0 01-3.748-.797l-.028-.198zm-4.518 1.02c-.437.493-.863.93-1.306 1.377-.442.443-.89.876-1.353 1.294a16.528 16.528 0 01-2.963 2.234 15.84 15.84 0 001.755-3.119c.244-.542.469-1.092.684-1.645a30.66 30.66 0 00.595-1.651l2.588 1.51z" fill="#000"/><path d="M185.542 109.025a1.498 1.498 0 100-2.996 1.498 1.498 0 000 2.996zm-45.11.166a1.498 1.498 0 100-2.997 1.498 1.498 0 000 2.997z" fill="#000"/><path d="M136.1 107.104c-.004.106.002.211.019.316a3.942 3.942 0 00.325 1.129c.228.482.557.91.964 1.255a5.584 5.584 0 003.27 1.134 5.894 5.894 0 001.809-.167 3.777 3.777 0 001.551-.854 4.296 4.296 0 001.014-1.519c.119-.295.213-.6.28-.911.033-.332.121-.656.26-.959.164.313.214.673.143 1.018a5.96 5.96 0 01-.175 1.02 4.426 4.426 0 01-2.772 3.092 7.004 7.004 0 01-2.097.442 7.045 7.045 0 01-4.274-.888 5.623 5.623 0 01-1.7-1.647 6.084 6.084 0 01-.785-1.622 4.03 4.03 0 01-.155-.66l2.323-.179zm56.101-.743c-.01.223-.033.444-.07.664a7.942 7.942 0 01-.123.599 7.052 7.052 0 01-.408 1.156 5.635 5.635 0 01-1.499 2.01c-.649.53-1.415.9-2.235 1.077a7.275 7.275 0 01-2.313.122 6.71 6.71 0 01-4.122-1.728 4.838 4.838 0 01-1.179-1.915 2.893 2.893 0 01-.032-2.151c.287.681.423 1.298.706 1.878a3.944 3.944 0 001.173 1.428 5.658 5.658 0 003.523.93 4.32 4.32 0 003.147-1.123c.373-.385.655-.848.825-1.356.092-.264.162-.535.207-.811.023-.138.044-.278.055-.416.012-.121.017-.242.014-.364h2.331z" fill="#000"/><path d="M130.444 110.023c.167.15.367.257.584.312.21.08.425.149.642.212.425.142.861.254 1.288.372.799.242 1.62.407 2.451.492.777.046 1.706.032 2.58.033l2.668-.01c1.773-.014 3.573.01 5.277-.079.198-.024.427-.023.606-.054l.283-.038.359-.066a10.595 10.595 0 014.236.158c-.897.271-1.768.511-2.599.819-.415.149-.819.308-1.205.479l-.289.134-.373.138c-.256.097-.478.148-.723.218-1.822.405-3.683.61-5.55.614-.92.017-1.839-.008-2.76-.065a19.706 19.706 0 01-2.833-.353 6.255 6.255 0 01-1.429-.549 10.73 10.73 0 01-1.232-.738 12.341 12.341 0 01-1.118-.882 8.17 8.17 0 01-.504-.515 2.828 2.828 0 01-.223-.29.596.596 0 01-.136-.342zm65.585-.998a9.914 9.914 0 01-1.938 2.1 7.34 7.34 0 01-2.654 1.446 8.54 8.54 0 01-1.508.243c-.478.044-.946.067-1.414.085-.935.027-1.865.019-2.794-.028a28.398 28.398 0 01-5.565-.777c-.443-.112-1.009-.31-1.288-.406a4.15 4.15 0 00-1.174-.135 9.788 9.788 0 00-2.639.468 6.169 6.169 0 012.435-1.56 4.493 4.493 0 011.558-.257c.628.035.944.098 1.41.114 1.755.108 3.572.148 5.369.23l2.698.118c.448.024.896.041 1.333.054.408.021.817.021 1.224-.002a9.165 9.165 0 002.408-.623c.841-.3 1.665-.693 2.539-1.07zm-43.279 25.634c-.332.952-.615 1.92-.847 2.901-.238.94-.365 1.906-.378 2.876-.005.436.053.871.174 1.29.123.375.317.723.571 1.024.238.247.539.423.871.509.395.13.902.237 1.416.394 1.06.31 2.073.765 3.01 1.351l1.282.834c.406.258.812.508 1.217.722.389.211.79.396 1.202.556.384.14.783.239 1.188.294.899.087 1.805.071 2.7-.05.43-.028.857-.089 1.278-.184a4.596 4.596 0 001.067-.439c.383-.225.75-.478 1.096-.757.442-.356.912-.676 1.406-.957a6.94 6.94 0 01.86-.392l.454-.143c.15-.045.253-.067.379-.101.482-.127.949-.241 1.396-.381a6.996 6.996 0 002.318-1.095 2.126 2.126 0 00.832-1.862c-.008-.18-.044-.448-.076-.7l-.093-.754-.191-1.492a22.214 22.214 0 00-.523-2.918 5.46 5.46 0 00-.526-1.343 1.557 1.557 0 00-1.109-.847 1.697 1.697 0 011.424.603c.356.398.656.842.891 1.322a18.93 18.93 0 011.107 2.909c.152.491.28.985.414 1.475l.198.732c.065.243.133.47.199.789.13.64.097 1.303-.094 1.928a4.1 4.1 0 01-1.034 1.678 8.434 8.434 0 01-2.965 1.779c-.506.195-1.007.367-1.496.519-.115.038-.257.077-.347.112l-.263.099c-.173.078-.34.167-.502.266-.37.243-.723.509-1.06.797-.43.366-.886.7-1.365 1a6.981 6.981 0 01-1.715.732c-.563.139-1.135.231-1.712.276a13.63 13.63 0 01-3.341-.006 8.324 8.324 0 01-1.73-.489 10.495 10.495 0 01-1.515-.775 19.805 19.805 0 01-1.342-.896l-1.198-.903a11.067 11.067 0 00-2.401-1.331c-.438-.179-.907-.337-1.451-.581a4.33 4.33 0 01-.839-.492 3.25 3.25 0 01-.699-.762 4.126 4.126 0 01-.421-.84 4.623 4.623 0 01-.241-.88 5.407 5.407 0 01.017-1.722c.189-1.042.516-2.055.974-3.011.429-.932.943-1.824 1.533-2.664zm-7.996 23.982a4.95 4.95 0 001.106.444c.41.12.829.207 1.253.26.213.031.428.049.644.062.209.009.435.022.68.04.473.032.926.079 1.382.124l5.427.495c1.807.14 3.612.274 5.411.356.9.042 1.796.068 2.683.083.872.006 1.786-.026 2.672-.067a46.71 46.71 0 002.666-.211 32.319 32.319 0 012.782-.182 36.686 36.686 0 005.245-.63 57.967 57.967 0 002.606-.512 21.46 21.46 0 002.48-.671 5.11 5.11 0 00.524-.217c.146-.065.288-.178.262-.147a.148.148 0 00-.019.035.221.221 0 00-.018.034c-.007.017-.009.028.004-.003.036-.075.07-.151.11-.224a2.636 2.636 0 01.986-1.02 3.292 3.292 0 011.57-.454 3.42 3.42 0 011.497.243c.03.011.055.032.073.057a.166.166 0 01-.06.243l-.013.006a8.952 8.952 0 00-2.09 1.267 1.763 1.763 0 00-.357.49l-.033.084-.032.073-.055.111a1.876 1.876 0 01-.114.175 2.68 2.68 0 01-.814.672c-.23.131-.467.248-.71.351a25.076 25.076 0 01-5.461 1.41c-.914.145-1.83.262-2.754.342-.935.093-1.874.132-2.814.119a30.206 30.206 0 00-2.648.087c-.904.064-1.842.116-2.762.125a41.115 41.115 0 01-5.513-.262 222.034 222.034 0 01-5.419-.671c-1.801-.21-3.6-.464-5.395-.608a20.137 20.137 0 00-1.332-.056l-.679.009c-.237-.003-.475-.004-.713-.017-.48-.025-.958-.076-1.433-.151a8.463 8.463 0 01-.72-.151 5.955 5.955 0 01-.76-.234l-.004-.002a.723.723 0 01-.402-.394.751.751 0 01-.004-.563.734.734 0 011.065-.35z" fill="#000"/><path d="M151.418 160.627a41.773 41.773 0 017.271-2.099c.629-.114 1.253-.227 1.924-.285.16-.021.344-.026.521-.035.091-.003.176-.01.271-.01l.333.024.931.112c1.144.13 2.299.139 3.445.027a7.026 7.026 0 001.557-.325l.458-.156a7.436 7.436 0 011.601-.328 9.133 9.133 0 011.046-.036l.94.026c.627.019 1.254.051 1.88.091 1.254.076 2.508.212 3.76.379.626.106 1.252.197 1.874.341a6.953 6.953 0 011.818.609 11.076 11.076 0 00-1.866.036c-.62.048-1.241.095-1.86.158l-3.715.309-1.858.132-.929.059a7.491 7.491 0 00-.818.089 6.89 6.89 0 00-.766.171 4.65 4.65 0 00-.362.12l-.42.165c-.673.24-1.373.4-2.084.475-1.338.13-2.687.077-4.01-.159l-.493-.094c-.153-.032-.37-.086-.422-.085l-.132-.023-.196-.011c-.134-.006-.262-.019-.413-.015-.574-.003-1.19.025-1.798.052-2.456.116-4.952.306-7.488.286z" fill="#000"/><path d="M149.131 160.197a4.947 4.947 0 012.701.477c.794.394 1.565.834 2.309 1.316a17.647 17.647 0 012.147 1.603 8.461 8.461 0 011.788 2.028c-.783-.446-1.571-.8-2.348-1.181l-2.34-1.107a94.16 94.16 0 01-2.322-1.143 5.598 5.598 0 01-2.022-1.799l.087-.194zm17.934 6.423a10.865 10.865 0 003.196-1.231 26.16 26.16 0 002.787-1.864l2.711-2.097c.461-.352.939-.698 1.436-1.032a8.087 8.087 0 011.707-.898.71.71 0 01.836.309.703.703 0 01-.131.881l-.076.069c-.723.66-1.581 1.533-2.478 2.282a20.071 20.071 0 01-2.924 2.108 13.334 13.334 0 01-3.395 1.455 6.596 6.596 0 01-3.669.018zm47.292-63.921a1.282 1.282 0 01.194-1.396l.701-.975c.464-.652.912-1.316 1.352-1.982.876-1.336 1.724-2.686 2.476-4.073l.554-1.04.515-1.05c.152-.354.321-.705.46-1.06l.204-.533.102-.266.148-.357a4.1 4.1 0 01.417-.753c.114-.138.24-.273.369-.401.167-.14.35-.26.545-.358.228-.093.468-.153.713-.18.231 0 .461.026.686.08.184.059.364.132.537.218.139.084.276.173.41.266.409.327.769.71 1.069 1.14.268.37.511.76.727 1.162a24.166 24.166 0 011.882 4.767c.464 1.61.827 3.249 1.085 4.905.262 1.653.428 3.321.496 4.994a27.774 27.774 0 01-.207 5.034v.003l-.033.27-.092.187a460.459 460.459 0 01-3.351 6.707c-1.144 2.227-2.279 4.443-3.554 6.647a27.306 27.306 0 01-2.178 3.206 16.495 16.495 0 01-2.772 2.811 8.223 8.223 0 01-3.727 1.72 6.297 6.297 0 01-4.053-.808.663.663 0 01-.262-.887.668.668 0 01.878-.292l.01.005a4.85 4.85 0 003.167.471 6.63 6.63 0 002.892-1.556 19.601 19.601 0 004.169-5.704c1.103-2.172 2.12-4.449 3.13-6.711a457.085 457.085 0 002.961-6.832l-.124.456v-.002c.096-1.546.182-3.096.168-4.655a40.045 40.045 0 00-.306-4.669 36.01 36.01 0 00-.858-4.596 21.745 21.745 0 00-1.536-4.293 5.86 5.86 0 00-1.074-1.57.53.53 0 01-.093-.073c-.02-.01-.016 0-.02-.018.009.003.06.022.087-.003a.161.161 0 00.128-.032c.022.01.048-.036.039-.027a.09.09 0 01-.048.039 1.947 1.947 0 00-.177.3l-.096.198-.128.296-.257.59c-.174.39-.373.76-.559 1.14a35.922 35.922 0 01-1.246 2.172 50.477 50.477 0 01-2.847 4.037 72.396 72.396 0 01-1.541 1.912l-.794.935a1.251 1.251 0 01-1.338.484zm-103.888 4.328c-.21.093-.44.131-.669.11a1.352 1.352 0 01-.636-.232l-.865-.681a54.187 54.187 0 01-1.683-1.42 41.734 41.734 0 01-3.168-3.085 29.364 29.364 0 01-2.79-3.504c-.205-.32-.422-.628-.615-.957l-.568-.997c-.14-.267-.3-.521-.48-.761a1.416 1.416 0 00-.213-.233c-.05-.047-.09-.038.036.011.169.047.35.026.503-.059.083-.058.041-.034.007.036a3.46 3.46 0 00-.263.703 12.796 12.796 0 00-.33 1.925 35.154 35.154 0 00-.144 4.167c.024 1.408.102 2.822.215 4.236.113 1.414.27 2.826.35 4.248l-.125-.456a447.108 447.108 0 002.962 6.833c1.01 2.262 2.027 4.54 3.131 6.712a19.618 19.618 0 004.166 5.711 6.558 6.558 0 002.895 1.55 4.832 4.832 0 003.165-.474.67.67 0 01.883.283.668.668 0 01-.257.891 6.272 6.272 0 01-4.051.811 8.18 8.18 0 01-3.733-1.715 16.465 16.465 0 01-2.769-2.815 27.521 27.521 0 01-2.176-3.208c-1.275-2.204-2.41-4.421-3.555-6.648a454.554 454.554 0 01-3.351-6.708l-.086-.177-.039-.28v-.001a38.823 38.823 0 01-.364-4.384 70.22 70.22 0 01-.035-4.423c.029-1.497.142-2.992.338-4.477.105-.786.272-1.562.498-2.322.136-.452.328-.885.572-1.29.185-.302.432-.562.725-.763a1.89 1.89 0 01.721-.288c.271-.043.549-.025.812.053.358.114.682.314.944.583.181.18.344.378.486.591.234.352.439.721.615 1.105l.466.906c.16.3.347.591.519.888a34.087 34.087 0 002.433 3.397 48.993 48.993 0 002.834 3.157 52.317 52.317 0 001.522 1.494l.786.721a1.408 1.408 0 01.381 1.236zm-3.798-70.058a37.408 37.408 0 00-7.03 4.462 15.871 15.871 0 00-2.758 2.86 6.789 6.789 0 00-1.349 3.27c-.02.65-.006 1.3.04 1.947l.115 2.12.23 4.276c.157 2.858.26 5.728.28 8.609.022 2.88-.039 5.772-.283 8.68a43.399 43.399 0 01-.575 4.375 18.938 18.938 0 01-1.321 4.409 6.408 6.408 0 01-1.545 2.14l-.298.227-.266.165c-.174.114-.362.208-.546.305a7.416 7.416 0 01-3.608.807 8.239 8.239 0 01-2.35-.458 10.067 10.067 0 01-3.814-2.463 11.392 11.392 0 01-2.418-3.638c1.729 2.277 4.115 4.01 6.668 4.538a6.175 6.175 0 003.627-.33c.272-.121.533-.263.781-.426.123-.085.248-.163.363-.26l.176-.137.119-.11c.368-.4.656-.866.847-1.375a16.54 16.54 0 00.922-3.836c.18-1.356.307-2.741.382-4.135.15-2.792.155-5.616.119-8.446-.04-2.83-.138-5.669-.22-8.517l-.138-4.284a76.184 76.184 0 01-.036-2.16 19.13 19.13 0 01.076-2.334 8.88 8.88 0 012.086-4.461 17.015 17.015 0 013.41-3.052 27.955 27.955 0 013.84-2.202 30.11 30.11 0 014.08-1.607.56.56 0 01.685.73.559.559 0 01-.27.3l-.021.01z" fill="#000"/><path d="M79.008 84.555c-.058.018-.04.089-.032.135a.978.978 0 00.05.153c.04.1.086.199.136.294.101.193.213.38.33.563.23.368.473.726.73 1.075.513.693 1.07 1.352 1.668 1.972a16.252 16.252 0 003.895 3.11 7.467 7.467 0 004.35 1.005c.354-.04.705-.11 1.047-.209l.535-.164c.175-.058.34-.133.51-.197a5.981 5.981 0 001.754-1.134 9.236 9.236 0 002.207-3.752c.254-.743.46-1.526.655-2.319.17-.804.353-1.613.482-2.446a95.34 95.34 0 001.09-10.25c.222-3.476.355-6.955.515-10.474a83.073 83.073 0 011.049-10.59c.299-1.8.81-3.559 1.522-5.24a11.29 11.29 0 011.44-2.42 8.412 8.412 0 012.127-1.9 9.814 9.814 0 012.573-1.103c.881-.224 1.78-.374 2.686-.447a33.38 33.38 0 015.318.083.311.311 0 01.284.325.309.309 0 01-.316.294 32.642 32.642 0 00-5.173.273c-.834.125-1.656.32-2.458.584a8.546 8.546 0 00-2.168 1.108 7.274 7.274 0 00-1.672 1.689 9.707 9.707 0 00-1.112 2.153 21.313 21.313 0 00-1.112 4.904c-.779 6.81-.331 13.83-.478 20.879a90.305 90.305 0 01-.637 10.678 24.98 24.98 0 01-1.333 5.428 11.486 11.486 0 01-3.446 4.96 9.066 9.066 0 01-2.767 1.486c-.245.073-.49.155-.736.215l-.737.16a8.511 8.511 0 01-1.556.115 9.387 9.387 0 01-5.533-2.024 15.778 15.778 0 01-3.693-4.088c-.48-.759-.91-1.549-1.289-2.364a14.167 14.167 0 01-.51-1.238 8.141 8.141 0 01-.19-.644 3.283 3.283 0 01-.065-.33 1.127 1.127 0 01-.012-.169c.003-.05.006-.136.072-.14z" fill="#000"/><path d="M95.624 92.748c.102.582.147 1.052.197 1.575.044.51.067 1.02.086 1.53a26.36 26.36 0 01-.13 3.059 21.074 21.074 0 01-1.52 6.026 15.608 15.608 0 01-1.526 2.799l-1.624 2.351a30.46 30.46 0 00-2.633 4.724 19.806 19.806 0 00-1.421 10.35c.012.223.043.445.093.662l.127.661.25 1.324.75 2.616.97 2.572c.376.841.783 1.673 1.172 2.512.191.423.406.835.643 1.234l.684 1.218.682 1.22.734 1.277a53.56 53.56 0 012.62 5.293 36.544 36.544 0 011.875 5.638c.487 1.945.748 3.939.777 5.944a16.748 16.748 0 01-1.01 5.975 11.87 11.87 0 01-1.433 2.703 12.17 12.17 0 01-.95 1.197c-.171.188-.361.359-.54.539a5.293 5.293 0 01-.566.506 11.89 11.89 0 01-2.532 1.615 14.67 14.67 0 01-2.793.965 18.846 18.846 0 01-5.77.447 21.17 21.17 0 005.583-1.079c.88-.306 1.728-.7 2.529-1.176a11.945 11.945 0 002.153-1.687c.167-.152.323-.317.465-.493.144-.173.3-.335.436-.515.272-.357.52-.731.745-1.119a10.98 10.98 0 001.058-2.457 14.85 14.85 0 00.521-5.351c-.247-3.638-1.467-7.192-3.023-10.55a50.754 50.754 0 00-2.677-4.902l-.746-1.186-.756-1.268-.756-1.269c-.262-.418-.502-.85-.718-1.294a33.332 33.332 0 01-3.931-11.331 24.007 24.007 0 01-.227-3.074c.003-.517-.013-1.034.01-1.551l.153-1.549c.265-2.059.817-4.07 1.64-5.975a30.731 30.731 0 012.965-5.292l1.665-2.362c.484-.7.905-1.441 1.258-2.216a17.802 17.802 0 001.405-5.044 26 26 0 00.19-2.675c.004-.448.005-.896-.013-1.343-.02-.431-.05-.917-.096-1.282l-.006-.048a1.498 1.498 0 012.961-.444zm2.706 75.792c-.052.089-.11.175-.172.258-.057.069-.096.104-.146.158-.097.106-.185.18-.274.261-.18.165-.355.302-.532.449a50.53 50.53 0 01-1.06.821l-2.125 1.567c-1.406 1.043-2.79 2.104-4.103 3.221a26.47 26.47 0 00-3.596 3.538 7.699 7.699 0 00-1.183 1.917 1.83 1.83 0 00-.049 1.5c.036.046.07.093.102.143.031.06.07.115.116.165.111.135.23.265.353.388.268.266.552.514.852.743.64.489 1.317.927 2.025 1.311a29.468 29.468 0 004.593 2.009 41.708 41.708 0 009.889 2.164c3.334.307 6.743.202 9.757-.766.381-.114.733-.26 1.106-.403l1.118-.512c.376-.165.743-.352 1.096-.561.358-.202.724-.391 1.077-.602.679-.465 1.399-.873 2.037-1.397.326-.251.663-.49.982-.749l.928-.816c.313-.267.61-.553.89-.855.284-.297.584-.58.856-.888.516-.635 1.079-1.24 1.53-1.921a18.533 18.533 0 002.349-4.251l.421-1.134c.109-.385.198-.775.3-1.163.045-.195.111-.388.14-.585l.079-.592c.067-.394.112-.791.134-1.19l.017-1.195c-.015-.398-.05-.795-.106-1.19l-.057-.597c-.023-.199-.086-.39-.127-.586l-.271-1.176-.029-.123a1.237 1.237 0 01.861-1.465 1.239 1.239 0 011.509.781 16.19 16.19 0 01.997 5.639c-.003.48-.032.959-.088 1.436l-.064.719c-.024.239-.086.47-.129.705-.096.469-.183.941-.292 1.407l-.429 1.364a21.38 21.38 0 01-2.575 5.041 24.37 24.37 0 01-1.706 2.241c-.304.356-.637.686-.955 1.03-.313.347-.645.677-.994.989l-1.038.944c-.357.301-.731.581-1.097.871-.721.599-1.533 1.07-2.305 1.597-.4.242-.814.462-1.221.693-.403.238-.82.453-1.248.645l-1.277.59c-.447.176-.91.365-1.37.507-1.818.564-3.7.894-5.601.982-1.847.096-3.7.044-5.54-.155a43.832 43.832 0 01-10.618-2.587 32.372 32.372 0 01-4.978-2.399 17.626 17.626 0 01-2.337-1.647 11.665 11.665 0 01-1.082-1.048 8.03 8.03 0 01-.501-.615 6.75 6.75 0 01-.483-.807 4.023 4.023 0 01-.32-1.922 5 5 0 01.445-1.691 9.554 9.554 0 011.697-2.478 27.834 27.834 0 014.146-3.606c1.457-1.05 2.951-2.016 4.452-2.953l2.244-1.39 1.104-.688c.175-.116.36-.234.517-.351.08-.059.166-.119.223-.171l.088-.073c.003-.006.01-.007.025-.008l.706-.021a.358.358 0 01.315.173.352.352 0 01.002.36zm5.481-140.082a62.906 62.906 0 015.494-5.525 82.77 82.77 0 016.036-4.963A89.316 89.316 0 01128.66 9.7a91.395 91.395 0 017.204-3.195c2.46-.93 4.956-1.79 7.501-2.493a57.78 57.78 0 0115.654-2.266h.465l.29.184c2.659 1.633 5.143 3.372 7.593 5.225a84.744 84.744 0 017.024 5.928 51.34 51.34 0 016.149 6.88 24.134 24.134 0 014.119 8.337.634.634 0 01-1.225.33l-.005-.014a22.721 22.721 0 00-4.209-7.65 49.528 49.528 0 00-6.207-6.37 82.268 82.268 0 00-7.078-5.471c-2.447-1.694-4.999-3.318-7.558-4.742l.754.184a118.316 118.316 0 00-15.067 2.214c-2.485.552-4.936 1.26-7.367 2.04a91.98 91.98 0 00-7.161 2.749 92.977 92.977 0 00-13.546 7.326 83.77 83.77 0 00-12.179 9.562z" fill="#000"/><path d="M162.131 3.01c.274-.172.451-.264.673-.381.211-.11.422-.21.635-.307a15.385 15.385 0 013.981-1.168 14.609 14.609 0 015.537.227c.449.11.902.241 1.332.386.418.141.826.29 1.231.443.807.308 1.594.637 2.376.974a90.747 90.747 0 014.603 2.162 93.458 93.458 0 018.836 5.024 49.59 49.59 0 014.186 3.015c.689.556 1.35 1.147 1.977 1.772.68.66 1.283 1.393 1.799 2.186l.376.647-.203.549a78.3 78.3 0 01-1.595 3.958 69.655 69.655 0 01-1.8 3.846 38.623 38.623 0 01-2.11 3.697 12.273 12.273 0 01-2.816 3.218.179.179 0 01-.243-.027.18.18 0 01.009-.245l.006-.006a11.653 11.653 0 002.151-3.433 37.424 37.424 0 001.453-3.846 68.593 68.593 0 001.14-3.965 76.65 76.65 0 00.918-4l.173 1.196a9.827 9.827 0 00-1.381-1.661 22.472 22.472 0 00-1.747-1.563 46.683 46.683 0 00-3.927-2.827 90.49 90.49 0 00-8.547-4.858 87.502 87.502 0 00-4.45-2.09 57.92 57.92 0 00-2.251-.923c-.375-.141-.75-.278-1.121-.404-.361-.121-.709-.22-1.07-.31a11.6 11.6 0 00-4.396-.179 12.402 12.402 0 00-3.196.937c-.167.076-.332.154-.491.237a6.87 6.87 0 00-.416.232l-.039.024a1.497 1.497 0 11-1.594-2.537h.001z" fill="#000"/><path d="M196.322 21.7l6.136-3.893.788-.5 1.051.755a194.148 194.148 0 0110.003 9.476c1.612 1.648 3.198 3.329 4.708 5.145.376.457.743.935 1.114 1.402l.535.757c.192.26.37.53.532.809a20.112 20.112 0 011.508 3.442c.789 2.254 1.362 4.496 1.909 6.746.536 2.248.999 4.502 1.422 6.76.843 4.516 1.55 9.049 2.119 13.598.278 2.278.525 4.56.707 6.864.09 1.152.166 2.312.204 3.484.044 1.089.117 2.183.246 3.28a72.692 72.692 0 002.858 13.049 83.551 83.551 0 005.001 12.464c2.01 3.998 4.096 7.939 7.035 11.437l-.124.147a20.994 20.994 0 01-5.149-4.687 39.241 39.241 0 01-3.883-5.783 81.83 81.83 0 01-5.506-12.723 72.043 72.043 0 01-3.283-13.533 46.07 46.07 0 01-.326-3.525 73.215 73.215 0 00-.255-3.331 158.949 158.949 0 00-.812-6.712 234.419 234.419 0 00-2.238-13.371 103.982 103.982 0 00-3.265-12.986c-.324-.97-.733-1.91-1.223-2.807a6.086 6.086 0 00-.404-.618l-.446-.64c-.336-.426-.658-.855-1.003-1.279-1.39-1.695-2.92-3.342-4.482-4.957A189.972 189.972 0 00207 25.198a264.85 264.85 0 00-4.923-4.654l1.839.255-6.848 2.433-.746-1.533zm39.158 91.153a6.35 6.35 0 013.886 2.279 7.568 7.568 0 011.708 4.431l.017.611c-.004.212-.045.455-.072.682a8.219 8.219 0 01-.339 1.189 18.182 18.182 0 01-.918 2.081c-.672 1.317-1.391 2.567-2.092 3.816a78.597 78.597 0 00-3.875 7.484c-1.078 2.503-1.864 5.18-1.509 7.595a6.475 6.475 0 001.398 3.235c.392.476.837.906 1.327 1.282.218.189.545.425.836.645.296.221.587.456.875.694 1.19.953 2.28 2.026 3.251 3.202a9.93 9.93 0 012.099 4.364c.259 1.63.051 3.3-.6 4.816a19.151 19.151 0 01-2.246 3.936c-.865 1.197-1.793 2.316-2.732 3.416a104.376 104.376 0 01-2.879 3.223.603.603 0 01-.831.056.608.608 0 01-.104-.825l.004-.006c1.705-2.302 3.497-4.545 4.964-6.922 1.465-2.333 2.666-4.924 2.135-7.248a7.956 7.956 0 00-1.737-3.24 19.867 19.867 0 00-2.948-2.739c-.27-.211-.543-.42-.827-.62-.284-.209-.542-.388-.875-.658a10.771 10.771 0 01-1.776-1.678 9.212 9.212 0 01-2.031-4.529 12.857 12.857 0 01.26-4.77 24.07 24.07 0 011.465-4.306 58.12 58.12 0 014.286-7.648c.772-1.211 1.549-2.409 2.248-3.611.348-.58.665-1.177.95-1.789a6.57 6.57 0 00.321-.855c.019-.129.057-.238.072-.383l.02-.465a5.953 5.953 0 00-1.073-3.552 25.049 25.049 0 00-2.658-3.193z" fill="#000"/><path d="M201.587 163.452a54.364 54.364 0 00-.801 5.695 27.649 27.649 0 00.012 5.607c.088.838.29 1.66.601 2.444.073.172.155.339.247.502a16.175 16.175 0 001.088 1.707 10.971 10.971 0 003.926 3.327c1.62.79 3.362 1.3 5.153 1.509 1.865.229 3.747.281 5.622.157a50.895 50.895 0 005.721-.666c1.895-.31 3.771-.73 5.617-1.257a18.696 18.696 0 004.997-2.166 5.234 5.234 0 001.599-1.592 2.127 2.127 0 00.227-1.712 3.53 3.53 0 00-.431-.94 7.748 7.748 0 00-.782-.986 38.507 38.507 0 01-1.941-2.402 30.891 30.891 0 01-3.186-5.337 35.887 35.887 0 01-3.142-11.848 42.61 42.61 0 01-.179-6.073c.073-2.011.261-4.017.563-6.007a.666.666 0 01.72-.561.664.664 0 01.599.689l-.001.008c-.092 1.963-.134 3.922-.058 5.871.075 1.941.255 3.876.539 5.798a36.213 36.213 0 003.431 10.915 30.572 30.572 0 003.037 4.785 35.928 35.928 0 001.851 2.181c.396.413.756.859 1.075 1.334a6.5 6.5 0 01.814 1.749c.197.67.258 1.373.178 2.067a5.322 5.322 0 01-.646 1.963 8.178 8.178 0 01-2.511 2.641 21.602 21.602 0 01-5.839 2.646 52.917 52.917 0 01-5.973 1.41 54.136 54.136 0 01-6.086.775c-2.086.139-4.18.076-6.254-.186a19.202 19.202 0 01-6.204-1.849 14.282 14.282 0 01-5.063-4.304 19.163 19.163 0 01-1.306-2.055 8.116 8.116 0 01-.399-.837 12.367 12.367 0 01-.789-3.321 30.596 30.596 0 01.063-6.274c.206-2.039.536-4.064.988-6.064a1.498 1.498 0 012.931.618l-.008.039zm-44.509 4.166a12.52 12.52 0 013.836-1.721 17.625 17.625 0 014.14-.615 15.543 15.543 0 014.198.462 10.02 10.02 0 013.806 1.874c-1.443.003-2.742-.06-4.053-.058-1.308.011-2.593.017-3.893.051l-3.933.092c-1.332.017-2.674.021-4.101-.085z" fill="#000"/><path d="M142.933 119.647c.436-.718.956-1.381 1.549-1.976a17.38 17.38 0 011.753-1.568 18.69 18.69 0 011.933-1.322 11.495 11.495 0 012.266-1.061 6.442 6.442 0 01-1.157 2.293 9.559 9.559 0 01-1.746 1.752c-.65.507-1.36.932-2.113 1.266a6.834 6.834 0 01-2.485.616zm41.483 0a6.844 6.844 0 01-2.485-.616 10.083 10.083 0 01-2.113-1.266 9.559 9.559 0 01-1.746-1.752 6.442 6.442 0 01-1.157-2.293c.792.27 1.551.626 2.266 1.061.671.4 1.317.841 1.933 1.322a17.38 17.38 0 011.753 1.568 10.573 10.573 0 011.549 1.976z" fill="#BB714A"/><path d="M127.146 179.936s8.873 18.125 32.362 18.922c21.916.742 27.071-3.982 27.071-3.982" stroke="#000" stroke-width="5.926" stroke-miterlimit="10" stroke-linecap="round"/><path d="M118.9 187.71a34.17 34.17 0 004.828 8.759 38.763 38.763 0 006.834 7.079 42.92 42.92 0 008.294 5.176 48.942 48.942 0 009.217 3.344 63.312 63.312 0 009.717 1.784 66.59 66.59 0 009.892.446 54.787 54.787 0 009.851-1.211 42.168 42.168 0 009.508-3.214 32.429 32.429 0 01-9.083 4.719l-1.227.406-1.244.351c-.828.25-1.672.424-2.513.624-.841.209-1.697.315-2.548.471-.854.138-1.713.221-2.572.333a60.051 60.051 0 01-20.593-1.631 49.05 49.05 0 01-9.749-3.732 43.461 43.461 0 01-4.483-2.717c-.728-.482-1.419-1.021-2.108-1.557a43.7 43.7 0 01-1.978-1.719 35.463 35.463 0 01-3.571-3.812 35.06 35.06 0 01-2.944-4.286 27.713 27.713 0 01-3.528-9.613z" fill="#000"/><path d="M201.309 182.137l-14.269 10.746v20.307l14.269 7.962v-22.295l-14.332-5.971" stroke="#000" stroke-width="5.185" stroke-linecap="round" stroke-linejoin="round"/><path d="M201.309 198.858l13.048-12.009" stroke="#000" stroke-width="5.185" stroke-miterlimit="10" stroke-linecap="round"/><path d="M201.309 221.152l17.119-17.517V186.11" stroke="#000" stroke-width="5.185" stroke-linecap="round" stroke-linejoin="round"/><path d="M114.322 189.502l7.166 31.451s23.488 1.99 26.275 5.175c2.787 3.185 17.915 28.266 17.915 28.266" stroke="#000" stroke-width="5.926" stroke-linecap="round" stroke-linejoin="round"/><path d="M199.06 220.274c-3.408 4.147-6.901 8.219-10.423 12.267l-5.311 6.045-5.364 6-5.409 5.961a350.647 350.647 0 01-5.463 5.913c-3.706 3.887-7.498 7.698-11.564 11.271 2.991-4.511 6.255-8.784 9.604-12.981a346.607 346.607 0 015.121-6.213l5.174-6.165 5.22-6.126 5.271-6.08c3.535-4.037 7.096-8.049 10.744-11.986a1.595 1.595 0 012.757.951c.034.413-.094.823-.357 1.143z" fill="#000"/><path d="M155.526 267.731c2.191-1.182 4.433-2.21 6.694-3.186 2.258-.984 4.546-1.879 6.842-2.754 4.608-1.7 9.207-3.423 13.831-5.077a953.212 953.212 0 0113.885-4.919c2.318-.81 4.642-1.6 6.973-2.371 2.328-.781 4.654-1.567 6.995-2.309l-.937.856 11.943-26.674a1.599 1.599 0 011.499-.941 1.599 1.599 0 011.138.527l10.749 11.943-.609-.42 24.683 9.555-2.022 2.148-27.479-59.978a1.602 1.602 0 01-.046-1.219 1.577 1.577 0 01.83-.894 1.583 1.583 0 011.219-.045 1.585 1.585 0 01.893.831l27.478 59.979a1.594 1.594 0 01-1.095 2.216 1.6 1.6 0 01-.928-.068l-24.682-9.555a1.615 1.615 0 01-.609-.419l-10.749-11.944 2.637-.414-11.943 26.673a1.581 1.581 0 01-.897.841l-.04.015c-2.304.85-4.623 1.657-6.94 2.468-2.315.818-4.635 1.62-6.961 2.407-4.649 1.578-9.31 3.123-13.982 4.635-4.666 1.531-9.356 2.993-14.037 4.478-2.349.717-4.706 1.415-7.092 2.023-2.384.617-4.786 1.181-7.241 1.592zm-56.834-76.176a1295.172 1295.172 0 01-4.436 12.29l-4.537 12.253c-1.532 4.077-3.04 8.163-4.595 12.231l-4.644 12.212-2.732-2.343 14.75-8.24 14.793-8.167 1.849-1.021.925-.51.115-.064.126-.066a2.136 2.136 0 012.666.64c.18.244.306.524.369.821l.033.151.038.179c.027.122.062.242.106.359.034.124.081.244.142.357.059.116.102.238.169.352a5.75 5.75 0 001.022 1.281 9.366 9.366 0 003.107 1.88c1.228.48 2.504.828 3.806 1.04.651.165 1.338.202 2.011.303.338.04.676.094 1.017.124l1.03.06c.688.023 1.375.118 2.069.115l2.086.026c1.394.015 2.794-.061 4.2-.083 1.404-.075 2.81-.168 4.231-.213-1.364.375-2.74.72-4.123 1.051l-2.096.391c-.701.124-1.399.282-2.11.344a39.341 39.341 0 01-8.648.304l-1.1-.129-.551-.068-.551-.117a15.94 15.94 0 01-2.201-.557 11.289 11.289 0 01-4.194-2.243 8.224 8.224 0 01-1.676-1.944c-.116-.186-.209-.39-.313-.586a3.952 3.952 0 01-.269-.615 5.414 5.414 0 01-.214-.645l-.083-.335-.02-.084c-.004-.017-.02-.09-.008-.022a1.021 1.021 0 00.394.615c.135.102.293.169.461.195.176.028.356.011.524-.048.041-.017.078-.031.115-.049.012-.005.053-.03.038-.021l-.029.017-.114.066-.913.53-1.827 1.061-14.612 8.484-14.655 8.411a1.909 1.909 0 01-2.74-2.322l.009-.021 4.612-12.224c1.53-4.078 3.107-8.137 4.66-12.206l4.72-12.183c1.592-4.054 3.199-8.102 4.82-12.145a1.59 1.59 0 012.041-.895 1.594 1.594 0 01.937 2.023z" fill="#000"/><path d="M119.578 227.549c3.71 5.802 7.113 11.782 10.65 17.68a730.594 730.594 0 0010.839 17.545c3.697 5.789 7.478 11.524 11.469 17.084 1.996 2.78 4.035 5.522 6.173 8.163a63.275 63.275 0 006.82 7.372l.029.025a1.595 1.595 0 01.13 2.246 1.588 1.588 0 01-2.246.135l-.003-.004a65.819 65.819 0 01-7.185-7.79 158.573 158.573 0 01-6.252-8.345c-3.981-5.675-7.738-11.48-11.381-17.348a642.938 642.938 0 01-10.588-17.794c-3.431-5.986-6.869-11.965-9.811-18.228a.775.775 0 01.892-1.079c.19.048.355.167.461.333l.003.005z" fill="#000"/><path d="M192.378 256.388l-37.849 62.546v42.203c-.36-.011-.72-.027-1.08-.049a54.958 54.958 0 01-1.903-.096 1.208 1.208 0 01-.199-.011v-42.493c0-.29.08-.574.231-.822l9.363-15.474.113-.183.048-.086 2.962-4.896.317-.522.059-.096.075-.124.027-.049 24.128-39.87.182-.301v-.005l.801-1.322a1.596 1.596 0 012.254-.495c.239.161.43.384.552.645.021.054.043.102.059.156a1.576 1.576 0 01-.14 1.344zm131.204 13.636c-.199.328-.398.65-.597.978-.069.113-.139.226-.209.333-.07.118-.14.231-.21.344l-.532.855c-.5-.984-.984-1.976-1.451-2.978a66.476 66.476 0 01-2.069-4.982 46.706 46.706 0 01-1.177-3.628c-.85-3.134-1.129-5.993-1.833-8.885a62.091 62.091 0 00-3.612-11.566 35.281 35.281 0 00-2.473-4.687 31.634 31.634 0 00-5.487-6.514 50.155 50.155 0 00-6.982-5.208 141.465 141.465 0 00-3.784-2.344l-1.924-1.15-1.908-1.102a354.02 354.02 0 00-7.885-4.246 588.885 588.885 0 00-5.17-2.682 935.164 935.164 0 00-10.841-5.525l-28.223-14.179-.543-.274-2.107-1.053-.247-.13-1.064-.532a1.552 1.552 0 01-.812-.978 1.621 1.621 0 01-.059-.36 1.567 1.567 0 01.629-1.36 1.584 1.584 0 011.639-.166l.435.209a1314.72 1314.72 0 0115.797 7.643c5.396 2.639 10.792 5.289 16.156 8.003 5.375 2.704 10.734 5.418 16.071 8.213a328.753 328.753 0 017.987 4.289l1.994 1.145 1.935 1.182c1.284.79 2.574 1.591 3.854 2.43a54.284 54.284 0 017.39 5.622 34.962 34.962 0 016.02 7.272 42.344 42.344 0 013.961 8.476l.72 2.198c.258.731.414 1.484.624 2.22.193.742.408 1.483.585 2.23l.484 2.236c.683 2.956 1.032 6.101 1.693 8.783a84.766 84.766 0 002.677 8.39c.177.494.36.989.548 1.478zm-233.464-80.59a49.883 49.883 0 01-6.74 4.305c-2.317 1.29-4.628 2.596-6.955 3.86-2.317 1.289-4.67 2.51-7.009 3.756-2.36 1.199-4.708 2.43-7.073 3.618a2193.111 2193.111 0 00-14.141 7.223l-7.025 3.688-3.488 1.87-1.742.962-1.596.892-.113.07c-1.822 1.043-3.724 2.22-5.547 3.359-1.832 1.156-3.622 2.344-5.32 3.618a39.549 39.549 0 00-4.736 4.122 29.759 29.759 0 00-3.827 4.886 43.567 43.567 0 00-4.934 11.588 84.711 84.711 0 00-1.494 6.261c-.204 1.059-.414 2.113-.591 3.182-.091.543-.167 1.048-.28 1.618l-.349 1.677c.026-.111.037-.225.032-.339l-.048.398v.011l-.452.795a1.58 1.58 0 00.371-.553c.022-.049.038-.097.054-.145a47.029 47.029 0 01-2.3 6.643c-.774 1.843-1.548 3.778-2.446 5.547-.35-.565-.763-1.263-1.107-1.828a333.3 333.3 0 01-.37-.613c-.227-.376-.452-.752-.673-1.128a80.154 80.154 0 001.44-3.29 44.774 44.774 0 002.113-6.272l.005-.016a.273.273 0 01.011-.059l.28-1.419c.102-.5.188-1.08.28-1.618.176-1.091.391-2.187.606-3.279a80.182 80.182 0 011.554-6.524 47.062 47.062 0 015.326-12.518 33.979 33.979 0 014.262-5.45 38.49 38.49 0 012.505-2.365c.44-.382.855-.737 1.311-1.086.457-.365.903-.704 1.36-1.043 1.817-1.343 3.698-2.563 5.58-3.735a182.494 182.494 0 015.718-3.413c.054-.032.102-.059.134-.081l.108-.059.22-.118.43-.237.87-.478 1.742-.946 3.532-1.865 7.078-3.65a1642.43 1642.43 0 0114.222-7.143c2.37-1.187 4.767-2.327 7.148-3.488 2.408-1.118 4.8-2.252 7.235-3.316 2.418-1.086 4.858-2.128 7.299-3.176a48.005 48.005 0 017.53-2.699zm218.216 84.046a1.556 1.556 0 00-.355-.129 1.59 1.59 0 00-1.79.822s-.269.532-.752 1.494c-.022.033-.043.076-.065.113-.021.038-.037.081-.064.124v.005c-.231.473-.522 1.043-.86 1.725-.006.017-.016.033-.022.049-.715 1.429-1.714 3.413-2.897 5.805a1390.927 1390.927 0 00-6.944 14.173c-.005.011-.005.016-.011.021a906.765 906.765 0 00-7.788 16.506 165.06 165.06 0 004.074-3.703c.699-.65 1.392-1.31 2.08-1.978 1.392-2.956 2.892-6.098 4.499-9.427.005-.011.005-.016.011-.022a1404.45 1404.45 0 019.841-19.988l.016-.033c.344-.682.634-1.268.876-1.757a.764.764 0 00.054-.092c.505-1.01.79-1.564.79-1.564a1.598 1.598 0 00-.693-2.144zm-9.084-11.323a91.754 91.754 0 01-2.511 11.302 145.01 145.01 0 01-3.58 10.962c-1.344 3.602-2.817 7.16-4.485 10.637a72.211 72.211 0 01-5.742 10.074c1.034-3.749 2.207-7.388 3.422-11.015a345.957 345.957 0 013.821-10.806 283.984 283.984 0 014.208-10.675c1.492-3.531 3.051-7.041 4.867-10.479zm-182.5-18.333c2.45 4.196 4.872 8.336 7.354 12.437 2.466 4.107 5 8.16 7.603 12.16.643 1.006 1.281 2.015 1.962 2.995l1.98 2.985c1.381 1.946 2.679 3.958 4.093 5.885 2.712 3.953 5.652 7.728 8.459 11.71a79.158 79.158 0 01-10.431-10.166l-1.196-1.38c-.395-.463-.759-.948-1.141-1.422-.759-.95-1.498-1.916-2.246-2.876-1.415-1.976-2.854-3.942-4.152-5.999a109.766 109.766 0 01-7.129-12.71 78.706 78.706 0 01-5.156-13.619zm96.814-11.484c.571-1.92.099-3.755-1.053-4.097-1.152-.343-2.549.936-3.12 2.857-.571 1.92-.1 3.755 1.052 4.097 1.153.343 2.55-.936 3.121-2.857z" fill="#000"/><path d="M57.122 329.184c-.134-.086-.269-.178-.403-.269-.532-.36-1.064-.726-1.596-1.091-.318-.22-.64-.446-.957-.672a187.83 187.83 0 01-15.646-12.287 201.661 201.661 0 01-2.28-2.02c-.848-2.596-1.837-5.821-2.477-7.332a.198.198 0 01-.032-.07c-4.655-11.002-9.863-22.17-14.695-29.948.328.473 2.575 3.698 5.504 7.455.005.005.01.005.005.011 5.037 6.46 12.067 14.485 14.754 12.776l1.516 2.838c.005.005.005.01.01.016l.484.908c0 .005.006.011.011.016l15.802 29.669z" fill="#6E3F19"/><path d="M33.591 304.293a.027.027 0 01-.008-.009.03.03 0 01-.003-.012 1356.715 1356.715 0 00-10.647-21.849c.005-.005 0-.005-.005-.01a1165.966 1165.966 0 00-4.128-8.235 1.594 1.594 0 00-2.129-.704c-.005 0-.005.006-.01.006a1.593 1.593 0 00-.867 1.541c.016.208.073.412.168.598.075.145 7.439 14.657 14.684 29.9.027.07.059.139.096.204.581 1.231 1.15 2.429 1.694 3.596.811.774 1.633 1.542 2.467 2.306a164.5 164.5 0 003.617 3.24 753.64 753.64 0 00-4.929-10.572zm-7.849-42.136c1.755 3.203 3.254 6.479 4.686 9.776a241.003 241.003 0 014.027 9.974 265.737 265.737 0 013.63 10.114c1.147 3.399 2.252 6.812 3.183 10.346a67.78 67.78 0 01-5.498-9.39 117.766 117.766 0 01-4.292-9.94 129.904 129.904 0 01-3.401-10.268 80.798 80.798 0 01-2.335-10.612z" fill="#000"/><path d="M264.121 322.868l-3.585 10.75a187.323 187.323 0 01-29.519 14.722c-6.224 2.795-15.237 5.799-27.352 8.384a188.377 188.377 0 01-35 4.461c-2.123.076-4.255.113-6.396.113h-.296c-6.041-5.332-.511-16.393-.511-16.393s61.81 5.375 102.659-22.037z" fill="#6E3F19"/><path d="M17.419 233.11a30.62 30.62 0 00-5.305 9.416 56.277 56.277 0 00-2.446 10.546c-.274 1.79-.521 3.59-.855 5.401a52.169 52.169 0 01-1.322 5.37A83.74 83.74 0 013.6 274.168a.61.61 0 01-.032.059c-.425-.667-.848-1.338-1.269-2.016l-.064-.102a82.443 82.443 0 003.784-8.75 48.295 48.295 0 001.558-5.144c.409-1.746.737-3.536 1.097-5.321a57.227 57.227 0 012.966-10.55 31.02 31.02 0 015.779-9.234zm289.566 0a30.653 30.653 0 015.305 9.416 56.264 56.264 0 012.445 10.546c.274 1.79.521 3.59.855 5.401a51.867 51.867 0 001.322 5.37 83.641 83.641 0 003.891 10.325l.032.059c.425-.667.848-1.338 1.269-2.016l.064-.102a82.34 82.34 0 01-3.783-8.75 48.213 48.213 0 01-1.559-5.144c-.409-1.746-.737-3.536-1.097-5.321a57.243 57.243 0 00-2.966-10.55 31.042 31.042 0 00-5.778-9.234z" fill="#FFD182"/><path style="mix-blend-mode:color-dodge" d="M208.223 209.461a7.525 7.525 0 100-15.05 7.525 7.525 0 000 15.05z" fill="url(#paint6_radial_663_2)"/><path opacity=".57" d="M237.784 320.719l8.6-1.075 4.081-6.231 2.369-16.881-15.05 24.187z" fill="#FF4507"/><path d="M248.534 303.519l9.903-17.199-1.064 6.214a50.816 50.816 0 00-.678 11.167c.014.288.029.511.042.64l.934 12.078-9.137 2.687v-15.587z" fill="#FF6B00"/><path opacity=".57" d="M241.662 286.862l-3.289 5.402 4.863 10.94-9.431 16.168 18.965-32.51h-11.108z" fill="#FF4507"/><path d="M238.374 292.265l-.423-.952-1.978-4.451-6.714.856a18.5 18.5 0 01-3.385.119l-13.715-2.014a30.41 30.41 0 00-7.888-.124l-5.414.621v13.275l9.211-12.191a142.388 142.388 0 000 31.968l1.078-.256a13.23 13.23 0 014.65-.263l4.296.519a97.108 97.108 0 010-31.697 248.553 248.553 0 0015.713 31.697l4.064-26.279.505-.828z" fill="#FF6B00"/><path d="M238.373 292.264l-.504.829-4.064 26.279 9.431-16.168-4.863-10.94z" fill="#FF6B00"/><path opacity=".22" d="M202.272 278.724l6.854-9.677a.962.962 0 01.736-.401.952.952 0 01.769.334l25.568 11.624c.61.716-.045 1.417-.977 1.539-11.412 1.49-26.59-2.984-31.97-1.935a.961.961 0 01-.561-.05.963.963 0 01-.593-.899.958.958 0 01.174-.535z" fill="#F0C456"/><defs><linearGradient id="paint0_linear_663_2" x1="148.701" y1="64.564" x2="148.701" y2="95.042" gradientUnits="userSpaceOnUse"><stop stop-color="#F7D1A0" stop-opacity="0"/><stop offset=".096" stop-color="#F7D1A0" stop-opacity=".024"/><stop offset=".223" stop-color="#F7D1A0" stop-opacity=".091"/><stop offset=".367" stop-color="#F7D1A0" stop-opacity=".201"/><stop offset=".524" stop-color="#F7D1A0" stop-opacity=".355"/><stop offset=".69" stop-color="#F7D1A0" stop-opacity=".553"/><stop offset=".863" stop-color="#F7D1A0" stop-opacity=".791"/><stop offset=".998" stop-color="#F7D1A0"/></linearGradient><linearGradient id="paint1_linear_663_2" x1="26798.6" y1="10635.2" x2="26798.6" y2="12086.4" gradientUnits="userSpaceOnUse"><stop stop-color="#F7D1A0" stop-opacity="0"/><stop offset=".096" stop-color="#F7D1A0" stop-opacity=".024"/><stop offset=".223" stop-color="#F7D1A0" stop-opacity=".091"/><stop offset=".367" stop-color="#F7D1A0" stop-opacity=".201"/><stop offset=".524" stop-color="#F7D1A0" stop-opacity=".355"/><stop offset=".69" stop-color="#F7D1A0" stop-opacity=".553"/><stop offset=".863" stop-color="#F7D1A0" stop-opacity=".791"/><stop offset=".998" stop-color="#F7D1A0"/></linearGradient><linearGradient id="paint2_linear_663_2" x1="167.898" y1="87.21" x2="167.898" y2="101.126" gradientUnits="userSpaceOnUse"><stop stop-color="#F7D1A0" stop-opacity="0"/><stop offset=".175" stop-color="#E7B889" stop-opacity=".265"/><stop offset=".372" stop-color="#D79F73" stop-opacity=".526"/><stop offset=".559" stop-color="#CB8B61" stop-opacity=".731"/><stop offset=".731" stop-color="#C27D54" stop-opacity=".879"/><stop offset=".882" stop-color="#BD744D" stop-opacity=".968"/><stop offset=".996" stop-color="#BB714A"/></linearGradient><linearGradient id="paint3_linear_663_2" x1="2306.85" y1="5642.33" x2="2306.85" y2="5957.36" gradientUnits="userSpaceOnUse"><stop stop-color="#F7D1A0" stop-opacity="0"/><stop offset=".175" stop-color="#E7B889" stop-opacity=".265"/><stop offset=".372" stop-color="#D79F73" stop-opacity=".526"/><stop offset=".559" stop-color="#CB8B61" stop-opacity=".731"/><stop offset=".731" stop-color="#C27D54" stop-opacity=".879"/><stop offset=".882" stop-color="#BD744D" stop-opacity=".968"/><stop offset=".996" stop-color="#BB714A"/></linearGradient><linearGradient id="paint4_linear_663_2" x1="186.331" y1="133.881" x2="171.232" y2="118.643" gradientUnits="userSpaceOnUse"><stop stop-color="#F7D1A0" stop-opacity="0"/><stop offset=".043" stop-color="#F5CC9B" stop-opacity=".069"/><stop offset=".235" stop-color="#EBB889" stop-opacity=".349"/><stop offset=".419" stop-color="#E3A779" stop-opacity=".582"/><stop offset=".592" stop-color="#DC9A6D" stop-opacity=".763"/><stop offset=".751" stop-color="#D89164" stop-opacity=".893"/><stop offset=".891" stop-color="#D58B5F" stop-opacity=".972"/><stop offset=".996" stop-color="#D4895D"/></linearGradient><linearGradient id="paint5_linear_663_2" x1="20152.7" y1="9328.13" x2="20534.8" y2="9123.75" gradientUnits="userSpaceOnUse"><stop stop-color="#F7D1A0" stop-opacity="0"/><stop offset=".043" stop-color="#F5CC9B" stop-opacity=".069"/><stop offset=".235" stop-color="#EBB889" stop-opacity=".349"/><stop offset=".419" stop-color="#E3A779" stop-opacity=".582"/><stop offset=".592" stop-color="#DC9A6D" stop-opacity=".763"/><stop offset=".751" stop-color="#D89164" stop-opacity=".893"/><stop offset=".891" stop-color="#D58B5F" stop-opacity=".972"/><stop offset=".996" stop-color="#D4895D"/></linearGradient><radialGradient id="paint6_radial_663_2" cx="0" cy="0" r="1" gradientUnits="userSpaceOnUse" gradientTransform="translate(208.223 201.936) scale(7.10485)"><stop offset=".001" stop-color="#FF8807"/><stop offset=".268" stop-color="#C9690E" stop-opacity=".672"/><stop offset=".526" stop-color="#9A4E14" stop-opacity=".384"/><stop offset=".737" stop-color="#783A18" stop-opacity=".176"/><stop offset=".896" stop-color="#632E1B" stop-opacity=".048"/><stop offset=".982" stop-color="#5B291C" stop-opacity="0"/></radialGradient></defs></svg>