<svg width="330" height="972" fill="none" xmlns="http://www.w3.org/2000/svg"><path opacity=".19" d="M278.341 459.967c25.245 134.573 47.287 503.695 47.287 503.695H64.54V821.257c-16.39-178.169 33.326-368.971 38.418-387.915.281-1.025.421-1.543.421-1.543C20.306 413.459.886 345.493.886 345.493l8.242-16.366 67.28-133.592S106 182.632 120.64 178.479l.27-.076 1.543-.42.043-.011a21.01 21.01 0 014.617-.777l.022-.485 1.057-23.249c-6.473-1.079-57.18 21.576-62.575 21.576-5.394 0-10.788-5.394-10.788-5.394l22.656-12.946-8.63-8.63 23.734-14.025-9.71-9.71 20.499-9.709-8.63-14.025c0-4.315 39.918 0 39.918 0l-1.079-8.63-1.079-31.287s-6.473-26.97 6.473-45.31A30.395 30.395 0 01150.32 5.359c.011-.01.033-.022.043-.032 6.543-3.13 14-3.778 20.984-1.824 0 0 .68-.226 1.921-.539 5.934-1.521 24.836-5.146 44.471 3.776 23.735 10.788 22.657 40.995 22.657 40.995 7.552 5.395 3.236 28.05 3.236 28.05l.432.065 7.12 1.014s15.105-10.788 17.262-11.867c2.158-1.08-8.631 12.946-8.631 12.946l5.395 6.473 15.104-6.473-10.789 11.867 3.237 5.394h21.577l-19.419 10.788v11.867l28.05 2.158-30.208 6.473-6.473 14.025.582.367 19.916 12.579h-15.104l-4.315 14.025c4.036.075 8.063.432 12.051 1.068 7.174 1.122 16.161 3.419 22.839 8.134.238.162.475.334.712.507 3.205 2.406 6.474 14.251 9.581 30.714 9.451 50.101 17.391 142.978 17.391 142.978s-21.577 35.601-26.972 47.468c-5.394 11.867-37.76 16.183-37.76 16.183.248.345.485.722.733 1.132 2.859 4.79 5.718 13.669 8.556 25.806 1.284 5.513 2.568 11.705 3.841 18.491z" fill="#885B30"/><path opacity=".16" d="M102.958 433.342c.281-1.025.421-1.543.421-1.543C20.306 413.459.886 345.493.886 345.493l8.243-16.366c8.329 5.405 21.955 11.748 35.99 7.735 22.657-6.473 46.392-16.183 46.392-16.183l21.578 106.805a73.784 73.784 0 01-10.131 5.858z" fill="#885B30"/><path d="M112.01 210.639l6.474-2.158 7.062-7.675a3.928 3.928 0 013.387-1.29 3.912 3.912 0 012.998 2.036l4.893 9.087a4.222 4.222 0 014.078 3.125l6.711 24.924 2.825 1.606a5.648 5.648 0 012.84 4.444c.946 11.238 3.573 50.515-5.665 53.286-10.789 3.237-35.603 10.788-35.603-4.315 0-15.104-3.236-52.863-3.236-52.863l3.236-30.207zm-32.366 0s7.552 65.785 7.552 90.622v5.394l-10.789 1.079-16.183 9.709s-9.71-15.104-25.893-15.104l45.313-91.7zm73.364 110.04l1.078 10.789s7.553-4.316 10.789-4.316c3.237 0 77.679-4.315 77.679-4.315l10.789-11.867-6.473-67.966-5.394-20.498s-2.158 76.597-4.316 76.597-84.152 21.576-84.152 21.576z" fill="#250F08"/><path opacity=".55" d="M165.954 175.037s-16.183 36.681-18.341 51.784v11.867s5.395 1.079 5.395 12.946c0 11.867 1.078 20.498 0 34.523-1.079 14.025 12.946-46.39 12.946-46.39l11.868 9.71s8.631-77.676 25.893-77.676h53.944c-1.079 0-79.837-6.473-91.705 3.236z" fill="#250F08"/><path d="M272.763 126.49l-6.473 14.025.582.367c-10.821-1.931-26.044-4.542-41.58-6.84-27.522-4.078-43.489 10.141-45.161 11.727 7.929-7.897 48.452-45.257 57.029-59.196a367.523 367.523 0 016.905-10.723l7.12 1.014s15.105-10.788 17.262-11.867c2.158-1.08-8.631 12.946-8.631 12.946l5.395 6.473 15.104-6.473-10.789 11.867 3.237 5.394h21.578l-19.42 10.788v11.867l28.051 2.158-30.209 6.473z" fill="#170000"/><path opacity=".55" d="M177.822 164.249s15.104-21.577 46.391-18.34v17.261l-46.391 1.079z" fill="#250F08"/><path opacity=".16" d="M153.008 169.643l-25.872 7.067 1.057-23.249 24.815 16.182z" fill="#885B30"/><path d="M91.512 312.049s3.236 110.04 21.577 115.435c0 0 12.947-30.208 0-94.937l-10.789 8.63s-9.71-2.157-10.788-29.128z" fill="#250F08"/><path d="M99.064 307.733l8.631-7.551s-6.246-46.504-4.316-47.469a4.302 4.302 0 002.158-4.315c0-2.413 1.079-38.838 6.473-37.759 5.395 1.079 2.158 38.838 2.158 38.838s-3.237 11.867 1.079 15.103c4.315 3.237 0 33.444 11.868 32.365 11.867-1.079 21.577-5.394 20.498 1.079-1.079 6.473-45.313 43.153-45.313 43.153s-16.183-10.788-3.236-33.444z" fill="#3C220E"/><path d="M302.26 176.688c-32.183-.486-53.232 33.951-53.232 33.951-1.424-25.698 17.456-37.231 30.392-42.085 7.174 1.122 16.161 3.419 22.84 8.134z" fill="#250F08"/><path opacity=".16" d="M138.982 70.39s0-7.551 15.104-5.393l-1.078-7.552h-14.026V70.39zm47.471 0s0-7.551-20.499-5.393l1.464-7.552h19.035V70.39zm-28.051-38.837s37.761 0 44.234 38.838c0 0 5.394-12.946 0-22.656-5.394-9.709-25.893-24.813-44.234-16.182zM112.01 443.666s-7.552 220.081 25.893 304.23c0 0 46.392-170.455 42.077-224.397 0 0 23.735 181.244-22.657 284.812-46.392 103.567-65.811-108.962-65.811-156.431 0-47.468 20.498-208.214 20.498-208.214zm91.705 60.415s24.814 325.806-31.288 467.133h40.998s34.524-231.948-9.71-467.133zm126.228-153.194s-21.577 35.601-26.972 47.468c-5.394 11.867-37.76 16.183-37.76 16.183.248.345.485.722.733 1.132 2.859 4.79 5.718 13.669 8.556 25.806-7.897 5.038-13.605 8.663-13.605 8.663l-83.073 6.473-5.395-24.813-7.552-94.937 84.153-9.71 15.104-20.497-10.789-77.676c26.325-37.198 44.245-42.247 57.181-30.207 9.451 50.1 19.419 152.115 19.419 152.115z" fill="#885B30"/><path d="M278.341 459.967c-16.5 1.276-87.573 6.354-87.573 6.354-11.867 37.76-23.735 62.573-37.76 80.913 15.104-59.336 4.315-117.593 12.946-203.899 0 0 5.394 104.646 10.789 105.725 5.394 1.079 34.524 0 52.865-9.709 14.802-7.833 24.857-19.883 36.336-23.681 4.165 6.97 8.319 22.58 12.397 44.297z" fill="#250F08"/><path opacity=".16" d="M133.588 121.096l14.025-16.183h18.341s22.459 16.612 24.176 34.198l-24.176 19.744s-32.366-21.577-32.366-37.759z" fill="#885B30"/><path d="M172.427 153.461l-6.473 16.182s-29.13-25.892-43.155-28.049c-14.025-2.158-45.313 15.103-45.313 15.103l-8.63-8.63 23.735-14.025-9.71-9.71 20.498-9.709-8.63-14.025c0-4.315 39.918 0 39.918 0 4.315 15.104 4.315 20.498 4.315 20.498a62.093 62.093 0 013.237 12.946c1.079 7.552 30.208 19.419 30.208 19.419z" fill="#170000"/><path opacity=".16" d="M135.746 113.544c.95 2.217 11.867-15.104 11.867-15.104h14.026s20.498 11.868 25.893 23.735c0 0 0-14.025-1.079-15.104-1.079-1.079-22.657-15.104-22.657-15.104h-18.341s-12.946 14.025-9.709 21.577z" fill="#885B30"/><path d="M162.831 389.593s-42.19 6.604-54.057-12.814c-5.308-8.685 0 17.261 0 17.261s32.366 18.34 56.101 3.771c12.376-7.596-2.044-8.218-2.044-8.218z" fill="#250F08"/><path opacity=".16" d="M157.323 364.911H121.72c-2.573-6.473-1.134-12.946 4.316-19.419h35.603l-4.316 19.419z" fill="#885B30"/><path d="M173.269 2.964l-14.867 26.431s-19.42 9.71-22.656 20.498c0 0-3.215-31.901 14.575-44.534.011-.01.033-.022.043-.032 6.543-3.13 14-3.778 20.985-1.824 0 0 .679-.226 1.92-.54z" fill="#250F08"/></svg>