<svg width="330" height="972" fill="none" xmlns="http://www.w3.org/2000/svg"><path opacity=".19" d="M51.675 459.967C26.429 594.54 4.388 963.662 4.388 963.662h261.088V821.257c16.388-178.169-33.326-368.971-38.419-387.915l-.421-1.543c83.074-18.34 102.494-86.307 102.494-86.307l-8.243-16.365-67.279-133.592s-29.593-12.903-44.234-17.056l-.269-.076-1.543-.42-.043-.011a20.96 20.96 0 00-4.618-.777l-.021-.486-1.058-23.248c6.474-1.079 57.181 21.576 62.575 21.576 5.395 0 10.789-5.394 10.789-5.394l-22.656-12.946 8.631-8.63-23.736-14.025 9.71-9.71-20.499-9.709 8.631-14.025c0-4.315-39.918 0-39.918 0l1.079-8.63 1.079-31.287s6.473-26.97-6.473-45.31a30.396 30.396 0 00-11.339-10.012c-.011-.01-.033-.022-.044-.032a29.935 29.935 0 00-20.984-1.824s-.68-.226-1.92-.539c-5.934-1.521-24.836-5.146-44.472 3.776C88.54 17.528 89.619 47.735 89.619 47.735c-7.552 5.395-3.237 28.05-3.237 28.05l-.431.065-7.12 1.014S63.725 66.076 61.567 64.997c-2.157-1.08 8.631 12.946 8.631 12.946l-5.394 6.473L49.7 77.943 60.489 89.81l-3.236 5.394H35.675l19.42 10.788v11.867l-28.05 2.158 30.208 6.473 6.473 14.025-.583.367-19.916 12.579h15.105l4.315 14.025a86.736 86.736 0 00-12.05 1.068c-7.175 1.122-16.163 3.419-22.84 8.134-.238.162-.476.334-.713.507-3.204 2.406-6.473 14.251-9.58 30.714C8.013 258.01.072 350.887.072 350.887s21.578 35.601 26.972 47.468c5.395 11.867 37.76 16.183 37.76 16.183-.247.345-.485.722-.733 1.132-2.859 4.79-5.718 13.669-8.555 25.806-1.284 5.513-2.568 11.705-3.841 18.491z" fill="#885B30"/><path opacity=".16" d="M227.057 433.342c-.281-1.025-.421-1.543-.421-1.543 83.074-18.34 102.493-86.306 102.493-86.306l-8.242-16.366c-8.329 5.405-21.955 11.748-35.992 7.735-22.656-6.473-46.391-16.183-46.391-16.183l-21.578 106.805a73.843 73.843 0 0010.131 5.858z" fill="#885B30"/><path d="M218.005 210.639l-6.473-2.158-7.063-7.676a3.922 3.922 0 00-6.385.747l-4.893 9.087a4.222 4.222 0 00-4.078 3.125l-6.711 24.924-2.825 1.606a5.648 5.648 0 00-2.84 4.444c-.946 11.238-3.572 50.515 5.665 53.286 10.789 3.237 35.603 10.788 35.603-4.315 0-15.104 3.237-52.863 3.237-52.863l-3.237-30.207zm32.366 0s-7.552 65.785-7.552 90.621v5.395l10.789 1.078 16.183 9.71s9.71-15.104 25.893-15.104l-45.313-91.7zm-73.363 110.04l-1.079 10.789s-7.552-4.316-10.789-4.316-77.679-4.315-77.679-4.315L76.672 310.97l6.474-67.966 5.394-20.498s2.158 76.597 4.316 76.597c2.157 0 84.152 21.576 84.152 21.576z" fill="#250F08"/><path opacity=".55" d="M164.061 175.037s16.183 36.68 18.341 51.784v11.867s-5.394 1.079-5.394 12.946c0 11.867-1.079 20.498 0 34.523 1.079 14.025-12.947-46.39-12.947-46.39l-11.867 9.71s-8.631-77.676-25.893-77.676H72.357c1.079 0 79.837-6.473 91.704 3.236z" fill="#250F08"/><path d="M57.252 126.49l6.474 14.025-.583.367c10.821-1.932 26.044-4.542 41.58-6.84 27.522-4.078 43.49 10.141 45.162 11.727-7.93-7.897-48.453-45.257-57.03-59.196a367.243 367.243 0 00-6.904-10.723l-7.121 1.014S63.726 66.075 61.568 64.997c-2.158-1.08 8.631 12.945 8.631 12.945l-5.394 6.474L49.7 77.941 60.49 89.81l-3.237 5.394H35.675l19.42 10.788v11.867l-28.051 2.158 30.208 6.473z" fill="#170000"/><path opacity=".55" d="M152.194 164.249s-15.105-21.577-46.392-18.34v17.261l46.392 1.079z" fill="#250F08"/><path opacity=".16" d="M177.008 169.643l25.871 7.066-1.057-23.248-24.814 16.182z" fill="#885B30"/><path d="M238.504 312.049s-3.237 110.04-21.578 115.435c0 0-12.946-30.208 0-94.938l10.789 8.631s9.71-2.158 10.789-29.128z" fill="#250F08"/><path d="M230.952 307.733l-8.631-7.551s6.245-46.504 4.315-47.469a4.314 4.314 0 01-2.158-4.315c0-2.413-1.079-38.838-6.473-37.759-5.394 1.079-2.158 38.838-2.158 38.838s3.237 11.867-1.079 15.103c-4.315 3.237 0 33.444-11.867 32.365-11.868-1.079-21.578-5.394-20.499 1.079 1.079 6.473 45.313 43.153 45.313 43.153s16.183-10.788 3.237-33.444z" fill="#3C220E"/><path d="M27.756 176.688c32.183-.486 53.232 33.951 53.232 33.951 1.424-25.698-17.457-37.231-30.392-42.085-7.175 1.122-16.162 3.419-22.84 8.134z" fill="#250F08"/><path opacity=".16" d="M191.033 70.39s0-7.551-15.104-5.393l1.079-7.552h14.025V70.39zm-47.47 0s0-7.551 20.498-5.393l-1.464-7.552h-19.034V70.39zm28.051-38.837s-37.761 0-44.235 38.838c0 0-5.394-12.946 0-22.656 5.395-9.71 25.894-24.813 44.235-16.182zm46.391 412.113s7.552 220.081-25.893 304.23c0 0-46.392-170.455-42.076-224.397 0 0-23.735 181.244 22.656 284.812 46.392 103.567 65.812-108.962 65.812-156.431 0-47.468-20.499-208.214-20.499-208.214zm-91.704 60.414s-24.815 325.807 31.287 467.134h-40.997s-34.524-231.949 9.71-467.134zM.072 350.887s21.577 35.601 26.972 47.468c5.394 11.867 37.76 16.183 37.76 16.183a17.19 17.19 0 00-.733 1.132c-2.86 4.79-5.718 13.669-8.556 25.806 7.898 5.038 13.605 8.663 13.605 8.663l83.074 6.473 5.394-24.813 7.552-94.937-84.152-9.71-15.105-20.497 10.79-77.676c-26.326-37.198-44.246-42.247-57.181-30.207C10.04 248.872.072 350.887.072 350.887z" fill="#885B30"/><path d="M51.675 459.967c16.5 1.276 87.572 6.354 87.572 6.354 11.868 37.76 23.735 62.573 37.761 80.913-15.105-59.336-4.316-117.593-12.947-203.899 0 0-5.394 104.646-10.789 105.725-5.394 1.079-34.524 0-52.865-9.709-14.802-7.833-24.857-19.883-36.336-23.681-4.164 6.97-8.318 22.58-12.396 44.297z" fill="#250F08"/><path opacity=".16" d="M196.427 121.096l-14.025-16.183h-18.341s-22.459 16.612-24.176 34.198l24.176 19.744s32.366-21.577 32.366-37.759z" fill="#885B30"/><path d="M157.588 153.461l6.473 16.182s29.13-25.892 43.155-28.049c14.026-2.158 45.313 15.103 45.313 15.103l8.631-8.63-23.735-14.025 9.71-9.71-20.499-9.709 8.631-14.025c0-4.315-39.918 0-39.918 0-4.316 15.104-4.316 20.498-4.316 20.498a62.028 62.028 0 00-3.236 12.946c-1.079 7.552-30.209 19.419-30.209 19.419z" fill="#170000"/><path opacity=".16" d="M194.27 113.544c-.95 2.217-11.868-15.104-11.868-15.104h-14.025s-20.499 11.868-25.893 23.735c0 0 0-14.025 1.079-15.104 1.078-1.079 22.656-15.104 22.656-15.104h18.341s12.946 14.025 9.71 21.577z" fill="#885B30"/><path d="M167.184 389.593s42.19 6.604 54.058-12.814c5.307-8.685 0 17.261 0 17.261s-32.367 18.34-56.102 3.771c-12.375-7.596 2.044-8.218 2.044-8.218z" fill="#250F08"/><path opacity=".16" d="M172.692 364.911h35.603c2.573-6.473 1.134-12.946-4.315-19.419h-35.603l4.315 19.419z" fill="#885B30"/><path d="M156.747 2.964l14.866 26.431s19.42 9.71 22.657 20.498c0 0 3.215-31.901-14.576-44.534-.011-.01-.032-.022-.043-.032a29.935 29.935 0 00-20.984-1.824s-.68-.226-1.92-.54z" fill="#250F08"/></svg>