<svg width="1496" height="795" fill="none" xmlns="http://www.w3.org/2000/svg"><path opacity=".61" d="M1421.95 182.518V795H1277.8V268.026l144.15-85.508z" fill="#26160C"/><path d="M1409.06-11.926h-104.31L1195.16 93.203l-.05.046-10.02 9.617h320.07v-18.6l-96.1-96.192zM846.666 102.597l-.281.269h.293l-.012-.269zm-636.382.152l-.176.176h.387l-.211-.176z" fill="#190800"/><path d="M1505.16-78.692V84.265l-96.1-96.19h-104.31L1195.16 93.202l82.64-120.356-435.986 12.885 4.852 116.865-.282.269h.293l1.36 32.798H547.924l-21.495-32.739h319.908L731.646-11.925H646.09l-119.661 114.85-85.438-130.078H57.748l152.536 129.902-.176.176h.387l38.453 32.739H-25.463V-78.692H1505.16z" fill="#1F0000"/><path d="M236 268v209.5M1243.5 268v209.5" stroke="#885B30" stroke-opacity=".15" stroke-width="3"/><path d="M1505.16 102.866v32.798c-12.89 7.028-227.36 132.362-227.36 132.362h-202.67l41.74-60.793h262.94l118.32-71.569h-332.12l22.52-32.798h316.63zM404.378 268.026H201.904s-50.607-29.576-104.143-60.793h235.231l71.386 60.793zm449.155 0h-218.67l-39.93-60.793h256.081l2.519 60.793z" fill="#1F0000"/><path opacity=".52" d="M634.862 268.026H404.378l-71.386-60.793h261.941l39.929 60.793zm-86.938-132.362H248.948l-38.453-32.739h315.888L411.691-11.925h-85.556L210.284 102.748 57.748-27.153h383.243l85.438 130.078 21.495 32.739zm568.946 71.569l-41.74 60.793H853.534l-2.52-60.793h265.856zM1277.8-27.153l-82.64 120.356-.05.047-10.02 9.616h3.43l-22.51 32.798H848.037l-1.36-32.798h338.363L1070.35-11.926H966.045L846.666 102.597l-4.853-116.865L1277.8-27.153z" fill="#1F0000"/><path opacity=".52" d="M1195.11 93.25l-6.58 9.616h-3.44l10.02-9.617z" fill="#1F0000"/><path opacity=".55" d="M851.014 207.233H594.933l-47.009-71.569h300.113l2.977 71.569z" fill="#2C1A0F"/><path d="M594.933 207.233H332.992l-84.044-71.569h298.976l47.009 71.569z" fill="#1F0000"/><path opacity=".55" d="M332.992 207.233H97.761c-56.655-33.055-116.59-67.949-123.224-71.569h274.411l84.044 71.569z" fill="#2C1A0F"/><path d="M1166.01 135.664l-49.14 71.569H851.014l-2.977-71.569h317.973z" fill="#1F0000"/><path opacity=".55" d="M1498.13 135.664l-118.32 71.569h-262.94l49.14-71.569h332.12zm-651.793-32.739H526.429L646.09-11.925h85.556l114.691 114.85zm-319.954 0H210.495l-.211-.176L326.135-11.925h85.556l114.692 114.85z" fill="#2C1A0F"/><path d="M210.495 102.925h-.387l.176-.176.211.176z" fill="#220D08"/><path opacity=".55" d="M1185.04 102.866H846.677l-.011-.269L966.045-11.925h104.305l114.69 114.791z" fill="#2C1A0F"/><path d="M846.677 102.866h-.293l.282-.269.011.269z" fill="#220D08"/><path opacity=".55" d="M1523.75 102.866h-338.66l10.02-9.616.05-.047 109.59-105.129h104.31l96.1 96.192 18.59 18.6z" fill="#2C1A0F"/><path opacity=".55" d="M1086.76 360.562H946.121v372.489h140.639V360.562z" fill="#220D08"/><path opacity=".2" d="M1086.76 360.563H946.121v372.488h11.72V372.276h128.919v360.775h11.72V360.563h-11.72z" fill="#331A0F"/><path d="M1277.8 677.998H201.904v55.053H1277.8v-55.053z" fill="#1F0000"/><path opacity=".61" d="M57.748 183.5V795h144.156V268.026L57.748 183.5z" fill="#26160C"/></svg>