<svg width="375" height="687" viewBox="0 0 375 687" fill="none" xmlns="http://www.w3.org/2000/svg">
<path opacity="0.61" d="M384.247 140.749V685.5H343.202L343.202 186.747L384.247 140.749Z" fill="#26160C"/>
<path d="M380.452 36.7563H350.752L319.548 93.3082L319.535 93.3334L316.681 98.5065H407.816V88.5005L380.452 36.7563ZM220.321 98.3616L220.241 98.5065H220.325L220.321 98.3616ZM39.1243 98.4434L39.0742 98.5381H39.1843L39.1243 98.4434Z" fill="#190800"/>
<path d="M407.816 0.840332V88.5004L380.452 36.7563H350.752L319.548 93.3081L343.077 28.5649L218.94 35.496L220.321 98.3615L220.241 98.5064H220.325L220.712 116.149H135.261L129.141 98.5379H220.228L187.572 36.7563H163.212L129.141 98.5379L104.814 28.5649H-4.30712L39.1243 98.4434L39.0742 98.5379H39.1843L50.1331 116.149H-28V0.840332H407.816Z" fill="#1F0000"/>
<path d="M46.4465 187.337L46.4933 408M333.312 187.337V408" stroke="#885B30" stroke-opacity="0.15" stroke-width="0.86"/>
<path d="M407.816 98.5063V116.149C404.145 119.93 343.077 187.351 343.077 187.351H285.374L297.257 154.649H372.123L405.814 116.149H311.249L317.659 98.5063H407.816Z" fill="#1F0000"/>
<path d="M94.389 187.351H36.7385C36.7385 187.351 22.3292 171.441 7.08569 154.649H74.0631L94.389 187.351Z" fill="#1F0000"/>
<path d="M222.277 187.351H160.015L148.646 154.649H221.56L222.277 187.351Z" fill="#1F0000"/>
<path opacity="0.52" d="M160.015 187.351H94.3888L74.063 154.649H148.646L160.015 187.351Z" fill="#1F0000"/>
<path opacity="0.52" d="M135.261 116.149H50.1331L39.1843 98.538H129.127L96.4711 36.7563H72.1108L39.1243 98.4435L-4.30713 28.5649H104.814L129.141 98.538L135.261 116.149Z" fill="#1F0000"/>
<path opacity="0.52" d="M297.257 154.649L285.374 187.351H222.277L221.56 154.649H297.257Z" fill="#1F0000"/>
<path opacity="0.52" d="M343.077 28.5649L319.548 93.3081L319.535 93.3333L316.681 98.5065H317.659L311.249 116.149H220.712L220.325 98.5065H316.668L284.012 36.7563H254.312L220.321 98.3615L218.94 35.4961L343.077 28.5649Z" fill="#1F0000"/>
<path opacity="0.52" d="M319.535 93.3333L317.659 98.5064H316.681L319.535 93.3333Z" fill="#1F0000"/>
<path opacity="0.55" d="M221.56 154.649H148.646L135.261 116.149H220.712L221.56 154.649Z" fill="#2C1A0F"/>
<path d="M148.645 154.649H74.0629L50.1331 116.149H135.261L148.645 154.649Z" fill="#1F0000"/>
<path opacity="0.55" d="M74.0629 154.649H7.08549C-9.04569 136.867 -26.1112 118.096 -28 116.149H50.1331L74.0629 154.649Z" fill="#2C1A0F"/>
<path d="M311.249 116.149L297.257 154.649H221.56L220.712 116.149H311.249Z" fill="#1F0000"/>
<path opacity="0.55" d="M405.813 116.149L372.123 154.649H297.257L311.249 116.149H405.813Z" fill="#2C1A0F"/>
<path opacity="0.55" d="M220.228 98.538H129.141L163.212 36.7563H187.572L220.228 98.538Z" fill="#2C1A0F"/>
<path opacity="0.55" d="M129.127 98.538H39.1843L39.1243 98.4435L72.1108 36.7563H96.4711L129.127 98.538Z" fill="#2C1A0F"/>
<path d="M39.1838 98.5379H39.0742L39.124 98.4434L39.1838 98.5379Z" fill="#220D08"/>
<path opacity="0.55" d="M316.668 98.5065H220.325L220.321 98.3616L254.312 36.7563H284.012L316.668 98.5065Z" fill="#2C1A0F"/>
<path d="M220.324 98.5068H220.241L220.321 98.3616L220.324 98.5068Z" fill="#220D08"/>
<path opacity="0.55" d="M413.108 98.5065H316.681L319.535 93.3334L319.548 93.3082L350.752 36.7563H380.452L407.816 88.5005L413.108 98.5065Z" fill="#2C1A0F"/>
<path opacity="0.55" d="M288.684 237.129H248.64V437.502H288.684V237.129Z" fill="#220D08"/>
<path opacity="0.2" d="M288.684 237.129H251.976H248.639V243.43V437.502H251.976V243.43H288.684V437.502H292.021V243.43V237.129H288.684Z" fill="#331A0F"/>
<path d="M343.078 407.887H36.7385V437.502H343.078V407.887Z" fill="#1F0000"/>
<path opacity="0.61" d="M-4.30713 129.882L-4.30713 686.5H36.7383V175.351L-4.30713 129.882Z" fill="#26160C"/>
</svg>
