<svg width="375" height="692" viewBox="0 0 375 692" fill="none" xmlns="http://www.w3.org/2000/svg">
<path d="M124.147 57.7128L-49.6156 174.65V343.78L124.147 126.422V57.7128Z" fill="url(#paint0_linear_194_476)" fill-opacity="0.3"/>
<path opacity="0.38" d="M372.362 425.703H-87.4802V655.257H372.362V425.703Z" fill="#250F08"/>
<path opacity="0.4" d="M371.041 -7.03223H123.941V425.703H371.041V-7.03223Z" fill="#2D1B0C"/>
<path d="M205.207 425.703H-26.6965V433.631H205.207V425.703Z" fill="#250F08"/>
<path d="M618.14 -5.71085H372.362V642.401H618.14V-5.71085Z" fill="#170000"/>
<path d="M177.458 -5.71085H153.012V425.703H177.458V-5.71085Z" fill="#170000"/>
<path opacity="0.11" d="M632.391 286.963C627.766 296.213 568.343 324.806 568.423 325.943C570.002 349.627 597.328 639.626 590.391 691.95L410.398 675.434C410.398 675.434 415.684 491.109 420.969 454.772C424.874 427.929 432.386 369.718 436.04 341.138C436.608 336.678 437.083 332.939 437.44 330.158C437.856 326.92 438.101 324.965 438.141 324.661C438.144 324.648 438.146 324.635 438.147 324.621L410.398 312.729L399.827 312.069L392.559 301.498C392.559 301.498 378.738 296.536 372.639 283.759C370.791 279.874 369.826 275.628 369.812 271.325C369.789 269.706 369.883 268.088 370.096 266.483C370.684 261.904 372.23 256.124 374.371 249.702C384.307 219.972 407.095 176.632 407.095 176.632L417.666 167.383C417.666 167.383 417.005 166.062 417.666 160.776C418.188 156.588 417.884 141.194 417.732 134.991C417.692 133.365 417.666 132.368 417.666 132.368C417.666 131.707 399.827 129.065 399.827 129.065L422.951 125.761L424.273 119.155L412.38 109.245L432.201 112.548L435.504 109.245L425.594 96.692L440.79 103.299L449.379 101.317L443.433 86.1214L458.629 99.3347H464.575C464.575 99.3347 464.225 97.5905 463.941 94.8025C463.881 94.1748 463.835 93.6397 463.802 93.2169C463.789 93.0187 463.776 92.8469 463.762 92.7016C463.756 92.5563 463.742 92.4374 463.736 92.3448C463.729 92.2789 463.729 92.2127 463.723 92.1401C463.28 85.2295 463.643 74.7118 468.539 66.9622C476.467 54.4095 491.663 55.0702 491.663 55.0702H498.931C498.931 55.0702 515.448 53.0882 522.716 63.6588C530.248 74.6127 529.984 96.6921 529.984 96.6921H534.608C534.608 96.6921 549.144 85.4608 553.108 84.1394L541.876 99.3347L547.822 101.317L568.964 96.6921L557.733 109.245L563.679 111.887L580.857 109.245L568.964 119.815L570.946 124.44C570.946 124.44 592.749 126.422 590.107 126.422C587.464 126.422 575.571 132.368 575.571 132.368L577.91 135.836C579.445 136.748 580.911 137.77 582.297 138.895C587.18 142.793 594.52 150.312 595.392 160.776C596.165 170.244 598.164 179.571 601.338 188.524C601.338 188.524 611.024 211.146 618.695 230.43C623.214 241.781 627.033 251.975 627.766 255.714C628.604 259.359 629.666 262.948 630.944 266.463C631.241 267.348 631.532 268.233 631.803 269.125C633.765 275.382 635.067 281.618 632.391 286.963Z" fill="#885B30"/>
<path opacity="0.19" d="M331.511 347.817C346.971 430.228 360.469 656.275 360.469 656.275H200.581V569.067C190.546 459.958 220.99 343.113 224.109 331.512C224.281 330.884 224.366 330.567 224.366 330.567C173.493 319.336 161.601 277.714 161.601 277.714L166.648 267.692L207.849 185.882C207.849 185.882 225.972 177.98 234.937 175.437L235.103 175.391L236.047 175.133L236.074 175.126C236.996 174.863 237.944 174.703 238.902 174.651L238.915 174.353L239.562 160.116C235.598 159.455 204.546 173.329 201.242 173.329C197.939 173.329 194.635 170.026 194.635 170.026L208.51 162.098L203.224 156.813L217.759 148.224L211.813 142.278L224.366 136.332L219.081 127.743C219.081 125.101 243.526 127.743 243.526 127.743L242.866 122.458L242.205 103.299C242.205 103.299 238.241 86.7823 246.169 75.551C247.93 72.9548 250.319 70.8458 253.113 69.42C253.12 69.4134 253.133 69.4068 253.14 69.4002C257.146 67.4836 261.713 67.0868 265.99 68.2837C265.99 68.2837 266.406 68.1449 267.166 67.9534C270.8 67.0218 282.375 64.802 294.4 70.2657C308.935 76.8723 308.274 95.3709 308.274 95.3709C312.899 98.6742 310.256 112.548 310.256 112.548L310.521 112.588L314.881 113.209C314.881 113.209 324.131 106.602 325.452 105.942C326.774 105.281 320.167 113.87 320.167 113.87L323.47 117.833L332.72 113.87L326.113 121.137L328.095 124.44H341.309L329.417 131.047V138.314L346.595 139.635L328.095 143.599L324.131 152.188L324.488 152.413L336.684 160.116H327.434L324.792 168.705C327.264 168.751 329.73 168.969 332.172 169.359C336.565 170.046 342.069 171.453 346.159 174.34C346.304 174.439 346.449 174.545 346.595 174.651C348.557 176.124 350.559 183.378 352.462 193.46C358.249 224.141 363.112 281.018 363.112 281.018C363.112 281.018 349.898 302.819 346.595 310.087C343.291 317.354 323.47 319.997 323.47 319.997C323.622 320.208 323.768 320.439 323.92 320.69C325.67 323.624 327.421 329.061 329.159 336.493C329.945 339.869 330.731 343.662 331.511 347.817Z" fill="#885B30"/>
<path opacity="0.16" d="M224.109 331.512C224.28 330.884 224.366 330.567 224.366 330.567C173.493 319.336 161.601 277.714 161.601 277.714L166.648 267.692C171.749 271.002 180.093 274.887 188.689 272.429C202.564 268.465 217.099 262.519 217.099 262.519L230.313 327.925C228.343 329.283 226.268 330.482 224.109 331.512Z" fill="#885B30"/>
<path d="M229.652 195.131L233.616 193.81L237.941 189.109C238.198 188.821 238.52 188.598 238.881 188.461C239.243 188.323 239.631 188.275 240.015 188.32C240.399 188.364 240.766 188.501 241.086 188.718C241.405 188.935 241.668 189.226 241.851 189.566L244.848 195.131C245.417 195.131 245.969 195.319 246.421 195.665C246.872 196.011 247.197 196.496 247.345 197.045L251.455 212.309L253.185 213.292C253.674 213.57 254.088 213.963 254.391 214.437C254.694 214.912 254.877 215.452 254.924 216.013C255.503 222.896 257.112 246.948 251.455 248.645C244.848 250.627 229.652 255.252 229.652 246.002C229.652 236.753 227.67 213.63 227.67 213.63L229.652 195.131Z" fill="#250F08"/>
<path d="M209.831 195.131C209.831 195.131 214.456 235.417 214.456 250.627V253.93L207.849 254.591L197.939 260.537C197.939 260.537 191.993 251.288 182.082 251.288L209.831 195.131Z" fill="#250F08"/>
<path d="M254.758 262.519L255.419 269.126C255.419 269.126 260.044 266.483 262.026 266.483C264.008 266.483 309.596 263.84 309.596 263.84L316.202 256.573L312.238 214.951L308.935 202.398C308.935 202.398 307.613 249.306 306.292 249.306C304.971 249.306 254.758 262.519 254.758 262.519Z" fill="#250F08"/>
<path opacity="0.55" d="M262.687 173.329C262.687 173.329 252.776 195.792 251.455 205.041V212.309C251.455 212.309 254.758 212.969 254.758 220.237C254.758 227.504 255.419 232.789 254.758 241.378C254.098 249.966 262.687 212.969 262.687 212.969L269.954 218.915C269.954 218.915 275.24 171.347 285.811 171.347H318.846C318.185 171.347 269.954 167.383 262.687 173.329Z" fill="#250F08"/>
<path d="M328.095 143.599L324.131 152.188L324.488 152.413C317.861 151.23 308.539 149.631 299.025 148.224C282.17 145.727 272.392 154.434 271.368 155.405C276.224 150.569 301.04 127.691 306.292 119.155C307.568 117.087 309.028 114.827 310.521 112.588L314.881 113.209C314.881 113.209 324.131 106.602 325.452 105.942C326.774 105.281 320.167 113.869 320.167 113.869L323.47 117.833L332.72 113.869L326.113 121.137L328.095 124.44H341.309L329.417 131.047V138.314L346.595 139.635L328.095 143.599Z" fill="#170000"/>
<path opacity="0.55" d="M269.954 166.723C269.954 166.723 279.204 153.509 298.364 155.491V166.062L269.954 166.723Z" fill="#250F08"/>
<path opacity="0.16" d="M254.758 170.026L238.915 174.353L239.563 160.116L254.758 170.026Z" fill="#885B30"/>
<path d="M217.099 257.234C217.099 257.234 219.081 324.621 230.313 327.925C230.313 327.925 238.241 309.426 230.313 269.786L223.706 275.072C223.706 275.072 217.76 273.75 217.099 257.234Z" fill="#250F08"/>
<path d="M221.724 254.591L227.009 249.966C227.009 249.966 223.185 221.488 224.366 220.897C224.825 220.639 225.196 220.249 225.432 219.778C225.667 219.307 225.757 218.776 225.688 218.254C225.688 216.777 226.349 194.47 229.652 195.131C232.955 195.792 230.973 218.915 230.973 218.915C230.973 218.915 228.991 226.182 231.634 228.164C234.277 230.146 231.634 248.645 238.902 247.984C246.169 247.324 252.116 244.681 251.455 248.645C250.794 252.609 223.706 275.072 223.706 275.072C223.706 275.072 213.795 268.465 221.724 254.591Z" fill="#3C220E"/>
<path d="M346.158 174.34C326.45 174.043 313.56 195.131 313.56 195.131C312.688 179.394 324.25 172.332 332.171 169.359C336.565 170.046 342.069 171.453 346.158 174.34Z" fill="#250F08"/>
<path opacity="0.16" d="M246.169 109.245C246.169 109.245 246.169 104.62 255.419 105.941L254.758 101.317H246.169V109.245Z" fill="#885B30"/>
<path opacity="0.16" d="M275.24 109.245C275.24 109.245 275.24 104.62 262.687 105.941L263.583 101.317H275.24V109.245Z" fill="#885B30"/>
<path opacity="0.16" d="M258.062 85.4609C258.062 85.4609 281.186 85.4609 285.15 109.245C285.15 109.245 288.454 101.317 285.15 95.3709C281.847 89.4249 269.294 80.1756 258.062 85.4609Z" fill="#885B30"/>
<path opacity="0.16" d="M229.652 337.835C229.652 337.835 225.027 472.61 245.509 524.142C245.509 524.142 273.918 419.757 271.276 386.724C271.276 386.724 285.811 497.715 257.401 561.139C228.991 624.563 217.099 494.412 217.099 465.343C217.099 436.274 229.652 337.835 229.652 337.835Z" fill="#885B30"/>
<path opacity="0.16" d="M285.811 374.832C285.811 374.832 301.007 574.352 266.651 660.899H291.757C291.757 660.899 312.899 518.857 285.811 374.832Z" fill="#885B30"/>
<path opacity="0.16" d="M363.112 281.018C363.112 281.018 349.898 302.819 346.595 310.087C343.291 317.354 323.47 319.997 323.47 319.997C323.622 320.208 323.768 320.439 323.92 320.69C325.67 323.624 327.421 329.061 329.159 336.493C324.323 339.579 320.828 341.799 320.828 341.799L269.954 345.763L266.651 330.567L262.026 272.429L313.56 266.483L322.81 253.93L316.203 206.362C332.324 183.583 343.298 180.491 351.219 187.864C357.007 218.545 363.112 281.018 363.112 281.018Z" fill="#885B30"/>
<path d="M331.511 347.817C321.407 348.598 277.882 351.709 277.882 351.709C270.615 374.832 263.347 390.027 254.758 401.258C264.008 364.922 257.401 329.246 262.686 276.393C262.686 276.393 265.99 340.477 269.293 341.138C272.597 341.799 290.435 341.138 301.667 335.192C310.732 330.396 316.89 323.016 323.919 320.69C326.47 324.958 329.013 334.518 331.511 347.817Z" fill="#250F08"/>
<path opacity="0.16" d="M242.866 140.296L251.455 130.386H262.687C262.687 130.386 276.44 140.559 277.492 151.328L262.687 163.419C262.687 163.419 242.866 150.206 242.866 140.296Z" fill="#885B30"/>
<path d="M266.651 160.116L262.687 170.026C262.687 170.026 244.848 154.17 236.259 152.849C227.67 151.527 208.51 162.098 208.51 162.098L203.224 156.813L217.76 148.224L211.813 142.278L224.367 136.332L219.081 127.743C219.081 125.101 243.527 127.743 243.527 127.743C246.169 136.993 246.169 140.296 246.169 140.296C247.113 142.86 247.778 145.518 248.151 148.224C248.812 152.849 266.651 160.116 266.651 160.116Z" fill="#170000"/>
<path opacity="0.16" d="M244.187 135.671C244.769 137.029 251.455 126.422 251.455 126.422H260.044C260.044 126.422 272.597 133.689 275.901 140.957C275.901 140.957 275.901 132.368 275.24 131.707C274.579 131.047 261.365 122.458 261.365 122.458H250.133C250.133 122.458 242.205 131.047 244.187 135.671Z" fill="#885B30"/>
<path d="M260.774 304.721C260.774 304.721 234.938 308.765 227.67 296.873C224.42 291.555 227.67 307.444 227.67 307.444C227.67 307.444 247.491 318.675 262.026 309.754C269.605 305.102 260.774 304.721 260.774 304.721Z" fill="#250F08"/>
<path opacity="0.16" d="M257.401 289.606H235.598C234.023 285.642 234.904 281.678 238.241 277.714H260.044L257.401 289.606Z" fill="#885B30"/>
<path d="M267.166 67.9533L258.062 84.1396C258.062 84.1396 246.17 90.0856 244.188 96.6922C244.188 96.6922 242.219 77.1563 253.114 69.42C253.12 69.4134 253.133 69.4068 253.14 69.4002C257.147 67.4835 261.713 67.0868 265.99 68.2836C265.99 68.2836 266.407 68.1449 267.166 67.9533Z" fill="#250F08"/>
<path d="M438.143 324.661C438.149 324.634 391.901 321.979 372.641 283.759C371.389 279.691 370.444 275.535 369.814 271.325C369.79 269.706 369.885 268.088 370.098 266.483C370.686 261.904 372.232 256.124 374.372 249.702L377.365 262.519C381.926 265.737 387.098 267.985 392.561 269.125C401.811 271.107 477.877 260.537 477.877 260.537L481.755 339.816C481.755 339.816 438.103 324.965 438.143 324.661Z" fill="#351B0B"/>
<defs>
<linearGradient id="paint0_linear_194_476" x1="323.744" y1="-98.9952" x2="-42.4938" y2="267.247" gradientUnits="userSpaceOnUse">
<stop stop-color="#FFD02B"/>
<stop offset="0.963573" stop-color="#F7D496" stop-opacity="0"/>
</linearGradient>
</defs>
</svg>
