<svg width="619" height="116" fill="none" xmlns="http://www.w3.org/2000/svg"><path d="M63.03 83.695c-4.206-2.713-7.088-4.85-8.648-6.41-1.425-1.492-2.442-3.358-3.053-5.596a37.162 37.162 0 01-2.239 2.95 38.761 38.761 0 01-2.034 2.443c-2.239.881-3.9 2.035-4.986 3.46-1.018 1.424-1.526 2.984-1.526 4.68 0 1.356.203 2.611.61 3.764a18.666 18.666 0 001.73 3.256h-18.01c-1.56-5.97-2.679-11.396-3.357-16.28-.61-4.951-.916-10.344-.916-16.178 0-11.531 1.933-23.164 5.8-34.9H4.118c.407.476.678.849.814 1.12.475.882.712 1.967.712 3.256v62.372a5.588 5.588 0 00-.305.712 3.944 3.944 0 01-.204.509c-.746 1.695-1.356 2.95-1.831 3.764h45.38c1.153.34 2.645 1.052 4.477 2.137l-.204-1.73c0-1.56.712-3.425 2.137-5.596 1.831-2.645 4.477-5.223 7.936-7.733zm76.323-21.163c0-9.7-3.323-17.976-9.971-24.827-6.715-6.919-15.5-11.633-26.353-14.143l-25.64 12.515c-3.46 3.46-6.105 7.428-7.937 11.905-1.763 4.409-2.645 8.682-2.645 12.82 0 9.09 2.78 16.72 8.343 22.893 4.206 4.613 9.768 8.378 16.687 11.294 1.56.543 3.358 1.12 5.392 1.73 2.103.678 4.511 1.357 7.225 2.035l23.91-12.108a33.398 33.398 0 004.579-5.19 39.064 39.064 0 003.46-6.104 32.384 32.384 0 002.136-6.41c.543-2.239.814-4.375.814-6.41zm-8.343 7.122c0 3.663-.678 6.885-2.035 9.666-1.357 2.713-3.459 4.816-6.308 6.309a147.27 147.27 0 01-10.074-1.934 90.944 90.944 0 01-9.564-2.747c-8.275-2.781-14.855-6.037-19.74-9.768-5.968-4.545-8.953-9.7-8.953-15.466 0-3.663.78-7.122 2.34-10.378 1.628-3.324 3.663-5.901 6.105-7.733 5.427 1.357 10.005 2.544 13.736 3.561 3.731 1.018 6.682 1.9 8.852 2.646 8.14 2.781 14.211 5.97 18.213 9.564 4.952 4.341 7.428 9.768 7.428 16.28zm83.717 26.963c-.814-.61-1.39-1.085-1.729-1.424-1.221-1.085-1.967-1.967-2.239-2.646l-24.826-49.042c6.105-2.578 11.701-5.664 16.788-9.26 5.223-3.662 8.445-6.783 9.666-9.36h-24.521c.475.881.814 1.831 1.017 2.849.204 1.017.306 1.933.306 2.747 0 2.645-2.375 5.528-7.123 8.648-1.763 1.154-4.104 2.476-7.02 3.969-2.917 1.492-6.478 3.188-10.684 5.087V29.26c.203-.882.407-1.73.61-2.544.272-.814.611-1.424 1.018-1.831h-23.3c1.695 6.105 2.916 11.769 3.662 16.992.34 2.577.611 5.358.814 8.343.204 2.985.306 6.173.306 9.564 0 3.46-.136 6.953-.407 10.48-.272 3.46-.679 6.987-1.221 10.582-1.018 7.19-2.34 12.447-3.968 15.771h23.91a709.99 709.99 0 01-1.119-3.764 36.168 36.168 0 01-.61-3.155 95.28 95.28 0 01-1.73-18.11c0-3.935.305-8.412.916-13.432.068-.746.169-1.594.305-2.543.136-.95.305-2.001.509-3.154l5.901-2.34 19.638 40.8c.203.475.033 1.594-.509 3.358-.068.407-.339 1.187-.814 2.34h26.454zm28.833-71.732h-24.623l1.832 3.357V92.14l-2.646 4.477h24.929l-1.323-3.052V28.548l1.831-3.663zm99.676 58.81c-4.206-2.713-7.089-4.85-8.649-6.41-1.424-1.492-2.442-3.358-3.052-5.596a37.405 37.405 0 01-2.239 2.95 38.762 38.762 0 01-2.035 2.443c-2.238.881-3.9 2.035-4.986 3.46-1.017 1.424-1.526 2.984-1.526 4.68 0 1.356.204 2.611.611 3.764a18.696 18.696 0 001.729 3.256H305.08c-1.56-5.97-2.679-11.396-3.358-16.28-.61-4.951-.915-10.344-.915-16.178 0-11.531 1.933-23.164 5.799-34.9h-22.283c.407.476.679.849.814 1.12.475.882.713 1.967.713 3.256v62.372a5.58 5.58 0 00-.306.712 3.949 3.949 0 01-.203.509c-.746 1.695-1.357 2.95-1.832 3.764h45.38c1.153.34 2.646 1.052 4.477 2.137l-.203-1.73c0-1.56.712-3.425 2.136-5.596 1.832-2.645 4.477-5.223 7.937-7.733zm76.73 12.922l-1.323-6.003V27.632l1.119-2.747h-56.979c-1.831 0-3.357.644-4.578 1.933-1.154 1.22-1.73 2.645-1.73 4.273 0 1.696.475 3.053 1.424 4.07.95 1.018 2.341 1.526 4.172 1.526l1.628-.203-.204-.814c0-.61.102-1.289.306-2.035a7.41 7.41 0 011.119-2.035c.475-.678.984-1.22 1.526-1.628a3.237 3.237 0 012.035-.712h12.413l.306.305c-4.477 2.306-8.106 4.782-10.887 7.428-3.663 3.527-6.444 7.868-8.344 13.023-2.17 6.105-3.256 13.703-3.256 22.792.068 1.425.136 3.256.204 5.495.135 2.17.203 4.409.203 6.715 0 5.562-1.424 8.343-4.273 8.343-.814 0-1.526-.237-2.137-.712-.61-.475-.916-1.051-.916-1.73 0-1.017.441-2 1.323-2.95.882-.95 1.696-1.425 2.442-1.425-1.017-1.9-2.408-2.849-4.172-2.849-1.899 0-3.425.679-4.578 2.035-1.153 1.357-1.73 2.985-1.73 4.884 0 2.103 1.085 3.765 3.256 4.986 1.899.95 4.104 1.424 6.614 1.424 5.63 0 10.276-2.476 13.939-7.427 4.816-6.648 7.224-17.06 7.224-31.237l.611-.407h23.402v32.661l-2.34 6.003h22.181zm-19.841-43.752l-1.119.407h-21.774l-.916-.813c0-6.445 1.865-11.939 5.596-16.484 3.731-4.68 8.615-7.02 14.652-7.02l3.561.305v23.605zm95.683 1.323c0-7.53-1.797-14.007-5.392-19.434-3.596-5.562-8.378-9.293-14.347-11.192l-29.202 10.683.102-1.627c0-.679-.204-1.425-.611-2.239a9.578 9.578 0 00-1.628-2.442 13.27 13.27 0 00-2.136-2.238 20.278 20.278 0 00-2.442-1.934 51.418 51.418 0 01-15.262 7.428l2.747 3.052v57.081l-1.832 5.291h21.469l-.407-3.256V38.824l14.652-6.105c6.308 2.714 11.057 6.987 14.245 12.82 2.645 4.884 3.968 10.548 3.968 16.993 0 5.765-1.221 11.667-3.663 17.704-2.442 5.97-5.8 11.43-10.073 16.381h22.995l2.747-7.02-10.276 2.34-3.969-.305-.305-1.018c8.208-8.886 13.465-15.839 15.771-20.858 1.9-4.002 2.849-9.191 2.849-15.568zm74.802 4.172c0-9.632-2.917-17.84-8.75-24.623-5.766-6.783-12.719-10.175-20.859-10.175-3.256.203-7.156.407-11.701.61-4.545.204-9.361.306-14.448.306h-13.227v72.14a257.64 257.64 0 015.799-.916c4.274-.61 7.563-.916 9.87-.916l4.68.203a18.824 18.824 0 005.189 1.323c1.832.204 3.833.305 6.004.305h4.069c10.447 0 18.756-3.9 24.929-11.7 5.63-7.191 8.445-16.043 8.445-26.557zm-19.027-1.832c0 11.396-1.628 19.841-4.884 25.336-4.002 6.715-10.887 10.073-20.655 10.073-.949 0-2.17-.17-3.663-.509a9.792 9.792 0 00-.712-.203 7.215 7.215 0 01-.916-.306V28.446c.136-.34.441-.543.916-.61a7.11 7.11 0 011.73-.204h7.326c5.833 0 10.683 2.374 14.55 7.122 4.205 5.223 6.308 12.481 6.308 21.774z" fill="url(#paint0_linear_602_2)"/><path d="M470.726 33.202c6.472 4.247 16.381 13.347 14.561 35.794m59.34-39.399c5.809 5.116 14.338 15.52 9.376 37.488M373.575 39.666c-4.247 3.64-12.134 16.38-10.314 34.581m41.748-39.655v53.995m102.346-56.422V86.16M433.02 34.592v53.995M239.29 91.62h-6.067m206.941 0h-6.067M148.893 35.805c2.225 9.1 5.339 32.519 0 53.389m35.795-38.222l16.987 33.975M8.749 33.985v52.782m80.689-50.962c6.615 1.618 26.088 4.854 38.221 16.987m98.89-20.627v58.242m64.263-58.242v58.242" stroke="#FFE57F" stroke-width="1.213" stroke-linecap="round" stroke-linejoin="round"/><defs><linearGradient id="paint0_linear_602_2" x1="-99.242" y1="58.859" x2="725.246" y2="58.859" gradientUnits="userSpaceOnUse"><stop stop-color="#F9A400" stop-opacity=".5"/><stop offset=".519" stop-color="#FFDB7D" stop-opacity=".979"/><stop offset="1" stop-color="#F9A400" stop-opacity=".5"/></linearGradient></defs></svg>